G04 #@! TF.FileFunction,Copper,L1,Top,Signal*
%FSLAX46Y46*%
G04 Gerber Fmt 4.6, Leading zero omitted, Abs format (unit mm)*
G04 Created by KiCad (PCBNEW 4.0.6) date Wed May  3 19:00:56 2017*
%MOMM*%
%LPD*%
G01*
G04 APERTURE LIST*
%ADD10C,0.050000*%
%ADD11C,0.241300*%
%ADD12R,1.200000X0.750000*%
%ADD13R,1.500000X1.250000*%
%ADD14R,1.000000X1.600000*%
%ADD15R,0.750000X1.200000*%
%ADD16R,1.200000X1.200000*%
%ADD17R,3.000000X3.000000*%
%ADD18R,1.200000X0.900000*%
%ADD19R,0.900000X1.200000*%
%ADD20R,2.180000X1.600000*%
%ADD21R,1.560000X0.650000*%
%ADD22R,0.250000X1.300000*%
%ADD23R,1.300000X0.250000*%
%ADD24R,4.500000X2.000000*%
%ADD25R,1.500000X1.500000*%
%ADD26R,2.000000X1.600000*%
%ADD27R,2.000000X1.700000*%
%ADD28R,1.700000X2.000000*%
%ADD29R,1.060000X0.650000*%
%ADD30R,0.700000X1.300000*%
%ADD31R,1.900000X2.375000*%
%ADD32R,1.900000X1.175000*%
%ADD33R,1.900000X1.147000*%
%ADD34R,1.380000X0.381000*%
%ADD35R,1.700000X1.700000*%
%ADD36O,1.700000X1.700000*%
%ADD37R,0.800000X0.900000*%
%ADD38C,1.041400*%
%ADD39C,1.066800*%
%ADD40C,1.143000*%
%ADD41C,0.635000*%
%ADD42C,0.254000*%
%ADD43C,0.279400*%
%ADD44C,0.406400*%
%ADD45C,0.304800*%
%ADD46C,0.508000*%
%ADD47C,0.381000*%
%ADD48C,0.292100*%
%ADD49C,0.457200*%
%ADD50C,0.355600*%
%ADD51C,0.330200*%
G04 APERTURE END LIST*
D10*
D11*
X79685848Y-91494126D02*
X79777771Y-91540088D01*
X79961619Y-91540088D01*
X80053543Y-91494126D01*
X80099505Y-91402202D01*
X80099505Y-91356240D01*
X80053543Y-91264317D01*
X79961619Y-91218355D01*
X79823733Y-91218355D01*
X79731810Y-91172393D01*
X79685848Y-91080469D01*
X79685848Y-91034507D01*
X79731810Y-90942583D01*
X79823733Y-90896621D01*
X79961619Y-90896621D01*
X80053543Y-90942583D01*
X80651047Y-91540088D02*
X80559123Y-91494126D01*
X80513162Y-91402202D01*
X80513162Y-90574888D01*
X81432400Y-91540088D02*
X81432400Y-91034507D01*
X81386438Y-90942583D01*
X81294514Y-90896621D01*
X81110666Y-90896621D01*
X81018743Y-90942583D01*
X81432400Y-91494126D02*
X81340476Y-91540088D01*
X81110666Y-91540088D01*
X81018743Y-91494126D01*
X80972781Y-91402202D01*
X80972781Y-91310279D01*
X81018743Y-91218355D01*
X81110666Y-91172393D01*
X81340476Y-91172393D01*
X81432400Y-91126431D01*
X81892019Y-90896621D02*
X81892019Y-91861821D01*
X81892019Y-90942583D02*
X81983942Y-90896621D01*
X82167790Y-90896621D01*
X82259714Y-90942583D01*
X82305676Y-90988545D01*
X82351638Y-91080469D01*
X82351638Y-91356240D01*
X82305676Y-91448164D01*
X82259714Y-91494126D01*
X82167790Y-91540088D01*
X81983942Y-91540088D01*
X81892019Y-91494126D01*
X83178952Y-91540088D02*
X83178952Y-91034507D01*
X83132990Y-90942583D01*
X83041066Y-90896621D01*
X82857218Y-90896621D01*
X82765295Y-90942583D01*
X83178952Y-91494126D02*
X83087028Y-91540088D01*
X82857218Y-91540088D01*
X82765295Y-91494126D01*
X82719333Y-91402202D01*
X82719333Y-91310279D01*
X82765295Y-91218355D01*
X82857218Y-91172393D01*
X83087028Y-91172393D01*
X83178952Y-91126431D01*
X83638571Y-91540088D02*
X83638571Y-90574888D01*
X83638571Y-90942583D02*
X83730494Y-90896621D01*
X83914342Y-90896621D01*
X84006266Y-90942583D01*
X84052228Y-90988545D01*
X84098190Y-91080469D01*
X84098190Y-91356240D01*
X84052228Y-91448164D01*
X84006266Y-91494126D01*
X83914342Y-91540088D01*
X83730494Y-91540088D01*
X83638571Y-91494126D01*
X79639886Y-92585721D02*
X79869695Y-93229188D01*
X80099505Y-92585721D01*
X80972780Y-93229188D02*
X80421238Y-93229188D01*
X80697009Y-93229188D02*
X80697009Y-92263988D01*
X80605085Y-92401874D01*
X80513161Y-92493798D01*
X80421238Y-92539760D01*
X82075866Y-92355912D02*
X82121828Y-92309950D01*
X82213751Y-92263988D01*
X82443561Y-92263988D01*
X82535485Y-92309950D01*
X82581447Y-92355912D01*
X82627408Y-92447836D01*
X82627408Y-92539760D01*
X82581447Y-92677645D01*
X82029904Y-93229188D01*
X82627408Y-93229188D01*
X83224913Y-92263988D02*
X83316837Y-92263988D01*
X83408761Y-92309950D01*
X83454723Y-92355912D01*
X83500685Y-92447836D01*
X83546646Y-92631683D01*
X83546646Y-92861493D01*
X83500685Y-93045340D01*
X83454723Y-93137264D01*
X83408761Y-93183226D01*
X83316837Y-93229188D01*
X83224913Y-93229188D01*
X83132989Y-93183226D01*
X83087027Y-93137264D01*
X83041066Y-93045340D01*
X82995104Y-92861493D01*
X82995104Y-92631683D01*
X83041066Y-92447836D01*
X83087027Y-92355912D01*
X83132989Y-92309950D01*
X83224913Y-92263988D01*
X84465884Y-93229188D02*
X83914342Y-93229188D01*
X84190113Y-93229188D02*
X84190113Y-92263988D01*
X84098189Y-92401874D01*
X84006265Y-92493798D01*
X83914342Y-92539760D01*
X84787618Y-92263988D02*
X85431084Y-92263988D01*
X85017427Y-93229188D01*
D12*
X83754000Y-115824000D03*
X81854000Y-115824000D03*
X100904000Y-110236000D03*
X102804000Y-110236000D03*
D13*
X81300000Y-117602000D03*
X83800000Y-117602000D03*
D12*
X106614000Y-110236000D03*
X104714000Y-110236000D03*
X93792000Y-120142000D03*
X95692000Y-120142000D03*
D14*
X84050000Y-110236000D03*
X81050000Y-110236000D03*
D12*
X83754000Y-112268000D03*
X81854000Y-112268000D03*
X93914000Y-125476000D03*
X92014000Y-125476000D03*
D15*
X89916000Y-104074000D03*
X89916000Y-102174000D03*
D12*
X106238000Y-117348000D03*
X108138000Y-117348000D03*
D16*
X83661208Y-132585382D03*
X81461208Y-132585382D03*
X94996000Y-102278000D03*
X94996000Y-104478000D03*
X107866000Y-91694000D03*
X110066000Y-91694000D03*
D17*
X111252000Y-102616000D03*
X100330000Y-95758000D03*
D18*
X83650000Y-130556000D03*
X81450000Y-130556000D03*
D19*
X93218000Y-104478000D03*
X93218000Y-102278000D03*
D18*
X88984000Y-125476000D03*
X86784000Y-125476000D03*
X88984000Y-123952000D03*
X86784000Y-123952000D03*
X87968000Y-111506000D03*
X85768000Y-111506000D03*
X101938000Y-134112000D03*
X99738000Y-134112000D03*
X94996000Y-134112000D03*
X97196000Y-134112000D03*
X106002000Y-135636000D03*
X103802000Y-135636000D03*
D19*
X108712000Y-135720000D03*
X108712000Y-133520000D03*
X88392000Y-102278000D03*
X88392000Y-104478000D03*
X91440000Y-104478000D03*
X91440000Y-102278000D03*
D18*
X107866000Y-94234000D03*
X110066000Y-94234000D03*
D19*
X104140000Y-91864000D03*
X104140000Y-94064000D03*
D20*
X85275200Y-137617200D03*
X94455200Y-137617200D03*
D21*
X90264000Y-127320000D03*
X90264000Y-128270000D03*
X90264000Y-129220000D03*
X92964000Y-129220000D03*
X92964000Y-127320000D03*
X92964000Y-128270000D03*
D22*
X105112000Y-119094000D03*
X104612000Y-119094000D03*
X104112000Y-119094000D03*
X103612000Y-119094000D03*
X103112000Y-119094000D03*
X102612000Y-119094000D03*
X102112000Y-119094000D03*
X101612000Y-119094000D03*
X101112000Y-119094000D03*
X100612000Y-119094000D03*
X100112000Y-119094000D03*
X99612000Y-119094000D03*
D23*
X98012000Y-120694000D03*
X98012000Y-121194000D03*
X98012000Y-121694000D03*
X98012000Y-122194000D03*
X98012000Y-122694000D03*
X98012000Y-123194000D03*
X98012000Y-123694000D03*
X98012000Y-124194000D03*
X98012000Y-124694000D03*
X98012000Y-125194000D03*
X98012000Y-125694000D03*
X98012000Y-126194000D03*
D22*
X99612000Y-127794000D03*
X100112000Y-127794000D03*
X100612000Y-127794000D03*
X101112000Y-127794000D03*
X101612000Y-127794000D03*
X102112000Y-127794000D03*
X102612000Y-127794000D03*
X103112000Y-127794000D03*
X103612000Y-127794000D03*
X104112000Y-127794000D03*
X104612000Y-127794000D03*
X105112000Y-127794000D03*
D23*
X106712000Y-126194000D03*
X106712000Y-125694000D03*
X106712000Y-125194000D03*
X106712000Y-124694000D03*
X106712000Y-124194000D03*
X106712000Y-123694000D03*
X106712000Y-123194000D03*
X106712000Y-122694000D03*
X106712000Y-122194000D03*
X106712000Y-121694000D03*
X106712000Y-121194000D03*
X106712000Y-120694000D03*
D24*
X99704000Y-113792000D03*
X108204000Y-113792000D03*
D18*
X99144000Y-99060000D03*
X96944000Y-99060000D03*
D19*
X109410500Y-121623000D03*
X109410500Y-119423000D03*
D25*
X98680000Y-91694000D03*
X101980000Y-91694000D03*
D26*
X106458000Y-129540000D03*
X110458000Y-129540000D03*
D27*
X106394000Y-131826000D03*
X102394000Y-131826000D03*
D28*
X86360000Y-121634000D03*
X86360000Y-117634000D03*
D29*
X86022000Y-113350000D03*
X86022000Y-114300000D03*
X86022000Y-115250000D03*
X88222000Y-115250000D03*
X88222000Y-113350000D03*
D28*
X93726000Y-117570000D03*
X93726000Y-113570000D03*
X89916000Y-107220000D03*
X89916000Y-111220000D03*
D30*
X95692000Y-122174000D03*
X93792000Y-122174000D03*
X101788000Y-135636000D03*
X99888000Y-135636000D03*
D31*
X79375000Y-122047000D03*
X79375000Y-128143000D03*
D32*
X79375000Y-124206000D03*
X79375000Y-125984000D03*
D33*
X81534000Y-122682000D03*
X81534000Y-127508000D03*
D34*
X81788000Y-123825000D03*
X81788000Y-124460000D03*
X81788000Y-125095000D03*
X81788000Y-125730000D03*
X81788000Y-126365000D03*
D20*
X85326000Y-98298000D03*
X94506000Y-98298000D03*
D35*
X108712000Y-138176000D03*
D36*
X106172000Y-138176000D03*
X103632000Y-138176000D03*
X101092000Y-138176000D03*
X98552000Y-138176000D03*
D28*
X86106000Y-128302000D03*
X86106000Y-132302000D03*
D37*
X107000000Y-98520000D03*
X108900000Y-98520000D03*
X107950000Y-96520000D03*
D18*
X107358000Y-100330000D03*
X109558000Y-100330000D03*
D38*
X106807000Y-92710000D03*
X97536000Y-93472000D03*
D39*
X101028500Y-117030500D03*
D40*
X95250000Y-139339000D03*
D41*
X86022000Y-113350000D02*
X85185498Y-113350000D01*
X85185498Y-113350000D02*
X84008000Y-114527498D01*
X84008000Y-114527498D02*
X84008000Y-114814000D01*
X84008000Y-114814000D02*
X84008000Y-115824000D01*
X86022000Y-115250000D02*
X86022000Y-115824000D01*
X86022000Y-115824000D02*
X86022000Y-117296000D01*
X84008000Y-115824000D02*
X86022000Y-115824000D01*
X83800000Y-117602000D02*
X86328000Y-117602000D01*
X86328000Y-117602000D02*
X86360000Y-117634000D01*
X86022000Y-117296000D02*
X86360000Y-117634000D01*
D42*
X104612000Y-127794000D02*
X104612000Y-126274000D01*
X104612000Y-126274000D02*
X104648000Y-126238000D01*
X104648000Y-126238000D02*
X104648000Y-126672000D01*
X104648000Y-126672000D02*
X104521000Y-126799000D01*
X98012000Y-125694000D02*
X99786000Y-125694000D01*
X99786000Y-125694000D02*
X99822000Y-125730000D01*
X99822000Y-125730000D02*
X99134000Y-125730000D01*
X99134000Y-125730000D02*
X99007000Y-125603000D01*
X79375000Y-122047000D02*
X80899000Y-122047000D01*
X80899000Y-122047000D02*
X81534000Y-122682000D01*
X101193600Y-117906800D02*
X99822000Y-117906800D01*
X101600000Y-118313200D02*
X101193600Y-117906800D01*
X101612000Y-119094000D02*
X101600000Y-119082000D01*
X101600000Y-119082000D02*
X101600000Y-118313200D01*
X109410500Y-119423000D02*
X108706500Y-119423000D01*
X108706500Y-119423000D02*
X108597100Y-119532400D01*
X106712000Y-121194000D02*
X107977500Y-121194000D01*
X107977500Y-121194000D02*
X108013500Y-121158000D01*
X81534000Y-127508000D02*
X80010000Y-127508000D01*
X80010000Y-127508000D02*
X79375000Y-128143000D01*
X81788000Y-126365000D02*
X81788000Y-127254000D01*
X81788000Y-127254000D02*
X81534000Y-127508000D01*
X81788000Y-126365000D02*
X82732000Y-126365000D01*
X82732000Y-126365000D02*
X82757400Y-126339600D01*
D43*
X91567000Y-128513600D02*
X91567000Y-130302000D01*
X90264000Y-128270000D02*
X91323400Y-128270000D01*
X91323400Y-128270000D02*
X91567000Y-128513600D01*
D41*
X100904000Y-110236000D02*
X100904000Y-112592000D01*
X100904000Y-112592000D02*
X99704000Y-113792000D01*
D43*
X102612000Y-117090000D02*
X100330000Y-114808000D01*
X100330000Y-114808000D02*
X100212000Y-114690000D01*
D44*
X99704000Y-113792000D02*
X99704000Y-114182000D01*
X99704000Y-114182000D02*
X100330000Y-114808000D01*
D43*
X102612000Y-119094000D02*
X102612000Y-117090000D01*
D44*
X100208000Y-113288000D02*
X99704000Y-113792000D01*
D41*
X106614000Y-110236000D02*
X106614000Y-112202000D01*
X106614000Y-112202000D02*
X108204000Y-113792000D01*
D43*
X103112000Y-117106000D02*
X105918000Y-114300000D01*
D44*
X108204000Y-113792000D02*
X106426000Y-113792000D01*
X106426000Y-113792000D02*
X105918000Y-114300000D01*
D43*
X103112000Y-119094000D02*
X103112000Y-117106000D01*
D41*
X84050000Y-110236000D02*
X84050000Y-111023000D01*
X84050000Y-111023000D02*
X84533000Y-111506000D01*
X84074000Y-112268000D02*
X84074000Y-111965000D01*
X84074000Y-111965000D02*
X84533000Y-111506000D01*
X84533000Y-111506000D02*
X85768000Y-111506000D01*
X83754000Y-112268000D02*
X84074000Y-112268000D01*
X106807000Y-92710000D02*
X106850000Y-92710000D01*
X106850000Y-92710000D02*
X107866000Y-91694000D01*
X97536000Y-93472000D02*
X98680000Y-92328000D01*
X95250000Y-95758000D02*
X97536000Y-93472000D01*
D43*
X105537000Y-127773400D02*
X105537000Y-127000000D01*
D42*
X105112000Y-127298000D02*
X105410000Y-127000000D01*
D43*
X105537000Y-127000000D02*
X105537000Y-120523000D01*
D42*
X105410000Y-127000000D02*
X105537000Y-127000000D01*
X105112000Y-127794000D02*
X105112000Y-127298000D01*
X105516400Y-127794000D02*
X105112000Y-127794000D01*
D45*
X106414000Y-120396000D02*
X105664000Y-120396000D01*
X105664000Y-120396000D02*
X104902000Y-120396000D01*
D43*
X105537000Y-120523000D02*
X105664000Y-120396000D01*
X105516400Y-127794000D02*
X105537000Y-127773400D01*
D46*
X86106000Y-132302000D02*
X86392000Y-132302000D01*
X86392000Y-132302000D02*
X86868000Y-131826000D01*
X86868000Y-131826000D02*
X102394000Y-131826000D01*
D45*
X96520000Y-119888000D02*
X95758000Y-119888000D01*
X94742000Y-121176800D02*
X94742000Y-123952000D01*
X95758000Y-119888000D02*
X95758000Y-120160800D01*
X94742000Y-123952000D02*
X96984000Y-126194000D01*
X95758000Y-120160800D02*
X94742000Y-121176800D01*
X96984000Y-126194000D02*
X97057200Y-126194000D01*
X97057200Y-126194000D02*
X98012000Y-126194000D01*
X96520000Y-119888000D02*
X98806000Y-119888000D01*
X96520000Y-119888000D02*
X95946000Y-119888000D01*
X95946000Y-119888000D02*
X95692000Y-120142000D01*
D41*
X95692000Y-120142000D02*
X95692000Y-118298000D01*
X95692000Y-118298000D02*
X94964000Y-117570000D01*
X94964000Y-117570000D02*
X93726000Y-117570000D01*
X85233982Y-98169386D02*
X91060614Y-98169386D01*
X91060614Y-98169386D02*
X93472000Y-95758000D01*
X93472000Y-95758000D02*
X95250000Y-95758000D01*
X87968000Y-111506000D02*
X89630000Y-111506000D01*
X89630000Y-111506000D02*
X89916000Y-111220000D01*
X89916000Y-111220000D02*
X90678000Y-111220000D01*
X90678000Y-111220000D02*
X90964000Y-111506000D01*
X93726000Y-113538000D02*
X92996000Y-113538000D01*
X92996000Y-113538000D02*
X90964000Y-111506000D01*
X90964000Y-111506000D02*
X87968000Y-111506000D01*
X85233982Y-101743982D02*
X89154000Y-105664000D01*
X89154000Y-105664000D02*
X89916000Y-106426000D01*
X88392000Y-104478000D02*
X88392000Y-104902000D01*
X88392000Y-104902000D02*
X89154000Y-105664000D01*
X85233982Y-98169386D02*
X85233982Y-101743982D01*
X89916000Y-106426000D02*
X89916000Y-107220000D01*
X88222000Y-113350000D02*
X88222000Y-111760000D01*
X88222000Y-111760000D02*
X87968000Y-111506000D01*
D46*
X83661208Y-132585382D02*
X85822618Y-132585382D01*
X85822618Y-132585382D02*
X86106000Y-132302000D01*
X102394000Y-131826000D02*
X102394000Y-131604000D01*
D45*
X100838000Y-135062000D02*
X100838000Y-136719919D01*
X100838000Y-136719919D02*
X101092000Y-136973919D01*
X101092000Y-136973919D02*
X101092000Y-138176000D01*
X101938000Y-134112000D02*
X101788000Y-134112000D01*
X101788000Y-134112000D02*
X100838000Y-135062000D01*
D44*
X101938000Y-134112000D02*
X101686238Y-134112000D01*
D41*
X102394000Y-131826000D02*
X102394000Y-133656000D01*
D44*
X102394000Y-133656000D02*
X101938000Y-134112000D01*
D41*
X106458000Y-129540000D02*
X106458000Y-131762000D01*
D44*
X106458000Y-131762000D02*
X106394000Y-131826000D01*
D45*
X104902000Y-120396000D02*
X101092000Y-120396000D01*
D47*
X106172000Y-128778000D02*
X106172000Y-128342000D01*
X106172000Y-129794000D02*
X106172000Y-128778000D01*
X106172000Y-128342000D02*
X105624000Y-127794000D01*
D44*
X98680000Y-91694000D02*
X98680000Y-92328000D01*
D42*
X106712000Y-120694000D02*
X106414000Y-120396000D01*
D45*
X101092000Y-120396000D02*
X101092000Y-120232098D01*
X101092000Y-120232098D02*
X101112000Y-120212098D01*
X99314000Y-120396000D02*
X101092000Y-120396000D01*
D42*
X101112000Y-120212098D02*
X101112000Y-119094000D01*
D45*
X98806000Y-119888000D02*
X99314000Y-120396000D01*
D47*
X106238000Y-117348000D02*
X106238000Y-118104000D01*
X106238000Y-118104000D02*
X106712000Y-118578000D01*
D43*
X106712000Y-118578000D02*
X106712000Y-120678499D01*
X88392000Y-102278000D02*
X88392000Y-102550000D01*
X88392000Y-102550000D02*
X89916000Y-104074000D01*
D41*
X91440000Y-102278000D02*
X90066000Y-102278000D01*
X90066000Y-102278000D02*
X89916000Y-102428000D01*
X94413982Y-98169386D02*
X91440000Y-101143368D01*
X91440000Y-101143368D02*
X91440000Y-102362000D01*
X94413982Y-98169386D02*
X96137386Y-98169386D01*
X96137386Y-98169386D02*
X96774000Y-98806000D01*
D44*
X94413982Y-98169386D02*
X94063213Y-98520155D01*
D41*
X81450000Y-130556000D02*
X81450000Y-132574174D01*
D46*
X81450000Y-132574174D02*
X81461208Y-132585382D01*
D48*
X110994000Y-123694000D02*
X111510000Y-123694000D01*
X111510000Y-123694000D02*
X112522000Y-122682000D01*
X112522000Y-109705790D02*
X103146210Y-100330000D01*
X112522000Y-122682000D02*
X112522000Y-109705790D01*
X94996000Y-101322400D02*
X94996000Y-102278000D01*
X103146210Y-100330000D02*
X95988400Y-100330000D01*
X95988400Y-100330000D02*
X94996000Y-101322400D01*
X110994000Y-123694000D02*
X110998000Y-123698000D01*
X106712000Y-123694000D02*
X110994000Y-123694000D01*
D45*
X94996000Y-104478000D02*
X93218000Y-102700000D01*
D49*
X93218000Y-102700000D02*
X93218000Y-102278000D01*
D48*
X109982000Y-104140000D02*
X109982000Y-103886000D01*
X109982000Y-103886000D02*
X111252000Y-102616000D01*
X109982000Y-100330000D02*
X109982000Y-104140000D01*
X109982000Y-104140000D02*
X114808000Y-108966000D01*
X114808000Y-108966000D02*
X114808000Y-123190000D01*
X114808000Y-123190000D02*
X112804000Y-125194000D01*
X112804000Y-125194000D02*
X111986000Y-125194000D01*
X111986000Y-125194000D02*
X106712000Y-125194000D01*
D45*
X110066000Y-91694000D02*
X110066000Y-94234000D01*
D44*
X85090000Y-124460000D02*
X85598000Y-123952000D01*
X85598000Y-123952000D02*
X86784000Y-123952000D01*
X81788000Y-124460000D02*
X85090000Y-124460000D01*
X81788000Y-125095000D02*
X85217000Y-125095000D01*
X85598000Y-125476000D02*
X86784000Y-125476000D01*
X85217000Y-125095000D02*
X85598000Y-125476000D01*
X86784000Y-125476000D02*
X86530000Y-125730000D01*
D41*
X86106000Y-127424000D02*
X86106000Y-126154000D01*
X86106000Y-126154000D02*
X86784000Y-125476000D01*
X106002000Y-135636000D02*
X106002000Y-138006000D01*
D43*
X106002000Y-138006000D02*
X106172000Y-138176000D01*
D41*
X101938000Y-135636000D02*
X101938000Y-136482000D01*
X101938000Y-136482000D02*
X103632000Y-138176000D01*
D48*
X106712000Y-124694000D02*
X112288000Y-124694000D01*
X114046000Y-122936000D02*
X114046000Y-109220000D01*
X114046000Y-109220000D02*
X106172000Y-101346000D01*
X106172000Y-101346000D02*
X102870000Y-98044000D01*
X100584000Y-95758000D02*
X102870000Y-98044000D01*
X112776000Y-124206000D02*
X114046000Y-122936000D01*
X112288000Y-124694000D02*
X112776000Y-124206000D01*
D46*
X104140000Y-93980000D02*
X104056000Y-94064000D01*
X104056000Y-94064000D02*
X102024000Y-94064000D01*
D44*
X100330000Y-95758000D02*
X100584000Y-95758000D01*
D46*
X102024000Y-94064000D02*
X101980000Y-94020000D01*
X101980000Y-94020000D02*
X101980000Y-91694000D01*
X102024000Y-94064000D02*
X100330000Y-95758000D01*
D44*
X101980000Y-91694000D02*
X101980000Y-94108000D01*
X101980000Y-94108000D02*
X100330000Y-95758000D01*
X101430000Y-91144000D02*
X101980000Y-91694000D01*
D50*
X90264000Y-129220000D02*
X89128400Y-129220000D01*
X89128400Y-129220000D02*
X88646000Y-128737600D01*
X88646000Y-128737600D02*
X88646000Y-125730000D01*
X88646000Y-125730000D02*
X88900000Y-125476000D01*
X88900000Y-125476000D02*
X88950000Y-125476000D01*
X88950000Y-125476000D02*
X88984000Y-125476000D01*
D51*
X88984000Y-123952000D02*
X89914200Y-123952000D01*
X89916000Y-127000000D02*
X90236000Y-127320000D01*
X89914200Y-123952000D02*
X90424000Y-124461800D01*
X90424000Y-124461800D02*
X90424000Y-126492000D01*
X90424000Y-126492000D02*
X89916000Y-127000000D01*
X90236000Y-127320000D02*
X90264000Y-127320000D01*
X88984000Y-123952000D02*
X89408000Y-123952000D01*
D45*
X95842000Y-123444000D02*
X95842000Y-122174000D01*
X95842000Y-123444000D02*
X96592000Y-124194000D01*
X96592000Y-124194000D02*
X98012000Y-124194000D01*
D43*
X106712000Y-122694000D02*
X108393400Y-122694000D01*
X108393400Y-122694000D02*
X109347000Y-121740400D01*
X109347000Y-121740400D02*
X109347000Y-121666000D01*
X101328499Y-117330499D02*
X101028500Y-117030500D01*
X102112000Y-118114000D02*
X101328499Y-117330499D01*
X102112000Y-119094000D02*
X102112000Y-118114000D01*
D41*
X95014000Y-137668000D02*
X95014000Y-139103000D01*
X95014000Y-139103000D02*
X95250000Y-139339000D01*
X95014000Y-137668000D02*
X95014000Y-136461600D01*
X98731600Y-135636000D02*
X99738000Y-135636000D01*
X95839600Y-135636000D02*
X98731600Y-135636000D01*
X95014000Y-136461600D02*
X95839600Y-135636000D01*
X99738000Y-134112000D02*
X99738000Y-135636000D01*
D44*
X94996000Y-134112000D02*
X94996000Y-134366000D01*
D41*
X94996000Y-134366000D02*
X91694000Y-137668000D01*
X91694000Y-137668000D02*
X85834000Y-137668000D01*
D42*
X104147299Y-128715761D02*
X104129761Y-128715761D01*
X104129761Y-128715761D02*
X104112000Y-128698000D01*
X104112000Y-128698000D02*
X104112000Y-127794000D01*
D43*
X104394000Y-128962462D02*
X104394000Y-135044000D01*
X104147299Y-128715761D02*
X104394000Y-128962462D01*
X104394000Y-135044000D02*
X103802000Y-135636000D01*
X108712000Y-133520000D02*
X108458000Y-133266000D01*
X108458000Y-133266000D02*
X108458000Y-127415000D01*
X108458000Y-127415000D02*
X107237000Y-126194000D01*
X107237000Y-126194000D02*
X106712000Y-126194000D01*
D48*
X106712000Y-124194000D02*
X112026000Y-124194000D01*
X112026000Y-124194000D02*
X113284000Y-122936000D01*
X113284000Y-122936000D02*
X113284000Y-109474000D01*
X113284000Y-109474000D02*
X104394000Y-100584000D01*
X104394000Y-100584000D02*
X103632000Y-99822000D01*
X103632000Y-99822000D02*
X102870000Y-99060000D01*
X102870000Y-99060000D02*
X99060000Y-99060000D01*
D42*
X103612000Y-127782000D02*
X103612000Y-127794000D01*
X103616000Y-129153210D02*
X103616000Y-127778000D01*
X102975210Y-129794000D02*
X103616000Y-129153210D01*
X103616000Y-127778000D02*
X103612000Y-127782000D01*
X98446790Y-129794000D02*
X102975210Y-129794000D01*
X97176790Y-128524000D02*
X98446790Y-129794000D01*
X94830000Y-128524000D02*
X97176790Y-128524000D01*
X94134000Y-129220000D02*
X94830000Y-128524000D01*
X92964000Y-129220000D02*
X94134000Y-129220000D01*
X103124000Y-127762000D02*
X103112000Y-127774000D01*
X98657210Y-129286000D02*
X102764790Y-129286000D01*
X94134000Y-127320000D02*
X94830000Y-128016000D01*
X94830000Y-128016000D02*
X97387210Y-128016000D01*
X92964000Y-127320000D02*
X94134000Y-127320000D01*
X102764790Y-129286000D02*
X103124000Y-128926790D01*
X103124000Y-128926790D02*
X103124000Y-127762000D01*
X97387210Y-128016000D02*
X98657210Y-129286000D01*
X103112000Y-127774000D02*
X103112000Y-127794000D01*
D41*
X108712000Y-135720000D02*
X108712000Y-138176000D01*
D43*
X108946000Y-138176000D02*
X108712000Y-138176000D01*
D44*
X86360000Y-121634000D02*
X88699400Y-121634000D01*
X88699400Y-121634000D02*
X92014000Y-124948600D01*
X92014000Y-124948600D02*
X92014000Y-125730000D01*
D43*
X91694000Y-126050000D02*
X91694000Y-127762000D01*
X91694000Y-127762000D02*
X92202000Y-128270000D01*
X92202000Y-128270000D02*
X92964000Y-128270000D01*
D44*
X81788000Y-123825000D02*
X82884400Y-123825000D01*
X82884400Y-123825000D02*
X85075400Y-121634000D01*
X85075400Y-121634000D02*
X86360000Y-121634000D01*
D47*
X92014000Y-125730000D02*
X91694000Y-126050000D01*
D45*
X107358000Y-100330000D02*
X107358000Y-99992000D01*
X107358000Y-99992000D02*
X107000000Y-99634000D01*
X107000000Y-99634000D02*
X107000000Y-98520000D01*
X107866000Y-94234000D02*
X107866000Y-96436000D01*
X107866000Y-96436000D02*
X107950000Y-96520000D01*
D42*
G36*
X115037800Y-108342676D02*
X111277281Y-104582157D01*
X112752000Y-104582157D01*
X112921428Y-104550277D01*
X113077038Y-104450145D01*
X113181430Y-104297361D01*
X113218157Y-104116000D01*
X113218157Y-101116000D01*
X113186277Y-100946572D01*
X113086145Y-100790962D01*
X112933361Y-100686570D01*
X112752000Y-100649843D01*
X110624157Y-100649843D01*
X110624157Y-99880000D01*
X110592277Y-99710572D01*
X110492145Y-99554962D01*
X110339361Y-99450570D01*
X110158000Y-99413843D01*
X109754182Y-99413843D01*
X109838327Y-99329698D01*
X109935000Y-99096309D01*
X109935000Y-99060000D01*
X111675839Y-99060000D01*
X111759584Y-99481013D01*
X111998069Y-99837931D01*
X112354987Y-100076416D01*
X112776000Y-100160161D01*
X113197013Y-100076416D01*
X113553931Y-99837931D01*
X113792416Y-99481013D01*
X113876161Y-99060000D01*
X113792416Y-98638987D01*
X113553931Y-98282069D01*
X113197013Y-98043584D01*
X112776000Y-97959839D01*
X112354987Y-98043584D01*
X111998069Y-98282069D01*
X111759584Y-98638987D01*
X111675839Y-99060000D01*
X109935000Y-99060000D01*
X109935000Y-98805750D01*
X109776250Y-98647000D01*
X109027000Y-98647000D01*
X109027000Y-98667000D01*
X108773000Y-98667000D01*
X108773000Y-98647000D01*
X108753000Y-98647000D01*
X108753000Y-98393000D01*
X108773000Y-98393000D01*
X108773000Y-98373000D01*
X109027000Y-98373000D01*
X109027000Y-98393000D01*
X109776250Y-98393000D01*
X109935000Y-98234250D01*
X109935000Y-97943691D01*
X109838327Y-97710302D01*
X109779137Y-97651112D01*
X109816553Y-97627035D01*
X109844994Y-97585410D01*
X109855000Y-97536000D01*
X109855000Y-96012000D01*
X109846315Y-95965841D01*
X109819035Y-95923447D01*
X109777410Y-95895006D01*
X109728000Y-95885000D01*
X108774257Y-95885000D01*
X108684145Y-95744962D01*
X108531361Y-95640570D01*
X108475600Y-95629278D01*
X108475600Y-95148351D01*
X108610327Y-95123000D01*
X109331896Y-95123000D01*
X109466000Y-95150157D01*
X110666000Y-95150157D01*
X110835428Y-95118277D01*
X110991038Y-95018145D01*
X111095430Y-94865361D01*
X111132157Y-94684000D01*
X111132157Y-93784000D01*
X111100277Y-93614572D01*
X111000145Y-93458962D01*
X110847361Y-93354570D01*
X110675600Y-93319787D01*
X110675600Y-92758351D01*
X110835428Y-92728277D01*
X110991038Y-92628145D01*
X111095430Y-92475361D01*
X111132157Y-92294000D01*
X111132157Y-91094000D01*
X111100277Y-90924572D01*
X111000145Y-90768962D01*
X110847361Y-90664570D01*
X110666000Y-90627843D01*
X110079843Y-90627843D01*
X110060743Y-90599257D01*
X109558470Y-90263650D01*
X108966000Y-90145800D01*
X108373530Y-90263650D01*
X107871257Y-90599257D01*
X107852157Y-90627843D01*
X107266000Y-90627843D01*
X107096572Y-90659723D01*
X106940962Y-90759855D01*
X106836570Y-90912639D01*
X106799843Y-91094000D01*
X106799843Y-91664565D01*
X106732373Y-91732035D01*
X106613337Y-91731931D01*
X106253788Y-91880493D01*
X105978460Y-92155341D01*
X105829270Y-92514630D01*
X105828931Y-92903663D01*
X105977493Y-93263212D01*
X106252341Y-93538540D01*
X106611630Y-93687730D01*
X106819302Y-93687911D01*
X106799843Y-93784000D01*
X106799843Y-94684000D01*
X106831723Y-94853428D01*
X106931855Y-95009038D01*
X107084639Y-95113430D01*
X107256400Y-95148213D01*
X107256400Y-95715625D01*
X107224962Y-95735855D01*
X107123056Y-95885000D01*
X106426000Y-95885000D01*
X106379841Y-95893685D01*
X106337447Y-95920965D01*
X106309006Y-95962590D01*
X106299000Y-96012000D01*
X106299000Y-97720387D01*
X106274962Y-97735855D01*
X106170570Y-97888639D01*
X106133843Y-98070000D01*
X106133843Y-98970000D01*
X106165723Y-99139428D01*
X106265855Y-99295038D01*
X106390400Y-99380135D01*
X106390400Y-99608147D01*
X106328570Y-99698639D01*
X106291843Y-99880000D01*
X106291843Y-100612719D01*
X102296157Y-96617033D01*
X102296157Y-94797632D01*
X102318589Y-94775200D01*
X103244767Y-94775200D01*
X103255723Y-94833428D01*
X103355855Y-94989038D01*
X103508639Y-95093430D01*
X103690000Y-95130157D01*
X104590000Y-95130157D01*
X104759428Y-95098277D01*
X104915038Y-94998145D01*
X105019430Y-94845361D01*
X105056157Y-94664000D01*
X105056157Y-93464000D01*
X105024277Y-93294572D01*
X104924145Y-93138962D01*
X104809291Y-93060486D01*
X104949699Y-93002327D01*
X105128327Y-92823698D01*
X105225000Y-92590309D01*
X105225000Y-92149750D01*
X105066250Y-91991000D01*
X104267000Y-91991000D01*
X104267000Y-92011000D01*
X104013000Y-92011000D01*
X104013000Y-91991000D01*
X103993000Y-91991000D01*
X103993000Y-91737000D01*
X104013000Y-91737000D01*
X104013000Y-90787750D01*
X104267000Y-90787750D01*
X104267000Y-91737000D01*
X105066250Y-91737000D01*
X105225000Y-91578250D01*
X105225000Y-91137691D01*
X105128327Y-90904302D01*
X104949699Y-90725673D01*
X104716310Y-90629000D01*
X104425750Y-90629000D01*
X104267000Y-90787750D01*
X104013000Y-90787750D01*
X103854250Y-90629000D01*
X103563690Y-90629000D01*
X103330301Y-90725673D01*
X103182826Y-90873149D01*
X103164277Y-90774572D01*
X103064145Y-90618962D01*
X102911361Y-90514570D01*
X102730000Y-90477843D01*
X101967640Y-90477843D01*
X101798818Y-90225182D01*
X101124918Y-89774897D01*
X100330000Y-89616778D01*
X99535082Y-89774897D01*
X98861182Y-90225182D01*
X98692360Y-90477843D01*
X97930000Y-90477843D01*
X97760572Y-90509723D01*
X97604962Y-90609855D01*
X97500570Y-90762639D01*
X97463843Y-90944000D01*
X97463843Y-92444000D01*
X97464566Y-92447842D01*
X97418411Y-92493997D01*
X97342337Y-92493931D01*
X96982788Y-92642493D01*
X96707460Y-92917341D01*
X96558270Y-93276630D01*
X96558202Y-93354206D01*
X94929108Y-94983300D01*
X93472005Y-94983300D01*
X93472000Y-94983299D01*
X93224723Y-95032487D01*
X93175535Y-95042271D01*
X92924204Y-95210204D01*
X92924202Y-95210207D01*
X90739722Y-97394686D01*
X86862717Y-97394686D01*
X86850277Y-97328572D01*
X86750145Y-97172962D01*
X86597361Y-97068570D01*
X86416000Y-97031843D01*
X84236000Y-97031843D01*
X84066572Y-97063723D01*
X83910962Y-97163855D01*
X83806570Y-97316639D01*
X83769843Y-97498000D01*
X83769843Y-99098000D01*
X83801723Y-99267428D01*
X83901855Y-99423038D01*
X84054639Y-99527430D01*
X84236000Y-99564157D01*
X84459282Y-99564157D01*
X84459282Y-101743977D01*
X84459281Y-101743982D01*
X84500878Y-101953100D01*
X84518253Y-102040447D01*
X84582636Y-102136803D01*
X84686186Y-102291778D01*
X87476639Y-105082230D01*
X87507723Y-105247428D01*
X87607855Y-105403038D01*
X87760639Y-105507430D01*
X87937693Y-105543285D01*
X88272613Y-105878204D01*
X88602296Y-106207887D01*
X88599843Y-106220000D01*
X88599843Y-108220000D01*
X88631723Y-108389428D01*
X88731855Y-108545038D01*
X88884639Y-108649430D01*
X89066000Y-108686157D01*
X90766000Y-108686157D01*
X90935428Y-108654277D01*
X91091038Y-108554145D01*
X91195430Y-108401361D01*
X91232157Y-108220000D01*
X91232157Y-106220000D01*
X91200277Y-106050572D01*
X91100145Y-105894962D01*
X90947361Y-105790570D01*
X90766000Y-105753843D01*
X90339434Y-105753843D01*
X89725749Y-105140157D01*
X90291000Y-105140157D01*
X90355000Y-105128115D01*
X90355000Y-105204309D01*
X90451673Y-105437698D01*
X90630301Y-105616327D01*
X90863690Y-105713000D01*
X91154250Y-105713000D01*
X91313000Y-105554250D01*
X91313000Y-104605000D01*
X91567000Y-104605000D01*
X91567000Y-105554250D01*
X91725750Y-105713000D01*
X92016310Y-105713000D01*
X92249699Y-105616327D01*
X92329000Y-105537026D01*
X92408301Y-105616327D01*
X92641690Y-105713000D01*
X92932250Y-105713000D01*
X93091000Y-105554250D01*
X93091000Y-104605000D01*
X91567000Y-104605000D01*
X91313000Y-104605000D01*
X91293000Y-104605000D01*
X91293000Y-104351000D01*
X91313000Y-104351000D01*
X91313000Y-104331000D01*
X91567000Y-104331000D01*
X91567000Y-104351000D01*
X93091000Y-104351000D01*
X93091000Y-104331000D01*
X93345000Y-104331000D01*
X93345000Y-104351000D01*
X93365000Y-104351000D01*
X93365000Y-104605000D01*
X93345000Y-104605000D01*
X93345000Y-105554250D01*
X93503750Y-105713000D01*
X93794310Y-105713000D01*
X94027699Y-105616327D01*
X94168274Y-105475751D01*
X94214639Y-105507430D01*
X94396000Y-105544157D01*
X95478600Y-105544157D01*
X95478600Y-107569000D01*
X95487285Y-107615159D01*
X95514565Y-107657553D01*
X95556190Y-107685994D01*
X95605600Y-107696000D01*
X104216200Y-107696000D01*
X104262359Y-107687315D01*
X104304753Y-107660035D01*
X104333194Y-107618410D01*
X104343200Y-107569000D01*
X104343200Y-102380114D01*
X111918750Y-109955664D01*
X111918750Y-122432126D01*
X111260126Y-123090750D01*
X108840794Y-123090750D01*
X109242387Y-122689157D01*
X109860500Y-122689157D01*
X110029928Y-122657277D01*
X110185538Y-122557145D01*
X110289930Y-122404361D01*
X110326657Y-122223000D01*
X110326657Y-121023000D01*
X110294777Y-120853572D01*
X110194645Y-120697962D01*
X110079791Y-120619486D01*
X110220199Y-120561327D01*
X110398827Y-120382698D01*
X110495500Y-120149309D01*
X110495500Y-119708750D01*
X110336750Y-119550000D01*
X109537500Y-119550000D01*
X109537500Y-119570000D01*
X109283500Y-119570000D01*
X109283500Y-119550000D01*
X108484250Y-119550000D01*
X108325500Y-119708750D01*
X108325500Y-120149309D01*
X108422173Y-120382698D01*
X108600801Y-120561327D01*
X108742460Y-120620004D01*
X108635462Y-120688855D01*
X108531070Y-120841639D01*
X108494343Y-121023000D01*
X108494343Y-121748913D01*
X108146156Y-122097100D01*
X107828157Y-122097100D01*
X107828157Y-122069000D01*
X107803773Y-121939410D01*
X107828157Y-121819000D01*
X107828157Y-121750869D01*
X107900327Y-121678699D01*
X107997000Y-121445310D01*
X107997000Y-121415250D01*
X107838250Y-121256500D01*
X107704213Y-121256500D01*
X107696145Y-121243962D01*
X107623277Y-121194174D01*
X107687038Y-121153145D01*
X107701827Y-121131500D01*
X107838250Y-121131500D01*
X107997000Y-120972750D01*
X107997000Y-120942690D01*
X107900327Y-120709301D01*
X107828157Y-120637131D01*
X107828157Y-120569000D01*
X107796277Y-120399572D01*
X107696145Y-120243962D01*
X107543361Y-120139570D01*
X107362000Y-120102843D01*
X107308900Y-120102843D01*
X107308900Y-118828104D01*
X107310397Y-118825864D01*
X107359700Y-118578000D01*
X107310397Y-118330136D01*
X107297376Y-118310649D01*
X107411691Y-118358000D01*
X107852250Y-118358000D01*
X108011000Y-118199250D01*
X108011000Y-117475000D01*
X108265000Y-117475000D01*
X108265000Y-118199250D01*
X108423750Y-118358000D01*
X108527474Y-118358000D01*
X108422173Y-118463302D01*
X108325500Y-118696691D01*
X108325500Y-119137250D01*
X108484250Y-119296000D01*
X109283500Y-119296000D01*
X109283500Y-118346750D01*
X109537500Y-118346750D01*
X109537500Y-119296000D01*
X110336750Y-119296000D01*
X110495500Y-119137250D01*
X110495500Y-118696691D01*
X110398827Y-118463302D01*
X110220199Y-118284673D01*
X109986810Y-118188000D01*
X109696250Y-118188000D01*
X109537500Y-118346750D01*
X109283500Y-118346750D01*
X109147888Y-118211138D01*
X109276327Y-118082699D01*
X109373000Y-117849310D01*
X109373000Y-117633750D01*
X109214250Y-117475000D01*
X108265000Y-117475000D01*
X108011000Y-117475000D01*
X107991000Y-117475000D01*
X107991000Y-117221000D01*
X108011000Y-117221000D01*
X108011000Y-116496750D01*
X108265000Y-116496750D01*
X108265000Y-117221000D01*
X109214250Y-117221000D01*
X109373000Y-117062250D01*
X109373000Y-116846690D01*
X109276327Y-116613301D01*
X109097698Y-116434673D01*
X108864309Y-116338000D01*
X108423750Y-116338000D01*
X108265000Y-116496750D01*
X108011000Y-116496750D01*
X107852250Y-116338000D01*
X107411691Y-116338000D01*
X107178302Y-116434673D01*
X107049091Y-116563883D01*
X107019361Y-116543570D01*
X106838000Y-116506843D01*
X105638000Y-116506843D01*
X105468572Y-116538723D01*
X105312962Y-116638855D01*
X105208570Y-116791639D01*
X105171843Y-116973000D01*
X105171843Y-117723000D01*
X105203723Y-117892428D01*
X105261935Y-117982893D01*
X105237000Y-117977843D01*
X104987000Y-117977843D01*
X104857410Y-118002227D01*
X104737000Y-117977843D01*
X104487000Y-117977843D01*
X104357410Y-118002227D01*
X104237000Y-117977843D01*
X103987000Y-117977843D01*
X103857410Y-118002227D01*
X103737000Y-117977843D01*
X103708900Y-117977843D01*
X103708900Y-117353244D01*
X105829250Y-115232894D01*
X105954000Y-115258157D01*
X110454000Y-115258157D01*
X110623428Y-115226277D01*
X110779038Y-115126145D01*
X110883430Y-114973361D01*
X110920157Y-114792000D01*
X110920157Y-112792000D01*
X110888277Y-112622572D01*
X110788145Y-112466962D01*
X110635361Y-112362570D01*
X110454000Y-112325843D01*
X107833435Y-112325843D01*
X107388700Y-111881108D01*
X107388700Y-111041885D01*
X107539038Y-110945145D01*
X107643430Y-110792361D01*
X107680157Y-110611000D01*
X107680157Y-109861000D01*
X107648277Y-109691572D01*
X107548145Y-109535962D01*
X107395361Y-109431570D01*
X107214000Y-109394843D01*
X106014000Y-109394843D01*
X105844572Y-109426723D01*
X105803912Y-109452887D01*
X105673698Y-109322673D01*
X105440309Y-109226000D01*
X104999750Y-109226000D01*
X104841000Y-109384750D01*
X104841000Y-110109000D01*
X104861000Y-110109000D01*
X104861000Y-110363000D01*
X104841000Y-110363000D01*
X104841000Y-111087250D01*
X104999750Y-111246000D01*
X105440309Y-111246000D01*
X105673698Y-111149327D01*
X105802909Y-111020117D01*
X105832639Y-111040430D01*
X105839300Y-111041779D01*
X105839300Y-112201995D01*
X105839299Y-112202000D01*
X105867183Y-112342179D01*
X105784572Y-112357723D01*
X105628962Y-112457855D01*
X105524570Y-112610639D01*
X105487843Y-112792000D01*
X105487843Y-113796211D01*
X105451027Y-113833027D01*
X105307870Y-114047276D01*
X105303224Y-114070632D01*
X102870000Y-116503856D01*
X101624301Y-115258157D01*
X101954000Y-115258157D01*
X102123428Y-115226277D01*
X102279038Y-115126145D01*
X102383430Y-114973361D01*
X102420157Y-114792000D01*
X102420157Y-112792000D01*
X102388277Y-112622572D01*
X102288145Y-112466962D01*
X102135361Y-112362570D01*
X101954000Y-112325843D01*
X101678700Y-112325843D01*
X101678700Y-111041885D01*
X101714088Y-111019113D01*
X101844302Y-111149327D01*
X102077691Y-111246000D01*
X102518250Y-111246000D01*
X102677000Y-111087250D01*
X102677000Y-110363000D01*
X102931000Y-110363000D01*
X102931000Y-111087250D01*
X103089750Y-111246000D01*
X103530309Y-111246000D01*
X103759000Y-111151273D01*
X103987691Y-111246000D01*
X104428250Y-111246000D01*
X104587000Y-111087250D01*
X104587000Y-110363000D01*
X102931000Y-110363000D01*
X102677000Y-110363000D01*
X102657000Y-110363000D01*
X102657000Y-110109000D01*
X102677000Y-110109000D01*
X102677000Y-109384750D01*
X102931000Y-109384750D01*
X102931000Y-110109000D01*
X104587000Y-110109000D01*
X104587000Y-109384750D01*
X104428250Y-109226000D01*
X103987691Y-109226000D01*
X103759000Y-109320727D01*
X103530309Y-109226000D01*
X103089750Y-109226000D01*
X102931000Y-109384750D01*
X102677000Y-109384750D01*
X102518250Y-109226000D01*
X102077691Y-109226000D01*
X101844302Y-109322673D01*
X101715091Y-109451883D01*
X101685361Y-109431570D01*
X101504000Y-109394843D01*
X100304000Y-109394843D01*
X100134572Y-109426723D01*
X99978962Y-109526855D01*
X99874570Y-109679639D01*
X99837843Y-109861000D01*
X99837843Y-110611000D01*
X99869723Y-110780428D01*
X99969855Y-110936038D01*
X100122639Y-111040430D01*
X100129300Y-111041779D01*
X100129300Y-112271109D01*
X100074566Y-112325843D01*
X97454000Y-112325843D01*
X97284572Y-112357723D01*
X97128962Y-112457855D01*
X97024570Y-112610639D01*
X96987843Y-112792000D01*
X96987843Y-114792000D01*
X97019723Y-114961428D01*
X97119855Y-115117038D01*
X97272639Y-115221430D01*
X97454000Y-115258157D01*
X99846210Y-115258157D01*
X99863027Y-115274974D01*
X100077276Y-115418130D01*
X100100632Y-115422776D01*
X100751131Y-116073275D01*
X100468103Y-116190221D01*
X100189200Y-116468638D01*
X100038072Y-116832593D01*
X100037728Y-117226678D01*
X100188221Y-117590897D01*
X100466638Y-117869800D01*
X100726833Y-117977843D01*
X100487000Y-117977843D01*
X100357410Y-118002227D01*
X100237000Y-117977843D01*
X99987000Y-117977843D01*
X99857410Y-118002227D01*
X99737000Y-117977843D01*
X99487000Y-117977843D01*
X99317572Y-118009723D01*
X99161962Y-118109855D01*
X99057570Y-118262639D01*
X99020843Y-118444000D01*
X99020843Y-119321135D01*
X98806000Y-119278400D01*
X96466700Y-119278400D01*
X96466700Y-118298000D01*
X96407729Y-118001535D01*
X96239796Y-117750204D01*
X96239793Y-117750202D01*
X95511796Y-117022204D01*
X95444143Y-116977000D01*
X95260465Y-116854271D01*
X95211277Y-116844487D01*
X95042157Y-116810846D01*
X95042157Y-116570000D01*
X95010277Y-116400572D01*
X94910145Y-116244962D01*
X94757361Y-116140570D01*
X94576000Y-116103843D01*
X92876000Y-116103843D01*
X92706572Y-116135723D01*
X92550962Y-116235855D01*
X92446570Y-116388639D01*
X92409843Y-116570000D01*
X92409843Y-118570000D01*
X92441723Y-118739428D01*
X92541855Y-118895038D01*
X92694639Y-118999430D01*
X92876000Y-119036157D01*
X94576000Y-119036157D01*
X94745428Y-119004277D01*
X94901038Y-118904145D01*
X94917300Y-118880345D01*
X94917300Y-119336115D01*
X94881912Y-119358887D01*
X94751698Y-119228673D01*
X94518309Y-119132000D01*
X94077750Y-119132000D01*
X93919000Y-119290750D01*
X93919000Y-120015000D01*
X93939000Y-120015000D01*
X93939000Y-120269000D01*
X93919000Y-120269000D01*
X93919000Y-120993250D01*
X93946250Y-121020500D01*
X93919000Y-121047750D01*
X93919000Y-122047000D01*
X93939000Y-122047000D01*
X93939000Y-122301000D01*
X93919000Y-122301000D01*
X93919000Y-123300250D01*
X94077750Y-123459000D01*
X94132400Y-123459000D01*
X94132400Y-123952000D01*
X94178803Y-124185284D01*
X94310948Y-124383052D01*
X94393896Y-124466000D01*
X94199750Y-124466000D01*
X94041000Y-124624750D01*
X94041000Y-125349000D01*
X94990250Y-125349000D01*
X95133573Y-125205677D01*
X96552948Y-126625052D01*
X96750716Y-126757197D01*
X96984000Y-126803600D01*
X98012000Y-126803600D01*
X98104719Y-126785157D01*
X98662000Y-126785157D01*
X98831428Y-126753277D01*
X98987038Y-126653145D01*
X99091430Y-126500361D01*
X99128157Y-126319000D01*
X99128157Y-126250869D01*
X99200327Y-126178699D01*
X99297000Y-125945310D01*
X99297000Y-125915250D01*
X99138250Y-125756500D01*
X99004213Y-125756500D01*
X98996145Y-125743962D01*
X98923277Y-125694174D01*
X98987038Y-125653145D01*
X99001827Y-125631500D01*
X99138250Y-125631500D01*
X99297000Y-125472750D01*
X99297000Y-125442690D01*
X99200327Y-125209301D01*
X99128157Y-125137131D01*
X99128157Y-125069000D01*
X99103773Y-124939410D01*
X99128157Y-124819000D01*
X99128157Y-124569000D01*
X99103773Y-124439410D01*
X99128157Y-124319000D01*
X99128157Y-124069000D01*
X99103773Y-123939410D01*
X99128157Y-123819000D01*
X99128157Y-123569000D01*
X99103773Y-123439410D01*
X99128157Y-123319000D01*
X99128157Y-123069000D01*
X99103773Y-122939410D01*
X99128157Y-122819000D01*
X99128157Y-122569000D01*
X99103773Y-122439410D01*
X99128157Y-122319000D01*
X99128157Y-122069000D01*
X99103773Y-121939410D01*
X99128157Y-121819000D01*
X99128157Y-121569000D01*
X99103773Y-121439410D01*
X99128157Y-121319000D01*
X99128157Y-121069000D01*
X99108537Y-120964731D01*
X99314000Y-121005600D01*
X104940100Y-121005600D01*
X104940100Y-126540807D01*
X104863310Y-126509000D01*
X104833250Y-126509000D01*
X104674500Y-126667750D01*
X104674500Y-126801787D01*
X104661962Y-126809855D01*
X104612174Y-126882723D01*
X104571145Y-126818962D01*
X104549500Y-126804173D01*
X104549500Y-126667750D01*
X104390750Y-126509000D01*
X104360690Y-126509000D01*
X104127301Y-126605673D01*
X104055131Y-126677843D01*
X103987000Y-126677843D01*
X103857410Y-126702227D01*
X103737000Y-126677843D01*
X103487000Y-126677843D01*
X103357410Y-126702227D01*
X103237000Y-126677843D01*
X102987000Y-126677843D01*
X102857410Y-126702227D01*
X102737000Y-126677843D01*
X102487000Y-126677843D01*
X102357410Y-126702227D01*
X102237000Y-126677843D01*
X101987000Y-126677843D01*
X101857410Y-126702227D01*
X101737000Y-126677843D01*
X101487000Y-126677843D01*
X101357410Y-126702227D01*
X101237000Y-126677843D01*
X100987000Y-126677843D01*
X100857410Y-126702227D01*
X100737000Y-126677843D01*
X100487000Y-126677843D01*
X100357410Y-126702227D01*
X100237000Y-126677843D01*
X99987000Y-126677843D01*
X99857410Y-126702227D01*
X99737000Y-126677843D01*
X99487000Y-126677843D01*
X99317572Y-126709723D01*
X99161962Y-126809855D01*
X99057570Y-126962639D01*
X99020843Y-127144000D01*
X99020843Y-128444000D01*
X99052723Y-128613428D01*
X99109589Y-128701800D01*
X98899194Y-128701800D01*
X97800302Y-127602908D01*
X97733746Y-127558437D01*
X97610774Y-127476270D01*
X97387210Y-127431800D01*
X95071984Y-127431800D01*
X94547092Y-126906908D01*
X94357564Y-126780270D01*
X94134000Y-126735800D01*
X94120510Y-126735800D01*
X94078145Y-126669962D01*
X93925361Y-126565570D01*
X93744000Y-126528843D01*
X93726000Y-126528843D01*
X93726000Y-126388250D01*
X93787000Y-126327250D01*
X93787000Y-125603000D01*
X94041000Y-125603000D01*
X94041000Y-126327250D01*
X94199750Y-126486000D01*
X94640309Y-126486000D01*
X94873698Y-126389327D01*
X95052327Y-126210699D01*
X95149000Y-125977310D01*
X95149000Y-125761750D01*
X94990250Y-125603000D01*
X94041000Y-125603000D01*
X93787000Y-125603000D01*
X93767000Y-125603000D01*
X93767000Y-125349000D01*
X93787000Y-125349000D01*
X93787000Y-124624750D01*
X93720612Y-124558362D01*
X93717315Y-124540841D01*
X93690035Y-124498447D01*
X93648410Y-124470006D01*
X93599000Y-124460000D01*
X92459347Y-124460000D01*
X90459097Y-122459750D01*
X92807000Y-122459750D01*
X92807000Y-122950310D01*
X92903673Y-123183699D01*
X93082302Y-123362327D01*
X93315691Y-123459000D01*
X93506250Y-123459000D01*
X93665000Y-123300250D01*
X93665000Y-122301000D01*
X92965750Y-122301000D01*
X92807000Y-122459750D01*
X90459097Y-122459750D01*
X89166373Y-121167027D01*
X88952124Y-121023870D01*
X88699400Y-120973600D01*
X87676157Y-120973600D01*
X87676157Y-120634000D01*
X87644277Y-120464572D01*
X87620583Y-120427750D01*
X92557000Y-120427750D01*
X92557000Y-120643310D01*
X92653673Y-120876699D01*
X92832302Y-121055327D01*
X92959825Y-121108149D01*
X92903673Y-121164301D01*
X92807000Y-121397690D01*
X92807000Y-121888250D01*
X92965750Y-122047000D01*
X93665000Y-122047000D01*
X93665000Y-121047750D01*
X93637750Y-121020500D01*
X93665000Y-120993250D01*
X93665000Y-120269000D01*
X92715750Y-120269000D01*
X92557000Y-120427750D01*
X87620583Y-120427750D01*
X87544145Y-120308962D01*
X87391361Y-120204570D01*
X87210000Y-120167843D01*
X85510000Y-120167843D01*
X85340572Y-120199723D01*
X85184962Y-120299855D01*
X85080570Y-120452639D01*
X85043843Y-120634000D01*
X85043843Y-120979877D01*
X84822676Y-121023870D01*
X84608427Y-121167027D01*
X83119000Y-122656454D01*
X83119000Y-122554998D01*
X82960252Y-122554998D01*
X83119000Y-122396250D01*
X83119000Y-121982190D01*
X83022327Y-121748801D01*
X82843698Y-121570173D01*
X82610309Y-121473500D01*
X81819750Y-121473500D01*
X81661000Y-121632250D01*
X81661000Y-122555000D01*
X81681000Y-122555000D01*
X81681000Y-122809000D01*
X81661000Y-122809000D01*
X81661000Y-122829000D01*
X81407000Y-122829000D01*
X81407000Y-122809000D01*
X81387000Y-122809000D01*
X81387000Y-122555000D01*
X81407000Y-122555000D01*
X81407000Y-121632250D01*
X81248250Y-121473500D01*
X80960000Y-121473500D01*
X80960000Y-120733190D01*
X80863327Y-120499801D01*
X80684698Y-120321173D01*
X80451309Y-120224500D01*
X79660750Y-120224500D01*
X79502000Y-120383250D01*
X79502000Y-121920000D01*
X79522000Y-121920000D01*
X79522000Y-122174000D01*
X79502000Y-122174000D01*
X79502000Y-124079000D01*
X79522000Y-124079000D01*
X79522000Y-124333000D01*
X79502000Y-124333000D01*
X79502000Y-125857000D01*
X79522000Y-125857000D01*
X79522000Y-126111000D01*
X79502000Y-126111000D01*
X79502000Y-128016000D01*
X79522000Y-128016000D01*
X79522000Y-128270000D01*
X79502000Y-128270000D01*
X79502000Y-129806750D01*
X79660750Y-129965500D01*
X80412295Y-129965500D01*
X80383843Y-130106000D01*
X80383843Y-131006000D01*
X80415723Y-131175428D01*
X80515855Y-131331038D01*
X80668639Y-131435430D01*
X80675300Y-131436779D01*
X80675300Y-131561710D01*
X80536170Y-131651237D01*
X80431778Y-131804021D01*
X80395051Y-131985382D01*
X80395051Y-133185382D01*
X80426931Y-133354810D01*
X80527063Y-133510420D01*
X80679847Y-133614812D01*
X80861208Y-133651539D01*
X82061208Y-133651539D01*
X82230636Y-133619659D01*
X82386246Y-133519527D01*
X82490638Y-133366743D01*
X82527365Y-133185382D01*
X82527365Y-131985382D01*
X82495485Y-131815954D01*
X82395353Y-131660344D01*
X82242569Y-131555952D01*
X82224700Y-131552333D01*
X82224700Y-131436885D01*
X82375038Y-131340145D01*
X82453514Y-131225291D01*
X82511673Y-131365699D01*
X82690302Y-131544327D01*
X82819286Y-131597754D01*
X82736170Y-131651237D01*
X82631778Y-131804021D01*
X82595051Y-131985382D01*
X82595051Y-133185382D01*
X82626931Y-133354810D01*
X82727063Y-133510420D01*
X82879847Y-133614812D01*
X83061208Y-133651539D01*
X84261208Y-133651539D01*
X84430636Y-133619659D01*
X84586246Y-133519527D01*
X84690638Y-133366743D01*
X84704846Y-133296582D01*
X84789843Y-133296582D01*
X84789843Y-133302000D01*
X84821723Y-133471428D01*
X84921855Y-133627038D01*
X85074639Y-133731430D01*
X85256000Y-133768157D01*
X86956000Y-133768157D01*
X87125428Y-133736277D01*
X87281038Y-133636145D01*
X87385430Y-133483361D01*
X87422157Y-133302000D01*
X87422157Y-132537200D01*
X100668904Y-132537200D01*
X100686015Y-133358517D01*
X100672145Y-133336962D01*
X100519361Y-133232570D01*
X100338000Y-133195843D01*
X99138000Y-133195843D01*
X98968572Y-133227723D01*
X98812962Y-133327855D01*
X98708570Y-133480639D01*
X98671843Y-133662000D01*
X98671843Y-134562000D01*
X98703723Y-134731428D01*
X98787293Y-134861300D01*
X98359345Y-134861300D01*
X98431000Y-134688310D01*
X98431000Y-134397750D01*
X98272250Y-134239000D01*
X97323000Y-134239000D01*
X97323000Y-134259000D01*
X97069000Y-134259000D01*
X97069000Y-134239000D01*
X97049000Y-134239000D01*
X97049000Y-133985000D01*
X97069000Y-133985000D01*
X97069000Y-133185750D01*
X97323000Y-133185750D01*
X97323000Y-133985000D01*
X98272250Y-133985000D01*
X98431000Y-133826250D01*
X98431000Y-133535690D01*
X98334327Y-133302301D01*
X98155698Y-133123673D01*
X97922309Y-133027000D01*
X97481750Y-133027000D01*
X97323000Y-133185750D01*
X97069000Y-133185750D01*
X96910250Y-133027000D01*
X96469691Y-133027000D01*
X96236302Y-133123673D01*
X96057673Y-133302301D01*
X95998996Y-133443960D01*
X95930145Y-133336962D01*
X95777361Y-133232570D01*
X95596000Y-133195843D01*
X94396000Y-133195843D01*
X94226572Y-133227723D01*
X94070962Y-133327855D01*
X93966570Y-133480639D01*
X93929843Y-133662000D01*
X93929843Y-134336566D01*
X91373108Y-136893300D01*
X86831357Y-136893300D01*
X86831357Y-136817200D01*
X86799477Y-136647772D01*
X86699345Y-136492162D01*
X86546561Y-136387770D01*
X86365200Y-136351043D01*
X84185200Y-136351043D01*
X84015772Y-136382923D01*
X83860162Y-136483055D01*
X83755770Y-136635839D01*
X83719043Y-136817200D01*
X83719043Y-138417200D01*
X83750923Y-138586628D01*
X83851055Y-138742238D01*
X84003839Y-138846630D01*
X84185200Y-138883357D01*
X86365200Y-138883357D01*
X86534628Y-138851477D01*
X86690238Y-138751345D01*
X86794630Y-138598561D01*
X86826193Y-138442700D01*
X91693995Y-138442700D01*
X91694000Y-138442701D01*
X91972658Y-138387271D01*
X91990465Y-138383729D01*
X92241796Y-138215796D01*
X92899043Y-137558549D01*
X92899043Y-138417200D01*
X92930923Y-138586628D01*
X93031055Y-138742238D01*
X93183839Y-138846630D01*
X93365200Y-138883357D01*
X94239300Y-138883357D01*
X94239300Y-139090563D01*
X94221479Y-139133481D01*
X94221122Y-139542723D01*
X94377402Y-139920950D01*
X94666528Y-140210581D01*
X95044481Y-140367521D01*
X95453723Y-140367878D01*
X95831950Y-140211598D01*
X96121581Y-139922472D01*
X96278521Y-139544519D01*
X96278878Y-139135277D01*
X96122598Y-138757050D01*
X95970467Y-138604653D01*
X95974630Y-138598561D01*
X95987928Y-138532892D01*
X97110514Y-138532892D01*
X97356817Y-139057358D01*
X97785076Y-139447645D01*
X98195110Y-139617476D01*
X98425000Y-139496155D01*
X98425000Y-138303000D01*
X97231181Y-138303000D01*
X97110514Y-138532892D01*
X95987928Y-138532892D01*
X96011357Y-138417200D01*
X96011357Y-137819108D01*
X97110514Y-137819108D01*
X97231181Y-138049000D01*
X98425000Y-138049000D01*
X98425000Y-136855845D01*
X98195110Y-136734524D01*
X97785076Y-136904355D01*
X97356817Y-137294642D01*
X97110514Y-137819108D01*
X96011357Y-137819108D01*
X96011357Y-136817200D01*
X95979477Y-136647772D01*
X95957529Y-136613663D01*
X96160491Y-136410700D01*
X98831400Y-136410700D01*
X98831400Y-136423400D01*
X98832448Y-136428971D01*
X98835182Y-136773422D01*
X98679000Y-136855845D01*
X98679000Y-138049000D01*
X98699000Y-138049000D01*
X98699000Y-138303000D01*
X98679000Y-138303000D01*
X98679000Y-139496155D01*
X98908890Y-139617476D01*
X98928075Y-139609530D01*
X98934115Y-139613678D01*
X98983502Y-139623800D01*
X109803902Y-139649200D01*
X109850359Y-139640515D01*
X109892753Y-139613235D01*
X109921194Y-139571610D01*
X109931200Y-139522200D01*
X109931200Y-139295511D01*
X109991430Y-139207361D01*
X110028157Y-139026000D01*
X110028157Y-138938000D01*
X111675839Y-138938000D01*
X111759584Y-139359013D01*
X111998069Y-139715931D01*
X112354987Y-139954416D01*
X112776000Y-140038161D01*
X113197013Y-139954416D01*
X113553931Y-139715931D01*
X113792416Y-139359013D01*
X113876161Y-138938000D01*
X113792416Y-138516987D01*
X113553931Y-138160069D01*
X113197013Y-137921584D01*
X112776000Y-137837839D01*
X112354987Y-137921584D01*
X111998069Y-138160069D01*
X111759584Y-138516987D01*
X111675839Y-138938000D01*
X110028157Y-138938000D01*
X110028157Y-137326000D01*
X109996277Y-137156572D01*
X109931200Y-137055439D01*
X109931200Y-136423400D01*
X109922515Y-136377241D01*
X109895235Y-136334847D01*
X109853610Y-136306406D01*
X109804200Y-136296400D01*
X109798451Y-136296400D01*
X109753394Y-131723149D01*
X109744227Y-131677011D01*
X109716507Y-131634903D01*
X109674589Y-131606897D01*
X109625077Y-131597407D01*
X109054900Y-131603346D01*
X109054900Y-130834925D01*
X109098302Y-130878327D01*
X109331691Y-130975000D01*
X110172250Y-130975000D01*
X110331000Y-130816250D01*
X110331000Y-129667000D01*
X110585000Y-129667000D01*
X110585000Y-130816250D01*
X110743750Y-130975000D01*
X111584309Y-130975000D01*
X111817698Y-130878327D01*
X111996327Y-130699699D01*
X112093000Y-130466310D01*
X112093000Y-129825750D01*
X111934250Y-129667000D01*
X110585000Y-129667000D01*
X110331000Y-129667000D01*
X110311000Y-129667000D01*
X110311000Y-129413000D01*
X110331000Y-129413000D01*
X110331000Y-128263750D01*
X110585000Y-128263750D01*
X110585000Y-129413000D01*
X111934250Y-129413000D01*
X112093000Y-129254250D01*
X112093000Y-128613690D01*
X111996327Y-128380301D01*
X111817698Y-128201673D01*
X111584309Y-128105000D01*
X110743750Y-128105000D01*
X110585000Y-128263750D01*
X110331000Y-128263750D01*
X110172250Y-128105000D01*
X109331691Y-128105000D01*
X109098302Y-128201673D01*
X109054900Y-128245075D01*
X109054900Y-127415000D01*
X109009464Y-127186576D01*
X108880072Y-126992928D01*
X107807609Y-125920465D01*
X107828157Y-125819000D01*
X107828157Y-125797250D01*
X112804000Y-125797250D01*
X113034854Y-125751330D01*
X113230562Y-125620562D01*
X115037800Y-123813324D01*
X115037800Y-141199800D01*
X78002200Y-141199800D01*
X78002200Y-138878039D01*
X79163839Y-138878039D01*
X79247584Y-139299052D01*
X79486069Y-139655970D01*
X79842987Y-139894455D01*
X80264000Y-139978200D01*
X80685013Y-139894455D01*
X81041931Y-139655970D01*
X81280416Y-139299052D01*
X81364161Y-138878039D01*
X81280416Y-138457026D01*
X81041931Y-138100108D01*
X80685013Y-137861623D01*
X80264000Y-137777878D01*
X79842987Y-137861623D01*
X79486069Y-138100108D01*
X79247584Y-138457026D01*
X79163839Y-138878039D01*
X78002200Y-138878039D01*
X78002200Y-129805725D01*
X78065302Y-129868827D01*
X78298691Y-129965500D01*
X79089250Y-129965500D01*
X79248000Y-129806750D01*
X79248000Y-128270000D01*
X79228000Y-128270000D01*
X79228000Y-128016000D01*
X79248000Y-128016000D01*
X79248000Y-126111000D01*
X79228000Y-126111000D01*
X79228000Y-125857000D01*
X79248000Y-125857000D01*
X79248000Y-124333000D01*
X79228000Y-124333000D01*
X79228000Y-124079000D01*
X79248000Y-124079000D01*
X79248000Y-122174000D01*
X79228000Y-122174000D01*
X79228000Y-121920000D01*
X79248000Y-121920000D01*
X79248000Y-120383250D01*
X79089250Y-120224500D01*
X78298691Y-120224500D01*
X78065302Y-120321173D01*
X78002200Y-120384275D01*
X78002200Y-119640690D01*
X92557000Y-119640690D01*
X92557000Y-119856250D01*
X92715750Y-120015000D01*
X93665000Y-120015000D01*
X93665000Y-119290750D01*
X93506250Y-119132000D01*
X93065691Y-119132000D01*
X92832302Y-119228673D01*
X92653673Y-119407301D01*
X92557000Y-119640690D01*
X78002200Y-119640690D01*
X78002200Y-117887750D01*
X79915000Y-117887750D01*
X79915000Y-118353310D01*
X80011673Y-118586699D01*
X80190302Y-118765327D01*
X80423691Y-118862000D01*
X81014250Y-118862000D01*
X81173000Y-118703250D01*
X81173000Y-117729000D01*
X80073750Y-117729000D01*
X79915000Y-117887750D01*
X78002200Y-117887750D01*
X78002200Y-115322690D01*
X80619000Y-115322690D01*
X80619000Y-115538250D01*
X80777750Y-115697000D01*
X81727000Y-115697000D01*
X81727000Y-114972750D01*
X81568250Y-114814000D01*
X81127691Y-114814000D01*
X80894302Y-114910673D01*
X80715673Y-115089301D01*
X80619000Y-115322690D01*
X78002200Y-115322690D01*
X78002200Y-112553750D01*
X80619000Y-112553750D01*
X80619000Y-112769310D01*
X80715673Y-113002699D01*
X80894302Y-113181327D01*
X81127691Y-113278000D01*
X81568250Y-113278000D01*
X81727000Y-113119250D01*
X81727000Y-112395000D01*
X80777750Y-112395000D01*
X80619000Y-112553750D01*
X78002200Y-112553750D01*
X78002200Y-110521750D01*
X79915000Y-110521750D01*
X79915000Y-111162310D01*
X80011673Y-111395699D01*
X80190302Y-111574327D01*
X80423691Y-111671000D01*
X80658636Y-111671000D01*
X80619000Y-111766690D01*
X80619000Y-111982250D01*
X80777750Y-112141000D01*
X81727000Y-112141000D01*
X81727000Y-112121000D01*
X81981000Y-112121000D01*
X81981000Y-112141000D01*
X82001000Y-112141000D01*
X82001000Y-112395000D01*
X81981000Y-112395000D01*
X81981000Y-113119250D01*
X82139750Y-113278000D01*
X82580309Y-113278000D01*
X82813698Y-113181327D01*
X82942909Y-113052117D01*
X82972639Y-113072430D01*
X83154000Y-113109157D01*
X84330750Y-113109157D01*
X83460204Y-113979702D01*
X83292271Y-114231033D01*
X83287198Y-114256536D01*
X83233299Y-114527498D01*
X83233300Y-114527503D01*
X83233300Y-114982843D01*
X83154000Y-114982843D01*
X82984572Y-115014723D01*
X82943912Y-115040887D01*
X82813698Y-114910673D01*
X82580309Y-114814000D01*
X82139750Y-114814000D01*
X81981000Y-114972750D01*
X81981000Y-115697000D01*
X82001000Y-115697000D01*
X82001000Y-115951000D01*
X81981000Y-115951000D01*
X81981000Y-115971000D01*
X81727000Y-115971000D01*
X81727000Y-115951000D01*
X80777750Y-115951000D01*
X80619000Y-116109750D01*
X80619000Y-116325310D01*
X80625913Y-116342000D01*
X80423691Y-116342000D01*
X80190302Y-116438673D01*
X80011673Y-116617301D01*
X79915000Y-116850690D01*
X79915000Y-117316250D01*
X80073750Y-117475000D01*
X81173000Y-117475000D01*
X81173000Y-117455000D01*
X81427000Y-117455000D01*
X81427000Y-117475000D01*
X81447000Y-117475000D01*
X81447000Y-117729000D01*
X81427000Y-117729000D01*
X81427000Y-118703250D01*
X81585750Y-118862000D01*
X82176309Y-118862000D01*
X82409698Y-118765327D01*
X82588327Y-118586699D01*
X82647004Y-118445040D01*
X82715855Y-118552038D01*
X82868639Y-118656430D01*
X83050000Y-118693157D01*
X84550000Y-118693157D01*
X84719428Y-118661277D01*
X84875038Y-118561145D01*
X84979430Y-118408361D01*
X84985842Y-118376700D01*
X85043843Y-118376700D01*
X85043843Y-118634000D01*
X85075723Y-118803428D01*
X85175855Y-118959038D01*
X85328639Y-119063430D01*
X85510000Y-119100157D01*
X87210000Y-119100157D01*
X87379428Y-119068277D01*
X87535038Y-118968145D01*
X87639430Y-118815361D01*
X87676157Y-118634000D01*
X87676157Y-116634000D01*
X87644277Y-116464572D01*
X87544145Y-116308962D01*
X87391361Y-116204570D01*
X87210000Y-116167843D01*
X86796700Y-116167843D01*
X86796700Y-115960841D01*
X86877038Y-115909145D01*
X86981430Y-115756361D01*
X87018157Y-115575000D01*
X87018157Y-115056869D01*
X87090327Y-114984699D01*
X87115055Y-114925000D01*
X87225843Y-114925000D01*
X87225843Y-115575000D01*
X87257723Y-115744428D01*
X87357855Y-115900038D01*
X87510639Y-116004430D01*
X87692000Y-116041157D01*
X88752000Y-116041157D01*
X88921428Y-116009277D01*
X89077038Y-115909145D01*
X89181430Y-115756361D01*
X89218157Y-115575000D01*
X89218157Y-114925000D01*
X89186277Y-114755572D01*
X89086145Y-114599962D01*
X88933361Y-114495570D01*
X88752000Y-114458843D01*
X87692000Y-114458843D01*
X87522572Y-114490723D01*
X87366962Y-114590855D01*
X87262570Y-114743639D01*
X87225843Y-114925000D01*
X87115055Y-114925000D01*
X87187000Y-114751310D01*
X87187000Y-114585750D01*
X87028250Y-114427000D01*
X86149000Y-114427000D01*
X86149000Y-114447000D01*
X85895000Y-114447000D01*
X85895000Y-114427000D01*
X85875000Y-114427000D01*
X85875000Y-114173000D01*
X85895000Y-114173000D01*
X85895000Y-114153000D01*
X86149000Y-114153000D01*
X86149000Y-114173000D01*
X87028250Y-114173000D01*
X87187000Y-114014250D01*
X87187000Y-113848690D01*
X87090327Y-113615301D01*
X87018157Y-113543131D01*
X87018157Y-113025000D01*
X86986277Y-112855572D01*
X86886145Y-112699962D01*
X86733361Y-112595570D01*
X86552000Y-112558843D01*
X85492000Y-112558843D01*
X85404538Y-112575300D01*
X85185503Y-112575300D01*
X85185498Y-112575299D01*
X84947847Y-112622572D01*
X84889033Y-112634271D01*
X84811423Y-112686128D01*
X84820157Y-112643000D01*
X84820157Y-112411494D01*
X84844257Y-112290335D01*
X84845558Y-112289034D01*
X84986639Y-112385430D01*
X85168000Y-112422157D01*
X86368000Y-112422157D01*
X86537428Y-112390277D01*
X86693038Y-112290145D01*
X86797430Y-112137361D01*
X86834157Y-111956000D01*
X86834157Y-111056000D01*
X86901843Y-111056000D01*
X86901843Y-111956000D01*
X86933723Y-112125428D01*
X87033855Y-112281038D01*
X87186639Y-112385430D01*
X87368000Y-112422157D01*
X87447300Y-112422157D01*
X87447300Y-112639159D01*
X87366962Y-112690855D01*
X87262570Y-112843639D01*
X87225843Y-113025000D01*
X87225843Y-113675000D01*
X87257723Y-113844428D01*
X87357855Y-114000038D01*
X87510639Y-114104430D01*
X87692000Y-114141157D01*
X88752000Y-114141157D01*
X88921428Y-114109277D01*
X89077038Y-114009145D01*
X89181430Y-113856361D01*
X89218157Y-113675000D01*
X89218157Y-113025000D01*
X89186277Y-112855572D01*
X89086145Y-112699962D01*
X89065916Y-112686140D01*
X89066000Y-112686157D01*
X90766000Y-112686157D01*
X90935428Y-112654277D01*
X90984870Y-112622462D01*
X92409843Y-114047435D01*
X92409843Y-114570000D01*
X92441723Y-114739428D01*
X92541855Y-114895038D01*
X92694639Y-114999430D01*
X92876000Y-115036157D01*
X94576000Y-115036157D01*
X94745428Y-115004277D01*
X94901038Y-114904145D01*
X95005430Y-114751361D01*
X95042157Y-114570000D01*
X95042157Y-112570000D01*
X95010277Y-112400572D01*
X94910145Y-112244962D01*
X94757361Y-112140570D01*
X94576000Y-112103843D01*
X92876000Y-112103843D01*
X92706572Y-112135723D01*
X92696072Y-112142480D01*
X91232157Y-110678565D01*
X91232157Y-110220000D01*
X91200277Y-110050572D01*
X91100145Y-109894962D01*
X90947361Y-109790570D01*
X90766000Y-109753843D01*
X89066000Y-109753843D01*
X88896572Y-109785723D01*
X88740962Y-109885855D01*
X88636570Y-110038639D01*
X88599843Y-110220000D01*
X88599843Y-110596291D01*
X88568000Y-110589843D01*
X87368000Y-110589843D01*
X87198572Y-110621723D01*
X87042962Y-110721855D01*
X86938570Y-110874639D01*
X86901843Y-111056000D01*
X86834157Y-111056000D01*
X86802277Y-110886572D01*
X86702145Y-110730962D01*
X86549361Y-110626570D01*
X86368000Y-110589843D01*
X85168000Y-110589843D01*
X85016157Y-110618414D01*
X85016157Y-109436000D01*
X84984277Y-109266572D01*
X84884145Y-109110962D01*
X84731361Y-109006570D01*
X84550000Y-108969843D01*
X83550000Y-108969843D01*
X83380572Y-109001723D01*
X83224962Y-109101855D01*
X83120570Y-109254639D01*
X83083843Y-109436000D01*
X83083843Y-111036000D01*
X83115723Y-111205428D01*
X83215855Y-111361038D01*
X83312165Y-111426843D01*
X83154000Y-111426843D01*
X82984572Y-111458723D01*
X82943912Y-111484887D01*
X82813698Y-111354673D01*
X82580309Y-111258000D01*
X82145364Y-111258000D01*
X82185000Y-111162310D01*
X82185000Y-110521750D01*
X82026250Y-110363000D01*
X81177000Y-110363000D01*
X81177000Y-110383000D01*
X80923000Y-110383000D01*
X80923000Y-110363000D01*
X80073750Y-110363000D01*
X79915000Y-110521750D01*
X78002200Y-110521750D01*
X78002200Y-109309690D01*
X79915000Y-109309690D01*
X79915000Y-109950250D01*
X80073750Y-110109000D01*
X80923000Y-110109000D01*
X80923000Y-108959750D01*
X81177000Y-108959750D01*
X81177000Y-110109000D01*
X82026250Y-110109000D01*
X82185000Y-109950250D01*
X82185000Y-109309690D01*
X82088327Y-109076301D01*
X81909698Y-108897673D01*
X81676309Y-108801000D01*
X81335750Y-108801000D01*
X81177000Y-108959750D01*
X80923000Y-108959750D01*
X80764250Y-108801000D01*
X80423691Y-108801000D01*
X80190302Y-108897673D01*
X80011673Y-109076301D01*
X79915000Y-109309690D01*
X78002200Y-109309690D01*
X78002200Y-99060000D01*
X79163839Y-99060000D01*
X79247584Y-99481013D01*
X79486069Y-99837931D01*
X79842987Y-100076416D01*
X80264000Y-100160161D01*
X80685013Y-100076416D01*
X81041931Y-99837931D01*
X81280416Y-99481013D01*
X81364161Y-99060000D01*
X81280416Y-98638987D01*
X81041931Y-98282069D01*
X80685013Y-98043584D01*
X80264000Y-97959839D01*
X79842987Y-98043584D01*
X79486069Y-98282069D01*
X79247584Y-98638987D01*
X79163839Y-99060000D01*
X78002200Y-99060000D01*
X78002200Y-89849960D01*
X79044800Y-89849960D01*
X79044800Y-94142560D01*
X86026170Y-94142560D01*
X86026170Y-89849960D01*
X79044800Y-89849960D01*
X78002200Y-89849960D01*
X78002200Y-89178200D01*
X115037800Y-89178200D01*
X115037800Y-108342676D01*
X115037800Y-108342676D01*
G37*
X115037800Y-108342676D02*
X111277281Y-104582157D01*
X112752000Y-104582157D01*
X112921428Y-104550277D01*
X113077038Y-104450145D01*
X113181430Y-104297361D01*
X113218157Y-104116000D01*
X113218157Y-101116000D01*
X113186277Y-100946572D01*
X113086145Y-100790962D01*
X112933361Y-100686570D01*
X112752000Y-100649843D01*
X110624157Y-100649843D01*
X110624157Y-99880000D01*
X110592277Y-99710572D01*
X110492145Y-99554962D01*
X110339361Y-99450570D01*
X110158000Y-99413843D01*
X109754182Y-99413843D01*
X109838327Y-99329698D01*
X109935000Y-99096309D01*
X109935000Y-99060000D01*
X111675839Y-99060000D01*
X111759584Y-99481013D01*
X111998069Y-99837931D01*
X112354987Y-100076416D01*
X112776000Y-100160161D01*
X113197013Y-100076416D01*
X113553931Y-99837931D01*
X113792416Y-99481013D01*
X113876161Y-99060000D01*
X113792416Y-98638987D01*
X113553931Y-98282069D01*
X113197013Y-98043584D01*
X112776000Y-97959839D01*
X112354987Y-98043584D01*
X111998069Y-98282069D01*
X111759584Y-98638987D01*
X111675839Y-99060000D01*
X109935000Y-99060000D01*
X109935000Y-98805750D01*
X109776250Y-98647000D01*
X109027000Y-98647000D01*
X109027000Y-98667000D01*
X108773000Y-98667000D01*
X108773000Y-98647000D01*
X108753000Y-98647000D01*
X108753000Y-98393000D01*
X108773000Y-98393000D01*
X108773000Y-98373000D01*
X109027000Y-98373000D01*
X109027000Y-98393000D01*
X109776250Y-98393000D01*
X109935000Y-98234250D01*
X109935000Y-97943691D01*
X109838327Y-97710302D01*
X109779137Y-97651112D01*
X109816553Y-97627035D01*
X109844994Y-97585410D01*
X109855000Y-97536000D01*
X109855000Y-96012000D01*
X109846315Y-95965841D01*
X109819035Y-95923447D01*
X109777410Y-95895006D01*
X109728000Y-95885000D01*
X108774257Y-95885000D01*
X108684145Y-95744962D01*
X108531361Y-95640570D01*
X108475600Y-95629278D01*
X108475600Y-95148351D01*
X108610327Y-95123000D01*
X109331896Y-95123000D01*
X109466000Y-95150157D01*
X110666000Y-95150157D01*
X110835428Y-95118277D01*
X110991038Y-95018145D01*
X111095430Y-94865361D01*
X111132157Y-94684000D01*
X111132157Y-93784000D01*
X111100277Y-93614572D01*
X111000145Y-93458962D01*
X110847361Y-93354570D01*
X110675600Y-93319787D01*
X110675600Y-92758351D01*
X110835428Y-92728277D01*
X110991038Y-92628145D01*
X111095430Y-92475361D01*
X111132157Y-92294000D01*
X111132157Y-91094000D01*
X111100277Y-90924572D01*
X111000145Y-90768962D01*
X110847361Y-90664570D01*
X110666000Y-90627843D01*
X110079843Y-90627843D01*
X110060743Y-90599257D01*
X109558470Y-90263650D01*
X108966000Y-90145800D01*
X108373530Y-90263650D01*
X107871257Y-90599257D01*
X107852157Y-90627843D01*
X107266000Y-90627843D01*
X107096572Y-90659723D01*
X106940962Y-90759855D01*
X106836570Y-90912639D01*
X106799843Y-91094000D01*
X106799843Y-91664565D01*
X106732373Y-91732035D01*
X106613337Y-91731931D01*
X106253788Y-91880493D01*
X105978460Y-92155341D01*
X105829270Y-92514630D01*
X105828931Y-92903663D01*
X105977493Y-93263212D01*
X106252341Y-93538540D01*
X106611630Y-93687730D01*
X106819302Y-93687911D01*
X106799843Y-93784000D01*
X106799843Y-94684000D01*
X106831723Y-94853428D01*
X106931855Y-95009038D01*
X107084639Y-95113430D01*
X107256400Y-95148213D01*
X107256400Y-95715625D01*
X107224962Y-95735855D01*
X107123056Y-95885000D01*
X106426000Y-95885000D01*
X106379841Y-95893685D01*
X106337447Y-95920965D01*
X106309006Y-95962590D01*
X106299000Y-96012000D01*
X106299000Y-97720387D01*
X106274962Y-97735855D01*
X106170570Y-97888639D01*
X106133843Y-98070000D01*
X106133843Y-98970000D01*
X106165723Y-99139428D01*
X106265855Y-99295038D01*
X106390400Y-99380135D01*
X106390400Y-99608147D01*
X106328570Y-99698639D01*
X106291843Y-99880000D01*
X106291843Y-100612719D01*
X102296157Y-96617033D01*
X102296157Y-94797632D01*
X102318589Y-94775200D01*
X103244767Y-94775200D01*
X103255723Y-94833428D01*
X103355855Y-94989038D01*
X103508639Y-95093430D01*
X103690000Y-95130157D01*
X104590000Y-95130157D01*
X104759428Y-95098277D01*
X104915038Y-94998145D01*
X105019430Y-94845361D01*
X105056157Y-94664000D01*
X105056157Y-93464000D01*
X105024277Y-93294572D01*
X104924145Y-93138962D01*
X104809291Y-93060486D01*
X104949699Y-93002327D01*
X105128327Y-92823698D01*
X105225000Y-92590309D01*
X105225000Y-92149750D01*
X105066250Y-91991000D01*
X104267000Y-91991000D01*
X104267000Y-92011000D01*
X104013000Y-92011000D01*
X104013000Y-91991000D01*
X103993000Y-91991000D01*
X103993000Y-91737000D01*
X104013000Y-91737000D01*
X104013000Y-90787750D01*
X104267000Y-90787750D01*
X104267000Y-91737000D01*
X105066250Y-91737000D01*
X105225000Y-91578250D01*
X105225000Y-91137691D01*
X105128327Y-90904302D01*
X104949699Y-90725673D01*
X104716310Y-90629000D01*
X104425750Y-90629000D01*
X104267000Y-90787750D01*
X104013000Y-90787750D01*
X103854250Y-90629000D01*
X103563690Y-90629000D01*
X103330301Y-90725673D01*
X103182826Y-90873149D01*
X103164277Y-90774572D01*
X103064145Y-90618962D01*
X102911361Y-90514570D01*
X102730000Y-90477843D01*
X101967640Y-90477843D01*
X101798818Y-90225182D01*
X101124918Y-89774897D01*
X100330000Y-89616778D01*
X99535082Y-89774897D01*
X98861182Y-90225182D01*
X98692360Y-90477843D01*
X97930000Y-90477843D01*
X97760572Y-90509723D01*
X97604962Y-90609855D01*
X97500570Y-90762639D01*
X97463843Y-90944000D01*
X97463843Y-92444000D01*
X97464566Y-92447842D01*
X97418411Y-92493997D01*
X97342337Y-92493931D01*
X96982788Y-92642493D01*
X96707460Y-92917341D01*
X96558270Y-93276630D01*
X96558202Y-93354206D01*
X94929108Y-94983300D01*
X93472005Y-94983300D01*
X93472000Y-94983299D01*
X93224723Y-95032487D01*
X93175535Y-95042271D01*
X92924204Y-95210204D01*
X92924202Y-95210207D01*
X90739722Y-97394686D01*
X86862717Y-97394686D01*
X86850277Y-97328572D01*
X86750145Y-97172962D01*
X86597361Y-97068570D01*
X86416000Y-97031843D01*
X84236000Y-97031843D01*
X84066572Y-97063723D01*
X83910962Y-97163855D01*
X83806570Y-97316639D01*
X83769843Y-97498000D01*
X83769843Y-99098000D01*
X83801723Y-99267428D01*
X83901855Y-99423038D01*
X84054639Y-99527430D01*
X84236000Y-99564157D01*
X84459282Y-99564157D01*
X84459282Y-101743977D01*
X84459281Y-101743982D01*
X84500878Y-101953100D01*
X84518253Y-102040447D01*
X84582636Y-102136803D01*
X84686186Y-102291778D01*
X87476639Y-105082230D01*
X87507723Y-105247428D01*
X87607855Y-105403038D01*
X87760639Y-105507430D01*
X87937693Y-105543285D01*
X88272613Y-105878204D01*
X88602296Y-106207887D01*
X88599843Y-106220000D01*
X88599843Y-108220000D01*
X88631723Y-108389428D01*
X88731855Y-108545038D01*
X88884639Y-108649430D01*
X89066000Y-108686157D01*
X90766000Y-108686157D01*
X90935428Y-108654277D01*
X91091038Y-108554145D01*
X91195430Y-108401361D01*
X91232157Y-108220000D01*
X91232157Y-106220000D01*
X91200277Y-106050572D01*
X91100145Y-105894962D01*
X90947361Y-105790570D01*
X90766000Y-105753843D01*
X90339434Y-105753843D01*
X89725749Y-105140157D01*
X90291000Y-105140157D01*
X90355000Y-105128115D01*
X90355000Y-105204309D01*
X90451673Y-105437698D01*
X90630301Y-105616327D01*
X90863690Y-105713000D01*
X91154250Y-105713000D01*
X91313000Y-105554250D01*
X91313000Y-104605000D01*
X91567000Y-104605000D01*
X91567000Y-105554250D01*
X91725750Y-105713000D01*
X92016310Y-105713000D01*
X92249699Y-105616327D01*
X92329000Y-105537026D01*
X92408301Y-105616327D01*
X92641690Y-105713000D01*
X92932250Y-105713000D01*
X93091000Y-105554250D01*
X93091000Y-104605000D01*
X91567000Y-104605000D01*
X91313000Y-104605000D01*
X91293000Y-104605000D01*
X91293000Y-104351000D01*
X91313000Y-104351000D01*
X91313000Y-104331000D01*
X91567000Y-104331000D01*
X91567000Y-104351000D01*
X93091000Y-104351000D01*
X93091000Y-104331000D01*
X93345000Y-104331000D01*
X93345000Y-104351000D01*
X93365000Y-104351000D01*
X93365000Y-104605000D01*
X93345000Y-104605000D01*
X93345000Y-105554250D01*
X93503750Y-105713000D01*
X93794310Y-105713000D01*
X94027699Y-105616327D01*
X94168274Y-105475751D01*
X94214639Y-105507430D01*
X94396000Y-105544157D01*
X95478600Y-105544157D01*
X95478600Y-107569000D01*
X95487285Y-107615159D01*
X95514565Y-107657553D01*
X95556190Y-107685994D01*
X95605600Y-107696000D01*
X104216200Y-107696000D01*
X104262359Y-107687315D01*
X104304753Y-107660035D01*
X104333194Y-107618410D01*
X104343200Y-107569000D01*
X104343200Y-102380114D01*
X111918750Y-109955664D01*
X111918750Y-122432126D01*
X111260126Y-123090750D01*
X108840794Y-123090750D01*
X109242387Y-122689157D01*
X109860500Y-122689157D01*
X110029928Y-122657277D01*
X110185538Y-122557145D01*
X110289930Y-122404361D01*
X110326657Y-122223000D01*
X110326657Y-121023000D01*
X110294777Y-120853572D01*
X110194645Y-120697962D01*
X110079791Y-120619486D01*
X110220199Y-120561327D01*
X110398827Y-120382698D01*
X110495500Y-120149309D01*
X110495500Y-119708750D01*
X110336750Y-119550000D01*
X109537500Y-119550000D01*
X109537500Y-119570000D01*
X109283500Y-119570000D01*
X109283500Y-119550000D01*
X108484250Y-119550000D01*
X108325500Y-119708750D01*
X108325500Y-120149309D01*
X108422173Y-120382698D01*
X108600801Y-120561327D01*
X108742460Y-120620004D01*
X108635462Y-120688855D01*
X108531070Y-120841639D01*
X108494343Y-121023000D01*
X108494343Y-121748913D01*
X108146156Y-122097100D01*
X107828157Y-122097100D01*
X107828157Y-122069000D01*
X107803773Y-121939410D01*
X107828157Y-121819000D01*
X107828157Y-121750869D01*
X107900327Y-121678699D01*
X107997000Y-121445310D01*
X107997000Y-121415250D01*
X107838250Y-121256500D01*
X107704213Y-121256500D01*
X107696145Y-121243962D01*
X107623277Y-121194174D01*
X107687038Y-121153145D01*
X107701827Y-121131500D01*
X107838250Y-121131500D01*
X107997000Y-120972750D01*
X107997000Y-120942690D01*
X107900327Y-120709301D01*
X107828157Y-120637131D01*
X107828157Y-120569000D01*
X107796277Y-120399572D01*
X107696145Y-120243962D01*
X107543361Y-120139570D01*
X107362000Y-120102843D01*
X107308900Y-120102843D01*
X107308900Y-118828104D01*
X107310397Y-118825864D01*
X107359700Y-118578000D01*
X107310397Y-118330136D01*
X107297376Y-118310649D01*
X107411691Y-118358000D01*
X107852250Y-118358000D01*
X108011000Y-118199250D01*
X108011000Y-117475000D01*
X108265000Y-117475000D01*
X108265000Y-118199250D01*
X108423750Y-118358000D01*
X108527474Y-118358000D01*
X108422173Y-118463302D01*
X108325500Y-118696691D01*
X108325500Y-119137250D01*
X108484250Y-119296000D01*
X109283500Y-119296000D01*
X109283500Y-118346750D01*
X109537500Y-118346750D01*
X109537500Y-119296000D01*
X110336750Y-119296000D01*
X110495500Y-119137250D01*
X110495500Y-118696691D01*
X110398827Y-118463302D01*
X110220199Y-118284673D01*
X109986810Y-118188000D01*
X109696250Y-118188000D01*
X109537500Y-118346750D01*
X109283500Y-118346750D01*
X109147888Y-118211138D01*
X109276327Y-118082699D01*
X109373000Y-117849310D01*
X109373000Y-117633750D01*
X109214250Y-117475000D01*
X108265000Y-117475000D01*
X108011000Y-117475000D01*
X107991000Y-117475000D01*
X107991000Y-117221000D01*
X108011000Y-117221000D01*
X108011000Y-116496750D01*
X108265000Y-116496750D01*
X108265000Y-117221000D01*
X109214250Y-117221000D01*
X109373000Y-117062250D01*
X109373000Y-116846690D01*
X109276327Y-116613301D01*
X109097698Y-116434673D01*
X108864309Y-116338000D01*
X108423750Y-116338000D01*
X108265000Y-116496750D01*
X108011000Y-116496750D01*
X107852250Y-116338000D01*
X107411691Y-116338000D01*
X107178302Y-116434673D01*
X107049091Y-116563883D01*
X107019361Y-116543570D01*
X106838000Y-116506843D01*
X105638000Y-116506843D01*
X105468572Y-116538723D01*
X105312962Y-116638855D01*
X105208570Y-116791639D01*
X105171843Y-116973000D01*
X105171843Y-117723000D01*
X105203723Y-117892428D01*
X105261935Y-117982893D01*
X105237000Y-117977843D01*
X104987000Y-117977843D01*
X104857410Y-118002227D01*
X104737000Y-117977843D01*
X104487000Y-117977843D01*
X104357410Y-118002227D01*
X104237000Y-117977843D01*
X103987000Y-117977843D01*
X103857410Y-118002227D01*
X103737000Y-117977843D01*
X103708900Y-117977843D01*
X103708900Y-117353244D01*
X105829250Y-115232894D01*
X105954000Y-115258157D01*
X110454000Y-115258157D01*
X110623428Y-115226277D01*
X110779038Y-115126145D01*
X110883430Y-114973361D01*
X110920157Y-114792000D01*
X110920157Y-112792000D01*
X110888277Y-112622572D01*
X110788145Y-112466962D01*
X110635361Y-112362570D01*
X110454000Y-112325843D01*
X107833435Y-112325843D01*
X107388700Y-111881108D01*
X107388700Y-111041885D01*
X107539038Y-110945145D01*
X107643430Y-110792361D01*
X107680157Y-110611000D01*
X107680157Y-109861000D01*
X107648277Y-109691572D01*
X107548145Y-109535962D01*
X107395361Y-109431570D01*
X107214000Y-109394843D01*
X106014000Y-109394843D01*
X105844572Y-109426723D01*
X105803912Y-109452887D01*
X105673698Y-109322673D01*
X105440309Y-109226000D01*
X104999750Y-109226000D01*
X104841000Y-109384750D01*
X104841000Y-110109000D01*
X104861000Y-110109000D01*
X104861000Y-110363000D01*
X104841000Y-110363000D01*
X104841000Y-111087250D01*
X104999750Y-111246000D01*
X105440309Y-111246000D01*
X105673698Y-111149327D01*
X105802909Y-111020117D01*
X105832639Y-111040430D01*
X105839300Y-111041779D01*
X105839300Y-112201995D01*
X105839299Y-112202000D01*
X105867183Y-112342179D01*
X105784572Y-112357723D01*
X105628962Y-112457855D01*
X105524570Y-112610639D01*
X105487843Y-112792000D01*
X105487843Y-113796211D01*
X105451027Y-113833027D01*
X105307870Y-114047276D01*
X105303224Y-114070632D01*
X102870000Y-116503856D01*
X101624301Y-115258157D01*
X101954000Y-115258157D01*
X102123428Y-115226277D01*
X102279038Y-115126145D01*
X102383430Y-114973361D01*
X102420157Y-114792000D01*
X102420157Y-112792000D01*
X102388277Y-112622572D01*
X102288145Y-112466962D01*
X102135361Y-112362570D01*
X101954000Y-112325843D01*
X101678700Y-112325843D01*
X101678700Y-111041885D01*
X101714088Y-111019113D01*
X101844302Y-111149327D01*
X102077691Y-111246000D01*
X102518250Y-111246000D01*
X102677000Y-111087250D01*
X102677000Y-110363000D01*
X102931000Y-110363000D01*
X102931000Y-111087250D01*
X103089750Y-111246000D01*
X103530309Y-111246000D01*
X103759000Y-111151273D01*
X103987691Y-111246000D01*
X104428250Y-111246000D01*
X104587000Y-111087250D01*
X104587000Y-110363000D01*
X102931000Y-110363000D01*
X102677000Y-110363000D01*
X102657000Y-110363000D01*
X102657000Y-110109000D01*
X102677000Y-110109000D01*
X102677000Y-109384750D01*
X102931000Y-109384750D01*
X102931000Y-110109000D01*
X104587000Y-110109000D01*
X104587000Y-109384750D01*
X104428250Y-109226000D01*
X103987691Y-109226000D01*
X103759000Y-109320727D01*
X103530309Y-109226000D01*
X103089750Y-109226000D01*
X102931000Y-109384750D01*
X102677000Y-109384750D01*
X102518250Y-109226000D01*
X102077691Y-109226000D01*
X101844302Y-109322673D01*
X101715091Y-109451883D01*
X101685361Y-109431570D01*
X101504000Y-109394843D01*
X100304000Y-109394843D01*
X100134572Y-109426723D01*
X99978962Y-109526855D01*
X99874570Y-109679639D01*
X99837843Y-109861000D01*
X99837843Y-110611000D01*
X99869723Y-110780428D01*
X99969855Y-110936038D01*
X100122639Y-111040430D01*
X100129300Y-111041779D01*
X100129300Y-112271109D01*
X100074566Y-112325843D01*
X97454000Y-112325843D01*
X97284572Y-112357723D01*
X97128962Y-112457855D01*
X97024570Y-112610639D01*
X96987843Y-112792000D01*
X96987843Y-114792000D01*
X97019723Y-114961428D01*
X97119855Y-115117038D01*
X97272639Y-115221430D01*
X97454000Y-115258157D01*
X99846210Y-115258157D01*
X99863027Y-115274974D01*
X100077276Y-115418130D01*
X100100632Y-115422776D01*
X100751131Y-116073275D01*
X100468103Y-116190221D01*
X100189200Y-116468638D01*
X100038072Y-116832593D01*
X100037728Y-117226678D01*
X100188221Y-117590897D01*
X100466638Y-117869800D01*
X100726833Y-117977843D01*
X100487000Y-117977843D01*
X100357410Y-118002227D01*
X100237000Y-117977843D01*
X99987000Y-117977843D01*
X99857410Y-118002227D01*
X99737000Y-117977843D01*
X99487000Y-117977843D01*
X99317572Y-118009723D01*
X99161962Y-118109855D01*
X99057570Y-118262639D01*
X99020843Y-118444000D01*
X99020843Y-119321135D01*
X98806000Y-119278400D01*
X96466700Y-119278400D01*
X96466700Y-118298000D01*
X96407729Y-118001535D01*
X96239796Y-117750204D01*
X96239793Y-117750202D01*
X95511796Y-117022204D01*
X95444143Y-116977000D01*
X95260465Y-116854271D01*
X95211277Y-116844487D01*
X95042157Y-116810846D01*
X95042157Y-116570000D01*
X95010277Y-116400572D01*
X94910145Y-116244962D01*
X94757361Y-116140570D01*
X94576000Y-116103843D01*
X92876000Y-116103843D01*
X92706572Y-116135723D01*
X92550962Y-116235855D01*
X92446570Y-116388639D01*
X92409843Y-116570000D01*
X92409843Y-118570000D01*
X92441723Y-118739428D01*
X92541855Y-118895038D01*
X92694639Y-118999430D01*
X92876000Y-119036157D01*
X94576000Y-119036157D01*
X94745428Y-119004277D01*
X94901038Y-118904145D01*
X94917300Y-118880345D01*
X94917300Y-119336115D01*
X94881912Y-119358887D01*
X94751698Y-119228673D01*
X94518309Y-119132000D01*
X94077750Y-119132000D01*
X93919000Y-119290750D01*
X93919000Y-120015000D01*
X93939000Y-120015000D01*
X93939000Y-120269000D01*
X93919000Y-120269000D01*
X93919000Y-120993250D01*
X93946250Y-121020500D01*
X93919000Y-121047750D01*
X93919000Y-122047000D01*
X93939000Y-122047000D01*
X93939000Y-122301000D01*
X93919000Y-122301000D01*
X93919000Y-123300250D01*
X94077750Y-123459000D01*
X94132400Y-123459000D01*
X94132400Y-123952000D01*
X94178803Y-124185284D01*
X94310948Y-124383052D01*
X94393896Y-124466000D01*
X94199750Y-124466000D01*
X94041000Y-124624750D01*
X94041000Y-125349000D01*
X94990250Y-125349000D01*
X95133573Y-125205677D01*
X96552948Y-126625052D01*
X96750716Y-126757197D01*
X96984000Y-126803600D01*
X98012000Y-126803600D01*
X98104719Y-126785157D01*
X98662000Y-126785157D01*
X98831428Y-126753277D01*
X98987038Y-126653145D01*
X99091430Y-126500361D01*
X99128157Y-126319000D01*
X99128157Y-126250869D01*
X99200327Y-126178699D01*
X99297000Y-125945310D01*
X99297000Y-125915250D01*
X99138250Y-125756500D01*
X99004213Y-125756500D01*
X98996145Y-125743962D01*
X98923277Y-125694174D01*
X98987038Y-125653145D01*
X99001827Y-125631500D01*
X99138250Y-125631500D01*
X99297000Y-125472750D01*
X99297000Y-125442690D01*
X99200327Y-125209301D01*
X99128157Y-125137131D01*
X99128157Y-125069000D01*
X99103773Y-124939410D01*
X99128157Y-124819000D01*
X99128157Y-124569000D01*
X99103773Y-124439410D01*
X99128157Y-124319000D01*
X99128157Y-124069000D01*
X99103773Y-123939410D01*
X99128157Y-123819000D01*
X99128157Y-123569000D01*
X99103773Y-123439410D01*
X99128157Y-123319000D01*
X99128157Y-123069000D01*
X99103773Y-122939410D01*
X99128157Y-122819000D01*
X99128157Y-122569000D01*
X99103773Y-122439410D01*
X99128157Y-122319000D01*
X99128157Y-122069000D01*
X99103773Y-121939410D01*
X99128157Y-121819000D01*
X99128157Y-121569000D01*
X99103773Y-121439410D01*
X99128157Y-121319000D01*
X99128157Y-121069000D01*
X99108537Y-120964731D01*
X99314000Y-121005600D01*
X104940100Y-121005600D01*
X104940100Y-126540807D01*
X104863310Y-126509000D01*
X104833250Y-126509000D01*
X104674500Y-126667750D01*
X104674500Y-126801787D01*
X104661962Y-126809855D01*
X104612174Y-126882723D01*
X104571145Y-126818962D01*
X104549500Y-126804173D01*
X104549500Y-126667750D01*
X104390750Y-126509000D01*
X104360690Y-126509000D01*
X104127301Y-126605673D01*
X104055131Y-126677843D01*
X103987000Y-126677843D01*
X103857410Y-126702227D01*
X103737000Y-126677843D01*
X103487000Y-126677843D01*
X103357410Y-126702227D01*
X103237000Y-126677843D01*
X102987000Y-126677843D01*
X102857410Y-126702227D01*
X102737000Y-126677843D01*
X102487000Y-126677843D01*
X102357410Y-126702227D01*
X102237000Y-126677843D01*
X101987000Y-126677843D01*
X101857410Y-126702227D01*
X101737000Y-126677843D01*
X101487000Y-126677843D01*
X101357410Y-126702227D01*
X101237000Y-126677843D01*
X100987000Y-126677843D01*
X100857410Y-126702227D01*
X100737000Y-126677843D01*
X100487000Y-126677843D01*
X100357410Y-126702227D01*
X100237000Y-126677843D01*
X99987000Y-126677843D01*
X99857410Y-126702227D01*
X99737000Y-126677843D01*
X99487000Y-126677843D01*
X99317572Y-126709723D01*
X99161962Y-126809855D01*
X99057570Y-126962639D01*
X99020843Y-127144000D01*
X99020843Y-128444000D01*
X99052723Y-128613428D01*
X99109589Y-128701800D01*
X98899194Y-128701800D01*
X97800302Y-127602908D01*
X97733746Y-127558437D01*
X97610774Y-127476270D01*
X97387210Y-127431800D01*
X95071984Y-127431800D01*
X94547092Y-126906908D01*
X94357564Y-126780270D01*
X94134000Y-126735800D01*
X94120510Y-126735800D01*
X94078145Y-126669962D01*
X93925361Y-126565570D01*
X93744000Y-126528843D01*
X93726000Y-126528843D01*
X93726000Y-126388250D01*
X93787000Y-126327250D01*
X93787000Y-125603000D01*
X94041000Y-125603000D01*
X94041000Y-126327250D01*
X94199750Y-126486000D01*
X94640309Y-126486000D01*
X94873698Y-126389327D01*
X95052327Y-126210699D01*
X95149000Y-125977310D01*
X95149000Y-125761750D01*
X94990250Y-125603000D01*
X94041000Y-125603000D01*
X93787000Y-125603000D01*
X93767000Y-125603000D01*
X93767000Y-125349000D01*
X93787000Y-125349000D01*
X93787000Y-124624750D01*
X93720612Y-124558362D01*
X93717315Y-124540841D01*
X93690035Y-124498447D01*
X93648410Y-124470006D01*
X93599000Y-124460000D01*
X92459347Y-124460000D01*
X90459097Y-122459750D01*
X92807000Y-122459750D01*
X92807000Y-122950310D01*
X92903673Y-123183699D01*
X93082302Y-123362327D01*
X93315691Y-123459000D01*
X93506250Y-123459000D01*
X93665000Y-123300250D01*
X93665000Y-122301000D01*
X92965750Y-122301000D01*
X92807000Y-122459750D01*
X90459097Y-122459750D01*
X89166373Y-121167027D01*
X88952124Y-121023870D01*
X88699400Y-120973600D01*
X87676157Y-120973600D01*
X87676157Y-120634000D01*
X87644277Y-120464572D01*
X87620583Y-120427750D01*
X92557000Y-120427750D01*
X92557000Y-120643310D01*
X92653673Y-120876699D01*
X92832302Y-121055327D01*
X92959825Y-121108149D01*
X92903673Y-121164301D01*
X92807000Y-121397690D01*
X92807000Y-121888250D01*
X92965750Y-122047000D01*
X93665000Y-122047000D01*
X93665000Y-121047750D01*
X93637750Y-121020500D01*
X93665000Y-120993250D01*
X93665000Y-120269000D01*
X92715750Y-120269000D01*
X92557000Y-120427750D01*
X87620583Y-120427750D01*
X87544145Y-120308962D01*
X87391361Y-120204570D01*
X87210000Y-120167843D01*
X85510000Y-120167843D01*
X85340572Y-120199723D01*
X85184962Y-120299855D01*
X85080570Y-120452639D01*
X85043843Y-120634000D01*
X85043843Y-120979877D01*
X84822676Y-121023870D01*
X84608427Y-121167027D01*
X83119000Y-122656454D01*
X83119000Y-122554998D01*
X82960252Y-122554998D01*
X83119000Y-122396250D01*
X83119000Y-121982190D01*
X83022327Y-121748801D01*
X82843698Y-121570173D01*
X82610309Y-121473500D01*
X81819750Y-121473500D01*
X81661000Y-121632250D01*
X81661000Y-122555000D01*
X81681000Y-122555000D01*
X81681000Y-122809000D01*
X81661000Y-122809000D01*
X81661000Y-122829000D01*
X81407000Y-122829000D01*
X81407000Y-122809000D01*
X81387000Y-122809000D01*
X81387000Y-122555000D01*
X81407000Y-122555000D01*
X81407000Y-121632250D01*
X81248250Y-121473500D01*
X80960000Y-121473500D01*
X80960000Y-120733190D01*
X80863327Y-120499801D01*
X80684698Y-120321173D01*
X80451309Y-120224500D01*
X79660750Y-120224500D01*
X79502000Y-120383250D01*
X79502000Y-121920000D01*
X79522000Y-121920000D01*
X79522000Y-122174000D01*
X79502000Y-122174000D01*
X79502000Y-124079000D01*
X79522000Y-124079000D01*
X79522000Y-124333000D01*
X79502000Y-124333000D01*
X79502000Y-125857000D01*
X79522000Y-125857000D01*
X79522000Y-126111000D01*
X79502000Y-126111000D01*
X79502000Y-128016000D01*
X79522000Y-128016000D01*
X79522000Y-128270000D01*
X79502000Y-128270000D01*
X79502000Y-129806750D01*
X79660750Y-129965500D01*
X80412295Y-129965500D01*
X80383843Y-130106000D01*
X80383843Y-131006000D01*
X80415723Y-131175428D01*
X80515855Y-131331038D01*
X80668639Y-131435430D01*
X80675300Y-131436779D01*
X80675300Y-131561710D01*
X80536170Y-131651237D01*
X80431778Y-131804021D01*
X80395051Y-131985382D01*
X80395051Y-133185382D01*
X80426931Y-133354810D01*
X80527063Y-133510420D01*
X80679847Y-133614812D01*
X80861208Y-133651539D01*
X82061208Y-133651539D01*
X82230636Y-133619659D01*
X82386246Y-133519527D01*
X82490638Y-133366743D01*
X82527365Y-133185382D01*
X82527365Y-131985382D01*
X82495485Y-131815954D01*
X82395353Y-131660344D01*
X82242569Y-131555952D01*
X82224700Y-131552333D01*
X82224700Y-131436885D01*
X82375038Y-131340145D01*
X82453514Y-131225291D01*
X82511673Y-131365699D01*
X82690302Y-131544327D01*
X82819286Y-131597754D01*
X82736170Y-131651237D01*
X82631778Y-131804021D01*
X82595051Y-131985382D01*
X82595051Y-133185382D01*
X82626931Y-133354810D01*
X82727063Y-133510420D01*
X82879847Y-133614812D01*
X83061208Y-133651539D01*
X84261208Y-133651539D01*
X84430636Y-133619659D01*
X84586246Y-133519527D01*
X84690638Y-133366743D01*
X84704846Y-133296582D01*
X84789843Y-133296582D01*
X84789843Y-133302000D01*
X84821723Y-133471428D01*
X84921855Y-133627038D01*
X85074639Y-133731430D01*
X85256000Y-133768157D01*
X86956000Y-133768157D01*
X87125428Y-133736277D01*
X87281038Y-133636145D01*
X87385430Y-133483361D01*
X87422157Y-133302000D01*
X87422157Y-132537200D01*
X100668904Y-132537200D01*
X100686015Y-133358517D01*
X100672145Y-133336962D01*
X100519361Y-133232570D01*
X100338000Y-133195843D01*
X99138000Y-133195843D01*
X98968572Y-133227723D01*
X98812962Y-133327855D01*
X98708570Y-133480639D01*
X98671843Y-133662000D01*
X98671843Y-134562000D01*
X98703723Y-134731428D01*
X98787293Y-134861300D01*
X98359345Y-134861300D01*
X98431000Y-134688310D01*
X98431000Y-134397750D01*
X98272250Y-134239000D01*
X97323000Y-134239000D01*
X97323000Y-134259000D01*
X97069000Y-134259000D01*
X97069000Y-134239000D01*
X97049000Y-134239000D01*
X97049000Y-133985000D01*
X97069000Y-133985000D01*
X97069000Y-133185750D01*
X97323000Y-133185750D01*
X97323000Y-133985000D01*
X98272250Y-133985000D01*
X98431000Y-133826250D01*
X98431000Y-133535690D01*
X98334327Y-133302301D01*
X98155698Y-133123673D01*
X97922309Y-133027000D01*
X97481750Y-133027000D01*
X97323000Y-133185750D01*
X97069000Y-133185750D01*
X96910250Y-133027000D01*
X96469691Y-133027000D01*
X96236302Y-133123673D01*
X96057673Y-133302301D01*
X95998996Y-133443960D01*
X95930145Y-133336962D01*
X95777361Y-133232570D01*
X95596000Y-133195843D01*
X94396000Y-133195843D01*
X94226572Y-133227723D01*
X94070962Y-133327855D01*
X93966570Y-133480639D01*
X93929843Y-133662000D01*
X93929843Y-134336566D01*
X91373108Y-136893300D01*
X86831357Y-136893300D01*
X86831357Y-136817200D01*
X86799477Y-136647772D01*
X86699345Y-136492162D01*
X86546561Y-136387770D01*
X86365200Y-136351043D01*
X84185200Y-136351043D01*
X84015772Y-136382923D01*
X83860162Y-136483055D01*
X83755770Y-136635839D01*
X83719043Y-136817200D01*
X83719043Y-138417200D01*
X83750923Y-138586628D01*
X83851055Y-138742238D01*
X84003839Y-138846630D01*
X84185200Y-138883357D01*
X86365200Y-138883357D01*
X86534628Y-138851477D01*
X86690238Y-138751345D01*
X86794630Y-138598561D01*
X86826193Y-138442700D01*
X91693995Y-138442700D01*
X91694000Y-138442701D01*
X91972658Y-138387271D01*
X91990465Y-138383729D01*
X92241796Y-138215796D01*
X92899043Y-137558549D01*
X92899043Y-138417200D01*
X92930923Y-138586628D01*
X93031055Y-138742238D01*
X93183839Y-138846630D01*
X93365200Y-138883357D01*
X94239300Y-138883357D01*
X94239300Y-139090563D01*
X94221479Y-139133481D01*
X94221122Y-139542723D01*
X94377402Y-139920950D01*
X94666528Y-140210581D01*
X95044481Y-140367521D01*
X95453723Y-140367878D01*
X95831950Y-140211598D01*
X96121581Y-139922472D01*
X96278521Y-139544519D01*
X96278878Y-139135277D01*
X96122598Y-138757050D01*
X95970467Y-138604653D01*
X95974630Y-138598561D01*
X95987928Y-138532892D01*
X97110514Y-138532892D01*
X97356817Y-139057358D01*
X97785076Y-139447645D01*
X98195110Y-139617476D01*
X98425000Y-139496155D01*
X98425000Y-138303000D01*
X97231181Y-138303000D01*
X97110514Y-138532892D01*
X95987928Y-138532892D01*
X96011357Y-138417200D01*
X96011357Y-137819108D01*
X97110514Y-137819108D01*
X97231181Y-138049000D01*
X98425000Y-138049000D01*
X98425000Y-136855845D01*
X98195110Y-136734524D01*
X97785076Y-136904355D01*
X97356817Y-137294642D01*
X97110514Y-137819108D01*
X96011357Y-137819108D01*
X96011357Y-136817200D01*
X95979477Y-136647772D01*
X95957529Y-136613663D01*
X96160491Y-136410700D01*
X98831400Y-136410700D01*
X98831400Y-136423400D01*
X98832448Y-136428971D01*
X98835182Y-136773422D01*
X98679000Y-136855845D01*
X98679000Y-138049000D01*
X98699000Y-138049000D01*
X98699000Y-138303000D01*
X98679000Y-138303000D01*
X98679000Y-139496155D01*
X98908890Y-139617476D01*
X98928075Y-139609530D01*
X98934115Y-139613678D01*
X98983502Y-139623800D01*
X109803902Y-139649200D01*
X109850359Y-139640515D01*
X109892753Y-139613235D01*
X109921194Y-139571610D01*
X109931200Y-139522200D01*
X109931200Y-139295511D01*
X109991430Y-139207361D01*
X110028157Y-139026000D01*
X110028157Y-138938000D01*
X111675839Y-138938000D01*
X111759584Y-139359013D01*
X111998069Y-139715931D01*
X112354987Y-139954416D01*
X112776000Y-140038161D01*
X113197013Y-139954416D01*
X113553931Y-139715931D01*
X113792416Y-139359013D01*
X113876161Y-138938000D01*
X113792416Y-138516987D01*
X113553931Y-138160069D01*
X113197013Y-137921584D01*
X112776000Y-137837839D01*
X112354987Y-137921584D01*
X111998069Y-138160069D01*
X111759584Y-138516987D01*
X111675839Y-138938000D01*
X110028157Y-138938000D01*
X110028157Y-137326000D01*
X109996277Y-137156572D01*
X109931200Y-137055439D01*
X109931200Y-136423400D01*
X109922515Y-136377241D01*
X109895235Y-136334847D01*
X109853610Y-136306406D01*
X109804200Y-136296400D01*
X109798451Y-136296400D01*
X109753394Y-131723149D01*
X109744227Y-131677011D01*
X109716507Y-131634903D01*
X109674589Y-131606897D01*
X109625077Y-131597407D01*
X109054900Y-131603346D01*
X109054900Y-130834925D01*
X109098302Y-130878327D01*
X109331691Y-130975000D01*
X110172250Y-130975000D01*
X110331000Y-130816250D01*
X110331000Y-129667000D01*
X110585000Y-129667000D01*
X110585000Y-130816250D01*
X110743750Y-130975000D01*
X111584309Y-130975000D01*
X111817698Y-130878327D01*
X111996327Y-130699699D01*
X112093000Y-130466310D01*
X112093000Y-129825750D01*
X111934250Y-129667000D01*
X110585000Y-129667000D01*
X110331000Y-129667000D01*
X110311000Y-129667000D01*
X110311000Y-129413000D01*
X110331000Y-129413000D01*
X110331000Y-128263750D01*
X110585000Y-128263750D01*
X110585000Y-129413000D01*
X111934250Y-129413000D01*
X112093000Y-129254250D01*
X112093000Y-128613690D01*
X111996327Y-128380301D01*
X111817698Y-128201673D01*
X111584309Y-128105000D01*
X110743750Y-128105000D01*
X110585000Y-128263750D01*
X110331000Y-128263750D01*
X110172250Y-128105000D01*
X109331691Y-128105000D01*
X109098302Y-128201673D01*
X109054900Y-128245075D01*
X109054900Y-127415000D01*
X109009464Y-127186576D01*
X108880072Y-126992928D01*
X107807609Y-125920465D01*
X107828157Y-125819000D01*
X107828157Y-125797250D01*
X112804000Y-125797250D01*
X113034854Y-125751330D01*
X113230562Y-125620562D01*
X115037800Y-123813324D01*
X115037800Y-141199800D01*
X78002200Y-141199800D01*
X78002200Y-138878039D01*
X79163839Y-138878039D01*
X79247584Y-139299052D01*
X79486069Y-139655970D01*
X79842987Y-139894455D01*
X80264000Y-139978200D01*
X80685013Y-139894455D01*
X81041931Y-139655970D01*
X81280416Y-139299052D01*
X81364161Y-138878039D01*
X81280416Y-138457026D01*
X81041931Y-138100108D01*
X80685013Y-137861623D01*
X80264000Y-137777878D01*
X79842987Y-137861623D01*
X79486069Y-138100108D01*
X79247584Y-138457026D01*
X79163839Y-138878039D01*
X78002200Y-138878039D01*
X78002200Y-129805725D01*
X78065302Y-129868827D01*
X78298691Y-129965500D01*
X79089250Y-129965500D01*
X79248000Y-129806750D01*
X79248000Y-128270000D01*
X79228000Y-128270000D01*
X79228000Y-128016000D01*
X79248000Y-128016000D01*
X79248000Y-126111000D01*
X79228000Y-126111000D01*
X79228000Y-125857000D01*
X79248000Y-125857000D01*
X79248000Y-124333000D01*
X79228000Y-124333000D01*
X79228000Y-124079000D01*
X79248000Y-124079000D01*
X79248000Y-122174000D01*
X79228000Y-122174000D01*
X79228000Y-121920000D01*
X79248000Y-121920000D01*
X79248000Y-120383250D01*
X79089250Y-120224500D01*
X78298691Y-120224500D01*
X78065302Y-120321173D01*
X78002200Y-120384275D01*
X78002200Y-119640690D01*
X92557000Y-119640690D01*
X92557000Y-119856250D01*
X92715750Y-120015000D01*
X93665000Y-120015000D01*
X93665000Y-119290750D01*
X93506250Y-119132000D01*
X93065691Y-119132000D01*
X92832302Y-119228673D01*
X92653673Y-119407301D01*
X92557000Y-119640690D01*
X78002200Y-119640690D01*
X78002200Y-117887750D01*
X79915000Y-117887750D01*
X79915000Y-118353310D01*
X80011673Y-118586699D01*
X80190302Y-118765327D01*
X80423691Y-118862000D01*
X81014250Y-118862000D01*
X81173000Y-118703250D01*
X81173000Y-117729000D01*
X80073750Y-117729000D01*
X79915000Y-117887750D01*
X78002200Y-117887750D01*
X78002200Y-115322690D01*
X80619000Y-115322690D01*
X80619000Y-115538250D01*
X80777750Y-115697000D01*
X81727000Y-115697000D01*
X81727000Y-114972750D01*
X81568250Y-114814000D01*
X81127691Y-114814000D01*
X80894302Y-114910673D01*
X80715673Y-115089301D01*
X80619000Y-115322690D01*
X78002200Y-115322690D01*
X78002200Y-112553750D01*
X80619000Y-112553750D01*
X80619000Y-112769310D01*
X80715673Y-113002699D01*
X80894302Y-113181327D01*
X81127691Y-113278000D01*
X81568250Y-113278000D01*
X81727000Y-113119250D01*
X81727000Y-112395000D01*
X80777750Y-112395000D01*
X80619000Y-112553750D01*
X78002200Y-112553750D01*
X78002200Y-110521750D01*
X79915000Y-110521750D01*
X79915000Y-111162310D01*
X80011673Y-111395699D01*
X80190302Y-111574327D01*
X80423691Y-111671000D01*
X80658636Y-111671000D01*
X80619000Y-111766690D01*
X80619000Y-111982250D01*
X80777750Y-112141000D01*
X81727000Y-112141000D01*
X81727000Y-112121000D01*
X81981000Y-112121000D01*
X81981000Y-112141000D01*
X82001000Y-112141000D01*
X82001000Y-112395000D01*
X81981000Y-112395000D01*
X81981000Y-113119250D01*
X82139750Y-113278000D01*
X82580309Y-113278000D01*
X82813698Y-113181327D01*
X82942909Y-113052117D01*
X82972639Y-113072430D01*
X83154000Y-113109157D01*
X84330750Y-113109157D01*
X83460204Y-113979702D01*
X83292271Y-114231033D01*
X83287198Y-114256536D01*
X83233299Y-114527498D01*
X83233300Y-114527503D01*
X83233300Y-114982843D01*
X83154000Y-114982843D01*
X82984572Y-115014723D01*
X82943912Y-115040887D01*
X82813698Y-114910673D01*
X82580309Y-114814000D01*
X82139750Y-114814000D01*
X81981000Y-114972750D01*
X81981000Y-115697000D01*
X82001000Y-115697000D01*
X82001000Y-115951000D01*
X81981000Y-115951000D01*
X81981000Y-115971000D01*
X81727000Y-115971000D01*
X81727000Y-115951000D01*
X80777750Y-115951000D01*
X80619000Y-116109750D01*
X80619000Y-116325310D01*
X80625913Y-116342000D01*
X80423691Y-116342000D01*
X80190302Y-116438673D01*
X80011673Y-116617301D01*
X79915000Y-116850690D01*
X79915000Y-117316250D01*
X80073750Y-117475000D01*
X81173000Y-117475000D01*
X81173000Y-117455000D01*
X81427000Y-117455000D01*
X81427000Y-117475000D01*
X81447000Y-117475000D01*
X81447000Y-117729000D01*
X81427000Y-117729000D01*
X81427000Y-118703250D01*
X81585750Y-118862000D01*
X82176309Y-118862000D01*
X82409698Y-118765327D01*
X82588327Y-118586699D01*
X82647004Y-118445040D01*
X82715855Y-118552038D01*
X82868639Y-118656430D01*
X83050000Y-118693157D01*
X84550000Y-118693157D01*
X84719428Y-118661277D01*
X84875038Y-118561145D01*
X84979430Y-118408361D01*
X84985842Y-118376700D01*
X85043843Y-118376700D01*
X85043843Y-118634000D01*
X85075723Y-118803428D01*
X85175855Y-118959038D01*
X85328639Y-119063430D01*
X85510000Y-119100157D01*
X87210000Y-119100157D01*
X87379428Y-119068277D01*
X87535038Y-118968145D01*
X87639430Y-118815361D01*
X87676157Y-118634000D01*
X87676157Y-116634000D01*
X87644277Y-116464572D01*
X87544145Y-116308962D01*
X87391361Y-116204570D01*
X87210000Y-116167843D01*
X86796700Y-116167843D01*
X86796700Y-115960841D01*
X86877038Y-115909145D01*
X86981430Y-115756361D01*
X87018157Y-115575000D01*
X87018157Y-115056869D01*
X87090327Y-114984699D01*
X87115055Y-114925000D01*
X87225843Y-114925000D01*
X87225843Y-115575000D01*
X87257723Y-115744428D01*
X87357855Y-115900038D01*
X87510639Y-116004430D01*
X87692000Y-116041157D01*
X88752000Y-116041157D01*
X88921428Y-116009277D01*
X89077038Y-115909145D01*
X89181430Y-115756361D01*
X89218157Y-115575000D01*
X89218157Y-114925000D01*
X89186277Y-114755572D01*
X89086145Y-114599962D01*
X88933361Y-114495570D01*
X88752000Y-114458843D01*
X87692000Y-114458843D01*
X87522572Y-114490723D01*
X87366962Y-114590855D01*
X87262570Y-114743639D01*
X87225843Y-114925000D01*
X87115055Y-114925000D01*
X87187000Y-114751310D01*
X87187000Y-114585750D01*
X87028250Y-114427000D01*
X86149000Y-114427000D01*
X86149000Y-114447000D01*
X85895000Y-114447000D01*
X85895000Y-114427000D01*
X85875000Y-114427000D01*
X85875000Y-114173000D01*
X85895000Y-114173000D01*
X85895000Y-114153000D01*
X86149000Y-114153000D01*
X86149000Y-114173000D01*
X87028250Y-114173000D01*
X87187000Y-114014250D01*
X87187000Y-113848690D01*
X87090327Y-113615301D01*
X87018157Y-113543131D01*
X87018157Y-113025000D01*
X86986277Y-112855572D01*
X86886145Y-112699962D01*
X86733361Y-112595570D01*
X86552000Y-112558843D01*
X85492000Y-112558843D01*
X85404538Y-112575300D01*
X85185503Y-112575300D01*
X85185498Y-112575299D01*
X84947847Y-112622572D01*
X84889033Y-112634271D01*
X84811423Y-112686128D01*
X84820157Y-112643000D01*
X84820157Y-112411494D01*
X84844257Y-112290335D01*
X84845558Y-112289034D01*
X84986639Y-112385430D01*
X85168000Y-112422157D01*
X86368000Y-112422157D01*
X86537428Y-112390277D01*
X86693038Y-112290145D01*
X86797430Y-112137361D01*
X86834157Y-111956000D01*
X86834157Y-111056000D01*
X86901843Y-111056000D01*
X86901843Y-111956000D01*
X86933723Y-112125428D01*
X87033855Y-112281038D01*
X87186639Y-112385430D01*
X87368000Y-112422157D01*
X87447300Y-112422157D01*
X87447300Y-112639159D01*
X87366962Y-112690855D01*
X87262570Y-112843639D01*
X87225843Y-113025000D01*
X87225843Y-113675000D01*
X87257723Y-113844428D01*
X87357855Y-114000038D01*
X87510639Y-114104430D01*
X87692000Y-114141157D01*
X88752000Y-114141157D01*
X88921428Y-114109277D01*
X89077038Y-114009145D01*
X89181430Y-113856361D01*
X89218157Y-113675000D01*
X89218157Y-113025000D01*
X89186277Y-112855572D01*
X89086145Y-112699962D01*
X89065916Y-112686140D01*
X89066000Y-112686157D01*
X90766000Y-112686157D01*
X90935428Y-112654277D01*
X90984870Y-112622462D01*
X92409843Y-114047435D01*
X92409843Y-114570000D01*
X92441723Y-114739428D01*
X92541855Y-114895038D01*
X92694639Y-114999430D01*
X92876000Y-115036157D01*
X94576000Y-115036157D01*
X94745428Y-115004277D01*
X94901038Y-114904145D01*
X95005430Y-114751361D01*
X95042157Y-114570000D01*
X95042157Y-112570000D01*
X95010277Y-112400572D01*
X94910145Y-112244962D01*
X94757361Y-112140570D01*
X94576000Y-112103843D01*
X92876000Y-112103843D01*
X92706572Y-112135723D01*
X92696072Y-112142480D01*
X91232157Y-110678565D01*
X91232157Y-110220000D01*
X91200277Y-110050572D01*
X91100145Y-109894962D01*
X90947361Y-109790570D01*
X90766000Y-109753843D01*
X89066000Y-109753843D01*
X88896572Y-109785723D01*
X88740962Y-109885855D01*
X88636570Y-110038639D01*
X88599843Y-110220000D01*
X88599843Y-110596291D01*
X88568000Y-110589843D01*
X87368000Y-110589843D01*
X87198572Y-110621723D01*
X87042962Y-110721855D01*
X86938570Y-110874639D01*
X86901843Y-111056000D01*
X86834157Y-111056000D01*
X86802277Y-110886572D01*
X86702145Y-110730962D01*
X86549361Y-110626570D01*
X86368000Y-110589843D01*
X85168000Y-110589843D01*
X85016157Y-110618414D01*
X85016157Y-109436000D01*
X84984277Y-109266572D01*
X84884145Y-109110962D01*
X84731361Y-109006570D01*
X84550000Y-108969843D01*
X83550000Y-108969843D01*
X83380572Y-109001723D01*
X83224962Y-109101855D01*
X83120570Y-109254639D01*
X83083843Y-109436000D01*
X83083843Y-111036000D01*
X83115723Y-111205428D01*
X83215855Y-111361038D01*
X83312165Y-111426843D01*
X83154000Y-111426843D01*
X82984572Y-111458723D01*
X82943912Y-111484887D01*
X82813698Y-111354673D01*
X82580309Y-111258000D01*
X82145364Y-111258000D01*
X82185000Y-111162310D01*
X82185000Y-110521750D01*
X82026250Y-110363000D01*
X81177000Y-110363000D01*
X81177000Y-110383000D01*
X80923000Y-110383000D01*
X80923000Y-110363000D01*
X80073750Y-110363000D01*
X79915000Y-110521750D01*
X78002200Y-110521750D01*
X78002200Y-109309690D01*
X79915000Y-109309690D01*
X79915000Y-109950250D01*
X80073750Y-110109000D01*
X80923000Y-110109000D01*
X80923000Y-108959750D01*
X81177000Y-108959750D01*
X81177000Y-110109000D01*
X82026250Y-110109000D01*
X82185000Y-109950250D01*
X82185000Y-109309690D01*
X82088327Y-109076301D01*
X81909698Y-108897673D01*
X81676309Y-108801000D01*
X81335750Y-108801000D01*
X81177000Y-108959750D01*
X80923000Y-108959750D01*
X80764250Y-108801000D01*
X80423691Y-108801000D01*
X80190302Y-108897673D01*
X80011673Y-109076301D01*
X79915000Y-109309690D01*
X78002200Y-109309690D01*
X78002200Y-99060000D01*
X79163839Y-99060000D01*
X79247584Y-99481013D01*
X79486069Y-99837931D01*
X79842987Y-100076416D01*
X80264000Y-100160161D01*
X80685013Y-100076416D01*
X81041931Y-99837931D01*
X81280416Y-99481013D01*
X81364161Y-99060000D01*
X81280416Y-98638987D01*
X81041931Y-98282069D01*
X80685013Y-98043584D01*
X80264000Y-97959839D01*
X79842987Y-98043584D01*
X79486069Y-98282069D01*
X79247584Y-98638987D01*
X79163839Y-99060000D01*
X78002200Y-99060000D01*
X78002200Y-89849960D01*
X79044800Y-89849960D01*
X79044800Y-94142560D01*
X86026170Y-94142560D01*
X86026170Y-89849960D01*
X79044800Y-89849960D01*
X78002200Y-89849960D01*
X78002200Y-89178200D01*
X115037800Y-89178200D01*
X115037800Y-108342676D01*
G36*
X84836000Y-127106838D02*
X84826570Y-127120639D01*
X84789843Y-127302000D01*
X84789843Y-129302000D01*
X84821723Y-129471428D01*
X84836000Y-129493615D01*
X84836000Y-129794000D01*
X84844685Y-129840159D01*
X84871965Y-129882553D01*
X84913590Y-129910994D01*
X84963000Y-129921000D01*
X89224441Y-129921000D01*
X89302639Y-129974430D01*
X89484000Y-130011157D01*
X91044000Y-130011157D01*
X91213428Y-129979277D01*
X91369038Y-129879145D01*
X91473430Y-129726361D01*
X91510157Y-129545000D01*
X91510157Y-129026869D01*
X91582327Y-128954699D01*
X91679000Y-128721310D01*
X91679000Y-128591144D01*
X91725952Y-128638096D01*
X91747104Y-128750508D01*
X91717843Y-128895000D01*
X91717843Y-129545000D01*
X91749723Y-129714428D01*
X91849855Y-129870038D01*
X92002639Y-129974430D01*
X92184000Y-130011157D01*
X93744000Y-130011157D01*
X93913428Y-129979277D01*
X94069038Y-129879145D01*
X94120245Y-129804200D01*
X94134000Y-129804200D01*
X94357564Y-129759730D01*
X94547092Y-129633092D01*
X95071984Y-129108200D01*
X96934806Y-129108200D01*
X98033698Y-130207092D01*
X98223226Y-130333730D01*
X98446790Y-130378200D01*
X100647500Y-130378200D01*
X100647500Y-131114800D01*
X87378841Y-131114800D01*
X87290145Y-130976962D01*
X87137361Y-130872570D01*
X86956000Y-130835843D01*
X85256000Y-130835843D01*
X85086572Y-130867723D01*
X84930962Y-130967855D01*
X84885000Y-131035123D01*
X84885000Y-130841750D01*
X84726250Y-130683000D01*
X83777000Y-130683000D01*
X83777000Y-130703000D01*
X83523000Y-130703000D01*
X83523000Y-130683000D01*
X83503000Y-130683000D01*
X83503000Y-130429000D01*
X83523000Y-130429000D01*
X83523000Y-129629750D01*
X83777000Y-129629750D01*
X83777000Y-130429000D01*
X84726250Y-130429000D01*
X84885000Y-130270250D01*
X84885000Y-129979690D01*
X84788327Y-129746301D01*
X84609698Y-129567673D01*
X84376309Y-129471000D01*
X83935750Y-129471000D01*
X83777000Y-129629750D01*
X83523000Y-129629750D01*
X83364250Y-129471000D01*
X82923691Y-129471000D01*
X82690302Y-129567673D01*
X82511673Y-129746301D01*
X82452996Y-129887960D01*
X82384145Y-129780962D01*
X82231361Y-129676570D01*
X82050000Y-129639843D01*
X80884185Y-129639843D01*
X80960000Y-129456810D01*
X80960000Y-128716500D01*
X81248250Y-128716500D01*
X81407000Y-128557750D01*
X81407000Y-127635000D01*
X81661000Y-127635000D01*
X81661000Y-128557750D01*
X81819750Y-128716500D01*
X82610309Y-128716500D01*
X82843698Y-128619827D01*
X83022327Y-128441199D01*
X83119000Y-128207810D01*
X83119000Y-127793750D01*
X82960250Y-127635000D01*
X81661000Y-127635000D01*
X81407000Y-127635000D01*
X81387000Y-127635000D01*
X81387000Y-127381000D01*
X81407000Y-127381000D01*
X81407000Y-127361000D01*
X81661000Y-127361000D01*
X81661000Y-127381000D01*
X82960250Y-127381000D01*
X83119000Y-127222250D01*
X83119000Y-126808190D01*
X83089826Y-126737757D01*
X83113000Y-126681810D01*
X83113000Y-126619000D01*
X82954250Y-126460250D01*
X82907775Y-126460250D01*
X82843698Y-126396173D01*
X82685153Y-126330502D01*
X82779564Y-126269750D01*
X82954250Y-126269750D01*
X83113000Y-126111000D01*
X83113000Y-126048190D01*
X83016327Y-125814801D01*
X82956926Y-125755400D01*
X84836000Y-125755400D01*
X84836000Y-127106838D01*
X84836000Y-127106838D01*
G37*
X84836000Y-127106838D02*
X84826570Y-127120639D01*
X84789843Y-127302000D01*
X84789843Y-129302000D01*
X84821723Y-129471428D01*
X84836000Y-129493615D01*
X84836000Y-129794000D01*
X84844685Y-129840159D01*
X84871965Y-129882553D01*
X84913590Y-129910994D01*
X84963000Y-129921000D01*
X89224441Y-129921000D01*
X89302639Y-129974430D01*
X89484000Y-130011157D01*
X91044000Y-130011157D01*
X91213428Y-129979277D01*
X91369038Y-129879145D01*
X91473430Y-129726361D01*
X91510157Y-129545000D01*
X91510157Y-129026869D01*
X91582327Y-128954699D01*
X91679000Y-128721310D01*
X91679000Y-128591144D01*
X91725952Y-128638096D01*
X91747104Y-128750508D01*
X91717843Y-128895000D01*
X91717843Y-129545000D01*
X91749723Y-129714428D01*
X91849855Y-129870038D01*
X92002639Y-129974430D01*
X92184000Y-130011157D01*
X93744000Y-130011157D01*
X93913428Y-129979277D01*
X94069038Y-129879145D01*
X94120245Y-129804200D01*
X94134000Y-129804200D01*
X94357564Y-129759730D01*
X94547092Y-129633092D01*
X95071984Y-129108200D01*
X96934806Y-129108200D01*
X98033698Y-130207092D01*
X98223226Y-130333730D01*
X98446790Y-130378200D01*
X100647500Y-130378200D01*
X100647500Y-131114800D01*
X87378841Y-131114800D01*
X87290145Y-130976962D01*
X87137361Y-130872570D01*
X86956000Y-130835843D01*
X85256000Y-130835843D01*
X85086572Y-130867723D01*
X84930962Y-130967855D01*
X84885000Y-131035123D01*
X84885000Y-130841750D01*
X84726250Y-130683000D01*
X83777000Y-130683000D01*
X83777000Y-130703000D01*
X83523000Y-130703000D01*
X83523000Y-130683000D01*
X83503000Y-130683000D01*
X83503000Y-130429000D01*
X83523000Y-130429000D01*
X83523000Y-129629750D01*
X83777000Y-129629750D01*
X83777000Y-130429000D01*
X84726250Y-130429000D01*
X84885000Y-130270250D01*
X84885000Y-129979690D01*
X84788327Y-129746301D01*
X84609698Y-129567673D01*
X84376309Y-129471000D01*
X83935750Y-129471000D01*
X83777000Y-129629750D01*
X83523000Y-129629750D01*
X83364250Y-129471000D01*
X82923691Y-129471000D01*
X82690302Y-129567673D01*
X82511673Y-129746301D01*
X82452996Y-129887960D01*
X82384145Y-129780962D01*
X82231361Y-129676570D01*
X82050000Y-129639843D01*
X80884185Y-129639843D01*
X80960000Y-129456810D01*
X80960000Y-128716500D01*
X81248250Y-128716500D01*
X81407000Y-128557750D01*
X81407000Y-127635000D01*
X81661000Y-127635000D01*
X81661000Y-128557750D01*
X81819750Y-128716500D01*
X82610309Y-128716500D01*
X82843698Y-128619827D01*
X83022327Y-128441199D01*
X83119000Y-128207810D01*
X83119000Y-127793750D01*
X82960250Y-127635000D01*
X81661000Y-127635000D01*
X81407000Y-127635000D01*
X81387000Y-127635000D01*
X81387000Y-127381000D01*
X81407000Y-127381000D01*
X81407000Y-127361000D01*
X81661000Y-127361000D01*
X81661000Y-127381000D01*
X82960250Y-127381000D01*
X83119000Y-127222250D01*
X83119000Y-126808190D01*
X83089826Y-126737757D01*
X83113000Y-126681810D01*
X83113000Y-126619000D01*
X82954250Y-126460250D01*
X82907775Y-126460250D01*
X82843698Y-126396173D01*
X82685153Y-126330502D01*
X82779564Y-126269750D01*
X82954250Y-126269750D01*
X83113000Y-126111000D01*
X83113000Y-126048190D01*
X83016327Y-125814801D01*
X82956926Y-125755400D01*
X84836000Y-125755400D01*
X84836000Y-127106838D01*
G36*
X90391000Y-128143000D02*
X90411000Y-128143000D01*
X90411000Y-128397000D01*
X90391000Y-128397000D01*
X90391000Y-128417000D01*
X90170000Y-128417000D01*
X90170000Y-128123000D01*
X90391000Y-128123000D01*
X90391000Y-128143000D01*
X90391000Y-128143000D01*
G37*
X90391000Y-128143000D02*
X90411000Y-128143000D01*
X90411000Y-128397000D01*
X90391000Y-128397000D01*
X90391000Y-128417000D01*
X90170000Y-128417000D01*
X90170000Y-128123000D01*
X90391000Y-128123000D01*
X90391000Y-128143000D01*
M02*
