G04 #@! TF.FileFunction,Other,User*
%FSLAX46Y46*%
G04 Gerber Fmt 4.6, Leading zero omitted, Abs format (unit mm)*
G04 Created by KiCad (PCBNEW 4.0.6) date Sat Apr  8 16:24:32 2017*
%MOMM*%
%LPD*%
G01*
G04 APERTURE LIST*
%ADD10C,0.050000*%
%ADD11C,0.150000*%
G04 APERTURE END LIST*
D10*
X84604000Y-116474000D02*
X81004000Y-116474000D01*
X84604000Y-116474000D02*
X84604000Y-115174000D01*
X81004000Y-115174000D02*
X81004000Y-116474000D01*
X81004000Y-115174000D02*
X84604000Y-115174000D01*
X100054000Y-109586000D02*
X103654000Y-109586000D01*
X100054000Y-109586000D02*
X100054000Y-110886000D01*
X103654000Y-110886000D02*
X103654000Y-109586000D01*
X103654000Y-110886000D02*
X100054000Y-110886000D01*
X80300000Y-116722000D02*
X84800000Y-116722000D01*
X80300000Y-116722000D02*
X80300000Y-118472000D01*
X84800000Y-118472000D02*
X84800000Y-116722000D01*
X84800000Y-118472000D02*
X80300000Y-118472000D01*
X107464000Y-110886000D02*
X103864000Y-110886000D01*
X107464000Y-110886000D02*
X107464000Y-109586000D01*
X103864000Y-109586000D02*
X103864000Y-110886000D01*
X103864000Y-109586000D02*
X107464000Y-109586000D01*
X92942000Y-119492000D02*
X96542000Y-119492000D01*
X92942000Y-119492000D02*
X92942000Y-120792000D01*
X96542000Y-120792000D02*
X96542000Y-119492000D01*
X96542000Y-120792000D02*
X92942000Y-120792000D01*
X84800000Y-111286000D02*
X80300000Y-111286000D01*
X84800000Y-111286000D02*
X84800000Y-109186000D01*
X80300000Y-109186000D02*
X80300000Y-111286000D01*
X80300000Y-109186000D02*
X84800000Y-109186000D01*
X84604000Y-112918000D02*
X81004000Y-112918000D01*
X84604000Y-112918000D02*
X84604000Y-111618000D01*
X81004000Y-111618000D02*
X81004000Y-112918000D01*
X81004000Y-111618000D02*
X84604000Y-111618000D01*
X94764000Y-126126000D02*
X91164000Y-126126000D01*
X94764000Y-126126000D02*
X94764000Y-124826000D01*
X91164000Y-124826000D02*
X91164000Y-126126000D01*
X91164000Y-124826000D02*
X94764000Y-124826000D01*
X89266000Y-104924000D02*
X89266000Y-101324000D01*
X89266000Y-104924000D02*
X90566000Y-104924000D01*
X90566000Y-101324000D02*
X89266000Y-101324000D01*
X90566000Y-101324000D02*
X90566000Y-104924000D01*
X105388000Y-116698000D02*
X108988000Y-116698000D01*
X105388000Y-116698000D02*
X105388000Y-117998000D01*
X108988000Y-117998000D02*
X108988000Y-116698000D01*
X108988000Y-117998000D02*
X105388000Y-117998000D01*
X84511208Y-131735382D02*
X84511208Y-133435382D01*
X84511208Y-133435382D02*
X80611208Y-133435382D01*
X80611208Y-133435382D02*
X80611208Y-131735382D01*
X80611208Y-131735382D02*
X84511208Y-131735382D01*
X94146000Y-101428000D02*
X95846000Y-101428000D01*
X95846000Y-101428000D02*
X95846000Y-105328000D01*
X95846000Y-105328000D02*
X94146000Y-105328000D01*
X94146000Y-105328000D02*
X94146000Y-101428000D01*
X110916000Y-90844000D02*
X110916000Y-92544000D01*
X110916000Y-92544000D02*
X107016000Y-92544000D01*
X107016000Y-92544000D02*
X107016000Y-90844000D01*
X107016000Y-90844000D02*
X110916000Y-90844000D01*
X107216000Y-94008000D02*
X110716000Y-94008000D01*
X110716000Y-94008000D02*
X110716000Y-97508000D01*
X110716000Y-97508000D02*
X107216000Y-97508000D01*
X107216000Y-97508000D02*
X107216000Y-94008000D01*
X98580000Y-94008000D02*
X102080000Y-94008000D01*
X102080000Y-94008000D02*
X102080000Y-97508000D01*
X102080000Y-97508000D02*
X98580000Y-97508000D01*
X98580000Y-97508000D02*
X98580000Y-94008000D01*
X84510000Y-131256000D02*
X80600000Y-131256000D01*
X84510000Y-131256000D02*
X84510000Y-129856000D01*
X80600000Y-129856000D02*
X80600000Y-131256000D01*
X80600000Y-129856000D02*
X84510000Y-129856000D01*
X92518000Y-105338000D02*
X92518000Y-101428000D01*
X92518000Y-105338000D02*
X93918000Y-105338000D01*
X93918000Y-101428000D02*
X92518000Y-101428000D01*
X93918000Y-101428000D02*
X93918000Y-105338000D01*
X89844000Y-126176000D02*
X85934000Y-126176000D01*
X89844000Y-126176000D02*
X89844000Y-124776000D01*
X85934000Y-124776000D02*
X85934000Y-126176000D01*
X85934000Y-124776000D02*
X89844000Y-124776000D01*
X89844000Y-124652000D02*
X85934000Y-124652000D01*
X89844000Y-124652000D02*
X89844000Y-123252000D01*
X85934000Y-123252000D02*
X85934000Y-124652000D01*
X85934000Y-123252000D02*
X89844000Y-123252000D01*
X88828000Y-112206000D02*
X84918000Y-112206000D01*
X88828000Y-112206000D02*
X88828000Y-110806000D01*
X84918000Y-110806000D02*
X84918000Y-112206000D01*
X84918000Y-110806000D02*
X88828000Y-110806000D01*
X102798000Y-134812000D02*
X98888000Y-134812000D01*
X102798000Y-134812000D02*
X102798000Y-133412000D01*
X98888000Y-133412000D02*
X98888000Y-134812000D01*
X98888000Y-133412000D02*
X102798000Y-133412000D01*
X94136000Y-133412000D02*
X98046000Y-133412000D01*
X94136000Y-133412000D02*
X94136000Y-134812000D01*
X98046000Y-134812000D02*
X98046000Y-133412000D01*
X98046000Y-134812000D02*
X94136000Y-134812000D01*
X106862000Y-136336000D02*
X102952000Y-136336000D01*
X106862000Y-136336000D02*
X106862000Y-134936000D01*
X102952000Y-134936000D02*
X102952000Y-136336000D01*
X102952000Y-134936000D02*
X106862000Y-134936000D01*
X108012000Y-136580000D02*
X108012000Y-132670000D01*
X108012000Y-136580000D02*
X109412000Y-136580000D01*
X109412000Y-132670000D02*
X108012000Y-132670000D01*
X109412000Y-132670000D02*
X109412000Y-136580000D01*
X89092000Y-101418000D02*
X89092000Y-105328000D01*
X89092000Y-101418000D02*
X87692000Y-101418000D01*
X87692000Y-105328000D02*
X89092000Y-105328000D01*
X87692000Y-105328000D02*
X87692000Y-101418000D01*
X90740000Y-105338000D02*
X90740000Y-101428000D01*
X90740000Y-105338000D02*
X92140000Y-105338000D01*
X92140000Y-101428000D02*
X90740000Y-101428000D01*
X92140000Y-101428000D02*
X92140000Y-105338000D01*
X106618000Y-91004000D02*
X106618000Y-94914000D01*
X106618000Y-91004000D02*
X105218000Y-91004000D01*
X105218000Y-94914000D02*
X106618000Y-94914000D01*
X105218000Y-94914000D02*
X105218000Y-91004000D01*
X104840000Y-91004000D02*
X104840000Y-94914000D01*
X104840000Y-91004000D02*
X103440000Y-91004000D01*
X103440000Y-94914000D02*
X104840000Y-94914000D01*
X103440000Y-94914000D02*
X103440000Y-91004000D01*
X83915200Y-139617200D02*
X95815200Y-139617200D01*
X95815200Y-135617200D02*
X95815200Y-139617200D01*
X83915200Y-135617200D02*
X83915200Y-139617200D01*
X83915200Y-135617200D02*
X95815200Y-135617200D01*
X89214000Y-130070000D02*
X89214000Y-126470000D01*
X94014000Y-130070000D02*
X89214000Y-130070000D01*
X94014000Y-126470000D02*
X94014000Y-130070000D01*
X89214000Y-126470000D02*
X94014000Y-126470000D01*
X107612000Y-118194000D02*
X97112000Y-118194000D01*
X107612000Y-128694000D02*
X97112000Y-128694000D01*
X107612000Y-118194000D02*
X107612000Y-128694000D01*
X97112000Y-118194000D02*
X97112000Y-128694000D01*
X97154000Y-111192000D02*
X97154000Y-116392000D01*
X97154000Y-116392000D02*
X110754000Y-116392000D01*
X110754000Y-116392000D02*
X110754000Y-111192000D01*
X110754000Y-111192000D02*
X97154000Y-111192000D01*
X100004000Y-99760000D02*
X96094000Y-99760000D01*
X100004000Y-99760000D02*
X100004000Y-98360000D01*
X96094000Y-98360000D02*
X96094000Y-99760000D01*
X96094000Y-98360000D02*
X100004000Y-98360000D01*
X108710500Y-122483000D02*
X108710500Y-118573000D01*
X108710500Y-122483000D02*
X110110500Y-122483000D01*
X110110500Y-118573000D02*
X108710500Y-118573000D01*
X110110500Y-118573000D02*
X110110500Y-122483000D01*
X97680000Y-92694000D02*
X97680000Y-90694000D01*
X97680000Y-90694000D02*
X102980000Y-90694000D01*
X102980000Y-90694000D02*
X102980000Y-92694000D01*
X102980000Y-92694000D02*
X97680000Y-92694000D01*
X105208000Y-128490000D02*
X111708000Y-128490000D01*
X105208000Y-128490000D02*
X105208000Y-130590000D01*
X111708000Y-130590000D02*
X111708000Y-128490000D01*
X111708000Y-130590000D02*
X105208000Y-130590000D01*
X107644000Y-132936000D02*
X101144000Y-132936000D01*
X107644000Y-132936000D02*
X107644000Y-130726000D01*
X101144000Y-130726000D02*
X101144000Y-132936000D01*
X101144000Y-130726000D02*
X107644000Y-130726000D01*
X85160000Y-122934000D02*
X85160000Y-116334000D01*
X87560000Y-122934000D02*
X87560000Y-116334000D01*
X85160000Y-122934000D02*
X87560000Y-122934000D01*
X85160000Y-116334000D02*
X87560000Y-116334000D01*
X85222000Y-112500000D02*
X89022000Y-112500000D01*
X89022000Y-112500000D02*
X89022000Y-116100000D01*
X89022000Y-116100000D02*
X85222000Y-116100000D01*
X85222000Y-116100000D02*
X85222000Y-112500000D01*
X92616000Y-118820000D02*
X92616000Y-112320000D01*
X92616000Y-118820000D02*
X94826000Y-118820000D01*
X94826000Y-112320000D02*
X92616000Y-112320000D01*
X94826000Y-112320000D02*
X94826000Y-118820000D01*
X91026000Y-105970000D02*
X91026000Y-112470000D01*
X91026000Y-105970000D02*
X88816000Y-105970000D01*
X88816000Y-112470000D02*
X91026000Y-112470000D01*
X88816000Y-112470000D02*
X88816000Y-105970000D01*
X96292000Y-123074000D02*
X93192000Y-123074000D01*
X96292000Y-123074000D02*
X96292000Y-121274000D01*
X93192000Y-121274000D02*
X93192000Y-123074000D01*
X93192000Y-121274000D02*
X96292000Y-121274000D01*
X102388000Y-136536000D02*
X99288000Y-136536000D01*
X102388000Y-136536000D02*
X102388000Y-134736000D01*
X99288000Y-134736000D02*
X99288000Y-136536000D01*
X99288000Y-134736000D02*
X102388000Y-134736000D01*
D11*
X77470000Y-121285000D02*
X77470000Y-128905000D01*
X82169000Y-128905000D02*
X77089000Y-128905000D01*
X82169000Y-121285000D02*
X82169000Y-128905000D01*
X77089000Y-121285000D02*
X82169000Y-121285000D01*
X77089000Y-121285000D02*
X77089000Y-128905000D01*
D10*
X83966000Y-100298000D02*
X95866000Y-100298000D01*
X95866000Y-96298000D02*
X95866000Y-100298000D01*
X83966000Y-96298000D02*
X83966000Y-100298000D01*
X83966000Y-96298000D02*
X95866000Y-96298000D01*
X110312000Y-136576000D02*
X97012000Y-136576000D01*
X97012000Y-136576000D02*
X97012000Y-139776000D01*
X97012000Y-139776000D02*
X110312000Y-139776000D01*
X110312000Y-139776000D02*
X110312000Y-136576000D01*
X87216000Y-127052000D02*
X87216000Y-133552000D01*
X87216000Y-127052000D02*
X85006000Y-127052000D01*
X85006000Y-133552000D02*
X87216000Y-133552000D01*
X85006000Y-133552000D02*
X85006000Y-127052000D01*
M02*
