G04 #@! TF.FileFunction,Copper,L1,Top,Signal*
%FSLAX46Y46*%
G04 Gerber Fmt 4.6, Leading zero omitted, Abs format (unit mm)*
G04 Created by KiCad (PCBNEW 4.0.6) date Fri May 26 17:46:32 2017*
%MOMM*%
%LPD*%
G01*
G04 APERTURE LIST*
%ADD10C,0.050000*%
%ADD11C,0.762000*%
%ADD12R,1.200000X0.750000*%
%ADD13R,0.750000X1.200000*%
%ADD14R,1.500000X1.250000*%
%ADD15R,0.900000X1.200000*%
%ADD16R,1.200000X0.900000*%
%ADD17R,2.180000X1.600000*%
%ADD18R,1.560000X0.650000*%
%ADD19R,0.250000X1.300000*%
%ADD20R,1.300000X0.250000*%
%ADD21R,2.000000X4.500000*%
%ADD22R,1.700000X2.000000*%
%ADD23R,0.650000X1.060000*%
%ADD24R,1.900000X2.375000*%
%ADD25R,1.900000X1.175000*%
%ADD26R,1.900000X1.147000*%
%ADD27R,1.380000X0.381000*%
%ADD28R,1.700000X1.700000*%
%ADD29O,1.700000X1.700000*%
%ADD30R,0.800000X0.900000*%
%ADD31R,1.500000X1.500000*%
%ADD32R,1.397000X1.397000*%
%ADD33R,1.524000X1.524000*%
%ADD34C,0.508000*%
%ADD35C,0.228600*%
%ADD36C,0.279400*%
%ADD37C,0.381000*%
%ADD38C,0.635000*%
%ADD39C,0.304800*%
%ADD40C,0.254000*%
%ADD41C,0.406400*%
%ADD42C,0.203200*%
%ADD43C,0.533400*%
G04 APERTURE END LIST*
D10*
D11*
X94234000Y-112014000D03*
X97790000Y-112014000D03*
X97790000Y-108458000D03*
X100076000Y-125730000D03*
X98933000Y-126111000D03*
X96647000Y-92329000D03*
X91440000Y-92329000D03*
X87122000Y-125730000D03*
X83566000Y-120650000D03*
X83566000Y-122809000D03*
X82423000Y-120650000D03*
X82423000Y-118618000D03*
X82423000Y-116967000D03*
X82423000Y-122809000D03*
X82423000Y-114808000D03*
X82423000Y-107569000D03*
X82423000Y-99949000D03*
X82423000Y-92329000D03*
X101727000Y-98806000D03*
X103505000Y-98806000D03*
X103505000Y-96647000D03*
X101727000Y-96647000D03*
X101854000Y-93599000D03*
X103251000Y-93599000D03*
X106553000Y-92075000D03*
X106553000Y-90805000D03*
X112522000Y-97917000D03*
X90932000Y-115570000D03*
X87249000Y-106680000D03*
X90932000Y-106680000D03*
X88138000Y-116459000D03*
X90932000Y-117348000D03*
X90932000Y-113792000D03*
X90932000Y-111887000D03*
X92075000Y-120777000D03*
X92075000Y-122428000D03*
X99822000Y-116205000D03*
X99822000Y-117602000D03*
X97663000Y-117602000D03*
X97663000Y-119253000D03*
X105664000Y-123317000D03*
X104394000Y-123317000D03*
X103124000Y-123317000D03*
X101854000Y-123317000D03*
X105664000Y-122047000D03*
X104394000Y-122047000D03*
X103124000Y-122047000D03*
X101854000Y-122047000D03*
X105664000Y-120777000D03*
X104394000Y-120777000D03*
X103124000Y-120777000D03*
X101854000Y-120777000D03*
X98933000Y-125095000D03*
X92202000Y-125095000D03*
X88392000Y-124460000D03*
X87122000Y-124460000D03*
X87376000Y-131572000D03*
X109728000Y-128778000D03*
X110998000Y-127508000D03*
X109728000Y-126238000D03*
X97282000Y-130302000D03*
X95758000Y-130302000D03*
X94234000Y-130302000D03*
X100584000Y-129159000D03*
X104902000Y-137922000D03*
X97790000Y-137922000D03*
X90170000Y-137922000D03*
X82550000Y-137922000D03*
X82550000Y-133350000D03*
X113792000Y-131318000D03*
X113792000Y-127508000D03*
X113792000Y-123698000D03*
X113792000Y-116078000D03*
X112141000Y-119888000D03*
X112141000Y-116078000D03*
X113792000Y-108458000D03*
X112141000Y-112268000D03*
X111887000Y-108458000D03*
X108712000Y-112014000D03*
X109728000Y-113284000D03*
X107950000Y-113284000D03*
X106680000Y-112014000D03*
X105410000Y-113284000D03*
X104648000Y-108458000D03*
X113792000Y-101092000D03*
X100838000Y-108458000D03*
X112522000Y-99187000D03*
X112268000Y-105156000D03*
X108712000Y-105156000D03*
X104648000Y-105156000D03*
X100838000Y-105156000D03*
X97028000Y-105156000D03*
D12*
X87564000Y-119634000D03*
X85664000Y-119634000D03*
D13*
X92202000Y-115631000D03*
X92202000Y-113731000D03*
D14*
X85110000Y-121412000D03*
X87610000Y-121412000D03*
D13*
X92202000Y-109921000D03*
X92202000Y-111821000D03*
D12*
X95316000Y-122428000D03*
X97216000Y-122428000D03*
D13*
X85217000Y-115636000D03*
X85217000Y-117536000D03*
D12*
X97216000Y-125222000D03*
X95316000Y-125222000D03*
D13*
X89916000Y-104074000D03*
X89916000Y-102174000D03*
X107950000Y-116456500D03*
X107950000Y-114556500D03*
D15*
X89408000Y-109898000D03*
X89408000Y-112098000D03*
D16*
X99398000Y-103632000D03*
X97198000Y-103632000D03*
X92286000Y-128778000D03*
X90086000Y-128778000D03*
X92286000Y-126746000D03*
X90086000Y-126746000D03*
D15*
X102108000Y-131910000D03*
X102108000Y-129710000D03*
X83947000Y-135529500D03*
X83947000Y-133329500D03*
X106172000Y-131910000D03*
X106172000Y-129710000D03*
X108204000Y-131910000D03*
X108204000Y-129710000D03*
X88392000Y-102278000D03*
X88392000Y-104478000D03*
X91440000Y-104478000D03*
X91440000Y-102278000D03*
D16*
X110406000Y-94742000D03*
X112606000Y-94742000D03*
X104564000Y-95504000D03*
X106764000Y-95504000D03*
D17*
X86215000Y-134239000D03*
X95395000Y-134239000D03*
D18*
X94328000Y-126812000D03*
X94328000Y-127762000D03*
X94328000Y-128712000D03*
X97028000Y-128712000D03*
X97028000Y-126812000D03*
X97028000Y-127762000D03*
D19*
X106572500Y-117062000D03*
X106072500Y-117062000D03*
X105572500Y-117062000D03*
X105072500Y-117062000D03*
X104572500Y-117062000D03*
X104072500Y-117062000D03*
X103572500Y-117062000D03*
X103072500Y-117062000D03*
X102572500Y-117062000D03*
X102072500Y-117062000D03*
X101572500Y-117062000D03*
X101072500Y-117062000D03*
D20*
X99472500Y-118662000D03*
X99472500Y-119162000D03*
X99472500Y-119662000D03*
X99472500Y-120162000D03*
X99472500Y-120662000D03*
X99472500Y-121162000D03*
X99472500Y-121662000D03*
X99472500Y-122162000D03*
X99472500Y-122662000D03*
X99472500Y-123162000D03*
X99472500Y-123662000D03*
X99472500Y-124162000D03*
D19*
X101072500Y-125762000D03*
X101572500Y-125762000D03*
X102072500Y-125762000D03*
X102572500Y-125762000D03*
X103072500Y-125762000D03*
X103572500Y-125762000D03*
X104072500Y-125762000D03*
X104572500Y-125762000D03*
X105072500Y-125762000D03*
X105572500Y-125762000D03*
X106072500Y-125762000D03*
X106572500Y-125762000D03*
D20*
X108172500Y-124162000D03*
X108172500Y-123662000D03*
X108172500Y-123162000D03*
X108172500Y-122662000D03*
X108172500Y-122162000D03*
X108172500Y-121662000D03*
X108172500Y-121162000D03*
X108172500Y-120662000D03*
X108172500Y-120162000D03*
X108172500Y-119662000D03*
X108172500Y-119162000D03*
X108172500Y-118662000D03*
D21*
X95758000Y-116772000D03*
X95758000Y-108272000D03*
D16*
X99398000Y-99314000D03*
X97198000Y-99314000D03*
D15*
X109664500Y-116606500D03*
X109664500Y-114406500D03*
D22*
X90424000Y-124174000D03*
X90424000Y-120174000D03*
D23*
X87188000Y-117686000D03*
X88138000Y-117686000D03*
X89088000Y-117686000D03*
X89088000Y-115486000D03*
X87188000Y-115486000D03*
D24*
X83312000Y-125095000D03*
X83312000Y-131191000D03*
D25*
X83312000Y-127254000D03*
X83312000Y-129032000D03*
D26*
X85471000Y-125730000D03*
X85471000Y-130556000D03*
D27*
X85725000Y-126873000D03*
X85725000Y-127508000D03*
X85725000Y-128143000D03*
X85725000Y-128778000D03*
X85725000Y-129413000D03*
D17*
X85326000Y-98298000D03*
X94506000Y-98298000D03*
D28*
X108712000Y-134366000D03*
D29*
X106172000Y-134366000D03*
X103632000Y-134366000D03*
X101092000Y-134366000D03*
X98552000Y-134366000D03*
D30*
X109286000Y-98774000D03*
X111186000Y-98774000D03*
X110236000Y-96774000D03*
D15*
X107696000Y-98722000D03*
X107696000Y-100922000D03*
D13*
X83693000Y-115636000D03*
X83693000Y-117536000D03*
D12*
X106614000Y-93980000D03*
X104714000Y-93980000D03*
D31*
X87122000Y-113410000D03*
X87122000Y-110110000D03*
X100202000Y-101600000D03*
X96902000Y-101600000D03*
X109474000Y-101092000D03*
X100076000Y-94488000D03*
D12*
X107508000Y-127508000D03*
X109408000Y-127508000D03*
D16*
X97302500Y-120904000D03*
X95102500Y-120904000D03*
D15*
X104140000Y-131910000D03*
X104140000Y-129710000D03*
D16*
X90086000Y-130429000D03*
X92286000Y-130429000D03*
D13*
X106553000Y-115250000D03*
X106553000Y-113350000D03*
D32*
X113030000Y-91567000D03*
X109220000Y-91567000D03*
D33*
X104775000Y-91630500D03*
X100203000Y-91630500D03*
D11*
X93218000Y-105156000D03*
X101219000Y-133096014D03*
X101219000Y-132207000D03*
X100330000Y-132207000D03*
X100330000Y-133096000D03*
X92202000Y-131572000D03*
X104394000Y-119253000D03*
X103504994Y-119253000D03*
X105282996Y-119253000D03*
X102616000Y-119253000D03*
X97028000Y-123444000D03*
X97917000Y-123444000D03*
X85470988Y-114173000D03*
X85470988Y-113284000D03*
X84582000Y-114173000D03*
X84582000Y-113284000D03*
X83693000Y-113284000D03*
X83693000Y-114173000D03*
X84709000Y-99695000D03*
X83693000Y-99568000D03*
X83693000Y-98552000D03*
X83692998Y-97663000D03*
X107950000Y-91821000D03*
X107950000Y-93091000D03*
X107950000Y-94361000D03*
X107950000Y-95504000D03*
X100838000Y-130302000D03*
X103632000Y-118237000D03*
D34*
X89884000Y-119634000D02*
X90424000Y-120174000D01*
X87564000Y-121366000D02*
X87610000Y-121412000D01*
D35*
X103072500Y-117062000D02*
X103072500Y-116183400D01*
X103072500Y-116183400D02*
X102967100Y-116078000D01*
X108172500Y-119162000D02*
X109057000Y-119162000D01*
D36*
X95631000Y-128005600D02*
X95631000Y-128778000D01*
X94328000Y-127762000D02*
X95387400Y-127762000D01*
X95387400Y-127762000D02*
X95631000Y-128005600D01*
D35*
X100965000Y-123444000D02*
X100747000Y-123662000D01*
X99472500Y-123662000D02*
X100747000Y-123662000D01*
X106072500Y-125762000D02*
X106072500Y-124487500D01*
X95758000Y-116772000D02*
X97350000Y-116772000D01*
X97350000Y-116772000D02*
X98806000Y-115316000D01*
X98806000Y-115316000D02*
X103378000Y-115316000D01*
X103378000Y-115316000D02*
X104072500Y-116010500D01*
X104072500Y-116010500D02*
X104072500Y-117062000D01*
X95758000Y-116772000D02*
X96198000Y-116332000D01*
D37*
X92202000Y-115631000D02*
X94617000Y-115631000D01*
X94617000Y-115631000D02*
X95758000Y-116772000D01*
D35*
X95758000Y-108272000D02*
X95758000Y-112268000D01*
X98298000Y-114808000D02*
X103632000Y-114808000D01*
X95758000Y-112268000D02*
X98298000Y-114808000D01*
X103632000Y-114808000D02*
X104572500Y-115748500D01*
X104572500Y-115748500D02*
X104572500Y-117062000D01*
D37*
X92202000Y-109921000D02*
X94109000Y-109921000D01*
X94109000Y-109921000D02*
X95758000Y-108272000D01*
D38*
X85470988Y-104648000D02*
X85470988Y-114172988D01*
X85470988Y-102489012D02*
X85470988Y-104648000D01*
X85470988Y-104648000D02*
X85640988Y-104478000D01*
X85640988Y-104478000D02*
X88392000Y-104478000D01*
D36*
X86233000Y-114808000D02*
X86233000Y-115570000D01*
X85978999Y-114553999D02*
X86233000Y-114808000D01*
X85470988Y-114173000D02*
X85851987Y-114553999D01*
X85851987Y-114553999D02*
X85978999Y-114553999D01*
D38*
X85471000Y-102489000D02*
X85470988Y-102489012D01*
X85470988Y-114172988D02*
X85471000Y-114173000D01*
D39*
X106553000Y-115440500D02*
X106934000Y-115440500D01*
X106934000Y-115440500D02*
X107950000Y-116456500D01*
D40*
X108172500Y-118662000D02*
X108172500Y-116869500D01*
X108172500Y-116869500D02*
X107950000Y-116647000D01*
D38*
X101219000Y-132207000D02*
X101219000Y-133096014D01*
X100330000Y-132207000D02*
X101219000Y-132207000D01*
X92202000Y-131572000D02*
X92202000Y-130386000D01*
X92202000Y-130386000D02*
X92286000Y-130302000D01*
D37*
X106997500Y-118491000D02*
X106997500Y-125337000D01*
X106997500Y-125337000D02*
X106591201Y-125743299D01*
X106591201Y-125743299D02*
X106591201Y-125762000D01*
X105282996Y-119253000D02*
X106171996Y-118364000D01*
X106171996Y-118364000D02*
X107874500Y-118364000D01*
D35*
X104394000Y-119253000D02*
X105282996Y-119253000D01*
X103504994Y-119253000D02*
X104394000Y-119253000D01*
X102616000Y-119253000D02*
X103504994Y-119253000D01*
X102572500Y-117062000D02*
X102572500Y-119209500D01*
X102572500Y-119209500D02*
X102616000Y-119253000D01*
D38*
X85470988Y-114173000D02*
X85470988Y-113822815D01*
D36*
X85217000Y-115636000D02*
X85217000Y-114426988D01*
X85217000Y-114426988D02*
X85470988Y-114173000D01*
D38*
X85471000Y-102362000D02*
X85471000Y-102489000D01*
X85470988Y-112745185D02*
X85470988Y-113284000D01*
X85326000Y-98298000D02*
X85471000Y-98443000D01*
X85471000Y-98443000D02*
X85471000Y-102489000D01*
X85470988Y-113822815D02*
X85470988Y-113284000D01*
X85344000Y-115636000D02*
X85470988Y-115509012D01*
D36*
X84582000Y-113284000D02*
X85470988Y-113284000D01*
X84582000Y-113284000D02*
X84582000Y-114173000D01*
X83693000Y-113284000D02*
X84582000Y-113284000D01*
X83693000Y-114756600D02*
X83693000Y-114173000D01*
X83693000Y-115636000D02*
X83693000Y-114756600D01*
D38*
X84709000Y-99695000D02*
X85237000Y-99695000D01*
X85237000Y-99695000D02*
X85326000Y-99606000D01*
X85326000Y-99606000D02*
X85326000Y-98298000D01*
X83693000Y-98333000D02*
X83693000Y-98552000D01*
X83728000Y-98298000D02*
X83693000Y-98333000D01*
X83728000Y-97698002D02*
X83692998Y-97663000D01*
X83728000Y-98298000D02*
X83728000Y-97698002D01*
X85326000Y-98298000D02*
X83728000Y-98298000D01*
X87038000Y-115636000D02*
X87188000Y-115486000D01*
X106614000Y-93980000D02*
X106934000Y-93980000D01*
X106934000Y-93980000D02*
X109220000Y-91694000D01*
X106614000Y-93980000D02*
X106614000Y-95354000D01*
X106614000Y-95354000D02*
X106764000Y-95504000D01*
D36*
X106997500Y-118491000D02*
X107124500Y-118364000D01*
D40*
X106572500Y-125762000D02*
X106572500Y-125266000D01*
D39*
X107874500Y-118364000D02*
X107124500Y-118364000D01*
D40*
X108172500Y-118662000D02*
X107874500Y-118364000D01*
D36*
X88392000Y-102278000D02*
X88392000Y-102550000D01*
X88392000Y-102550000D02*
X89916000Y-104074000D01*
D38*
X94413982Y-98169386D02*
X96137386Y-98169386D01*
X96137386Y-98169386D02*
X97282000Y-99314000D01*
X91440000Y-102278000D02*
X90066000Y-102278000D01*
X90066000Y-102278000D02*
X89916000Y-102428000D01*
X94413982Y-98169386D02*
X91440000Y-101143368D01*
X91440000Y-101143368D02*
X91440000Y-102362000D01*
D41*
X94413982Y-98169386D02*
X94063213Y-98520155D01*
D40*
X87122000Y-110744000D02*
X88476000Y-112098000D01*
X88476000Y-112098000D02*
X88704000Y-112098000D01*
X88704000Y-112098000D02*
X89408000Y-112098000D01*
X87122000Y-110110000D02*
X87122000Y-110744000D01*
D35*
X108204000Y-121666000D02*
X109474000Y-121666000D01*
X109474000Y-121666000D02*
X110490000Y-120650000D01*
X110490000Y-120650000D02*
X110490000Y-109728000D01*
X110490000Y-109728000D02*
X110426500Y-109664500D01*
X110490000Y-109728000D02*
X102362000Y-101600000D01*
X102362000Y-101600000D02*
X100330000Y-101600000D01*
D40*
X96902000Y-101600000D02*
X96902000Y-103336000D01*
X96902000Y-103336000D02*
X97198000Y-103632000D01*
D35*
X112776000Y-122047000D02*
X112903000Y-121920000D01*
X112903000Y-121920000D02*
X112903000Y-108331000D01*
X112903000Y-108331000D02*
X109474000Y-104902000D01*
X109474000Y-104902000D02*
X109474000Y-101092000D01*
D42*
X111661000Y-123162000D02*
X112776000Y-122047000D01*
X108172500Y-123162000D02*
X111661000Y-123162000D01*
D35*
X108204000Y-123190000D02*
X108232000Y-123162000D01*
D37*
X109474000Y-101092000D02*
X107866000Y-101092000D01*
X107866000Y-101092000D02*
X107696000Y-100922000D01*
X113030000Y-91694000D02*
X113030000Y-94572000D01*
X113030000Y-94572000D02*
X112606000Y-94996000D01*
D34*
X106172000Y-131910000D02*
X106172000Y-134366000D01*
D36*
X106002000Y-134196000D02*
X106172000Y-134366000D01*
D34*
X104140000Y-131910000D02*
X104140000Y-133858000D01*
X104140000Y-133858000D02*
X103632000Y-134366000D01*
D35*
X108204000Y-122682000D02*
X108224000Y-122662000D01*
X111429811Y-121742189D02*
X111429811Y-109143811D01*
X108224000Y-122662000D02*
X110510000Y-122662000D01*
X110510000Y-122662000D02*
X111429811Y-121742189D01*
X111429811Y-109143811D02*
X102616000Y-100330000D01*
X102616000Y-100330000D02*
X102616000Y-94742000D01*
X102616000Y-94742000D02*
X102362000Y-94488000D01*
D37*
X104564000Y-95504000D02*
X103886000Y-95504000D01*
X103886000Y-95504000D02*
X102870000Y-94488000D01*
X102870000Y-94488000D02*
X102362000Y-94488000D01*
X100076000Y-94488000D02*
X102362000Y-94488000D01*
X100139500Y-91694000D02*
X100139500Y-94424500D01*
X100139500Y-94424500D02*
X100076000Y-94488000D01*
D40*
X92286000Y-128778000D02*
X94262000Y-128778000D01*
X94262000Y-128778000D02*
X94328000Y-128712000D01*
D39*
X94140000Y-128524000D02*
X94328000Y-128712000D01*
D40*
X92286000Y-126746000D02*
X94262000Y-126746000D01*
X94262000Y-126746000D02*
X94328000Y-126812000D01*
D35*
X98298000Y-121070900D02*
X98298000Y-121866100D01*
X98298000Y-121866100D02*
X98593900Y-122162000D01*
X98593900Y-122162000D02*
X99472500Y-122162000D01*
X97302500Y-120904000D02*
X98131100Y-120904000D01*
X98131100Y-120904000D02*
X98298000Y-121070900D01*
D40*
X108172500Y-120662000D02*
X109525500Y-120662000D01*
X109525500Y-120662000D02*
X109982000Y-120205500D01*
X109982000Y-120205500D02*
X109982000Y-117094000D01*
X109982000Y-117094000D02*
X109474000Y-116586000D01*
D34*
X100838000Y-130302000D02*
X100457000Y-130683000D01*
X100457000Y-130683000D02*
X98461000Y-130683000D01*
X98461000Y-130683000D02*
X94996000Y-134148000D01*
X94996000Y-134148000D02*
X94996000Y-134747000D01*
X101430000Y-129710000D02*
X100838000Y-130302000D01*
D35*
X103632000Y-118102000D02*
X103632000Y-118237000D01*
X103572500Y-118042500D02*
X103632000Y-118102000D01*
X103572500Y-117062000D02*
X103572500Y-118042500D01*
D34*
X102108000Y-129710000D02*
X101430000Y-129710000D01*
X102108000Y-129710000D02*
X104140000Y-129710000D01*
D39*
X83947000Y-135529500D02*
X84942500Y-135529500D01*
X84942500Y-135529500D02*
X86215000Y-134257000D01*
X86215000Y-134257000D02*
X86215000Y-134239000D01*
D35*
X105572500Y-125762000D02*
X105572500Y-126400500D01*
X105572500Y-126400500D02*
X105591899Y-126419899D01*
X106172000Y-128805200D02*
X106172000Y-129710000D01*
X105591899Y-128225099D02*
X106172000Y-128805200D01*
X105591899Y-126419899D02*
X105591899Y-128225099D01*
D40*
X108172500Y-124162000D02*
X108172500Y-124541000D01*
X108172500Y-124541000D02*
X108438201Y-124806701D01*
X108438201Y-128621799D02*
X108204000Y-128856000D01*
X108438201Y-124806701D02*
X108438201Y-128621799D01*
X108204000Y-128856000D02*
X108204000Y-129710000D01*
D36*
X108697500Y-124162000D02*
X108172500Y-124162000D01*
D35*
X108140500Y-122174000D02*
X108152500Y-122162000D01*
X110998000Y-121158000D02*
X110998000Y-109474000D01*
X108152500Y-122162000D02*
X109994000Y-122162000D01*
X100838000Y-99314000D02*
X99314000Y-99314000D01*
X109994000Y-122162000D02*
X110998000Y-121158000D01*
X110998000Y-109474000D02*
X100838000Y-99314000D01*
X99314000Y-99314000D02*
X99060000Y-99060000D01*
X97028000Y-128712000D02*
X98198000Y-128712000D01*
X98198000Y-128712000D02*
X98894000Y-128016000D01*
X105072500Y-126287000D02*
X105072500Y-125762000D01*
X98894000Y-128016000D02*
X103964190Y-128016000D01*
X103964190Y-128016000D02*
X105051100Y-126929090D01*
X105051100Y-126929090D02*
X105051100Y-126308400D01*
X105051100Y-126308400D02*
X105072500Y-126287000D01*
X99106446Y-127467950D02*
X99153949Y-127420447D01*
X97028000Y-126812000D02*
X98198000Y-126812000D01*
X99219400Y-127195136D02*
X99226921Y-127128380D01*
X99789690Y-127064971D02*
X99811878Y-127128380D01*
X99284850Y-127008090D02*
X99332353Y-126960587D01*
X99932353Y-127467950D02*
X99989234Y-127503691D01*
X98198000Y-126812000D02*
X98919400Y-127533400D01*
X99226921Y-127128380D02*
X99249109Y-127064971D01*
X99219400Y-127233400D02*
X99219400Y-127195136D01*
X104593900Y-126308400D02*
X104572500Y-126287000D01*
X98919400Y-127533400D02*
X98986156Y-127525879D01*
X99452643Y-126902658D02*
X99519400Y-126895136D01*
X98986156Y-127525879D02*
X99049565Y-127503691D01*
X99849109Y-127363566D02*
X99884850Y-127420447D01*
X99811878Y-127128380D02*
X99819400Y-127195136D01*
X100052643Y-127525879D02*
X100119400Y-127533400D01*
X99211878Y-127300157D02*
X99219400Y-127233400D01*
X99819400Y-127233400D02*
X99826921Y-127300157D01*
X99049565Y-127503691D02*
X99106446Y-127467950D01*
X99153949Y-127420447D02*
X99189690Y-127363566D01*
X99884850Y-127420447D02*
X99932353Y-127467950D01*
X99189690Y-127363566D02*
X99211878Y-127300157D01*
X99249109Y-127064971D02*
X99284850Y-127008090D01*
X99332353Y-126960587D02*
X99389234Y-126924846D01*
X99389234Y-126924846D02*
X99452643Y-126902658D01*
X99519400Y-126895136D02*
X99586156Y-126902658D01*
X99586156Y-126902658D02*
X99649565Y-126924846D01*
X99649565Y-126924846D02*
X99706446Y-126960587D01*
X99706446Y-126960587D02*
X99753949Y-127008090D01*
X103800214Y-127533400D02*
X104593900Y-126739714D01*
X99753949Y-127008090D02*
X99789690Y-127064971D01*
X99819400Y-127195136D02*
X99819400Y-127233400D01*
X99826921Y-127300157D02*
X99849109Y-127363566D01*
X99989234Y-127503691D02*
X100052643Y-127525879D01*
X100119400Y-127533400D02*
X103800214Y-127533400D01*
X104593900Y-126739714D02*
X104593900Y-126308400D01*
X104572500Y-126287000D02*
X104572500Y-125762000D01*
D34*
X108204000Y-131910000D02*
X108204000Y-133858000D01*
X108204000Y-133858000D02*
X108712000Y-134366000D01*
D36*
X108946000Y-134366000D02*
X108712000Y-134366000D01*
D39*
X85725000Y-126873000D02*
X87312500Y-126873000D01*
X87312500Y-126873000D02*
X87566500Y-126619000D01*
X87630000Y-126555500D02*
X87566500Y-126619000D01*
D43*
X87820500Y-126365000D02*
X87566500Y-126619000D01*
X88265000Y-125920500D02*
X87820500Y-126365000D01*
X90424000Y-124714000D02*
X89471500Y-124714000D01*
X89471500Y-124714000D02*
X88265000Y-125920500D01*
D37*
X90424000Y-124714000D02*
X90964000Y-124174000D01*
X90964000Y-124174000D02*
X94297000Y-124174000D01*
X94297000Y-124174000D02*
X95345000Y-125222000D01*
X95345000Y-125222000D02*
X95570000Y-125222000D01*
D36*
X97028000Y-127762000D02*
X96266000Y-127762000D01*
X96266000Y-127762000D02*
X95570000Y-127066000D01*
X95570000Y-127066000D02*
X95570000Y-125876400D01*
X95570000Y-125876400D02*
X95570000Y-125222000D01*
X95570000Y-125222000D02*
X95504000Y-125288000D01*
D37*
X109286000Y-98774000D02*
X107748000Y-98774000D01*
X107748000Y-98774000D02*
X107696000Y-98722000D01*
X110406000Y-94996000D02*
X110406000Y-96604000D01*
X110406000Y-96604000D02*
X110236000Y-96774000D01*
D42*
X85725000Y-127508000D02*
X89408000Y-127508000D01*
X89408000Y-127508000D02*
X90086000Y-126830000D01*
X90086000Y-126830000D02*
X90086000Y-126746000D01*
D35*
X90043000Y-127000000D02*
X90043000Y-126789000D01*
X90043000Y-126789000D02*
X90086000Y-126746000D01*
D39*
X90086000Y-128778000D02*
X90086000Y-130429000D01*
D42*
X85725000Y-128143000D02*
X89408000Y-128143000D01*
X89408000Y-128143000D02*
X90043000Y-128778000D01*
X90043000Y-128778000D02*
X90086000Y-128778000D01*
D35*
X89936000Y-128524000D02*
X90086000Y-128524000D01*
D40*
G36*
X101223632Y-90428632D02*
X101152317Y-90535363D01*
X101116134Y-90510641D01*
X100965000Y-90480036D01*
X99441000Y-90480036D01*
X99299810Y-90506603D01*
X99170135Y-90590046D01*
X99083141Y-90717366D01*
X99052536Y-90868500D01*
X99052536Y-92392500D01*
X99079103Y-92533690D01*
X99162546Y-92663365D01*
X99289866Y-92750359D01*
X99441000Y-92780964D01*
X99568000Y-92780964D01*
X99568000Y-93349536D01*
X99326000Y-93349536D01*
X99184810Y-93376103D01*
X99055135Y-93459546D01*
X98968141Y-93586866D01*
X98937536Y-93738000D01*
X98937536Y-95238000D01*
X98964103Y-95379190D01*
X99047546Y-95508865D01*
X99174866Y-95595859D01*
X99326000Y-95626464D01*
X100826000Y-95626464D01*
X100967190Y-95599897D01*
X101096865Y-95516454D01*
X101183859Y-95389134D01*
X101214464Y-95238000D01*
X101214464Y-95059500D01*
X102120700Y-95059500D01*
X102120700Y-99896240D01*
X101188230Y-98963770D01*
X101027544Y-98856402D01*
X100838000Y-98818700D01*
X100377940Y-98818700D01*
X100359897Y-98722810D01*
X100276454Y-98593135D01*
X100149134Y-98506141D01*
X99998000Y-98475536D01*
X98798000Y-98475536D01*
X98656810Y-98502103D01*
X98579267Y-98552000D01*
X98016251Y-98552000D01*
X97949134Y-98506141D01*
X97798000Y-98475536D01*
X97431364Y-98475536D01*
X96631300Y-97675472D01*
X96404691Y-97524056D01*
X96137386Y-97470886D01*
X95979362Y-97470886D01*
X95957897Y-97356810D01*
X95874454Y-97227135D01*
X95747134Y-97140141D01*
X95596000Y-97109536D01*
X93416000Y-97109536D01*
X93274810Y-97136103D01*
X93145135Y-97219546D01*
X93058141Y-97346866D01*
X93027536Y-97498000D01*
X93027536Y-98568004D01*
X90946086Y-100649454D01*
X90794670Y-100876063D01*
X90794670Y-100876064D01*
X90741500Y-101143368D01*
X90741500Y-101385155D01*
X90719135Y-101399546D01*
X90662292Y-101482739D01*
X90652897Y-101432810D01*
X90569454Y-101303135D01*
X90442134Y-101216141D01*
X90291000Y-101185536D01*
X89541000Y-101185536D01*
X89399810Y-101212103D01*
X89270135Y-101295546D01*
X89183141Y-101422866D01*
X89170559Y-101485000D01*
X89120454Y-101407135D01*
X88993134Y-101320141D01*
X88842000Y-101289536D01*
X87942000Y-101289536D01*
X87800810Y-101316103D01*
X87671135Y-101399546D01*
X87584141Y-101526866D01*
X87553536Y-101678000D01*
X87553536Y-102878000D01*
X87580103Y-103019190D01*
X87663546Y-103148865D01*
X87790866Y-103235859D01*
X87942000Y-103266464D01*
X88372082Y-103266464D01*
X88595154Y-103489536D01*
X87942000Y-103489536D01*
X87800810Y-103516103D01*
X87671135Y-103599546D01*
X87584141Y-103726866D01*
X87573482Y-103779500D01*
X86169488Y-103779500D01*
X86169488Y-102489060D01*
X86169500Y-102489000D01*
X86169500Y-100584000D01*
X86360000Y-100584000D01*
X86498477Y-100557944D01*
X86625660Y-100476104D01*
X86710983Y-100351230D01*
X86741000Y-100203000D01*
X86741000Y-99297225D01*
X86773859Y-99249134D01*
X86804464Y-99098000D01*
X86804464Y-97498000D01*
X86777897Y-97356810D01*
X86741000Y-97299470D01*
X86741000Y-97155000D01*
X86714944Y-97016523D01*
X86633104Y-96889340D01*
X86508230Y-96804017D01*
X86360000Y-96774000D01*
X83185000Y-96774000D01*
X83046523Y-96800056D01*
X82919340Y-96881896D01*
X82834017Y-97006770D01*
X82804000Y-97155000D01*
X82804000Y-100203000D01*
X82830056Y-100341477D01*
X82911896Y-100468660D01*
X83036770Y-100553983D01*
X83185000Y-100584000D01*
X84772500Y-100584000D01*
X84772500Y-102488952D01*
X84772488Y-102489012D01*
X84772488Y-112318800D01*
X83312000Y-112318800D01*
X83145827Y-112350068D01*
X82993208Y-112448275D01*
X82890821Y-112598124D01*
X82854800Y-112776000D01*
X82854800Y-115951000D01*
X82886068Y-116117173D01*
X82929536Y-116184725D01*
X82929536Y-116236000D01*
X82956103Y-116377190D01*
X83039546Y-116506865D01*
X83109796Y-116554864D01*
X83073405Y-116569938D01*
X82951937Y-116691405D01*
X82886200Y-116850110D01*
X82886200Y-117301050D01*
X82994150Y-117409000D01*
X83566000Y-117409000D01*
X83566000Y-117389000D01*
X83820000Y-117389000D01*
X83820000Y-117409000D01*
X84391850Y-117409000D01*
X84455000Y-117345850D01*
X84518150Y-117409000D01*
X85090000Y-117409000D01*
X85090000Y-117389000D01*
X85344000Y-117389000D01*
X85344000Y-117409000D01*
X85915850Y-117409000D01*
X86023800Y-117301050D01*
X86023800Y-116850110D01*
X85958063Y-116691405D01*
X85836595Y-116569938D01*
X85800120Y-116554829D01*
X85862865Y-116514454D01*
X85935465Y-116408200D01*
X87757000Y-116408200D01*
X87923173Y-116376932D01*
X88075792Y-116278725D01*
X88178179Y-116128876D01*
X88214200Y-115951000D01*
X88214200Y-114956000D01*
X88374536Y-114956000D01*
X88374536Y-116016000D01*
X88401103Y-116157190D01*
X88484546Y-116286865D01*
X88611866Y-116373859D01*
X88763000Y-116404464D01*
X89413000Y-116404464D01*
X89554190Y-116377897D01*
X89683865Y-116294454D01*
X89770859Y-116167134D01*
X89801464Y-116016000D01*
X89801464Y-114956000D01*
X89774897Y-114814810D01*
X89691454Y-114685135D01*
X89564134Y-114598141D01*
X89413000Y-114567536D01*
X88763000Y-114567536D01*
X88621810Y-114594103D01*
X88492135Y-114677546D01*
X88405141Y-114804866D01*
X88374536Y-114956000D01*
X88214200Y-114956000D01*
X88214200Y-114334052D01*
X88229859Y-114311134D01*
X88260464Y-114160000D01*
X88260464Y-112660000D01*
X88237480Y-112537854D01*
X88281596Y-112567331D01*
X88476000Y-112606000D01*
X88569536Y-112606000D01*
X88569536Y-112698000D01*
X88596103Y-112839190D01*
X88679546Y-112968865D01*
X88806866Y-113055859D01*
X88958000Y-113086464D01*
X89858000Y-113086464D01*
X89999190Y-113059897D01*
X90128865Y-112976454D01*
X90215859Y-112849134D01*
X90246464Y-112698000D01*
X90246464Y-112055950D01*
X91395200Y-112055950D01*
X91395200Y-112506890D01*
X91460937Y-112665595D01*
X91571343Y-112776000D01*
X91460937Y-112886405D01*
X91395200Y-113045110D01*
X91395200Y-113496050D01*
X91503150Y-113604000D01*
X92075000Y-113604000D01*
X92075000Y-112807150D01*
X92043850Y-112776000D01*
X92075000Y-112744850D01*
X92075000Y-111948000D01*
X92329000Y-111948000D01*
X92329000Y-112744850D01*
X92360150Y-112776000D01*
X92329000Y-112807150D01*
X92329000Y-113604000D01*
X92900850Y-113604000D01*
X93008800Y-113496050D01*
X93008800Y-113045110D01*
X92943063Y-112886405D01*
X92832657Y-112776000D01*
X92943063Y-112665595D01*
X93008800Y-112506890D01*
X93008800Y-112055950D01*
X92900850Y-111948000D01*
X92329000Y-111948000D01*
X92075000Y-111948000D01*
X91503150Y-111948000D01*
X91395200Y-112055950D01*
X90246464Y-112055950D01*
X90246464Y-111498000D01*
X90219897Y-111356810D01*
X90136454Y-111227135D01*
X90009134Y-111140141D01*
X89858000Y-111109536D01*
X88958000Y-111109536D01*
X88816810Y-111136103D01*
X88687135Y-111219546D01*
X88600141Y-111346866D01*
X88573726Y-111477306D01*
X88180213Y-111083793D01*
X88229859Y-111011134D01*
X88260464Y-110860000D01*
X88260464Y-110132950D01*
X88526200Y-110132950D01*
X88526200Y-110583890D01*
X88591937Y-110742595D01*
X88713405Y-110864062D01*
X88872109Y-110929800D01*
X89173050Y-110929800D01*
X89281000Y-110821850D01*
X89281000Y-110025000D01*
X89535000Y-110025000D01*
X89535000Y-110821850D01*
X89642950Y-110929800D01*
X89943891Y-110929800D01*
X90102595Y-110864062D01*
X90224063Y-110742595D01*
X90289800Y-110583890D01*
X90289800Y-110132950D01*
X90181850Y-110025000D01*
X89535000Y-110025000D01*
X89281000Y-110025000D01*
X88634150Y-110025000D01*
X88526200Y-110132950D01*
X88260464Y-110132950D01*
X88260464Y-109360000D01*
X88233897Y-109218810D01*
X88229586Y-109212110D01*
X88526200Y-109212110D01*
X88526200Y-109663050D01*
X88634150Y-109771000D01*
X89281000Y-109771000D01*
X89281000Y-108974150D01*
X89535000Y-108974150D01*
X89535000Y-109771000D01*
X90181850Y-109771000D01*
X90289800Y-109663050D01*
X90289800Y-109212110D01*
X90224063Y-109053405D01*
X90102595Y-108931938D01*
X89943891Y-108866200D01*
X89642950Y-108866200D01*
X89535000Y-108974150D01*
X89281000Y-108974150D01*
X89173050Y-108866200D01*
X88872109Y-108866200D01*
X88713405Y-108931938D01*
X88591937Y-109053405D01*
X88526200Y-109212110D01*
X88229586Y-109212110D01*
X88150454Y-109089135D01*
X88023134Y-109002141D01*
X87872000Y-108971536D01*
X86372000Y-108971536D01*
X86230810Y-108998103D01*
X86169488Y-109037562D01*
X86169488Y-105176500D01*
X87572070Y-105176500D01*
X87580103Y-105219190D01*
X87663546Y-105348865D01*
X87790866Y-105435859D01*
X87942000Y-105466464D01*
X88842000Y-105466464D01*
X88983190Y-105439897D01*
X89112865Y-105356454D01*
X89199859Y-105229134D01*
X89230464Y-105078000D01*
X89230464Y-104895008D01*
X89262546Y-104944865D01*
X89389866Y-105031859D01*
X89541000Y-105062464D01*
X90291000Y-105062464D01*
X90432190Y-105035897D01*
X90558200Y-104954812D01*
X90558200Y-105163890D01*
X90623937Y-105322595D01*
X90745405Y-105444062D01*
X90904109Y-105509800D01*
X91205050Y-105509800D01*
X91313000Y-105401850D01*
X91313000Y-104605000D01*
X91567000Y-104605000D01*
X91567000Y-105401850D01*
X91674950Y-105509800D01*
X91975891Y-105509800D01*
X92134595Y-105444062D01*
X92256063Y-105322595D01*
X92321800Y-105163890D01*
X92321800Y-104712950D01*
X92213850Y-104605000D01*
X91567000Y-104605000D01*
X91313000Y-104605000D01*
X91293000Y-104605000D01*
X91293000Y-104351000D01*
X91313000Y-104351000D01*
X91313000Y-103554150D01*
X91567000Y-103554150D01*
X91567000Y-104351000D01*
X92213850Y-104351000D01*
X92321800Y-104243050D01*
X92321800Y-103792110D01*
X92256063Y-103633405D01*
X92134595Y-103511938D01*
X91975891Y-103446200D01*
X91674950Y-103446200D01*
X91567000Y-103554150D01*
X91313000Y-103554150D01*
X91205050Y-103446200D01*
X90904109Y-103446200D01*
X90745405Y-103511938D01*
X90679464Y-103577878D01*
X90679464Y-103474000D01*
X90652897Y-103332810D01*
X90569454Y-103203135D01*
X90452202Y-103123020D01*
X90561865Y-103052454D01*
X90613762Y-102976500D01*
X90620070Y-102976500D01*
X90628103Y-103019190D01*
X90711546Y-103148865D01*
X90838866Y-103235859D01*
X90990000Y-103266464D01*
X91890000Y-103266464D01*
X92031190Y-103239897D01*
X92160865Y-103156454D01*
X92247859Y-103029134D01*
X92278464Y-102878000D01*
X92278464Y-101678000D01*
X92251897Y-101536810D01*
X92168454Y-101407135D01*
X92165844Y-101405352D01*
X94084732Y-99486464D01*
X95596000Y-99486464D01*
X95737190Y-99459897D01*
X95866865Y-99376454D01*
X95953859Y-99249134D01*
X95984464Y-99098000D01*
X95984464Y-99004292D01*
X96209536Y-99229364D01*
X96209536Y-99764000D01*
X96236103Y-99905190D01*
X96319546Y-100034865D01*
X96446866Y-100121859D01*
X96598000Y-100152464D01*
X97798000Y-100152464D01*
X97939190Y-100125897D01*
X98016733Y-100076000D01*
X98579749Y-100076000D01*
X98646866Y-100121859D01*
X98798000Y-100152464D01*
X99998000Y-100152464D01*
X100139190Y-100125897D01*
X100268865Y-100042454D01*
X100355859Y-99915134D01*
X100377291Y-99809300D01*
X100632840Y-99809300D01*
X101928240Y-101104700D01*
X101340464Y-101104700D01*
X101340464Y-100850000D01*
X101313897Y-100708810D01*
X101230454Y-100579135D01*
X101103134Y-100492141D01*
X100952000Y-100461536D01*
X99452000Y-100461536D01*
X99310810Y-100488103D01*
X99181135Y-100571546D01*
X99129238Y-100647500D01*
X97974445Y-100647500D01*
X97930454Y-100579135D01*
X97803134Y-100492141D01*
X97652000Y-100461536D01*
X96152000Y-100461536D01*
X96010810Y-100488103D01*
X95881135Y-100571546D01*
X95794141Y-100698866D01*
X95763536Y-100850000D01*
X95763536Y-102350000D01*
X95790103Y-102491190D01*
X95873546Y-102620865D01*
X96000866Y-102707859D01*
X96152000Y-102738464D01*
X96394000Y-102738464D01*
X96394000Y-102860520D01*
X96327135Y-102903546D01*
X96240141Y-103030866D01*
X96209536Y-103182000D01*
X96209536Y-104082000D01*
X96236103Y-104223190D01*
X96319546Y-104352865D01*
X96446866Y-104439859D01*
X96598000Y-104470464D01*
X97798000Y-104470464D01*
X97939190Y-104443897D01*
X98068865Y-104360454D01*
X98155859Y-104233134D01*
X98186464Y-104082000D01*
X98186464Y-103866950D01*
X98366200Y-103866950D01*
X98366200Y-104167891D01*
X98431938Y-104326595D01*
X98553405Y-104448063D01*
X98712110Y-104513800D01*
X99163050Y-104513800D01*
X99271000Y-104405850D01*
X99271000Y-103759000D01*
X99525000Y-103759000D01*
X99525000Y-104405850D01*
X99632950Y-104513800D01*
X100083890Y-104513800D01*
X100242595Y-104448063D01*
X100364062Y-104326595D01*
X100429800Y-104167891D01*
X100429800Y-103866950D01*
X100321850Y-103759000D01*
X99525000Y-103759000D01*
X99271000Y-103759000D01*
X98474150Y-103759000D01*
X98366200Y-103866950D01*
X98186464Y-103866950D01*
X98186464Y-103182000D01*
X98170303Y-103096109D01*
X98366200Y-103096109D01*
X98366200Y-103397050D01*
X98474150Y-103505000D01*
X99271000Y-103505000D01*
X99271000Y-102858150D01*
X99525000Y-102858150D01*
X99525000Y-103505000D01*
X100321850Y-103505000D01*
X100429800Y-103397050D01*
X100429800Y-103096109D01*
X100364062Y-102937405D01*
X100242595Y-102815937D01*
X100083890Y-102750200D01*
X99632950Y-102750200D01*
X99525000Y-102858150D01*
X99271000Y-102858150D01*
X99163050Y-102750200D01*
X98712110Y-102750200D01*
X98553405Y-102815937D01*
X98431938Y-102937405D01*
X98366200Y-103096109D01*
X98170303Y-103096109D01*
X98159897Y-103040810D01*
X98076454Y-102911135D01*
X97949134Y-102824141D01*
X97798000Y-102793536D01*
X97410000Y-102793536D01*
X97410000Y-102738464D01*
X97652000Y-102738464D01*
X97793190Y-102711897D01*
X97922865Y-102628454D01*
X98009859Y-102501134D01*
X98025175Y-102425500D01*
X99077742Y-102425500D01*
X99090103Y-102491190D01*
X99173546Y-102620865D01*
X99300866Y-102707859D01*
X99452000Y-102738464D01*
X100952000Y-102738464D01*
X101093190Y-102711897D01*
X101222865Y-102628454D01*
X101309859Y-102501134D01*
X101340464Y-102350000D01*
X101340464Y-102095300D01*
X102156840Y-102095300D01*
X109994700Y-109933160D01*
X109994700Y-113374700D01*
X109899450Y-113374700D01*
X109791500Y-113482650D01*
X109791500Y-114279500D01*
X109811500Y-114279500D01*
X109811500Y-114533500D01*
X109791500Y-114533500D01*
X109791500Y-115330350D01*
X109899450Y-115438300D01*
X109994700Y-115438300D01*
X109994700Y-115618036D01*
X109214500Y-115618036D01*
X109073310Y-115644603D01*
X108943635Y-115728046D01*
X108856641Y-115855366D01*
X108826036Y-116006500D01*
X108826036Y-117206500D01*
X108852603Y-117347690D01*
X108936046Y-117477365D01*
X109063366Y-117564359D01*
X109214500Y-117594964D01*
X109474000Y-117594964D01*
X109474000Y-119995079D01*
X109315080Y-120154000D01*
X109210964Y-120154000D01*
X109210964Y-120037000D01*
X109186580Y-119907412D01*
X109210964Y-119787000D01*
X109210964Y-119537000D01*
X109203267Y-119496094D01*
X109254300Y-119372891D01*
X109254300Y-119332450D01*
X109146350Y-119224500D01*
X109040019Y-119224500D01*
X108973634Y-119179141D01*
X108891428Y-119162494D01*
X108963690Y-119148897D01*
X109040456Y-119099500D01*
X109146350Y-119099500D01*
X109254300Y-118991550D01*
X109254300Y-118951109D01*
X109202873Y-118826955D01*
X109210964Y-118787000D01*
X109210964Y-118537000D01*
X109184397Y-118395810D01*
X109100954Y-118266135D01*
X108973634Y-118179141D01*
X108822500Y-118148536D01*
X108680500Y-118148536D01*
X108680500Y-117211087D01*
X108682859Y-117207634D01*
X108713464Y-117056500D01*
X108713464Y-115856500D01*
X108686897Y-115715310D01*
X108603454Y-115585635D01*
X108533204Y-115537636D01*
X108569595Y-115522562D01*
X108691063Y-115401095D01*
X108756800Y-115242390D01*
X108756800Y-114791450D01*
X108648850Y-114683500D01*
X108077000Y-114683500D01*
X108077000Y-114703500D01*
X107823000Y-114703500D01*
X107823000Y-114683500D01*
X107803000Y-114683500D01*
X107803000Y-114641450D01*
X108782700Y-114641450D01*
X108782700Y-115092390D01*
X108848437Y-115251095D01*
X108969905Y-115372562D01*
X109128609Y-115438300D01*
X109429550Y-115438300D01*
X109537500Y-115330350D01*
X109537500Y-114533500D01*
X108890650Y-114533500D01*
X108782700Y-114641450D01*
X107803000Y-114641450D01*
X107803000Y-114429500D01*
X107823000Y-114429500D01*
X107823000Y-113632650D01*
X108077000Y-113632650D01*
X108077000Y-114429500D01*
X108648850Y-114429500D01*
X108756800Y-114321550D01*
X108756800Y-113870610D01*
X108694669Y-113720610D01*
X108782700Y-113720610D01*
X108782700Y-114171550D01*
X108890650Y-114279500D01*
X109537500Y-114279500D01*
X109537500Y-113482650D01*
X109429550Y-113374700D01*
X109128609Y-113374700D01*
X108969905Y-113440438D01*
X108848437Y-113561905D01*
X108782700Y-113720610D01*
X108694669Y-113720610D01*
X108691063Y-113711905D01*
X108569595Y-113590438D01*
X108410891Y-113524700D01*
X108184950Y-113524700D01*
X108077000Y-113632650D01*
X107823000Y-113632650D01*
X107715050Y-113524700D01*
X107489109Y-113524700D01*
X107355071Y-113580221D01*
X107251850Y-113477000D01*
X106680000Y-113477000D01*
X106680000Y-113497000D01*
X106426000Y-113497000D01*
X106426000Y-113477000D01*
X105854150Y-113477000D01*
X105746200Y-113584950D01*
X105746200Y-114035890D01*
X105811937Y-114194595D01*
X105933405Y-114316062D01*
X105969880Y-114331171D01*
X105907135Y-114371546D01*
X105820141Y-114498866D01*
X105789536Y-114650000D01*
X105789536Y-115850000D01*
X105816103Y-115991190D01*
X105848860Y-116042097D01*
X105817912Y-116047920D01*
X105697500Y-116023536D01*
X105447500Y-116023536D01*
X105317912Y-116047920D01*
X105197500Y-116023536D01*
X105067800Y-116023536D01*
X105067800Y-115748500D01*
X105030098Y-115558957D01*
X104922730Y-115398270D01*
X104205460Y-114681000D01*
X104394000Y-114681000D01*
X104440159Y-114672315D01*
X104482553Y-114645035D01*
X104510994Y-114603410D01*
X104521000Y-114554000D01*
X104521000Y-112664110D01*
X105746200Y-112664110D01*
X105746200Y-113115050D01*
X105854150Y-113223000D01*
X106426000Y-113223000D01*
X106426000Y-112426150D01*
X106680000Y-112426150D01*
X106680000Y-113223000D01*
X107251850Y-113223000D01*
X107359800Y-113115050D01*
X107359800Y-112664110D01*
X107294063Y-112505405D01*
X107172595Y-112383938D01*
X107013891Y-112318200D01*
X106787950Y-112318200D01*
X106680000Y-112426150D01*
X106426000Y-112426150D01*
X106318050Y-112318200D01*
X106092109Y-112318200D01*
X105933405Y-112383938D01*
X105811937Y-112505405D01*
X105746200Y-112664110D01*
X104521000Y-112664110D01*
X104521000Y-109982000D01*
X104512315Y-109935841D01*
X104485035Y-109893447D01*
X104443410Y-109865006D01*
X104394000Y-109855000D01*
X99822000Y-109855000D01*
X99775841Y-109863685D01*
X99733447Y-109890965D01*
X99705006Y-109932590D01*
X99695000Y-109982000D01*
X99695000Y-114312700D01*
X98503160Y-114312700D01*
X96253300Y-112062840D01*
X96253300Y-110910464D01*
X96758000Y-110910464D01*
X96899190Y-110883897D01*
X97028865Y-110800454D01*
X97115859Y-110673134D01*
X97146464Y-110522000D01*
X97146464Y-106022000D01*
X97119897Y-105880810D01*
X97036454Y-105751135D01*
X96909134Y-105664141D01*
X96758000Y-105633536D01*
X94758000Y-105633536D01*
X94616810Y-105660103D01*
X94487135Y-105743546D01*
X94400141Y-105870866D01*
X94369536Y-106022000D01*
X94369536Y-108852240D01*
X93872276Y-109349500D01*
X92965464Y-109349500D01*
X92965464Y-109321000D01*
X92938897Y-109179810D01*
X92855454Y-109050135D01*
X92728134Y-108963141D01*
X92577000Y-108932536D01*
X91827000Y-108932536D01*
X91685810Y-108959103D01*
X91556135Y-109042546D01*
X91469141Y-109169866D01*
X91438536Y-109321000D01*
X91438536Y-110521000D01*
X91465103Y-110662190D01*
X91548546Y-110791865D01*
X91618796Y-110839864D01*
X91582405Y-110854938D01*
X91460937Y-110976405D01*
X91395200Y-111135110D01*
X91395200Y-111586050D01*
X91503150Y-111694000D01*
X92075000Y-111694000D01*
X92075000Y-111674000D01*
X92329000Y-111674000D01*
X92329000Y-111694000D01*
X92900850Y-111694000D01*
X93008800Y-111586050D01*
X93008800Y-111135110D01*
X92943063Y-110976405D01*
X92821595Y-110854938D01*
X92785120Y-110839829D01*
X92847865Y-110799454D01*
X92934859Y-110672134D01*
X92965464Y-110521000D01*
X92965464Y-110492500D01*
X94108995Y-110492500D01*
X94109000Y-110492501D01*
X94291418Y-110456215D01*
X94327704Y-110448997D01*
X94369536Y-110421046D01*
X94369536Y-110522000D01*
X94396103Y-110663190D01*
X94479546Y-110792865D01*
X94606866Y-110879859D01*
X94758000Y-110910464D01*
X95262700Y-110910464D01*
X95262700Y-112268000D01*
X95300402Y-112457544D01*
X95407770Y-112618230D01*
X97947770Y-115158230D01*
X98108457Y-115265598D01*
X98148064Y-115273476D01*
X97146464Y-116275076D01*
X97146464Y-114522000D01*
X97119897Y-114380810D01*
X97036454Y-114251135D01*
X96909134Y-114164141D01*
X96758000Y-114133536D01*
X94758000Y-114133536D01*
X94616810Y-114160103D01*
X94487135Y-114243546D01*
X94400141Y-114370866D01*
X94369536Y-114522000D01*
X94369536Y-115059500D01*
X92965464Y-115059500D01*
X92965464Y-115031000D01*
X92938897Y-114889810D01*
X92855454Y-114760135D01*
X92785204Y-114712136D01*
X92821595Y-114697062D01*
X92943063Y-114575595D01*
X93008800Y-114416890D01*
X93008800Y-113965950D01*
X92900850Y-113858000D01*
X92329000Y-113858000D01*
X92329000Y-113878000D01*
X92075000Y-113878000D01*
X92075000Y-113858000D01*
X91503150Y-113858000D01*
X91395200Y-113965950D01*
X91395200Y-114416890D01*
X91460937Y-114575595D01*
X91582405Y-114697062D01*
X91618880Y-114712171D01*
X91556135Y-114752546D01*
X91469141Y-114879866D01*
X91438536Y-115031000D01*
X91438536Y-116231000D01*
X91465103Y-116372190D01*
X91548546Y-116501865D01*
X91675866Y-116588859D01*
X91827000Y-116619464D01*
X92577000Y-116619464D01*
X92718190Y-116592897D01*
X92847865Y-116509454D01*
X92934859Y-116382134D01*
X92965464Y-116231000D01*
X92965464Y-116202500D01*
X94369536Y-116202500D01*
X94369536Y-119022000D01*
X94396103Y-119163190D01*
X94479546Y-119292865D01*
X94606866Y-119379859D01*
X94758000Y-119410464D01*
X96758000Y-119410464D01*
X96899190Y-119383897D01*
X97028865Y-119300454D01*
X97115859Y-119173134D01*
X97146464Y-119022000D01*
X97146464Y-117267300D01*
X97350000Y-117267300D01*
X97539544Y-117229598D01*
X97700230Y-117122230D01*
X99011160Y-115811300D01*
X103172840Y-115811300D01*
X103383000Y-116021460D01*
X103283391Y-115980200D01*
X103242950Y-115980200D01*
X103135000Y-116088150D01*
X103135000Y-116194481D01*
X103089641Y-116260866D01*
X103072994Y-116343072D01*
X103059397Y-116270810D01*
X103010000Y-116194044D01*
X103010000Y-116088150D01*
X102902050Y-115980200D01*
X102861609Y-115980200D01*
X102737455Y-116031627D01*
X102697500Y-116023536D01*
X102447500Y-116023536D01*
X102317912Y-116047920D01*
X102197500Y-116023536D01*
X101947500Y-116023536D01*
X101817912Y-116047920D01*
X101697500Y-116023536D01*
X101447500Y-116023536D01*
X101317912Y-116047920D01*
X101197500Y-116023536D01*
X100947500Y-116023536D01*
X100806310Y-116050103D01*
X100676635Y-116133546D01*
X100589641Y-116260866D01*
X100559036Y-116412000D01*
X100559036Y-117712000D01*
X100585603Y-117853190D01*
X100669046Y-117982865D01*
X100796366Y-118069859D01*
X100947500Y-118100464D01*
X101197500Y-118100464D01*
X101327088Y-118076080D01*
X101447500Y-118100464D01*
X101697500Y-118100464D01*
X101827088Y-118076080D01*
X101947500Y-118100464D01*
X102077200Y-118100464D01*
X102077200Y-118626908D01*
X102011017Y-118723770D01*
X101996685Y-118794544D01*
X101970385Y-118820798D01*
X101854133Y-119100764D01*
X101853868Y-119403906D01*
X101969632Y-119684074D01*
X101995251Y-119709738D01*
X102007056Y-119772477D01*
X102088896Y-119899660D01*
X102213770Y-119984983D01*
X102362000Y-120015000D01*
X102615907Y-120015000D01*
X102766906Y-120015132D01*
X102767225Y-120015000D01*
X103504901Y-120015000D01*
X103655900Y-120015132D01*
X103656219Y-120015000D01*
X104393907Y-120015000D01*
X104544906Y-120015132D01*
X104545225Y-120015000D01*
X105282903Y-120015000D01*
X105433902Y-120015132D01*
X105434221Y-120015000D01*
X105664000Y-120015000D01*
X105802477Y-119988944D01*
X105929660Y-119907104D01*
X106014983Y-119782230D01*
X106045000Y-119634000D01*
X106045000Y-119299220D01*
X106408719Y-118935500D01*
X106426000Y-118935500D01*
X106426000Y-124460000D01*
X106287523Y-124486056D01*
X106160340Y-124567896D01*
X106075017Y-124692770D01*
X106045000Y-124841000D01*
X106045000Y-124948436D01*
X106010000Y-124894044D01*
X106010000Y-124788150D01*
X105902050Y-124680200D01*
X105861609Y-124680200D01*
X105737455Y-124731627D01*
X105697500Y-124723536D01*
X105447500Y-124723536D01*
X105317912Y-124747920D01*
X105197500Y-124723536D01*
X104947500Y-124723536D01*
X104817912Y-124747920D01*
X104697500Y-124723536D01*
X104447500Y-124723536D01*
X104317912Y-124747920D01*
X104197500Y-124723536D01*
X103947500Y-124723536D01*
X103817912Y-124747920D01*
X103697500Y-124723536D01*
X103447500Y-124723536D01*
X103317912Y-124747920D01*
X103197500Y-124723536D01*
X102947500Y-124723536D01*
X102817912Y-124747920D01*
X102697500Y-124723536D01*
X102447500Y-124723536D01*
X102317912Y-124747920D01*
X102197500Y-124723536D01*
X101947500Y-124723536D01*
X101817912Y-124747920D01*
X101697500Y-124723536D01*
X101447500Y-124723536D01*
X101317912Y-124747920D01*
X101197500Y-124723536D01*
X100947500Y-124723536D01*
X100806310Y-124750103D01*
X100676635Y-124833546D01*
X100589641Y-124960866D01*
X100559036Y-125112000D01*
X100559036Y-126412000D01*
X100585603Y-126553190D01*
X100669046Y-126682865D01*
X100796366Y-126769859D01*
X100947500Y-126800464D01*
X101197500Y-126800464D01*
X101327088Y-126776080D01*
X101447500Y-126800464D01*
X101697500Y-126800464D01*
X101827088Y-126776080D01*
X101947500Y-126800464D01*
X102197500Y-126800464D01*
X102327088Y-126776080D01*
X102447500Y-126800464D01*
X102697500Y-126800464D01*
X102827088Y-126776080D01*
X102947500Y-126800464D01*
X103197500Y-126800464D01*
X103327088Y-126776080D01*
X103447500Y-126800464D01*
X103697500Y-126800464D01*
X103827088Y-126776080D01*
X103852024Y-126781130D01*
X103595054Y-127038100D01*
X100292964Y-127038100D01*
X100287163Y-127019898D01*
X100279383Y-126964791D01*
X100257195Y-126901382D01*
X100228919Y-126853448D01*
X100209072Y-126801454D01*
X100173331Y-126744573D01*
X100135097Y-126704132D01*
X100104179Y-126657860D01*
X100056676Y-126610357D01*
X100010402Y-126579437D01*
X99969963Y-126541206D01*
X99913082Y-126505464D01*
X99861088Y-126485617D01*
X99813154Y-126457341D01*
X99749745Y-126435153D01*
X99694637Y-126427373D01*
X99641615Y-126410473D01*
X99574859Y-126402951D01*
X99519398Y-126407628D01*
X99463941Y-126402951D01*
X99397185Y-126410473D01*
X99344162Y-126427373D01*
X99289054Y-126435153D01*
X99225645Y-126457341D01*
X99177711Y-126485617D01*
X99125717Y-126505464D01*
X99068836Y-126541205D01*
X99028395Y-126579439D01*
X98982123Y-126610357D01*
X98934620Y-126657860D01*
X98903700Y-126704134D01*
X98865469Y-126744573D01*
X98852181Y-126765721D01*
X98548230Y-126461770D01*
X98387544Y-126354402D01*
X98198000Y-126316700D01*
X98151165Y-126316700D01*
X98086454Y-126216135D01*
X97959134Y-126129141D01*
X97808000Y-126098536D01*
X96248000Y-126098536D01*
X96106810Y-126125103D01*
X96090700Y-126135469D01*
X96090700Y-125937334D01*
X96186865Y-125875454D01*
X96234864Y-125805204D01*
X96249938Y-125841595D01*
X96371405Y-125963063D01*
X96530110Y-126028800D01*
X96981050Y-126028800D01*
X97089000Y-125920850D01*
X97089000Y-125349000D01*
X97343000Y-125349000D01*
X97343000Y-125920850D01*
X97450950Y-126028800D01*
X97901890Y-126028800D01*
X98060595Y-125963063D01*
X98182062Y-125841595D01*
X98247800Y-125682891D01*
X98247800Y-125456950D01*
X98139850Y-125349000D01*
X97343000Y-125349000D01*
X97089000Y-125349000D01*
X97069000Y-125349000D01*
X97069000Y-125095000D01*
X97089000Y-125095000D01*
X97089000Y-125075000D01*
X97343000Y-125075000D01*
X97343000Y-125095000D01*
X98139850Y-125095000D01*
X98247800Y-124987050D01*
X98247800Y-124761109D01*
X98228287Y-124714000D01*
X100203000Y-124714000D01*
X100341477Y-124687944D01*
X100468660Y-124606104D01*
X100553983Y-124481230D01*
X100584000Y-124333000D01*
X100584000Y-123952000D01*
X100557944Y-123813523D01*
X100476104Y-123686340D01*
X100351230Y-123601017D01*
X100343739Y-123599500D01*
X100446350Y-123599500D01*
X100554300Y-123491550D01*
X100554300Y-123451109D01*
X100502873Y-123326955D01*
X100510964Y-123287000D01*
X100510964Y-123037000D01*
X100486580Y-122907412D01*
X100510964Y-122787000D01*
X100510964Y-122537000D01*
X100486580Y-122407412D01*
X100510964Y-122287000D01*
X100510964Y-122037000D01*
X100486580Y-121907412D01*
X100510964Y-121787000D01*
X100510964Y-121537000D01*
X100486580Y-121407412D01*
X100510964Y-121287000D01*
X100510964Y-121037000D01*
X100486580Y-120907412D01*
X100510964Y-120787000D01*
X100510964Y-120537000D01*
X100486580Y-120407412D01*
X100510964Y-120287000D01*
X100510964Y-120037000D01*
X100486580Y-119907412D01*
X100510964Y-119787000D01*
X100510964Y-119537000D01*
X100486580Y-119407412D01*
X100510964Y-119287000D01*
X100510964Y-119037000D01*
X100486580Y-118907412D01*
X100510964Y-118787000D01*
X100510964Y-118537000D01*
X100484397Y-118395810D01*
X100400954Y-118266135D01*
X100273634Y-118179141D01*
X100122500Y-118148536D01*
X98822500Y-118148536D01*
X98681310Y-118175103D01*
X98551635Y-118258546D01*
X98464641Y-118385866D01*
X98434036Y-118537000D01*
X98434036Y-118787000D01*
X98458420Y-118916588D01*
X98434036Y-119037000D01*
X98434036Y-119287000D01*
X98458420Y-119416588D01*
X98434036Y-119537000D01*
X98434036Y-119787000D01*
X98458420Y-119916588D01*
X98434036Y-120037000D01*
X98434036Y-120287000D01*
X98458420Y-120416588D01*
X98436681Y-120523936D01*
X98320644Y-120446402D01*
X98288325Y-120439973D01*
X98264397Y-120312810D01*
X98180954Y-120183135D01*
X98053634Y-120096141D01*
X97902500Y-120065536D01*
X96702500Y-120065536D01*
X96561310Y-120092103D01*
X96431635Y-120175546D01*
X96344641Y-120302866D01*
X96314036Y-120454000D01*
X96314036Y-121354000D01*
X96340603Y-121495190D01*
X96424046Y-121624865D01*
X96511017Y-121684290D01*
X96474810Y-121691103D01*
X96345135Y-121774546D01*
X96297136Y-121844796D01*
X96282062Y-121808405D01*
X96160595Y-121686937D01*
X96033050Y-121634107D01*
X96068562Y-121598595D01*
X96134300Y-121439891D01*
X96134300Y-121138950D01*
X96026350Y-121031000D01*
X95229500Y-121031000D01*
X95229500Y-121051000D01*
X94975500Y-121051000D01*
X94975500Y-121031000D01*
X94178650Y-121031000D01*
X94070700Y-121138950D01*
X94070700Y-121439891D01*
X94136438Y-121598595D01*
X94257905Y-121720063D01*
X94385450Y-121772893D01*
X94349938Y-121808405D01*
X94284200Y-121967109D01*
X94284200Y-122193050D01*
X94392150Y-122301000D01*
X95189000Y-122301000D01*
X95189000Y-122281000D01*
X95443000Y-122281000D01*
X95443000Y-122301000D01*
X95463000Y-122301000D01*
X95463000Y-122555000D01*
X95443000Y-122555000D01*
X95443000Y-123126850D01*
X95550950Y-123234800D01*
X96001890Y-123234800D01*
X96160595Y-123169063D01*
X96266000Y-123063657D01*
X96266000Y-123443907D01*
X96265868Y-123594906D01*
X96266000Y-123595225D01*
X96266000Y-124333000D01*
X96292056Y-124471477D01*
X96326828Y-124525514D01*
X96249938Y-124602405D01*
X96234829Y-124638880D01*
X96194454Y-124576135D01*
X96067134Y-124489141D01*
X95916000Y-124458536D01*
X95389759Y-124458536D01*
X94701112Y-123769888D01*
X94684137Y-123758546D01*
X94515704Y-123646003D01*
X94479418Y-123638785D01*
X94297000Y-123602499D01*
X94296995Y-123602500D01*
X91662464Y-123602500D01*
X91662464Y-123174000D01*
X91635897Y-123032810D01*
X91552454Y-122903135D01*
X91425134Y-122816141D01*
X91274000Y-122785536D01*
X89574000Y-122785536D01*
X89432810Y-122812103D01*
X89303135Y-122895546D01*
X89216141Y-123022866D01*
X89185536Y-123174000D01*
X89185536Y-124141061D01*
X89013507Y-124256007D01*
X87108507Y-126161007D01*
X86989175Y-126339600D01*
X86852800Y-126339600D01*
X86852800Y-125964950D01*
X86744850Y-125857000D01*
X85598000Y-125857000D01*
X85598000Y-125877000D01*
X85344000Y-125877000D01*
X85344000Y-125857000D01*
X85324000Y-125857000D01*
X85324000Y-125603000D01*
X85344000Y-125603000D01*
X85344000Y-124832650D01*
X85598000Y-124832650D01*
X85598000Y-125603000D01*
X86744850Y-125603000D01*
X86852800Y-125495050D01*
X86852800Y-125070609D01*
X86787062Y-124911905D01*
X86665595Y-124790437D01*
X86506890Y-124724700D01*
X85705950Y-124724700D01*
X85598000Y-124832650D01*
X85344000Y-124832650D01*
X85236050Y-124724700D01*
X84693800Y-124724700D01*
X84693800Y-123821609D01*
X84628062Y-123662905D01*
X84506595Y-123541437D01*
X84347890Y-123475700D01*
X83546950Y-123475700D01*
X83439000Y-123583650D01*
X83439000Y-124968000D01*
X83459000Y-124968000D01*
X83459000Y-125222000D01*
X83439000Y-125222000D01*
X83439000Y-127127000D01*
X83459000Y-127127000D01*
X83459000Y-127381000D01*
X83439000Y-127381000D01*
X83439000Y-128905000D01*
X83459000Y-128905000D01*
X83459000Y-129159000D01*
X83439000Y-129159000D01*
X83439000Y-131064000D01*
X83459000Y-131064000D01*
X83459000Y-131318000D01*
X83439000Y-131318000D01*
X83439000Y-131338000D01*
X83185000Y-131338000D01*
X83185000Y-131318000D01*
X82038150Y-131318000D01*
X81930200Y-131425950D01*
X81930200Y-132464391D01*
X81995938Y-132623095D01*
X82117405Y-132744563D01*
X82276110Y-132810300D01*
X83065200Y-132810300D01*
X83065200Y-133094550D01*
X83173150Y-133202500D01*
X83820000Y-133202500D01*
X83820000Y-133182500D01*
X84074000Y-133182500D01*
X84074000Y-133202500D01*
X84094000Y-133202500D01*
X84094000Y-133456500D01*
X84074000Y-133456500D01*
X84074000Y-134253350D01*
X84181950Y-134361300D01*
X84482891Y-134361300D01*
X84641595Y-134295562D01*
X84736536Y-134200622D01*
X84736536Y-134753560D01*
X84675454Y-134658635D01*
X84548134Y-134571641D01*
X84397000Y-134541036D01*
X83497000Y-134541036D01*
X83355810Y-134567603D01*
X83226135Y-134651046D01*
X83139141Y-134778366D01*
X83108536Y-134929500D01*
X83108536Y-136129500D01*
X83135103Y-136270690D01*
X83218546Y-136400365D01*
X83345866Y-136487359D01*
X83497000Y-136517964D01*
X84397000Y-136517964D01*
X84538190Y-136491397D01*
X84667865Y-136407954D01*
X84754859Y-136280634D01*
X84785464Y-136129500D01*
X84785464Y-136062900D01*
X84942500Y-136062900D01*
X85146623Y-136022297D01*
X85319671Y-135906671D01*
X85798878Y-135427464D01*
X87305000Y-135427464D01*
X87446190Y-135400897D01*
X87575865Y-135317454D01*
X87662859Y-135190134D01*
X87693464Y-135039000D01*
X87693464Y-133439000D01*
X87666897Y-133297810D01*
X87583454Y-133168135D01*
X87456134Y-133081141D01*
X87305000Y-133050536D01*
X85125000Y-133050536D01*
X84983810Y-133077103D01*
X84854135Y-133160546D01*
X84825470Y-133202498D01*
X84720852Y-133202498D01*
X84828800Y-133094550D01*
X84828800Y-132643610D01*
X84763063Y-132484905D01*
X84693800Y-132415643D01*
X84693800Y-131561300D01*
X85236050Y-131561300D01*
X85344000Y-131453350D01*
X85344000Y-130683000D01*
X85598000Y-130683000D01*
X85598000Y-131453350D01*
X85705950Y-131561300D01*
X86506890Y-131561300D01*
X86665595Y-131495563D01*
X86787062Y-131374095D01*
X86852800Y-131215391D01*
X86852800Y-130790950D01*
X86744850Y-130683000D01*
X85598000Y-130683000D01*
X85344000Y-130683000D01*
X85324000Y-130683000D01*
X85324000Y-130429000D01*
X85344000Y-130429000D01*
X85344000Y-130409000D01*
X85598000Y-130409000D01*
X85598000Y-130429000D01*
X86744850Y-130429000D01*
X86852800Y-130321050D01*
X86852800Y-129896609D01*
X86806883Y-129785757D01*
X86846800Y-129689391D01*
X86846800Y-129616200D01*
X86738850Y-129508250D01*
X85852000Y-129508250D01*
X85852000Y-129550700D01*
X85705950Y-129550700D01*
X85696650Y-129560000D01*
X85598002Y-129560000D01*
X85598002Y-129550700D01*
X85598000Y-129550700D01*
X85598000Y-129508250D01*
X85578000Y-129508250D01*
X85578000Y-129356964D01*
X86415000Y-129356964D01*
X86556190Y-129330397D01*
X86575844Y-129317750D01*
X86738850Y-129317750D01*
X86846800Y-129209800D01*
X86846800Y-129136609D01*
X86794829Y-129011141D01*
X86803464Y-128968500D01*
X86803464Y-128625600D01*
X89097536Y-128625600D01*
X89097536Y-129228000D01*
X89124103Y-129369190D01*
X89207546Y-129498865D01*
X89334866Y-129585859D01*
X89419632Y-129603024D01*
X89344810Y-129617103D01*
X89215135Y-129700546D01*
X89128141Y-129827866D01*
X89097536Y-129979000D01*
X89097536Y-130879000D01*
X89124103Y-131020190D01*
X89207546Y-131149865D01*
X89334866Y-131236859D01*
X89486000Y-131267464D01*
X90686000Y-131267464D01*
X90827190Y-131240897D01*
X90956865Y-131157454D01*
X91043859Y-131030134D01*
X91074464Y-130879000D01*
X91074464Y-129979000D01*
X91047897Y-129837810D01*
X90964454Y-129708135D01*
X90837134Y-129621141D01*
X90752368Y-129603976D01*
X90827190Y-129589897D01*
X90956865Y-129506454D01*
X91043859Y-129379134D01*
X91074464Y-129228000D01*
X91074464Y-128328000D01*
X91047897Y-128186810D01*
X90964454Y-128057135D01*
X90868500Y-127991572D01*
X90868500Y-127531315D01*
X90956865Y-127474454D01*
X91043859Y-127347134D01*
X91074464Y-127196000D01*
X91074464Y-126296000D01*
X91047897Y-126154810D01*
X90964454Y-126025135D01*
X90837134Y-125938141D01*
X90686000Y-125907536D01*
X89486000Y-125907536D01*
X89344810Y-125934103D01*
X89215135Y-126017546D01*
X89128141Y-126144866D01*
X89097536Y-126296000D01*
X89097536Y-127025400D01*
X88076086Y-127025400D01*
X89544912Y-125556574D01*
X89574000Y-125562464D01*
X91274000Y-125562464D01*
X91415190Y-125535897D01*
X91544865Y-125452454D01*
X91631859Y-125325134D01*
X91662464Y-125174000D01*
X91662464Y-124745500D01*
X94060276Y-124745500D01*
X94327536Y-125012760D01*
X94327536Y-125597000D01*
X94354103Y-125738190D01*
X94437546Y-125867865D01*
X94564866Y-125954859D01*
X94716000Y-125985464D01*
X95049300Y-125985464D01*
X95049300Y-126098536D01*
X93548000Y-126098536D01*
X93406810Y-126125103D01*
X93277135Y-126208546D01*
X93262138Y-126230495D01*
X93247897Y-126154810D01*
X93164454Y-126025135D01*
X93037134Y-125938141D01*
X92886000Y-125907536D01*
X91686000Y-125907536D01*
X91544810Y-125934103D01*
X91415135Y-126017546D01*
X91328141Y-126144866D01*
X91297536Y-126296000D01*
X91297536Y-127196000D01*
X91324103Y-127337190D01*
X91407546Y-127466865D01*
X91534866Y-127553859D01*
X91686000Y-127584464D01*
X92886000Y-127584464D01*
X93027190Y-127557897D01*
X93116200Y-127500621D01*
X93116200Y-127527050D01*
X93224150Y-127635000D01*
X94201000Y-127635000D01*
X94201000Y-127615000D01*
X94455000Y-127615000D01*
X94455000Y-127635000D01*
X94475000Y-127635000D01*
X94475000Y-127889000D01*
X94455000Y-127889000D01*
X94455000Y-127909000D01*
X94201000Y-127909000D01*
X94201000Y-127889000D01*
X93224150Y-127889000D01*
X93116200Y-127996950D01*
X93116200Y-128024164D01*
X93037134Y-127970141D01*
X92886000Y-127939536D01*
X91686000Y-127939536D01*
X91544810Y-127966103D01*
X91415135Y-128049546D01*
X91328141Y-128176866D01*
X91297536Y-128328000D01*
X91297536Y-129228000D01*
X91324103Y-129369190D01*
X91407546Y-129498865D01*
X91534866Y-129585859D01*
X91619632Y-129603024D01*
X91544810Y-129617103D01*
X91415135Y-129700546D01*
X91328141Y-129827866D01*
X91297536Y-129979000D01*
X91297536Y-130879000D01*
X91324103Y-131020190D01*
X91407546Y-131149865D01*
X91503500Y-131215428D01*
X91503500Y-131267159D01*
X91440133Y-131419764D01*
X91439868Y-131722906D01*
X91555632Y-132003074D01*
X91769798Y-132217615D01*
X92049764Y-132333867D01*
X92352906Y-132334132D01*
X92633074Y-132218368D01*
X92847615Y-132004202D01*
X92963867Y-131724236D01*
X92964132Y-131421094D01*
X92900500Y-131267094D01*
X92900500Y-131264736D01*
X93027190Y-131240897D01*
X93156865Y-131157454D01*
X93243859Y-131030134D01*
X93274464Y-130879000D01*
X93274464Y-129979000D01*
X93247897Y-129837810D01*
X93164454Y-129708135D01*
X93037134Y-129621141D01*
X92952368Y-129603976D01*
X93027190Y-129589897D01*
X93156865Y-129506454D01*
X93243859Y-129379134D01*
X93260985Y-129294561D01*
X93269546Y-129307865D01*
X93396866Y-129394859D01*
X93548000Y-129425464D01*
X95108000Y-129425464D01*
X95249190Y-129398897D01*
X95378865Y-129315454D01*
X95465859Y-129188134D01*
X95496464Y-129037000D01*
X95496464Y-128387000D01*
X95482298Y-128311713D01*
X95539800Y-128172891D01*
X95539800Y-127996950D01*
X95431852Y-127889002D01*
X95539800Y-127889002D01*
X95539800Y-127772182D01*
X95860676Y-128093057D01*
X95886103Y-128228190D01*
X95890605Y-128235187D01*
X95890141Y-128235866D01*
X95859536Y-128387000D01*
X95859536Y-129037000D01*
X95886103Y-129178190D01*
X95969546Y-129307865D01*
X96096866Y-129394859D01*
X96248000Y-129425464D01*
X97808000Y-129425464D01*
X97949190Y-129398897D01*
X98078865Y-129315454D01*
X98152763Y-129207300D01*
X98198000Y-129207300D01*
X98387544Y-129169598D01*
X98548230Y-129062230D01*
X99099160Y-128511300D01*
X103964190Y-128511300D01*
X104153734Y-128473598D01*
X104314420Y-128366230D01*
X105096599Y-127584051D01*
X105096599Y-128225099D01*
X105134301Y-128414643D01*
X105241669Y-128575329D01*
X105444340Y-128778000D01*
X104778980Y-128778000D01*
X104741134Y-128752141D01*
X104590000Y-128721536D01*
X103690000Y-128721536D01*
X103548810Y-128748103D01*
X103502348Y-128778000D01*
X102746980Y-128778000D01*
X102709134Y-128752141D01*
X102558000Y-128721536D01*
X101658000Y-128721536D01*
X101516810Y-128748103D01*
X101387135Y-128831546D01*
X101300141Y-128958866D01*
X101270186Y-129106788D01*
X101186995Y-129123336D01*
X100980987Y-129260987D01*
X100702093Y-129539881D01*
X100687094Y-129539868D01*
X100406926Y-129655632D01*
X100192385Y-129869798D01*
X100118389Y-130048000D01*
X98461000Y-130048000D01*
X98217996Y-130096336D01*
X98011987Y-130233987D01*
X95195438Y-133050536D01*
X94305000Y-133050536D01*
X94163810Y-133077103D01*
X94034135Y-133160546D01*
X93947141Y-133287866D01*
X93916536Y-133439000D01*
X93916536Y-135039000D01*
X93943103Y-135180190D01*
X94026546Y-135309865D01*
X94153866Y-135396859D01*
X94305000Y-135427464D01*
X96485000Y-135427464D01*
X96626190Y-135400897D01*
X96755865Y-135317454D01*
X96842859Y-135190134D01*
X96873464Y-135039000D01*
X96873464Y-134690969D01*
X97312067Y-134690969D01*
X97530812Y-135140734D01*
X97905023Y-135472553D01*
X98227033Y-135605922D01*
X98425000Y-135532960D01*
X98425000Y-134493000D01*
X97384446Y-134493000D01*
X97312067Y-134690969D01*
X96873464Y-134690969D01*
X96873464Y-134041031D01*
X97312067Y-134041031D01*
X97384446Y-134239000D01*
X98425000Y-134239000D01*
X98425000Y-133199040D01*
X98227033Y-133126078D01*
X97905023Y-133259447D01*
X97530812Y-133591266D01*
X97312067Y-134041031D01*
X96873464Y-134041031D01*
X96873464Y-133439000D01*
X96846897Y-133297810D01*
X96806694Y-133235332D01*
X97555626Y-132486400D01*
X98831400Y-132486400D01*
X98831400Y-132613400D01*
X98840085Y-132659559D01*
X98867365Y-132701953D01*
X98908990Y-132730394D01*
X98958400Y-132740400D01*
X98959408Y-132740400D01*
X99006505Y-132731344D01*
X99048681Y-132703729D01*
X99076791Y-132661880D01*
X99086404Y-132612392D01*
X99085396Y-132485392D01*
X99077945Y-132443527D01*
X99051846Y-132400395D01*
X99011023Y-132370816D01*
X98961909Y-132359448D01*
X98912241Y-132368085D01*
X98869847Y-132395365D01*
X98841406Y-132436990D01*
X98831400Y-132486400D01*
X97555626Y-132486400D01*
X98724026Y-131318000D01*
X99441000Y-131318000D01*
X99441000Y-133474053D01*
X99198977Y-133259447D01*
X98876967Y-133126078D01*
X98679000Y-133199040D01*
X98679000Y-134239000D01*
X98699000Y-134239000D01*
X98699000Y-134493000D01*
X98679000Y-134493000D01*
X98679000Y-135532960D01*
X98876967Y-135605922D01*
X99198977Y-135472553D01*
X99441000Y-135257947D01*
X99441000Y-135636000D01*
X99467056Y-135774477D01*
X99548896Y-135901660D01*
X99673770Y-135986983D01*
X99822000Y-136017000D01*
X102362000Y-136017000D01*
X102500477Y-135990944D01*
X102627660Y-135909104D01*
X102712983Y-135784230D01*
X102743000Y-135636000D01*
X102743000Y-135232800D01*
X102761552Y-135260565D01*
X103160917Y-135527413D01*
X103632000Y-135621117D01*
X104103083Y-135527413D01*
X104502448Y-135260565D01*
X104538469Y-135206655D01*
X105271291Y-135215277D01*
X105301552Y-135260565D01*
X105700917Y-135527413D01*
X106172000Y-135621117D01*
X106643083Y-135527413D01*
X107042448Y-135260565D01*
X107058658Y-135236305D01*
X107478286Y-135241241D01*
X107500103Y-135357190D01*
X107583546Y-135486865D01*
X107710866Y-135573859D01*
X107862000Y-135604464D01*
X109562000Y-135604464D01*
X109703190Y-135577897D01*
X109832865Y-135494454D01*
X109919859Y-135367134D01*
X109950464Y-135216000D01*
X109950464Y-133516000D01*
X109923897Y-133374810D01*
X109840454Y-133245135D01*
X109713134Y-133158141D01*
X109562000Y-133127536D01*
X108839000Y-133127536D01*
X108839000Y-132843706D01*
X108924865Y-132788454D01*
X109011859Y-132661134D01*
X109042464Y-132510000D01*
X109042464Y-131310000D01*
X109015897Y-131168810D01*
X108966000Y-131091267D01*
X108966000Y-130528251D01*
X109011859Y-130461134D01*
X109042464Y-130310000D01*
X109042464Y-129110000D01*
X109015897Y-128968810D01*
X108962348Y-128885593D01*
X108957315Y-128858841D01*
X108930035Y-128816447D01*
X108910182Y-128802882D01*
X108920274Y-128752141D01*
X108946201Y-128621799D01*
X108946201Y-128314800D01*
X109173050Y-128314800D01*
X109281000Y-128206850D01*
X109281000Y-127635000D01*
X109535000Y-127635000D01*
X109535000Y-128206850D01*
X109642950Y-128314800D01*
X110093890Y-128314800D01*
X110252595Y-128249063D01*
X110374062Y-128127595D01*
X110439800Y-127968891D01*
X110439800Y-127742950D01*
X110331850Y-127635000D01*
X109535000Y-127635000D01*
X109281000Y-127635000D01*
X109261000Y-127635000D01*
X109261000Y-127381000D01*
X109281000Y-127381000D01*
X109281000Y-126809150D01*
X109535000Y-126809150D01*
X109535000Y-127381000D01*
X110331850Y-127381000D01*
X110439800Y-127273050D01*
X110439800Y-127047109D01*
X110374062Y-126888405D01*
X110252595Y-126766937D01*
X110093890Y-126701200D01*
X109642950Y-126701200D01*
X109535000Y-126809150D01*
X109281000Y-126809150D01*
X109173050Y-126701200D01*
X108946201Y-126701200D01*
X108946201Y-124806701D01*
X108916575Y-124657762D01*
X108963690Y-124648897D01*
X109093365Y-124565454D01*
X109180359Y-124438134D01*
X109210964Y-124287000D01*
X109210964Y-124198378D01*
X109218200Y-124162000D01*
X109210964Y-124125622D01*
X109210964Y-124037000D01*
X109186580Y-123907412D01*
X109210964Y-123787000D01*
X109210964Y-123644600D01*
X111661000Y-123644600D01*
X111845683Y-123607864D01*
X112002250Y-123503250D01*
X113072103Y-122433397D01*
X113126230Y-122397230D01*
X113253230Y-122270230D01*
X113360598Y-122109544D01*
X113398300Y-121920000D01*
X113398300Y-108331000D01*
X113360598Y-108141457D01*
X113360598Y-108141456D01*
X113253230Y-107980770D01*
X109969300Y-104696840D01*
X109969300Y-102362000D01*
X111752039Y-102362000D01*
X111829983Y-102753853D01*
X112051950Y-103086050D01*
X112384147Y-103308017D01*
X112776000Y-103385961D01*
X113167853Y-103308017D01*
X113500050Y-103086050D01*
X113722017Y-102753853D01*
X113799961Y-102362000D01*
X113722017Y-101970147D01*
X113500050Y-101637950D01*
X113167853Y-101415983D01*
X112776000Y-101338039D01*
X112384147Y-101415983D01*
X112051950Y-101637950D01*
X111829983Y-101970147D01*
X111752039Y-102362000D01*
X109969300Y-102362000D01*
X109969300Y-102230464D01*
X110224000Y-102230464D01*
X110365190Y-102203897D01*
X110494865Y-102120454D01*
X110581859Y-101993134D01*
X110612464Y-101842000D01*
X110612464Y-100342000D01*
X110585897Y-100200810D01*
X110502454Y-100071135D01*
X110375134Y-99984141D01*
X110224000Y-99953536D01*
X108724000Y-99953536D01*
X108582810Y-99980103D01*
X108453135Y-100063546D01*
X108442477Y-100079144D01*
X108424454Y-100051135D01*
X108297134Y-99964141D01*
X108146000Y-99933536D01*
X107246000Y-99933536D01*
X107104810Y-99960103D01*
X106975135Y-100043546D01*
X106888141Y-100170866D01*
X106857536Y-100322000D01*
X106857536Y-101522000D01*
X106884103Y-101663190D01*
X106967546Y-101792865D01*
X107094866Y-101879859D01*
X107246000Y-101910464D01*
X108146000Y-101910464D01*
X108287190Y-101883897D01*
X108337347Y-101851622D01*
X108362103Y-101983190D01*
X108445546Y-102112865D01*
X108572866Y-102199859D01*
X108724000Y-102230464D01*
X108978700Y-102230464D01*
X108978700Y-104902000D01*
X109016402Y-105091544D01*
X109123770Y-105252230D01*
X112407700Y-108536160D01*
X112407700Y-121723813D01*
X112389603Y-121750897D01*
X111461100Y-122679400D01*
X111193060Y-122679400D01*
X111780041Y-122092419D01*
X111887409Y-121931733D01*
X111925111Y-121742189D01*
X111925111Y-109143811D01*
X111899768Y-109016402D01*
X111887409Y-108954267D01*
X111780041Y-108793581D01*
X103111300Y-100124840D01*
X103111300Y-98122000D01*
X106857536Y-98122000D01*
X106857536Y-99322000D01*
X106884103Y-99463190D01*
X106967546Y-99592865D01*
X107094866Y-99679859D01*
X107246000Y-99710464D01*
X108146000Y-99710464D01*
X108287190Y-99683897D01*
X108416865Y-99600454D01*
X108503859Y-99473134D01*
X108525331Y-99367099D01*
X108607546Y-99494865D01*
X108734866Y-99581859D01*
X108886000Y-99612464D01*
X109686000Y-99612464D01*
X109827190Y-99585897D01*
X109956865Y-99502454D01*
X110043859Y-99375134D01*
X110074464Y-99224000D01*
X110074464Y-99008950D01*
X110354200Y-99008950D01*
X110354200Y-99309890D01*
X110419937Y-99468595D01*
X110541405Y-99590062D01*
X110700109Y-99655800D01*
X110951050Y-99655800D01*
X111059000Y-99547850D01*
X111059000Y-98901000D01*
X111313000Y-98901000D01*
X111313000Y-99547850D01*
X111420950Y-99655800D01*
X111671891Y-99655800D01*
X111830595Y-99590062D01*
X111952063Y-99468595D01*
X112017800Y-99309890D01*
X112017800Y-99008950D01*
X111909850Y-98901000D01*
X111313000Y-98901000D01*
X111059000Y-98901000D01*
X110462150Y-98901000D01*
X110354200Y-99008950D01*
X110074464Y-99008950D01*
X110074464Y-98324000D01*
X110058303Y-98238110D01*
X110354200Y-98238110D01*
X110354200Y-98539050D01*
X110462150Y-98647000D01*
X111059000Y-98647000D01*
X111059000Y-98000150D01*
X111313000Y-98000150D01*
X111313000Y-98647000D01*
X111909850Y-98647000D01*
X112017800Y-98539050D01*
X112017800Y-98238110D01*
X111952063Y-98079405D01*
X111830595Y-97957938D01*
X111671891Y-97892200D01*
X111420950Y-97892200D01*
X111313000Y-98000150D01*
X111059000Y-98000150D01*
X110951050Y-97892200D01*
X110700109Y-97892200D01*
X110541405Y-97957938D01*
X110419937Y-98079405D01*
X110354200Y-98238110D01*
X110058303Y-98238110D01*
X110047897Y-98182810D01*
X109964454Y-98053135D01*
X109837134Y-97966141D01*
X109686000Y-97935536D01*
X108886000Y-97935536D01*
X108744810Y-97962103D01*
X108615135Y-98045546D01*
X108534464Y-98163612D01*
X108534464Y-98122000D01*
X108507897Y-97980810D01*
X108424454Y-97851135D01*
X108297134Y-97764141D01*
X108146000Y-97733536D01*
X107246000Y-97733536D01*
X107104810Y-97760103D01*
X106975135Y-97843546D01*
X106888141Y-97970866D01*
X106857536Y-98122000D01*
X103111300Y-98122000D01*
X103111300Y-95537524D01*
X103481888Y-95908112D01*
X103579127Y-95973085D01*
X103602103Y-96095190D01*
X103685546Y-96224865D01*
X103812866Y-96311859D01*
X103964000Y-96342464D01*
X104803186Y-96342464D01*
X104810965Y-96354553D01*
X104852590Y-96382994D01*
X104902000Y-96393000D01*
X105764393Y-96393000D01*
X105771896Y-96404660D01*
X105896770Y-96489983D01*
X106045000Y-96520000D01*
X108331000Y-96520000D01*
X108469477Y-96493944D01*
X108596660Y-96412104D01*
X108681983Y-96287230D01*
X108712000Y-96139000D01*
X108712000Y-95504000D01*
X108712132Y-95353094D01*
X108712000Y-95352775D01*
X108712000Y-94361093D01*
X108712132Y-94210094D01*
X108712000Y-94209775D01*
X108712000Y-93472000D01*
X109982000Y-93472000D01*
X110120477Y-93445944D01*
X110247660Y-93364104D01*
X110332983Y-93239230D01*
X110363000Y-93091000D01*
X110363000Y-92921190D01*
X110561690Y-93053951D01*
X111125000Y-93166000D01*
X111688310Y-93053951D01*
X112165861Y-92734861D01*
X112233214Y-92634061D01*
X112331500Y-92653964D01*
X112458500Y-92653964D01*
X112458500Y-93903536D01*
X112006000Y-93903536D01*
X111864810Y-93930103D01*
X111787267Y-93980000D01*
X111224251Y-93980000D01*
X111157134Y-93934141D01*
X111006000Y-93903536D01*
X109806000Y-93903536D01*
X109664810Y-93930103D01*
X109535135Y-94013546D01*
X109448141Y-94140866D01*
X109417536Y-94292000D01*
X109417536Y-95192000D01*
X109444103Y-95333190D01*
X109527546Y-95462865D01*
X109654866Y-95549859D01*
X109806000Y-95580464D01*
X109834500Y-95580464D01*
X109834500Y-95935818D01*
X109694810Y-95962103D01*
X109565135Y-96045546D01*
X109478141Y-96172866D01*
X109447536Y-96324000D01*
X109447536Y-97224000D01*
X109474103Y-97365190D01*
X109557546Y-97494865D01*
X109684866Y-97581859D01*
X109836000Y-97612464D01*
X110636000Y-97612464D01*
X110777190Y-97585897D01*
X110906865Y-97502454D01*
X110993859Y-97375134D01*
X111024464Y-97224000D01*
X111024464Y-96324000D01*
X110997897Y-96182810D01*
X110977500Y-96151112D01*
X110977500Y-95580464D01*
X111006000Y-95580464D01*
X111147190Y-95553897D01*
X111224733Y-95504000D01*
X111787749Y-95504000D01*
X111854866Y-95549859D01*
X112006000Y-95580464D01*
X113206000Y-95580464D01*
X113347190Y-95553897D01*
X113476865Y-95470454D01*
X113563859Y-95343134D01*
X113594464Y-95192000D01*
X113594464Y-94607377D01*
X113601501Y-94572000D01*
X113601500Y-94571995D01*
X113601500Y-92653964D01*
X113728500Y-92653964D01*
X113869690Y-92627397D01*
X113999365Y-92543954D01*
X114086359Y-92416634D01*
X114116964Y-92265500D01*
X114116964Y-90868500D01*
X114090397Y-90727310D01*
X114006954Y-90597635D01*
X113879634Y-90510641D01*
X113728500Y-90480036D01*
X112331500Y-90480036D01*
X112190310Y-90506603D01*
X112066137Y-90586506D01*
X111688310Y-90334049D01*
X111125000Y-90222000D01*
X110561690Y-90334049D01*
X110348928Y-90476212D01*
X110336944Y-90412523D01*
X110255104Y-90285340D01*
X110130230Y-90200017D01*
X109982000Y-90170000D01*
X107188000Y-90170000D01*
X107049523Y-90196056D01*
X106922340Y-90277896D01*
X106837017Y-90402770D01*
X106807000Y-90551000D01*
X106807000Y-92964000D01*
X106045000Y-92964000D01*
X105906523Y-92990056D01*
X105779340Y-93071896D01*
X105694017Y-93196770D01*
X105664111Y-93344454D01*
X105558595Y-93238937D01*
X105399890Y-93173200D01*
X104948950Y-93173200D01*
X104841000Y-93281150D01*
X104841000Y-93853000D01*
X104861000Y-93853000D01*
X104861000Y-94107000D01*
X104841000Y-94107000D01*
X104841000Y-94127000D01*
X104587000Y-94127000D01*
X104587000Y-94107000D01*
X103790150Y-94107000D01*
X103682200Y-94214950D01*
X103682200Y-94440891D01*
X103718323Y-94528099D01*
X103274112Y-94083888D01*
X103088704Y-93960003D01*
X103052418Y-93952785D01*
X102870000Y-93916499D01*
X102869995Y-93916500D01*
X101214464Y-93916500D01*
X101214464Y-93738000D01*
X101187897Y-93596810D01*
X101137899Y-93519109D01*
X103682200Y-93519109D01*
X103682200Y-93745050D01*
X103790150Y-93853000D01*
X104587000Y-93853000D01*
X104587000Y-93281150D01*
X104479050Y-93173200D01*
X104028110Y-93173200D01*
X103869405Y-93238937D01*
X103747938Y-93360405D01*
X103682200Y-93519109D01*
X101137899Y-93519109D01*
X101104454Y-93467135D01*
X100977134Y-93380141D01*
X100826000Y-93349536D01*
X100711000Y-93349536D01*
X100711000Y-92780964D01*
X100965000Y-92780964D01*
X101088855Y-92757659D01*
X101223632Y-92959368D01*
X101804188Y-93347282D01*
X102489000Y-93483500D01*
X103173812Y-93347282D01*
X103754368Y-92959368D01*
X103862499Y-92797538D01*
X103927110Y-92824300D01*
X104540050Y-92824300D01*
X104648000Y-92716350D01*
X104648000Y-91757500D01*
X104902000Y-91757500D01*
X104902000Y-92716350D01*
X105009950Y-92824300D01*
X105622890Y-92824300D01*
X105781595Y-92758563D01*
X105903062Y-92637095D01*
X105968800Y-92478391D01*
X105968800Y-91865450D01*
X105860850Y-91757500D01*
X104902000Y-91757500D01*
X104648000Y-91757500D01*
X104628000Y-91757500D01*
X104628000Y-91503500D01*
X104648000Y-91503500D01*
X104648000Y-90544650D01*
X104902000Y-90544650D01*
X104902000Y-91503500D01*
X105860850Y-91503500D01*
X105968800Y-91395550D01*
X105968800Y-90782609D01*
X105903062Y-90623905D01*
X105781595Y-90502437D01*
X105622890Y-90436700D01*
X105009950Y-90436700D01*
X104902000Y-90544650D01*
X104648000Y-90544650D01*
X104540050Y-90436700D01*
X103927110Y-90436700D01*
X103796036Y-90490992D01*
X103754368Y-90428632D01*
X103289473Y-90118000D01*
X114352000Y-90118000D01*
X114352000Y-138684000D01*
X81915000Y-138684000D01*
X81915000Y-136652000D01*
X111752039Y-136652000D01*
X111829983Y-137043853D01*
X112051950Y-137376050D01*
X112384147Y-137598017D01*
X112776000Y-137675961D01*
X113167853Y-137598017D01*
X113500050Y-137376050D01*
X113722017Y-137043853D01*
X113799961Y-136652000D01*
X113722017Y-136260147D01*
X113500050Y-135927950D01*
X113167853Y-135705983D01*
X112776000Y-135628039D01*
X112384147Y-135705983D01*
X112051950Y-135927950D01*
X111829983Y-136260147D01*
X111752039Y-136652000D01*
X81915000Y-136652000D01*
X81915000Y-133564450D01*
X83065200Y-133564450D01*
X83065200Y-134015390D01*
X83130937Y-134174095D01*
X83252405Y-134295562D01*
X83411109Y-134361300D01*
X83712050Y-134361300D01*
X83820000Y-134253350D01*
X83820000Y-133456500D01*
X83173150Y-133456500D01*
X83065200Y-133564450D01*
X81915000Y-133564450D01*
X81915000Y-129266950D01*
X81930200Y-129266950D01*
X81930200Y-129705391D01*
X81974152Y-129811500D01*
X81930200Y-129917609D01*
X81930200Y-130956050D01*
X82038150Y-131064000D01*
X83185000Y-131064000D01*
X83185000Y-129159000D01*
X82038150Y-129159000D01*
X81930200Y-129266950D01*
X81915000Y-129266950D01*
X81915000Y-127488950D01*
X81930200Y-127488950D01*
X81930200Y-127927391D01*
X81995938Y-128086095D01*
X82052843Y-128143000D01*
X81995938Y-128199905D01*
X81930200Y-128358609D01*
X81930200Y-128797050D01*
X82038150Y-128905000D01*
X83185000Y-128905000D01*
X83185000Y-127381000D01*
X82038150Y-127381000D01*
X81930200Y-127488950D01*
X81915000Y-127488950D01*
X81915000Y-125329950D01*
X81930200Y-125329950D01*
X81930200Y-126368391D01*
X81974152Y-126474500D01*
X81930200Y-126580609D01*
X81930200Y-127019050D01*
X82038150Y-127127000D01*
X83185000Y-127127000D01*
X83185000Y-125222000D01*
X82038150Y-125222000D01*
X81930200Y-125329950D01*
X81915000Y-125329950D01*
X81915000Y-123821609D01*
X81930200Y-123821609D01*
X81930200Y-124860050D01*
X82038150Y-124968000D01*
X83185000Y-124968000D01*
X83185000Y-123583650D01*
X83077050Y-123475700D01*
X82276110Y-123475700D01*
X82117405Y-123541437D01*
X81995938Y-123662905D01*
X81930200Y-123821609D01*
X81915000Y-123821609D01*
X81915000Y-122662950D01*
X94284200Y-122662950D01*
X94284200Y-122888891D01*
X94349938Y-123047595D01*
X94471405Y-123169063D01*
X94630110Y-123234800D01*
X95081050Y-123234800D01*
X95189000Y-123126850D01*
X95189000Y-122555000D01*
X94392150Y-122555000D01*
X94284200Y-122662950D01*
X81915000Y-122662950D01*
X81915000Y-121646950D01*
X83928200Y-121646950D01*
X83928200Y-122122891D01*
X83993938Y-122281595D01*
X84115405Y-122403063D01*
X84274110Y-122468800D01*
X84875050Y-122468800D01*
X84983000Y-122360850D01*
X84983000Y-121539000D01*
X85237000Y-121539000D01*
X85237000Y-122360850D01*
X85344950Y-122468800D01*
X85945890Y-122468800D01*
X86104595Y-122403063D01*
X86226062Y-122281595D01*
X86291800Y-122122891D01*
X86291800Y-121646950D01*
X86183850Y-121539000D01*
X85237000Y-121539000D01*
X84983000Y-121539000D01*
X84036150Y-121539000D01*
X83928200Y-121646950D01*
X81915000Y-121646950D01*
X81915000Y-120701109D01*
X83928200Y-120701109D01*
X83928200Y-121177050D01*
X84036150Y-121285000D01*
X84983000Y-121285000D01*
X84983000Y-121265000D01*
X85237000Y-121265000D01*
X85237000Y-121285000D01*
X86183850Y-121285000D01*
X86291800Y-121177050D01*
X86291800Y-120701109D01*
X86226062Y-120542405D01*
X86124458Y-120440800D01*
X86349890Y-120440800D01*
X86360000Y-120436612D01*
X86360000Y-122047000D01*
X86386056Y-122185477D01*
X86467896Y-122312660D01*
X86592770Y-122397983D01*
X86741000Y-122428000D01*
X91313000Y-122428000D01*
X91451477Y-122401944D01*
X91578660Y-122320104D01*
X91663983Y-122195230D01*
X91694000Y-122047000D01*
X91694000Y-120368109D01*
X94070700Y-120368109D01*
X94070700Y-120669050D01*
X94178650Y-120777000D01*
X94975500Y-120777000D01*
X94975500Y-120130150D01*
X95229500Y-120130150D01*
X95229500Y-120777000D01*
X96026350Y-120777000D01*
X96134300Y-120669050D01*
X96134300Y-120368109D01*
X96068562Y-120209405D01*
X95947095Y-120087937D01*
X95788390Y-120022200D01*
X95337450Y-120022200D01*
X95229500Y-120130150D01*
X94975500Y-120130150D01*
X94867550Y-120022200D01*
X94416610Y-120022200D01*
X94257905Y-120087937D01*
X94136438Y-120209405D01*
X94070700Y-120368109D01*
X91694000Y-120368109D01*
X91694000Y-118618000D01*
X91667944Y-118479523D01*
X91586104Y-118352340D01*
X91461230Y-118267017D01*
X91313000Y-118237000D01*
X90297000Y-118237000D01*
X90297000Y-117094000D01*
X90270944Y-116955523D01*
X90189104Y-116828340D01*
X90064230Y-116743017D01*
X89916000Y-116713000D01*
X88646000Y-116713000D01*
X88560631Y-116729063D01*
X88548891Y-116724200D01*
X88372950Y-116724200D01*
X88265000Y-116832150D01*
X88265000Y-117833000D01*
X88011000Y-117833000D01*
X88011000Y-116832150D01*
X87903050Y-116724200D01*
X87727109Y-116724200D01*
X87713383Y-116729885D01*
X87630000Y-116713000D01*
X86741000Y-116713000D01*
X86602523Y-116739056D01*
X86475340Y-116820896D01*
X86390017Y-116945770D01*
X86360000Y-117094000D01*
X86360000Y-118831388D01*
X86349890Y-118827200D01*
X85898950Y-118827200D01*
X85791000Y-118935150D01*
X85791000Y-119507000D01*
X85811000Y-119507000D01*
X85811000Y-119761000D01*
X85791000Y-119761000D01*
X85791000Y-119781000D01*
X85537000Y-119781000D01*
X85537000Y-119761000D01*
X84740150Y-119761000D01*
X84632200Y-119868950D01*
X84632200Y-120094891D01*
X84697938Y-120253595D01*
X84799542Y-120355200D01*
X84274110Y-120355200D01*
X84115405Y-120420937D01*
X83993938Y-120542405D01*
X83928200Y-120701109D01*
X81915000Y-120701109D01*
X81915000Y-119173109D01*
X84632200Y-119173109D01*
X84632200Y-119399050D01*
X84740150Y-119507000D01*
X85537000Y-119507000D01*
X85537000Y-118935150D01*
X85429050Y-118827200D01*
X84978110Y-118827200D01*
X84819405Y-118892937D01*
X84697938Y-119014405D01*
X84632200Y-119173109D01*
X81915000Y-119173109D01*
X81915000Y-117770950D01*
X82886200Y-117770950D01*
X82886200Y-118221890D01*
X82951937Y-118380595D01*
X83073405Y-118502062D01*
X83232109Y-118567800D01*
X83458050Y-118567800D01*
X83566000Y-118459850D01*
X83566000Y-117663000D01*
X83820000Y-117663000D01*
X83820000Y-118459850D01*
X83927950Y-118567800D01*
X84153891Y-118567800D01*
X84312595Y-118502062D01*
X84434063Y-118380595D01*
X84455000Y-118330048D01*
X84475937Y-118380595D01*
X84597405Y-118502062D01*
X84756109Y-118567800D01*
X84982050Y-118567800D01*
X85090000Y-118459850D01*
X85090000Y-117663000D01*
X85344000Y-117663000D01*
X85344000Y-118459850D01*
X85451950Y-118567800D01*
X85677891Y-118567800D01*
X85836595Y-118502062D01*
X85958063Y-118380595D01*
X86023800Y-118221890D01*
X86023800Y-117770950D01*
X85915850Y-117663000D01*
X85344000Y-117663000D01*
X85090000Y-117663000D01*
X84518150Y-117663000D01*
X84455000Y-117726150D01*
X84391850Y-117663000D01*
X83820000Y-117663000D01*
X83566000Y-117663000D01*
X82994150Y-117663000D01*
X82886200Y-117770950D01*
X81915000Y-117770950D01*
X81915000Y-102362000D01*
X82161039Y-102362000D01*
X82238983Y-102753853D01*
X82460950Y-103086050D01*
X82793147Y-103308017D01*
X83185000Y-103385961D01*
X83576853Y-103308017D01*
X83909050Y-103086050D01*
X84131017Y-102753853D01*
X84208961Y-102362000D01*
X84131017Y-101970147D01*
X83909050Y-101637950D01*
X83576853Y-101415983D01*
X83185000Y-101338039D01*
X82793147Y-101415983D01*
X82460950Y-101637950D01*
X82238983Y-101970147D01*
X82161039Y-102362000D01*
X81915000Y-102362000D01*
X81915000Y-90118000D01*
X101688527Y-90118000D01*
X101223632Y-90428632D01*
X101223632Y-90428632D01*
G37*
X101223632Y-90428632D02*
X101152317Y-90535363D01*
X101116134Y-90510641D01*
X100965000Y-90480036D01*
X99441000Y-90480036D01*
X99299810Y-90506603D01*
X99170135Y-90590046D01*
X99083141Y-90717366D01*
X99052536Y-90868500D01*
X99052536Y-92392500D01*
X99079103Y-92533690D01*
X99162546Y-92663365D01*
X99289866Y-92750359D01*
X99441000Y-92780964D01*
X99568000Y-92780964D01*
X99568000Y-93349536D01*
X99326000Y-93349536D01*
X99184810Y-93376103D01*
X99055135Y-93459546D01*
X98968141Y-93586866D01*
X98937536Y-93738000D01*
X98937536Y-95238000D01*
X98964103Y-95379190D01*
X99047546Y-95508865D01*
X99174866Y-95595859D01*
X99326000Y-95626464D01*
X100826000Y-95626464D01*
X100967190Y-95599897D01*
X101096865Y-95516454D01*
X101183859Y-95389134D01*
X101214464Y-95238000D01*
X101214464Y-95059500D01*
X102120700Y-95059500D01*
X102120700Y-99896240D01*
X101188230Y-98963770D01*
X101027544Y-98856402D01*
X100838000Y-98818700D01*
X100377940Y-98818700D01*
X100359897Y-98722810D01*
X100276454Y-98593135D01*
X100149134Y-98506141D01*
X99998000Y-98475536D01*
X98798000Y-98475536D01*
X98656810Y-98502103D01*
X98579267Y-98552000D01*
X98016251Y-98552000D01*
X97949134Y-98506141D01*
X97798000Y-98475536D01*
X97431364Y-98475536D01*
X96631300Y-97675472D01*
X96404691Y-97524056D01*
X96137386Y-97470886D01*
X95979362Y-97470886D01*
X95957897Y-97356810D01*
X95874454Y-97227135D01*
X95747134Y-97140141D01*
X95596000Y-97109536D01*
X93416000Y-97109536D01*
X93274810Y-97136103D01*
X93145135Y-97219546D01*
X93058141Y-97346866D01*
X93027536Y-97498000D01*
X93027536Y-98568004D01*
X90946086Y-100649454D01*
X90794670Y-100876063D01*
X90794670Y-100876064D01*
X90741500Y-101143368D01*
X90741500Y-101385155D01*
X90719135Y-101399546D01*
X90662292Y-101482739D01*
X90652897Y-101432810D01*
X90569454Y-101303135D01*
X90442134Y-101216141D01*
X90291000Y-101185536D01*
X89541000Y-101185536D01*
X89399810Y-101212103D01*
X89270135Y-101295546D01*
X89183141Y-101422866D01*
X89170559Y-101485000D01*
X89120454Y-101407135D01*
X88993134Y-101320141D01*
X88842000Y-101289536D01*
X87942000Y-101289536D01*
X87800810Y-101316103D01*
X87671135Y-101399546D01*
X87584141Y-101526866D01*
X87553536Y-101678000D01*
X87553536Y-102878000D01*
X87580103Y-103019190D01*
X87663546Y-103148865D01*
X87790866Y-103235859D01*
X87942000Y-103266464D01*
X88372082Y-103266464D01*
X88595154Y-103489536D01*
X87942000Y-103489536D01*
X87800810Y-103516103D01*
X87671135Y-103599546D01*
X87584141Y-103726866D01*
X87573482Y-103779500D01*
X86169488Y-103779500D01*
X86169488Y-102489060D01*
X86169500Y-102489000D01*
X86169500Y-100584000D01*
X86360000Y-100584000D01*
X86498477Y-100557944D01*
X86625660Y-100476104D01*
X86710983Y-100351230D01*
X86741000Y-100203000D01*
X86741000Y-99297225D01*
X86773859Y-99249134D01*
X86804464Y-99098000D01*
X86804464Y-97498000D01*
X86777897Y-97356810D01*
X86741000Y-97299470D01*
X86741000Y-97155000D01*
X86714944Y-97016523D01*
X86633104Y-96889340D01*
X86508230Y-96804017D01*
X86360000Y-96774000D01*
X83185000Y-96774000D01*
X83046523Y-96800056D01*
X82919340Y-96881896D01*
X82834017Y-97006770D01*
X82804000Y-97155000D01*
X82804000Y-100203000D01*
X82830056Y-100341477D01*
X82911896Y-100468660D01*
X83036770Y-100553983D01*
X83185000Y-100584000D01*
X84772500Y-100584000D01*
X84772500Y-102488952D01*
X84772488Y-102489012D01*
X84772488Y-112318800D01*
X83312000Y-112318800D01*
X83145827Y-112350068D01*
X82993208Y-112448275D01*
X82890821Y-112598124D01*
X82854800Y-112776000D01*
X82854800Y-115951000D01*
X82886068Y-116117173D01*
X82929536Y-116184725D01*
X82929536Y-116236000D01*
X82956103Y-116377190D01*
X83039546Y-116506865D01*
X83109796Y-116554864D01*
X83073405Y-116569938D01*
X82951937Y-116691405D01*
X82886200Y-116850110D01*
X82886200Y-117301050D01*
X82994150Y-117409000D01*
X83566000Y-117409000D01*
X83566000Y-117389000D01*
X83820000Y-117389000D01*
X83820000Y-117409000D01*
X84391850Y-117409000D01*
X84455000Y-117345850D01*
X84518150Y-117409000D01*
X85090000Y-117409000D01*
X85090000Y-117389000D01*
X85344000Y-117389000D01*
X85344000Y-117409000D01*
X85915850Y-117409000D01*
X86023800Y-117301050D01*
X86023800Y-116850110D01*
X85958063Y-116691405D01*
X85836595Y-116569938D01*
X85800120Y-116554829D01*
X85862865Y-116514454D01*
X85935465Y-116408200D01*
X87757000Y-116408200D01*
X87923173Y-116376932D01*
X88075792Y-116278725D01*
X88178179Y-116128876D01*
X88214200Y-115951000D01*
X88214200Y-114956000D01*
X88374536Y-114956000D01*
X88374536Y-116016000D01*
X88401103Y-116157190D01*
X88484546Y-116286865D01*
X88611866Y-116373859D01*
X88763000Y-116404464D01*
X89413000Y-116404464D01*
X89554190Y-116377897D01*
X89683865Y-116294454D01*
X89770859Y-116167134D01*
X89801464Y-116016000D01*
X89801464Y-114956000D01*
X89774897Y-114814810D01*
X89691454Y-114685135D01*
X89564134Y-114598141D01*
X89413000Y-114567536D01*
X88763000Y-114567536D01*
X88621810Y-114594103D01*
X88492135Y-114677546D01*
X88405141Y-114804866D01*
X88374536Y-114956000D01*
X88214200Y-114956000D01*
X88214200Y-114334052D01*
X88229859Y-114311134D01*
X88260464Y-114160000D01*
X88260464Y-112660000D01*
X88237480Y-112537854D01*
X88281596Y-112567331D01*
X88476000Y-112606000D01*
X88569536Y-112606000D01*
X88569536Y-112698000D01*
X88596103Y-112839190D01*
X88679546Y-112968865D01*
X88806866Y-113055859D01*
X88958000Y-113086464D01*
X89858000Y-113086464D01*
X89999190Y-113059897D01*
X90128865Y-112976454D01*
X90215859Y-112849134D01*
X90246464Y-112698000D01*
X90246464Y-112055950D01*
X91395200Y-112055950D01*
X91395200Y-112506890D01*
X91460937Y-112665595D01*
X91571343Y-112776000D01*
X91460937Y-112886405D01*
X91395200Y-113045110D01*
X91395200Y-113496050D01*
X91503150Y-113604000D01*
X92075000Y-113604000D01*
X92075000Y-112807150D01*
X92043850Y-112776000D01*
X92075000Y-112744850D01*
X92075000Y-111948000D01*
X92329000Y-111948000D01*
X92329000Y-112744850D01*
X92360150Y-112776000D01*
X92329000Y-112807150D01*
X92329000Y-113604000D01*
X92900850Y-113604000D01*
X93008800Y-113496050D01*
X93008800Y-113045110D01*
X92943063Y-112886405D01*
X92832657Y-112776000D01*
X92943063Y-112665595D01*
X93008800Y-112506890D01*
X93008800Y-112055950D01*
X92900850Y-111948000D01*
X92329000Y-111948000D01*
X92075000Y-111948000D01*
X91503150Y-111948000D01*
X91395200Y-112055950D01*
X90246464Y-112055950D01*
X90246464Y-111498000D01*
X90219897Y-111356810D01*
X90136454Y-111227135D01*
X90009134Y-111140141D01*
X89858000Y-111109536D01*
X88958000Y-111109536D01*
X88816810Y-111136103D01*
X88687135Y-111219546D01*
X88600141Y-111346866D01*
X88573726Y-111477306D01*
X88180213Y-111083793D01*
X88229859Y-111011134D01*
X88260464Y-110860000D01*
X88260464Y-110132950D01*
X88526200Y-110132950D01*
X88526200Y-110583890D01*
X88591937Y-110742595D01*
X88713405Y-110864062D01*
X88872109Y-110929800D01*
X89173050Y-110929800D01*
X89281000Y-110821850D01*
X89281000Y-110025000D01*
X89535000Y-110025000D01*
X89535000Y-110821850D01*
X89642950Y-110929800D01*
X89943891Y-110929800D01*
X90102595Y-110864062D01*
X90224063Y-110742595D01*
X90289800Y-110583890D01*
X90289800Y-110132950D01*
X90181850Y-110025000D01*
X89535000Y-110025000D01*
X89281000Y-110025000D01*
X88634150Y-110025000D01*
X88526200Y-110132950D01*
X88260464Y-110132950D01*
X88260464Y-109360000D01*
X88233897Y-109218810D01*
X88229586Y-109212110D01*
X88526200Y-109212110D01*
X88526200Y-109663050D01*
X88634150Y-109771000D01*
X89281000Y-109771000D01*
X89281000Y-108974150D01*
X89535000Y-108974150D01*
X89535000Y-109771000D01*
X90181850Y-109771000D01*
X90289800Y-109663050D01*
X90289800Y-109212110D01*
X90224063Y-109053405D01*
X90102595Y-108931938D01*
X89943891Y-108866200D01*
X89642950Y-108866200D01*
X89535000Y-108974150D01*
X89281000Y-108974150D01*
X89173050Y-108866200D01*
X88872109Y-108866200D01*
X88713405Y-108931938D01*
X88591937Y-109053405D01*
X88526200Y-109212110D01*
X88229586Y-109212110D01*
X88150454Y-109089135D01*
X88023134Y-109002141D01*
X87872000Y-108971536D01*
X86372000Y-108971536D01*
X86230810Y-108998103D01*
X86169488Y-109037562D01*
X86169488Y-105176500D01*
X87572070Y-105176500D01*
X87580103Y-105219190D01*
X87663546Y-105348865D01*
X87790866Y-105435859D01*
X87942000Y-105466464D01*
X88842000Y-105466464D01*
X88983190Y-105439897D01*
X89112865Y-105356454D01*
X89199859Y-105229134D01*
X89230464Y-105078000D01*
X89230464Y-104895008D01*
X89262546Y-104944865D01*
X89389866Y-105031859D01*
X89541000Y-105062464D01*
X90291000Y-105062464D01*
X90432190Y-105035897D01*
X90558200Y-104954812D01*
X90558200Y-105163890D01*
X90623937Y-105322595D01*
X90745405Y-105444062D01*
X90904109Y-105509800D01*
X91205050Y-105509800D01*
X91313000Y-105401850D01*
X91313000Y-104605000D01*
X91567000Y-104605000D01*
X91567000Y-105401850D01*
X91674950Y-105509800D01*
X91975891Y-105509800D01*
X92134595Y-105444062D01*
X92256063Y-105322595D01*
X92321800Y-105163890D01*
X92321800Y-104712950D01*
X92213850Y-104605000D01*
X91567000Y-104605000D01*
X91313000Y-104605000D01*
X91293000Y-104605000D01*
X91293000Y-104351000D01*
X91313000Y-104351000D01*
X91313000Y-103554150D01*
X91567000Y-103554150D01*
X91567000Y-104351000D01*
X92213850Y-104351000D01*
X92321800Y-104243050D01*
X92321800Y-103792110D01*
X92256063Y-103633405D01*
X92134595Y-103511938D01*
X91975891Y-103446200D01*
X91674950Y-103446200D01*
X91567000Y-103554150D01*
X91313000Y-103554150D01*
X91205050Y-103446200D01*
X90904109Y-103446200D01*
X90745405Y-103511938D01*
X90679464Y-103577878D01*
X90679464Y-103474000D01*
X90652897Y-103332810D01*
X90569454Y-103203135D01*
X90452202Y-103123020D01*
X90561865Y-103052454D01*
X90613762Y-102976500D01*
X90620070Y-102976500D01*
X90628103Y-103019190D01*
X90711546Y-103148865D01*
X90838866Y-103235859D01*
X90990000Y-103266464D01*
X91890000Y-103266464D01*
X92031190Y-103239897D01*
X92160865Y-103156454D01*
X92247859Y-103029134D01*
X92278464Y-102878000D01*
X92278464Y-101678000D01*
X92251897Y-101536810D01*
X92168454Y-101407135D01*
X92165844Y-101405352D01*
X94084732Y-99486464D01*
X95596000Y-99486464D01*
X95737190Y-99459897D01*
X95866865Y-99376454D01*
X95953859Y-99249134D01*
X95984464Y-99098000D01*
X95984464Y-99004292D01*
X96209536Y-99229364D01*
X96209536Y-99764000D01*
X96236103Y-99905190D01*
X96319546Y-100034865D01*
X96446866Y-100121859D01*
X96598000Y-100152464D01*
X97798000Y-100152464D01*
X97939190Y-100125897D01*
X98016733Y-100076000D01*
X98579749Y-100076000D01*
X98646866Y-100121859D01*
X98798000Y-100152464D01*
X99998000Y-100152464D01*
X100139190Y-100125897D01*
X100268865Y-100042454D01*
X100355859Y-99915134D01*
X100377291Y-99809300D01*
X100632840Y-99809300D01*
X101928240Y-101104700D01*
X101340464Y-101104700D01*
X101340464Y-100850000D01*
X101313897Y-100708810D01*
X101230454Y-100579135D01*
X101103134Y-100492141D01*
X100952000Y-100461536D01*
X99452000Y-100461536D01*
X99310810Y-100488103D01*
X99181135Y-100571546D01*
X99129238Y-100647500D01*
X97974445Y-100647500D01*
X97930454Y-100579135D01*
X97803134Y-100492141D01*
X97652000Y-100461536D01*
X96152000Y-100461536D01*
X96010810Y-100488103D01*
X95881135Y-100571546D01*
X95794141Y-100698866D01*
X95763536Y-100850000D01*
X95763536Y-102350000D01*
X95790103Y-102491190D01*
X95873546Y-102620865D01*
X96000866Y-102707859D01*
X96152000Y-102738464D01*
X96394000Y-102738464D01*
X96394000Y-102860520D01*
X96327135Y-102903546D01*
X96240141Y-103030866D01*
X96209536Y-103182000D01*
X96209536Y-104082000D01*
X96236103Y-104223190D01*
X96319546Y-104352865D01*
X96446866Y-104439859D01*
X96598000Y-104470464D01*
X97798000Y-104470464D01*
X97939190Y-104443897D01*
X98068865Y-104360454D01*
X98155859Y-104233134D01*
X98186464Y-104082000D01*
X98186464Y-103866950D01*
X98366200Y-103866950D01*
X98366200Y-104167891D01*
X98431938Y-104326595D01*
X98553405Y-104448063D01*
X98712110Y-104513800D01*
X99163050Y-104513800D01*
X99271000Y-104405850D01*
X99271000Y-103759000D01*
X99525000Y-103759000D01*
X99525000Y-104405850D01*
X99632950Y-104513800D01*
X100083890Y-104513800D01*
X100242595Y-104448063D01*
X100364062Y-104326595D01*
X100429800Y-104167891D01*
X100429800Y-103866950D01*
X100321850Y-103759000D01*
X99525000Y-103759000D01*
X99271000Y-103759000D01*
X98474150Y-103759000D01*
X98366200Y-103866950D01*
X98186464Y-103866950D01*
X98186464Y-103182000D01*
X98170303Y-103096109D01*
X98366200Y-103096109D01*
X98366200Y-103397050D01*
X98474150Y-103505000D01*
X99271000Y-103505000D01*
X99271000Y-102858150D01*
X99525000Y-102858150D01*
X99525000Y-103505000D01*
X100321850Y-103505000D01*
X100429800Y-103397050D01*
X100429800Y-103096109D01*
X100364062Y-102937405D01*
X100242595Y-102815937D01*
X100083890Y-102750200D01*
X99632950Y-102750200D01*
X99525000Y-102858150D01*
X99271000Y-102858150D01*
X99163050Y-102750200D01*
X98712110Y-102750200D01*
X98553405Y-102815937D01*
X98431938Y-102937405D01*
X98366200Y-103096109D01*
X98170303Y-103096109D01*
X98159897Y-103040810D01*
X98076454Y-102911135D01*
X97949134Y-102824141D01*
X97798000Y-102793536D01*
X97410000Y-102793536D01*
X97410000Y-102738464D01*
X97652000Y-102738464D01*
X97793190Y-102711897D01*
X97922865Y-102628454D01*
X98009859Y-102501134D01*
X98025175Y-102425500D01*
X99077742Y-102425500D01*
X99090103Y-102491190D01*
X99173546Y-102620865D01*
X99300866Y-102707859D01*
X99452000Y-102738464D01*
X100952000Y-102738464D01*
X101093190Y-102711897D01*
X101222865Y-102628454D01*
X101309859Y-102501134D01*
X101340464Y-102350000D01*
X101340464Y-102095300D01*
X102156840Y-102095300D01*
X109994700Y-109933160D01*
X109994700Y-113374700D01*
X109899450Y-113374700D01*
X109791500Y-113482650D01*
X109791500Y-114279500D01*
X109811500Y-114279500D01*
X109811500Y-114533500D01*
X109791500Y-114533500D01*
X109791500Y-115330350D01*
X109899450Y-115438300D01*
X109994700Y-115438300D01*
X109994700Y-115618036D01*
X109214500Y-115618036D01*
X109073310Y-115644603D01*
X108943635Y-115728046D01*
X108856641Y-115855366D01*
X108826036Y-116006500D01*
X108826036Y-117206500D01*
X108852603Y-117347690D01*
X108936046Y-117477365D01*
X109063366Y-117564359D01*
X109214500Y-117594964D01*
X109474000Y-117594964D01*
X109474000Y-119995079D01*
X109315080Y-120154000D01*
X109210964Y-120154000D01*
X109210964Y-120037000D01*
X109186580Y-119907412D01*
X109210964Y-119787000D01*
X109210964Y-119537000D01*
X109203267Y-119496094D01*
X109254300Y-119372891D01*
X109254300Y-119332450D01*
X109146350Y-119224500D01*
X109040019Y-119224500D01*
X108973634Y-119179141D01*
X108891428Y-119162494D01*
X108963690Y-119148897D01*
X109040456Y-119099500D01*
X109146350Y-119099500D01*
X109254300Y-118991550D01*
X109254300Y-118951109D01*
X109202873Y-118826955D01*
X109210964Y-118787000D01*
X109210964Y-118537000D01*
X109184397Y-118395810D01*
X109100954Y-118266135D01*
X108973634Y-118179141D01*
X108822500Y-118148536D01*
X108680500Y-118148536D01*
X108680500Y-117211087D01*
X108682859Y-117207634D01*
X108713464Y-117056500D01*
X108713464Y-115856500D01*
X108686897Y-115715310D01*
X108603454Y-115585635D01*
X108533204Y-115537636D01*
X108569595Y-115522562D01*
X108691063Y-115401095D01*
X108756800Y-115242390D01*
X108756800Y-114791450D01*
X108648850Y-114683500D01*
X108077000Y-114683500D01*
X108077000Y-114703500D01*
X107823000Y-114703500D01*
X107823000Y-114683500D01*
X107803000Y-114683500D01*
X107803000Y-114641450D01*
X108782700Y-114641450D01*
X108782700Y-115092390D01*
X108848437Y-115251095D01*
X108969905Y-115372562D01*
X109128609Y-115438300D01*
X109429550Y-115438300D01*
X109537500Y-115330350D01*
X109537500Y-114533500D01*
X108890650Y-114533500D01*
X108782700Y-114641450D01*
X107803000Y-114641450D01*
X107803000Y-114429500D01*
X107823000Y-114429500D01*
X107823000Y-113632650D01*
X108077000Y-113632650D01*
X108077000Y-114429500D01*
X108648850Y-114429500D01*
X108756800Y-114321550D01*
X108756800Y-113870610D01*
X108694669Y-113720610D01*
X108782700Y-113720610D01*
X108782700Y-114171550D01*
X108890650Y-114279500D01*
X109537500Y-114279500D01*
X109537500Y-113482650D01*
X109429550Y-113374700D01*
X109128609Y-113374700D01*
X108969905Y-113440438D01*
X108848437Y-113561905D01*
X108782700Y-113720610D01*
X108694669Y-113720610D01*
X108691063Y-113711905D01*
X108569595Y-113590438D01*
X108410891Y-113524700D01*
X108184950Y-113524700D01*
X108077000Y-113632650D01*
X107823000Y-113632650D01*
X107715050Y-113524700D01*
X107489109Y-113524700D01*
X107355071Y-113580221D01*
X107251850Y-113477000D01*
X106680000Y-113477000D01*
X106680000Y-113497000D01*
X106426000Y-113497000D01*
X106426000Y-113477000D01*
X105854150Y-113477000D01*
X105746200Y-113584950D01*
X105746200Y-114035890D01*
X105811937Y-114194595D01*
X105933405Y-114316062D01*
X105969880Y-114331171D01*
X105907135Y-114371546D01*
X105820141Y-114498866D01*
X105789536Y-114650000D01*
X105789536Y-115850000D01*
X105816103Y-115991190D01*
X105848860Y-116042097D01*
X105817912Y-116047920D01*
X105697500Y-116023536D01*
X105447500Y-116023536D01*
X105317912Y-116047920D01*
X105197500Y-116023536D01*
X105067800Y-116023536D01*
X105067800Y-115748500D01*
X105030098Y-115558957D01*
X104922730Y-115398270D01*
X104205460Y-114681000D01*
X104394000Y-114681000D01*
X104440159Y-114672315D01*
X104482553Y-114645035D01*
X104510994Y-114603410D01*
X104521000Y-114554000D01*
X104521000Y-112664110D01*
X105746200Y-112664110D01*
X105746200Y-113115050D01*
X105854150Y-113223000D01*
X106426000Y-113223000D01*
X106426000Y-112426150D01*
X106680000Y-112426150D01*
X106680000Y-113223000D01*
X107251850Y-113223000D01*
X107359800Y-113115050D01*
X107359800Y-112664110D01*
X107294063Y-112505405D01*
X107172595Y-112383938D01*
X107013891Y-112318200D01*
X106787950Y-112318200D01*
X106680000Y-112426150D01*
X106426000Y-112426150D01*
X106318050Y-112318200D01*
X106092109Y-112318200D01*
X105933405Y-112383938D01*
X105811937Y-112505405D01*
X105746200Y-112664110D01*
X104521000Y-112664110D01*
X104521000Y-109982000D01*
X104512315Y-109935841D01*
X104485035Y-109893447D01*
X104443410Y-109865006D01*
X104394000Y-109855000D01*
X99822000Y-109855000D01*
X99775841Y-109863685D01*
X99733447Y-109890965D01*
X99705006Y-109932590D01*
X99695000Y-109982000D01*
X99695000Y-114312700D01*
X98503160Y-114312700D01*
X96253300Y-112062840D01*
X96253300Y-110910464D01*
X96758000Y-110910464D01*
X96899190Y-110883897D01*
X97028865Y-110800454D01*
X97115859Y-110673134D01*
X97146464Y-110522000D01*
X97146464Y-106022000D01*
X97119897Y-105880810D01*
X97036454Y-105751135D01*
X96909134Y-105664141D01*
X96758000Y-105633536D01*
X94758000Y-105633536D01*
X94616810Y-105660103D01*
X94487135Y-105743546D01*
X94400141Y-105870866D01*
X94369536Y-106022000D01*
X94369536Y-108852240D01*
X93872276Y-109349500D01*
X92965464Y-109349500D01*
X92965464Y-109321000D01*
X92938897Y-109179810D01*
X92855454Y-109050135D01*
X92728134Y-108963141D01*
X92577000Y-108932536D01*
X91827000Y-108932536D01*
X91685810Y-108959103D01*
X91556135Y-109042546D01*
X91469141Y-109169866D01*
X91438536Y-109321000D01*
X91438536Y-110521000D01*
X91465103Y-110662190D01*
X91548546Y-110791865D01*
X91618796Y-110839864D01*
X91582405Y-110854938D01*
X91460937Y-110976405D01*
X91395200Y-111135110D01*
X91395200Y-111586050D01*
X91503150Y-111694000D01*
X92075000Y-111694000D01*
X92075000Y-111674000D01*
X92329000Y-111674000D01*
X92329000Y-111694000D01*
X92900850Y-111694000D01*
X93008800Y-111586050D01*
X93008800Y-111135110D01*
X92943063Y-110976405D01*
X92821595Y-110854938D01*
X92785120Y-110839829D01*
X92847865Y-110799454D01*
X92934859Y-110672134D01*
X92965464Y-110521000D01*
X92965464Y-110492500D01*
X94108995Y-110492500D01*
X94109000Y-110492501D01*
X94291418Y-110456215D01*
X94327704Y-110448997D01*
X94369536Y-110421046D01*
X94369536Y-110522000D01*
X94396103Y-110663190D01*
X94479546Y-110792865D01*
X94606866Y-110879859D01*
X94758000Y-110910464D01*
X95262700Y-110910464D01*
X95262700Y-112268000D01*
X95300402Y-112457544D01*
X95407770Y-112618230D01*
X97947770Y-115158230D01*
X98108457Y-115265598D01*
X98148064Y-115273476D01*
X97146464Y-116275076D01*
X97146464Y-114522000D01*
X97119897Y-114380810D01*
X97036454Y-114251135D01*
X96909134Y-114164141D01*
X96758000Y-114133536D01*
X94758000Y-114133536D01*
X94616810Y-114160103D01*
X94487135Y-114243546D01*
X94400141Y-114370866D01*
X94369536Y-114522000D01*
X94369536Y-115059500D01*
X92965464Y-115059500D01*
X92965464Y-115031000D01*
X92938897Y-114889810D01*
X92855454Y-114760135D01*
X92785204Y-114712136D01*
X92821595Y-114697062D01*
X92943063Y-114575595D01*
X93008800Y-114416890D01*
X93008800Y-113965950D01*
X92900850Y-113858000D01*
X92329000Y-113858000D01*
X92329000Y-113878000D01*
X92075000Y-113878000D01*
X92075000Y-113858000D01*
X91503150Y-113858000D01*
X91395200Y-113965950D01*
X91395200Y-114416890D01*
X91460937Y-114575595D01*
X91582405Y-114697062D01*
X91618880Y-114712171D01*
X91556135Y-114752546D01*
X91469141Y-114879866D01*
X91438536Y-115031000D01*
X91438536Y-116231000D01*
X91465103Y-116372190D01*
X91548546Y-116501865D01*
X91675866Y-116588859D01*
X91827000Y-116619464D01*
X92577000Y-116619464D01*
X92718190Y-116592897D01*
X92847865Y-116509454D01*
X92934859Y-116382134D01*
X92965464Y-116231000D01*
X92965464Y-116202500D01*
X94369536Y-116202500D01*
X94369536Y-119022000D01*
X94396103Y-119163190D01*
X94479546Y-119292865D01*
X94606866Y-119379859D01*
X94758000Y-119410464D01*
X96758000Y-119410464D01*
X96899190Y-119383897D01*
X97028865Y-119300454D01*
X97115859Y-119173134D01*
X97146464Y-119022000D01*
X97146464Y-117267300D01*
X97350000Y-117267300D01*
X97539544Y-117229598D01*
X97700230Y-117122230D01*
X99011160Y-115811300D01*
X103172840Y-115811300D01*
X103383000Y-116021460D01*
X103283391Y-115980200D01*
X103242950Y-115980200D01*
X103135000Y-116088150D01*
X103135000Y-116194481D01*
X103089641Y-116260866D01*
X103072994Y-116343072D01*
X103059397Y-116270810D01*
X103010000Y-116194044D01*
X103010000Y-116088150D01*
X102902050Y-115980200D01*
X102861609Y-115980200D01*
X102737455Y-116031627D01*
X102697500Y-116023536D01*
X102447500Y-116023536D01*
X102317912Y-116047920D01*
X102197500Y-116023536D01*
X101947500Y-116023536D01*
X101817912Y-116047920D01*
X101697500Y-116023536D01*
X101447500Y-116023536D01*
X101317912Y-116047920D01*
X101197500Y-116023536D01*
X100947500Y-116023536D01*
X100806310Y-116050103D01*
X100676635Y-116133546D01*
X100589641Y-116260866D01*
X100559036Y-116412000D01*
X100559036Y-117712000D01*
X100585603Y-117853190D01*
X100669046Y-117982865D01*
X100796366Y-118069859D01*
X100947500Y-118100464D01*
X101197500Y-118100464D01*
X101327088Y-118076080D01*
X101447500Y-118100464D01*
X101697500Y-118100464D01*
X101827088Y-118076080D01*
X101947500Y-118100464D01*
X102077200Y-118100464D01*
X102077200Y-118626908D01*
X102011017Y-118723770D01*
X101996685Y-118794544D01*
X101970385Y-118820798D01*
X101854133Y-119100764D01*
X101853868Y-119403906D01*
X101969632Y-119684074D01*
X101995251Y-119709738D01*
X102007056Y-119772477D01*
X102088896Y-119899660D01*
X102213770Y-119984983D01*
X102362000Y-120015000D01*
X102615907Y-120015000D01*
X102766906Y-120015132D01*
X102767225Y-120015000D01*
X103504901Y-120015000D01*
X103655900Y-120015132D01*
X103656219Y-120015000D01*
X104393907Y-120015000D01*
X104544906Y-120015132D01*
X104545225Y-120015000D01*
X105282903Y-120015000D01*
X105433902Y-120015132D01*
X105434221Y-120015000D01*
X105664000Y-120015000D01*
X105802477Y-119988944D01*
X105929660Y-119907104D01*
X106014983Y-119782230D01*
X106045000Y-119634000D01*
X106045000Y-119299220D01*
X106408719Y-118935500D01*
X106426000Y-118935500D01*
X106426000Y-124460000D01*
X106287523Y-124486056D01*
X106160340Y-124567896D01*
X106075017Y-124692770D01*
X106045000Y-124841000D01*
X106045000Y-124948436D01*
X106010000Y-124894044D01*
X106010000Y-124788150D01*
X105902050Y-124680200D01*
X105861609Y-124680200D01*
X105737455Y-124731627D01*
X105697500Y-124723536D01*
X105447500Y-124723536D01*
X105317912Y-124747920D01*
X105197500Y-124723536D01*
X104947500Y-124723536D01*
X104817912Y-124747920D01*
X104697500Y-124723536D01*
X104447500Y-124723536D01*
X104317912Y-124747920D01*
X104197500Y-124723536D01*
X103947500Y-124723536D01*
X103817912Y-124747920D01*
X103697500Y-124723536D01*
X103447500Y-124723536D01*
X103317912Y-124747920D01*
X103197500Y-124723536D01*
X102947500Y-124723536D01*
X102817912Y-124747920D01*
X102697500Y-124723536D01*
X102447500Y-124723536D01*
X102317912Y-124747920D01*
X102197500Y-124723536D01*
X101947500Y-124723536D01*
X101817912Y-124747920D01*
X101697500Y-124723536D01*
X101447500Y-124723536D01*
X101317912Y-124747920D01*
X101197500Y-124723536D01*
X100947500Y-124723536D01*
X100806310Y-124750103D01*
X100676635Y-124833546D01*
X100589641Y-124960866D01*
X100559036Y-125112000D01*
X100559036Y-126412000D01*
X100585603Y-126553190D01*
X100669046Y-126682865D01*
X100796366Y-126769859D01*
X100947500Y-126800464D01*
X101197500Y-126800464D01*
X101327088Y-126776080D01*
X101447500Y-126800464D01*
X101697500Y-126800464D01*
X101827088Y-126776080D01*
X101947500Y-126800464D01*
X102197500Y-126800464D01*
X102327088Y-126776080D01*
X102447500Y-126800464D01*
X102697500Y-126800464D01*
X102827088Y-126776080D01*
X102947500Y-126800464D01*
X103197500Y-126800464D01*
X103327088Y-126776080D01*
X103447500Y-126800464D01*
X103697500Y-126800464D01*
X103827088Y-126776080D01*
X103852024Y-126781130D01*
X103595054Y-127038100D01*
X100292964Y-127038100D01*
X100287163Y-127019898D01*
X100279383Y-126964791D01*
X100257195Y-126901382D01*
X100228919Y-126853448D01*
X100209072Y-126801454D01*
X100173331Y-126744573D01*
X100135097Y-126704132D01*
X100104179Y-126657860D01*
X100056676Y-126610357D01*
X100010402Y-126579437D01*
X99969963Y-126541206D01*
X99913082Y-126505464D01*
X99861088Y-126485617D01*
X99813154Y-126457341D01*
X99749745Y-126435153D01*
X99694637Y-126427373D01*
X99641615Y-126410473D01*
X99574859Y-126402951D01*
X99519398Y-126407628D01*
X99463941Y-126402951D01*
X99397185Y-126410473D01*
X99344162Y-126427373D01*
X99289054Y-126435153D01*
X99225645Y-126457341D01*
X99177711Y-126485617D01*
X99125717Y-126505464D01*
X99068836Y-126541205D01*
X99028395Y-126579439D01*
X98982123Y-126610357D01*
X98934620Y-126657860D01*
X98903700Y-126704134D01*
X98865469Y-126744573D01*
X98852181Y-126765721D01*
X98548230Y-126461770D01*
X98387544Y-126354402D01*
X98198000Y-126316700D01*
X98151165Y-126316700D01*
X98086454Y-126216135D01*
X97959134Y-126129141D01*
X97808000Y-126098536D01*
X96248000Y-126098536D01*
X96106810Y-126125103D01*
X96090700Y-126135469D01*
X96090700Y-125937334D01*
X96186865Y-125875454D01*
X96234864Y-125805204D01*
X96249938Y-125841595D01*
X96371405Y-125963063D01*
X96530110Y-126028800D01*
X96981050Y-126028800D01*
X97089000Y-125920850D01*
X97089000Y-125349000D01*
X97343000Y-125349000D01*
X97343000Y-125920850D01*
X97450950Y-126028800D01*
X97901890Y-126028800D01*
X98060595Y-125963063D01*
X98182062Y-125841595D01*
X98247800Y-125682891D01*
X98247800Y-125456950D01*
X98139850Y-125349000D01*
X97343000Y-125349000D01*
X97089000Y-125349000D01*
X97069000Y-125349000D01*
X97069000Y-125095000D01*
X97089000Y-125095000D01*
X97089000Y-125075000D01*
X97343000Y-125075000D01*
X97343000Y-125095000D01*
X98139850Y-125095000D01*
X98247800Y-124987050D01*
X98247800Y-124761109D01*
X98228287Y-124714000D01*
X100203000Y-124714000D01*
X100341477Y-124687944D01*
X100468660Y-124606104D01*
X100553983Y-124481230D01*
X100584000Y-124333000D01*
X100584000Y-123952000D01*
X100557944Y-123813523D01*
X100476104Y-123686340D01*
X100351230Y-123601017D01*
X100343739Y-123599500D01*
X100446350Y-123599500D01*
X100554300Y-123491550D01*
X100554300Y-123451109D01*
X100502873Y-123326955D01*
X100510964Y-123287000D01*
X100510964Y-123037000D01*
X100486580Y-122907412D01*
X100510964Y-122787000D01*
X100510964Y-122537000D01*
X100486580Y-122407412D01*
X100510964Y-122287000D01*
X100510964Y-122037000D01*
X100486580Y-121907412D01*
X100510964Y-121787000D01*
X100510964Y-121537000D01*
X100486580Y-121407412D01*
X100510964Y-121287000D01*
X100510964Y-121037000D01*
X100486580Y-120907412D01*
X100510964Y-120787000D01*
X100510964Y-120537000D01*
X100486580Y-120407412D01*
X100510964Y-120287000D01*
X100510964Y-120037000D01*
X100486580Y-119907412D01*
X100510964Y-119787000D01*
X100510964Y-119537000D01*
X100486580Y-119407412D01*
X100510964Y-119287000D01*
X100510964Y-119037000D01*
X100486580Y-118907412D01*
X100510964Y-118787000D01*
X100510964Y-118537000D01*
X100484397Y-118395810D01*
X100400954Y-118266135D01*
X100273634Y-118179141D01*
X100122500Y-118148536D01*
X98822500Y-118148536D01*
X98681310Y-118175103D01*
X98551635Y-118258546D01*
X98464641Y-118385866D01*
X98434036Y-118537000D01*
X98434036Y-118787000D01*
X98458420Y-118916588D01*
X98434036Y-119037000D01*
X98434036Y-119287000D01*
X98458420Y-119416588D01*
X98434036Y-119537000D01*
X98434036Y-119787000D01*
X98458420Y-119916588D01*
X98434036Y-120037000D01*
X98434036Y-120287000D01*
X98458420Y-120416588D01*
X98436681Y-120523936D01*
X98320644Y-120446402D01*
X98288325Y-120439973D01*
X98264397Y-120312810D01*
X98180954Y-120183135D01*
X98053634Y-120096141D01*
X97902500Y-120065536D01*
X96702500Y-120065536D01*
X96561310Y-120092103D01*
X96431635Y-120175546D01*
X96344641Y-120302866D01*
X96314036Y-120454000D01*
X96314036Y-121354000D01*
X96340603Y-121495190D01*
X96424046Y-121624865D01*
X96511017Y-121684290D01*
X96474810Y-121691103D01*
X96345135Y-121774546D01*
X96297136Y-121844796D01*
X96282062Y-121808405D01*
X96160595Y-121686937D01*
X96033050Y-121634107D01*
X96068562Y-121598595D01*
X96134300Y-121439891D01*
X96134300Y-121138950D01*
X96026350Y-121031000D01*
X95229500Y-121031000D01*
X95229500Y-121051000D01*
X94975500Y-121051000D01*
X94975500Y-121031000D01*
X94178650Y-121031000D01*
X94070700Y-121138950D01*
X94070700Y-121439891D01*
X94136438Y-121598595D01*
X94257905Y-121720063D01*
X94385450Y-121772893D01*
X94349938Y-121808405D01*
X94284200Y-121967109D01*
X94284200Y-122193050D01*
X94392150Y-122301000D01*
X95189000Y-122301000D01*
X95189000Y-122281000D01*
X95443000Y-122281000D01*
X95443000Y-122301000D01*
X95463000Y-122301000D01*
X95463000Y-122555000D01*
X95443000Y-122555000D01*
X95443000Y-123126850D01*
X95550950Y-123234800D01*
X96001890Y-123234800D01*
X96160595Y-123169063D01*
X96266000Y-123063657D01*
X96266000Y-123443907D01*
X96265868Y-123594906D01*
X96266000Y-123595225D01*
X96266000Y-124333000D01*
X96292056Y-124471477D01*
X96326828Y-124525514D01*
X96249938Y-124602405D01*
X96234829Y-124638880D01*
X96194454Y-124576135D01*
X96067134Y-124489141D01*
X95916000Y-124458536D01*
X95389759Y-124458536D01*
X94701112Y-123769888D01*
X94684137Y-123758546D01*
X94515704Y-123646003D01*
X94479418Y-123638785D01*
X94297000Y-123602499D01*
X94296995Y-123602500D01*
X91662464Y-123602500D01*
X91662464Y-123174000D01*
X91635897Y-123032810D01*
X91552454Y-122903135D01*
X91425134Y-122816141D01*
X91274000Y-122785536D01*
X89574000Y-122785536D01*
X89432810Y-122812103D01*
X89303135Y-122895546D01*
X89216141Y-123022866D01*
X89185536Y-123174000D01*
X89185536Y-124141061D01*
X89013507Y-124256007D01*
X87108507Y-126161007D01*
X86989175Y-126339600D01*
X86852800Y-126339600D01*
X86852800Y-125964950D01*
X86744850Y-125857000D01*
X85598000Y-125857000D01*
X85598000Y-125877000D01*
X85344000Y-125877000D01*
X85344000Y-125857000D01*
X85324000Y-125857000D01*
X85324000Y-125603000D01*
X85344000Y-125603000D01*
X85344000Y-124832650D01*
X85598000Y-124832650D01*
X85598000Y-125603000D01*
X86744850Y-125603000D01*
X86852800Y-125495050D01*
X86852800Y-125070609D01*
X86787062Y-124911905D01*
X86665595Y-124790437D01*
X86506890Y-124724700D01*
X85705950Y-124724700D01*
X85598000Y-124832650D01*
X85344000Y-124832650D01*
X85236050Y-124724700D01*
X84693800Y-124724700D01*
X84693800Y-123821609D01*
X84628062Y-123662905D01*
X84506595Y-123541437D01*
X84347890Y-123475700D01*
X83546950Y-123475700D01*
X83439000Y-123583650D01*
X83439000Y-124968000D01*
X83459000Y-124968000D01*
X83459000Y-125222000D01*
X83439000Y-125222000D01*
X83439000Y-127127000D01*
X83459000Y-127127000D01*
X83459000Y-127381000D01*
X83439000Y-127381000D01*
X83439000Y-128905000D01*
X83459000Y-128905000D01*
X83459000Y-129159000D01*
X83439000Y-129159000D01*
X83439000Y-131064000D01*
X83459000Y-131064000D01*
X83459000Y-131318000D01*
X83439000Y-131318000D01*
X83439000Y-131338000D01*
X83185000Y-131338000D01*
X83185000Y-131318000D01*
X82038150Y-131318000D01*
X81930200Y-131425950D01*
X81930200Y-132464391D01*
X81995938Y-132623095D01*
X82117405Y-132744563D01*
X82276110Y-132810300D01*
X83065200Y-132810300D01*
X83065200Y-133094550D01*
X83173150Y-133202500D01*
X83820000Y-133202500D01*
X83820000Y-133182500D01*
X84074000Y-133182500D01*
X84074000Y-133202500D01*
X84094000Y-133202500D01*
X84094000Y-133456500D01*
X84074000Y-133456500D01*
X84074000Y-134253350D01*
X84181950Y-134361300D01*
X84482891Y-134361300D01*
X84641595Y-134295562D01*
X84736536Y-134200622D01*
X84736536Y-134753560D01*
X84675454Y-134658635D01*
X84548134Y-134571641D01*
X84397000Y-134541036D01*
X83497000Y-134541036D01*
X83355810Y-134567603D01*
X83226135Y-134651046D01*
X83139141Y-134778366D01*
X83108536Y-134929500D01*
X83108536Y-136129500D01*
X83135103Y-136270690D01*
X83218546Y-136400365D01*
X83345866Y-136487359D01*
X83497000Y-136517964D01*
X84397000Y-136517964D01*
X84538190Y-136491397D01*
X84667865Y-136407954D01*
X84754859Y-136280634D01*
X84785464Y-136129500D01*
X84785464Y-136062900D01*
X84942500Y-136062900D01*
X85146623Y-136022297D01*
X85319671Y-135906671D01*
X85798878Y-135427464D01*
X87305000Y-135427464D01*
X87446190Y-135400897D01*
X87575865Y-135317454D01*
X87662859Y-135190134D01*
X87693464Y-135039000D01*
X87693464Y-133439000D01*
X87666897Y-133297810D01*
X87583454Y-133168135D01*
X87456134Y-133081141D01*
X87305000Y-133050536D01*
X85125000Y-133050536D01*
X84983810Y-133077103D01*
X84854135Y-133160546D01*
X84825470Y-133202498D01*
X84720852Y-133202498D01*
X84828800Y-133094550D01*
X84828800Y-132643610D01*
X84763063Y-132484905D01*
X84693800Y-132415643D01*
X84693800Y-131561300D01*
X85236050Y-131561300D01*
X85344000Y-131453350D01*
X85344000Y-130683000D01*
X85598000Y-130683000D01*
X85598000Y-131453350D01*
X85705950Y-131561300D01*
X86506890Y-131561300D01*
X86665595Y-131495563D01*
X86787062Y-131374095D01*
X86852800Y-131215391D01*
X86852800Y-130790950D01*
X86744850Y-130683000D01*
X85598000Y-130683000D01*
X85344000Y-130683000D01*
X85324000Y-130683000D01*
X85324000Y-130429000D01*
X85344000Y-130429000D01*
X85344000Y-130409000D01*
X85598000Y-130409000D01*
X85598000Y-130429000D01*
X86744850Y-130429000D01*
X86852800Y-130321050D01*
X86852800Y-129896609D01*
X86806883Y-129785757D01*
X86846800Y-129689391D01*
X86846800Y-129616200D01*
X86738850Y-129508250D01*
X85852000Y-129508250D01*
X85852000Y-129550700D01*
X85705950Y-129550700D01*
X85696650Y-129560000D01*
X85598002Y-129560000D01*
X85598002Y-129550700D01*
X85598000Y-129550700D01*
X85598000Y-129508250D01*
X85578000Y-129508250D01*
X85578000Y-129356964D01*
X86415000Y-129356964D01*
X86556190Y-129330397D01*
X86575844Y-129317750D01*
X86738850Y-129317750D01*
X86846800Y-129209800D01*
X86846800Y-129136609D01*
X86794829Y-129011141D01*
X86803464Y-128968500D01*
X86803464Y-128625600D01*
X89097536Y-128625600D01*
X89097536Y-129228000D01*
X89124103Y-129369190D01*
X89207546Y-129498865D01*
X89334866Y-129585859D01*
X89419632Y-129603024D01*
X89344810Y-129617103D01*
X89215135Y-129700546D01*
X89128141Y-129827866D01*
X89097536Y-129979000D01*
X89097536Y-130879000D01*
X89124103Y-131020190D01*
X89207546Y-131149865D01*
X89334866Y-131236859D01*
X89486000Y-131267464D01*
X90686000Y-131267464D01*
X90827190Y-131240897D01*
X90956865Y-131157454D01*
X91043859Y-131030134D01*
X91074464Y-130879000D01*
X91074464Y-129979000D01*
X91047897Y-129837810D01*
X90964454Y-129708135D01*
X90837134Y-129621141D01*
X90752368Y-129603976D01*
X90827190Y-129589897D01*
X90956865Y-129506454D01*
X91043859Y-129379134D01*
X91074464Y-129228000D01*
X91074464Y-128328000D01*
X91047897Y-128186810D01*
X90964454Y-128057135D01*
X90868500Y-127991572D01*
X90868500Y-127531315D01*
X90956865Y-127474454D01*
X91043859Y-127347134D01*
X91074464Y-127196000D01*
X91074464Y-126296000D01*
X91047897Y-126154810D01*
X90964454Y-126025135D01*
X90837134Y-125938141D01*
X90686000Y-125907536D01*
X89486000Y-125907536D01*
X89344810Y-125934103D01*
X89215135Y-126017546D01*
X89128141Y-126144866D01*
X89097536Y-126296000D01*
X89097536Y-127025400D01*
X88076086Y-127025400D01*
X89544912Y-125556574D01*
X89574000Y-125562464D01*
X91274000Y-125562464D01*
X91415190Y-125535897D01*
X91544865Y-125452454D01*
X91631859Y-125325134D01*
X91662464Y-125174000D01*
X91662464Y-124745500D01*
X94060276Y-124745500D01*
X94327536Y-125012760D01*
X94327536Y-125597000D01*
X94354103Y-125738190D01*
X94437546Y-125867865D01*
X94564866Y-125954859D01*
X94716000Y-125985464D01*
X95049300Y-125985464D01*
X95049300Y-126098536D01*
X93548000Y-126098536D01*
X93406810Y-126125103D01*
X93277135Y-126208546D01*
X93262138Y-126230495D01*
X93247897Y-126154810D01*
X93164454Y-126025135D01*
X93037134Y-125938141D01*
X92886000Y-125907536D01*
X91686000Y-125907536D01*
X91544810Y-125934103D01*
X91415135Y-126017546D01*
X91328141Y-126144866D01*
X91297536Y-126296000D01*
X91297536Y-127196000D01*
X91324103Y-127337190D01*
X91407546Y-127466865D01*
X91534866Y-127553859D01*
X91686000Y-127584464D01*
X92886000Y-127584464D01*
X93027190Y-127557897D01*
X93116200Y-127500621D01*
X93116200Y-127527050D01*
X93224150Y-127635000D01*
X94201000Y-127635000D01*
X94201000Y-127615000D01*
X94455000Y-127615000D01*
X94455000Y-127635000D01*
X94475000Y-127635000D01*
X94475000Y-127889000D01*
X94455000Y-127889000D01*
X94455000Y-127909000D01*
X94201000Y-127909000D01*
X94201000Y-127889000D01*
X93224150Y-127889000D01*
X93116200Y-127996950D01*
X93116200Y-128024164D01*
X93037134Y-127970141D01*
X92886000Y-127939536D01*
X91686000Y-127939536D01*
X91544810Y-127966103D01*
X91415135Y-128049546D01*
X91328141Y-128176866D01*
X91297536Y-128328000D01*
X91297536Y-129228000D01*
X91324103Y-129369190D01*
X91407546Y-129498865D01*
X91534866Y-129585859D01*
X91619632Y-129603024D01*
X91544810Y-129617103D01*
X91415135Y-129700546D01*
X91328141Y-129827866D01*
X91297536Y-129979000D01*
X91297536Y-130879000D01*
X91324103Y-131020190D01*
X91407546Y-131149865D01*
X91503500Y-131215428D01*
X91503500Y-131267159D01*
X91440133Y-131419764D01*
X91439868Y-131722906D01*
X91555632Y-132003074D01*
X91769798Y-132217615D01*
X92049764Y-132333867D01*
X92352906Y-132334132D01*
X92633074Y-132218368D01*
X92847615Y-132004202D01*
X92963867Y-131724236D01*
X92964132Y-131421094D01*
X92900500Y-131267094D01*
X92900500Y-131264736D01*
X93027190Y-131240897D01*
X93156865Y-131157454D01*
X93243859Y-131030134D01*
X93274464Y-130879000D01*
X93274464Y-129979000D01*
X93247897Y-129837810D01*
X93164454Y-129708135D01*
X93037134Y-129621141D01*
X92952368Y-129603976D01*
X93027190Y-129589897D01*
X93156865Y-129506454D01*
X93243859Y-129379134D01*
X93260985Y-129294561D01*
X93269546Y-129307865D01*
X93396866Y-129394859D01*
X93548000Y-129425464D01*
X95108000Y-129425464D01*
X95249190Y-129398897D01*
X95378865Y-129315454D01*
X95465859Y-129188134D01*
X95496464Y-129037000D01*
X95496464Y-128387000D01*
X95482298Y-128311713D01*
X95539800Y-128172891D01*
X95539800Y-127996950D01*
X95431852Y-127889002D01*
X95539800Y-127889002D01*
X95539800Y-127772182D01*
X95860676Y-128093057D01*
X95886103Y-128228190D01*
X95890605Y-128235187D01*
X95890141Y-128235866D01*
X95859536Y-128387000D01*
X95859536Y-129037000D01*
X95886103Y-129178190D01*
X95969546Y-129307865D01*
X96096866Y-129394859D01*
X96248000Y-129425464D01*
X97808000Y-129425464D01*
X97949190Y-129398897D01*
X98078865Y-129315454D01*
X98152763Y-129207300D01*
X98198000Y-129207300D01*
X98387544Y-129169598D01*
X98548230Y-129062230D01*
X99099160Y-128511300D01*
X103964190Y-128511300D01*
X104153734Y-128473598D01*
X104314420Y-128366230D01*
X105096599Y-127584051D01*
X105096599Y-128225099D01*
X105134301Y-128414643D01*
X105241669Y-128575329D01*
X105444340Y-128778000D01*
X104778980Y-128778000D01*
X104741134Y-128752141D01*
X104590000Y-128721536D01*
X103690000Y-128721536D01*
X103548810Y-128748103D01*
X103502348Y-128778000D01*
X102746980Y-128778000D01*
X102709134Y-128752141D01*
X102558000Y-128721536D01*
X101658000Y-128721536D01*
X101516810Y-128748103D01*
X101387135Y-128831546D01*
X101300141Y-128958866D01*
X101270186Y-129106788D01*
X101186995Y-129123336D01*
X100980987Y-129260987D01*
X100702093Y-129539881D01*
X100687094Y-129539868D01*
X100406926Y-129655632D01*
X100192385Y-129869798D01*
X100118389Y-130048000D01*
X98461000Y-130048000D01*
X98217996Y-130096336D01*
X98011987Y-130233987D01*
X95195438Y-133050536D01*
X94305000Y-133050536D01*
X94163810Y-133077103D01*
X94034135Y-133160546D01*
X93947141Y-133287866D01*
X93916536Y-133439000D01*
X93916536Y-135039000D01*
X93943103Y-135180190D01*
X94026546Y-135309865D01*
X94153866Y-135396859D01*
X94305000Y-135427464D01*
X96485000Y-135427464D01*
X96626190Y-135400897D01*
X96755865Y-135317454D01*
X96842859Y-135190134D01*
X96873464Y-135039000D01*
X96873464Y-134690969D01*
X97312067Y-134690969D01*
X97530812Y-135140734D01*
X97905023Y-135472553D01*
X98227033Y-135605922D01*
X98425000Y-135532960D01*
X98425000Y-134493000D01*
X97384446Y-134493000D01*
X97312067Y-134690969D01*
X96873464Y-134690969D01*
X96873464Y-134041031D01*
X97312067Y-134041031D01*
X97384446Y-134239000D01*
X98425000Y-134239000D01*
X98425000Y-133199040D01*
X98227033Y-133126078D01*
X97905023Y-133259447D01*
X97530812Y-133591266D01*
X97312067Y-134041031D01*
X96873464Y-134041031D01*
X96873464Y-133439000D01*
X96846897Y-133297810D01*
X96806694Y-133235332D01*
X97555626Y-132486400D01*
X98831400Y-132486400D01*
X98831400Y-132613400D01*
X98840085Y-132659559D01*
X98867365Y-132701953D01*
X98908990Y-132730394D01*
X98958400Y-132740400D01*
X98959408Y-132740400D01*
X99006505Y-132731344D01*
X99048681Y-132703729D01*
X99076791Y-132661880D01*
X99086404Y-132612392D01*
X99085396Y-132485392D01*
X99077945Y-132443527D01*
X99051846Y-132400395D01*
X99011023Y-132370816D01*
X98961909Y-132359448D01*
X98912241Y-132368085D01*
X98869847Y-132395365D01*
X98841406Y-132436990D01*
X98831400Y-132486400D01*
X97555626Y-132486400D01*
X98724026Y-131318000D01*
X99441000Y-131318000D01*
X99441000Y-133474053D01*
X99198977Y-133259447D01*
X98876967Y-133126078D01*
X98679000Y-133199040D01*
X98679000Y-134239000D01*
X98699000Y-134239000D01*
X98699000Y-134493000D01*
X98679000Y-134493000D01*
X98679000Y-135532960D01*
X98876967Y-135605922D01*
X99198977Y-135472553D01*
X99441000Y-135257947D01*
X99441000Y-135636000D01*
X99467056Y-135774477D01*
X99548896Y-135901660D01*
X99673770Y-135986983D01*
X99822000Y-136017000D01*
X102362000Y-136017000D01*
X102500477Y-135990944D01*
X102627660Y-135909104D01*
X102712983Y-135784230D01*
X102743000Y-135636000D01*
X102743000Y-135232800D01*
X102761552Y-135260565D01*
X103160917Y-135527413D01*
X103632000Y-135621117D01*
X104103083Y-135527413D01*
X104502448Y-135260565D01*
X104538469Y-135206655D01*
X105271291Y-135215277D01*
X105301552Y-135260565D01*
X105700917Y-135527413D01*
X106172000Y-135621117D01*
X106643083Y-135527413D01*
X107042448Y-135260565D01*
X107058658Y-135236305D01*
X107478286Y-135241241D01*
X107500103Y-135357190D01*
X107583546Y-135486865D01*
X107710866Y-135573859D01*
X107862000Y-135604464D01*
X109562000Y-135604464D01*
X109703190Y-135577897D01*
X109832865Y-135494454D01*
X109919859Y-135367134D01*
X109950464Y-135216000D01*
X109950464Y-133516000D01*
X109923897Y-133374810D01*
X109840454Y-133245135D01*
X109713134Y-133158141D01*
X109562000Y-133127536D01*
X108839000Y-133127536D01*
X108839000Y-132843706D01*
X108924865Y-132788454D01*
X109011859Y-132661134D01*
X109042464Y-132510000D01*
X109042464Y-131310000D01*
X109015897Y-131168810D01*
X108966000Y-131091267D01*
X108966000Y-130528251D01*
X109011859Y-130461134D01*
X109042464Y-130310000D01*
X109042464Y-129110000D01*
X109015897Y-128968810D01*
X108962348Y-128885593D01*
X108957315Y-128858841D01*
X108930035Y-128816447D01*
X108910182Y-128802882D01*
X108920274Y-128752141D01*
X108946201Y-128621799D01*
X108946201Y-128314800D01*
X109173050Y-128314800D01*
X109281000Y-128206850D01*
X109281000Y-127635000D01*
X109535000Y-127635000D01*
X109535000Y-128206850D01*
X109642950Y-128314800D01*
X110093890Y-128314800D01*
X110252595Y-128249063D01*
X110374062Y-128127595D01*
X110439800Y-127968891D01*
X110439800Y-127742950D01*
X110331850Y-127635000D01*
X109535000Y-127635000D01*
X109281000Y-127635000D01*
X109261000Y-127635000D01*
X109261000Y-127381000D01*
X109281000Y-127381000D01*
X109281000Y-126809150D01*
X109535000Y-126809150D01*
X109535000Y-127381000D01*
X110331850Y-127381000D01*
X110439800Y-127273050D01*
X110439800Y-127047109D01*
X110374062Y-126888405D01*
X110252595Y-126766937D01*
X110093890Y-126701200D01*
X109642950Y-126701200D01*
X109535000Y-126809150D01*
X109281000Y-126809150D01*
X109173050Y-126701200D01*
X108946201Y-126701200D01*
X108946201Y-124806701D01*
X108916575Y-124657762D01*
X108963690Y-124648897D01*
X109093365Y-124565454D01*
X109180359Y-124438134D01*
X109210964Y-124287000D01*
X109210964Y-124198378D01*
X109218200Y-124162000D01*
X109210964Y-124125622D01*
X109210964Y-124037000D01*
X109186580Y-123907412D01*
X109210964Y-123787000D01*
X109210964Y-123644600D01*
X111661000Y-123644600D01*
X111845683Y-123607864D01*
X112002250Y-123503250D01*
X113072103Y-122433397D01*
X113126230Y-122397230D01*
X113253230Y-122270230D01*
X113360598Y-122109544D01*
X113398300Y-121920000D01*
X113398300Y-108331000D01*
X113360598Y-108141457D01*
X113360598Y-108141456D01*
X113253230Y-107980770D01*
X109969300Y-104696840D01*
X109969300Y-102362000D01*
X111752039Y-102362000D01*
X111829983Y-102753853D01*
X112051950Y-103086050D01*
X112384147Y-103308017D01*
X112776000Y-103385961D01*
X113167853Y-103308017D01*
X113500050Y-103086050D01*
X113722017Y-102753853D01*
X113799961Y-102362000D01*
X113722017Y-101970147D01*
X113500050Y-101637950D01*
X113167853Y-101415983D01*
X112776000Y-101338039D01*
X112384147Y-101415983D01*
X112051950Y-101637950D01*
X111829983Y-101970147D01*
X111752039Y-102362000D01*
X109969300Y-102362000D01*
X109969300Y-102230464D01*
X110224000Y-102230464D01*
X110365190Y-102203897D01*
X110494865Y-102120454D01*
X110581859Y-101993134D01*
X110612464Y-101842000D01*
X110612464Y-100342000D01*
X110585897Y-100200810D01*
X110502454Y-100071135D01*
X110375134Y-99984141D01*
X110224000Y-99953536D01*
X108724000Y-99953536D01*
X108582810Y-99980103D01*
X108453135Y-100063546D01*
X108442477Y-100079144D01*
X108424454Y-100051135D01*
X108297134Y-99964141D01*
X108146000Y-99933536D01*
X107246000Y-99933536D01*
X107104810Y-99960103D01*
X106975135Y-100043546D01*
X106888141Y-100170866D01*
X106857536Y-100322000D01*
X106857536Y-101522000D01*
X106884103Y-101663190D01*
X106967546Y-101792865D01*
X107094866Y-101879859D01*
X107246000Y-101910464D01*
X108146000Y-101910464D01*
X108287190Y-101883897D01*
X108337347Y-101851622D01*
X108362103Y-101983190D01*
X108445546Y-102112865D01*
X108572866Y-102199859D01*
X108724000Y-102230464D01*
X108978700Y-102230464D01*
X108978700Y-104902000D01*
X109016402Y-105091544D01*
X109123770Y-105252230D01*
X112407700Y-108536160D01*
X112407700Y-121723813D01*
X112389603Y-121750897D01*
X111461100Y-122679400D01*
X111193060Y-122679400D01*
X111780041Y-122092419D01*
X111887409Y-121931733D01*
X111925111Y-121742189D01*
X111925111Y-109143811D01*
X111899768Y-109016402D01*
X111887409Y-108954267D01*
X111780041Y-108793581D01*
X103111300Y-100124840D01*
X103111300Y-98122000D01*
X106857536Y-98122000D01*
X106857536Y-99322000D01*
X106884103Y-99463190D01*
X106967546Y-99592865D01*
X107094866Y-99679859D01*
X107246000Y-99710464D01*
X108146000Y-99710464D01*
X108287190Y-99683897D01*
X108416865Y-99600454D01*
X108503859Y-99473134D01*
X108525331Y-99367099D01*
X108607546Y-99494865D01*
X108734866Y-99581859D01*
X108886000Y-99612464D01*
X109686000Y-99612464D01*
X109827190Y-99585897D01*
X109956865Y-99502454D01*
X110043859Y-99375134D01*
X110074464Y-99224000D01*
X110074464Y-99008950D01*
X110354200Y-99008950D01*
X110354200Y-99309890D01*
X110419937Y-99468595D01*
X110541405Y-99590062D01*
X110700109Y-99655800D01*
X110951050Y-99655800D01*
X111059000Y-99547850D01*
X111059000Y-98901000D01*
X111313000Y-98901000D01*
X111313000Y-99547850D01*
X111420950Y-99655800D01*
X111671891Y-99655800D01*
X111830595Y-99590062D01*
X111952063Y-99468595D01*
X112017800Y-99309890D01*
X112017800Y-99008950D01*
X111909850Y-98901000D01*
X111313000Y-98901000D01*
X111059000Y-98901000D01*
X110462150Y-98901000D01*
X110354200Y-99008950D01*
X110074464Y-99008950D01*
X110074464Y-98324000D01*
X110058303Y-98238110D01*
X110354200Y-98238110D01*
X110354200Y-98539050D01*
X110462150Y-98647000D01*
X111059000Y-98647000D01*
X111059000Y-98000150D01*
X111313000Y-98000150D01*
X111313000Y-98647000D01*
X111909850Y-98647000D01*
X112017800Y-98539050D01*
X112017800Y-98238110D01*
X111952063Y-98079405D01*
X111830595Y-97957938D01*
X111671891Y-97892200D01*
X111420950Y-97892200D01*
X111313000Y-98000150D01*
X111059000Y-98000150D01*
X110951050Y-97892200D01*
X110700109Y-97892200D01*
X110541405Y-97957938D01*
X110419937Y-98079405D01*
X110354200Y-98238110D01*
X110058303Y-98238110D01*
X110047897Y-98182810D01*
X109964454Y-98053135D01*
X109837134Y-97966141D01*
X109686000Y-97935536D01*
X108886000Y-97935536D01*
X108744810Y-97962103D01*
X108615135Y-98045546D01*
X108534464Y-98163612D01*
X108534464Y-98122000D01*
X108507897Y-97980810D01*
X108424454Y-97851135D01*
X108297134Y-97764141D01*
X108146000Y-97733536D01*
X107246000Y-97733536D01*
X107104810Y-97760103D01*
X106975135Y-97843546D01*
X106888141Y-97970866D01*
X106857536Y-98122000D01*
X103111300Y-98122000D01*
X103111300Y-95537524D01*
X103481888Y-95908112D01*
X103579127Y-95973085D01*
X103602103Y-96095190D01*
X103685546Y-96224865D01*
X103812866Y-96311859D01*
X103964000Y-96342464D01*
X104803186Y-96342464D01*
X104810965Y-96354553D01*
X104852590Y-96382994D01*
X104902000Y-96393000D01*
X105764393Y-96393000D01*
X105771896Y-96404660D01*
X105896770Y-96489983D01*
X106045000Y-96520000D01*
X108331000Y-96520000D01*
X108469477Y-96493944D01*
X108596660Y-96412104D01*
X108681983Y-96287230D01*
X108712000Y-96139000D01*
X108712000Y-95504000D01*
X108712132Y-95353094D01*
X108712000Y-95352775D01*
X108712000Y-94361093D01*
X108712132Y-94210094D01*
X108712000Y-94209775D01*
X108712000Y-93472000D01*
X109982000Y-93472000D01*
X110120477Y-93445944D01*
X110247660Y-93364104D01*
X110332983Y-93239230D01*
X110363000Y-93091000D01*
X110363000Y-92921190D01*
X110561690Y-93053951D01*
X111125000Y-93166000D01*
X111688310Y-93053951D01*
X112165861Y-92734861D01*
X112233214Y-92634061D01*
X112331500Y-92653964D01*
X112458500Y-92653964D01*
X112458500Y-93903536D01*
X112006000Y-93903536D01*
X111864810Y-93930103D01*
X111787267Y-93980000D01*
X111224251Y-93980000D01*
X111157134Y-93934141D01*
X111006000Y-93903536D01*
X109806000Y-93903536D01*
X109664810Y-93930103D01*
X109535135Y-94013546D01*
X109448141Y-94140866D01*
X109417536Y-94292000D01*
X109417536Y-95192000D01*
X109444103Y-95333190D01*
X109527546Y-95462865D01*
X109654866Y-95549859D01*
X109806000Y-95580464D01*
X109834500Y-95580464D01*
X109834500Y-95935818D01*
X109694810Y-95962103D01*
X109565135Y-96045546D01*
X109478141Y-96172866D01*
X109447536Y-96324000D01*
X109447536Y-97224000D01*
X109474103Y-97365190D01*
X109557546Y-97494865D01*
X109684866Y-97581859D01*
X109836000Y-97612464D01*
X110636000Y-97612464D01*
X110777190Y-97585897D01*
X110906865Y-97502454D01*
X110993859Y-97375134D01*
X111024464Y-97224000D01*
X111024464Y-96324000D01*
X110997897Y-96182810D01*
X110977500Y-96151112D01*
X110977500Y-95580464D01*
X111006000Y-95580464D01*
X111147190Y-95553897D01*
X111224733Y-95504000D01*
X111787749Y-95504000D01*
X111854866Y-95549859D01*
X112006000Y-95580464D01*
X113206000Y-95580464D01*
X113347190Y-95553897D01*
X113476865Y-95470454D01*
X113563859Y-95343134D01*
X113594464Y-95192000D01*
X113594464Y-94607377D01*
X113601501Y-94572000D01*
X113601500Y-94571995D01*
X113601500Y-92653964D01*
X113728500Y-92653964D01*
X113869690Y-92627397D01*
X113999365Y-92543954D01*
X114086359Y-92416634D01*
X114116964Y-92265500D01*
X114116964Y-90868500D01*
X114090397Y-90727310D01*
X114006954Y-90597635D01*
X113879634Y-90510641D01*
X113728500Y-90480036D01*
X112331500Y-90480036D01*
X112190310Y-90506603D01*
X112066137Y-90586506D01*
X111688310Y-90334049D01*
X111125000Y-90222000D01*
X110561690Y-90334049D01*
X110348928Y-90476212D01*
X110336944Y-90412523D01*
X110255104Y-90285340D01*
X110130230Y-90200017D01*
X109982000Y-90170000D01*
X107188000Y-90170000D01*
X107049523Y-90196056D01*
X106922340Y-90277896D01*
X106837017Y-90402770D01*
X106807000Y-90551000D01*
X106807000Y-92964000D01*
X106045000Y-92964000D01*
X105906523Y-92990056D01*
X105779340Y-93071896D01*
X105694017Y-93196770D01*
X105664111Y-93344454D01*
X105558595Y-93238937D01*
X105399890Y-93173200D01*
X104948950Y-93173200D01*
X104841000Y-93281150D01*
X104841000Y-93853000D01*
X104861000Y-93853000D01*
X104861000Y-94107000D01*
X104841000Y-94107000D01*
X104841000Y-94127000D01*
X104587000Y-94127000D01*
X104587000Y-94107000D01*
X103790150Y-94107000D01*
X103682200Y-94214950D01*
X103682200Y-94440891D01*
X103718323Y-94528099D01*
X103274112Y-94083888D01*
X103088704Y-93960003D01*
X103052418Y-93952785D01*
X102870000Y-93916499D01*
X102869995Y-93916500D01*
X101214464Y-93916500D01*
X101214464Y-93738000D01*
X101187897Y-93596810D01*
X101137899Y-93519109D01*
X103682200Y-93519109D01*
X103682200Y-93745050D01*
X103790150Y-93853000D01*
X104587000Y-93853000D01*
X104587000Y-93281150D01*
X104479050Y-93173200D01*
X104028110Y-93173200D01*
X103869405Y-93238937D01*
X103747938Y-93360405D01*
X103682200Y-93519109D01*
X101137899Y-93519109D01*
X101104454Y-93467135D01*
X100977134Y-93380141D01*
X100826000Y-93349536D01*
X100711000Y-93349536D01*
X100711000Y-92780964D01*
X100965000Y-92780964D01*
X101088855Y-92757659D01*
X101223632Y-92959368D01*
X101804188Y-93347282D01*
X102489000Y-93483500D01*
X103173812Y-93347282D01*
X103754368Y-92959368D01*
X103862499Y-92797538D01*
X103927110Y-92824300D01*
X104540050Y-92824300D01*
X104648000Y-92716350D01*
X104648000Y-91757500D01*
X104902000Y-91757500D01*
X104902000Y-92716350D01*
X105009950Y-92824300D01*
X105622890Y-92824300D01*
X105781595Y-92758563D01*
X105903062Y-92637095D01*
X105968800Y-92478391D01*
X105968800Y-91865450D01*
X105860850Y-91757500D01*
X104902000Y-91757500D01*
X104648000Y-91757500D01*
X104628000Y-91757500D01*
X104628000Y-91503500D01*
X104648000Y-91503500D01*
X104648000Y-90544650D01*
X104902000Y-90544650D01*
X104902000Y-91503500D01*
X105860850Y-91503500D01*
X105968800Y-91395550D01*
X105968800Y-90782609D01*
X105903062Y-90623905D01*
X105781595Y-90502437D01*
X105622890Y-90436700D01*
X105009950Y-90436700D01*
X104902000Y-90544650D01*
X104648000Y-90544650D01*
X104540050Y-90436700D01*
X103927110Y-90436700D01*
X103796036Y-90490992D01*
X103754368Y-90428632D01*
X103289473Y-90118000D01*
X114352000Y-90118000D01*
X114352000Y-138684000D01*
X81915000Y-138684000D01*
X81915000Y-136652000D01*
X111752039Y-136652000D01*
X111829983Y-137043853D01*
X112051950Y-137376050D01*
X112384147Y-137598017D01*
X112776000Y-137675961D01*
X113167853Y-137598017D01*
X113500050Y-137376050D01*
X113722017Y-137043853D01*
X113799961Y-136652000D01*
X113722017Y-136260147D01*
X113500050Y-135927950D01*
X113167853Y-135705983D01*
X112776000Y-135628039D01*
X112384147Y-135705983D01*
X112051950Y-135927950D01*
X111829983Y-136260147D01*
X111752039Y-136652000D01*
X81915000Y-136652000D01*
X81915000Y-133564450D01*
X83065200Y-133564450D01*
X83065200Y-134015390D01*
X83130937Y-134174095D01*
X83252405Y-134295562D01*
X83411109Y-134361300D01*
X83712050Y-134361300D01*
X83820000Y-134253350D01*
X83820000Y-133456500D01*
X83173150Y-133456500D01*
X83065200Y-133564450D01*
X81915000Y-133564450D01*
X81915000Y-129266950D01*
X81930200Y-129266950D01*
X81930200Y-129705391D01*
X81974152Y-129811500D01*
X81930200Y-129917609D01*
X81930200Y-130956050D01*
X82038150Y-131064000D01*
X83185000Y-131064000D01*
X83185000Y-129159000D01*
X82038150Y-129159000D01*
X81930200Y-129266950D01*
X81915000Y-129266950D01*
X81915000Y-127488950D01*
X81930200Y-127488950D01*
X81930200Y-127927391D01*
X81995938Y-128086095D01*
X82052843Y-128143000D01*
X81995938Y-128199905D01*
X81930200Y-128358609D01*
X81930200Y-128797050D01*
X82038150Y-128905000D01*
X83185000Y-128905000D01*
X83185000Y-127381000D01*
X82038150Y-127381000D01*
X81930200Y-127488950D01*
X81915000Y-127488950D01*
X81915000Y-125329950D01*
X81930200Y-125329950D01*
X81930200Y-126368391D01*
X81974152Y-126474500D01*
X81930200Y-126580609D01*
X81930200Y-127019050D01*
X82038150Y-127127000D01*
X83185000Y-127127000D01*
X83185000Y-125222000D01*
X82038150Y-125222000D01*
X81930200Y-125329950D01*
X81915000Y-125329950D01*
X81915000Y-123821609D01*
X81930200Y-123821609D01*
X81930200Y-124860050D01*
X82038150Y-124968000D01*
X83185000Y-124968000D01*
X83185000Y-123583650D01*
X83077050Y-123475700D01*
X82276110Y-123475700D01*
X82117405Y-123541437D01*
X81995938Y-123662905D01*
X81930200Y-123821609D01*
X81915000Y-123821609D01*
X81915000Y-122662950D01*
X94284200Y-122662950D01*
X94284200Y-122888891D01*
X94349938Y-123047595D01*
X94471405Y-123169063D01*
X94630110Y-123234800D01*
X95081050Y-123234800D01*
X95189000Y-123126850D01*
X95189000Y-122555000D01*
X94392150Y-122555000D01*
X94284200Y-122662950D01*
X81915000Y-122662950D01*
X81915000Y-121646950D01*
X83928200Y-121646950D01*
X83928200Y-122122891D01*
X83993938Y-122281595D01*
X84115405Y-122403063D01*
X84274110Y-122468800D01*
X84875050Y-122468800D01*
X84983000Y-122360850D01*
X84983000Y-121539000D01*
X85237000Y-121539000D01*
X85237000Y-122360850D01*
X85344950Y-122468800D01*
X85945890Y-122468800D01*
X86104595Y-122403063D01*
X86226062Y-122281595D01*
X86291800Y-122122891D01*
X86291800Y-121646950D01*
X86183850Y-121539000D01*
X85237000Y-121539000D01*
X84983000Y-121539000D01*
X84036150Y-121539000D01*
X83928200Y-121646950D01*
X81915000Y-121646950D01*
X81915000Y-120701109D01*
X83928200Y-120701109D01*
X83928200Y-121177050D01*
X84036150Y-121285000D01*
X84983000Y-121285000D01*
X84983000Y-121265000D01*
X85237000Y-121265000D01*
X85237000Y-121285000D01*
X86183850Y-121285000D01*
X86291800Y-121177050D01*
X86291800Y-120701109D01*
X86226062Y-120542405D01*
X86124458Y-120440800D01*
X86349890Y-120440800D01*
X86360000Y-120436612D01*
X86360000Y-122047000D01*
X86386056Y-122185477D01*
X86467896Y-122312660D01*
X86592770Y-122397983D01*
X86741000Y-122428000D01*
X91313000Y-122428000D01*
X91451477Y-122401944D01*
X91578660Y-122320104D01*
X91663983Y-122195230D01*
X91694000Y-122047000D01*
X91694000Y-120368109D01*
X94070700Y-120368109D01*
X94070700Y-120669050D01*
X94178650Y-120777000D01*
X94975500Y-120777000D01*
X94975500Y-120130150D01*
X95229500Y-120130150D01*
X95229500Y-120777000D01*
X96026350Y-120777000D01*
X96134300Y-120669050D01*
X96134300Y-120368109D01*
X96068562Y-120209405D01*
X95947095Y-120087937D01*
X95788390Y-120022200D01*
X95337450Y-120022200D01*
X95229500Y-120130150D01*
X94975500Y-120130150D01*
X94867550Y-120022200D01*
X94416610Y-120022200D01*
X94257905Y-120087937D01*
X94136438Y-120209405D01*
X94070700Y-120368109D01*
X91694000Y-120368109D01*
X91694000Y-118618000D01*
X91667944Y-118479523D01*
X91586104Y-118352340D01*
X91461230Y-118267017D01*
X91313000Y-118237000D01*
X90297000Y-118237000D01*
X90297000Y-117094000D01*
X90270944Y-116955523D01*
X90189104Y-116828340D01*
X90064230Y-116743017D01*
X89916000Y-116713000D01*
X88646000Y-116713000D01*
X88560631Y-116729063D01*
X88548891Y-116724200D01*
X88372950Y-116724200D01*
X88265000Y-116832150D01*
X88265000Y-117833000D01*
X88011000Y-117833000D01*
X88011000Y-116832150D01*
X87903050Y-116724200D01*
X87727109Y-116724200D01*
X87713383Y-116729885D01*
X87630000Y-116713000D01*
X86741000Y-116713000D01*
X86602523Y-116739056D01*
X86475340Y-116820896D01*
X86390017Y-116945770D01*
X86360000Y-117094000D01*
X86360000Y-118831388D01*
X86349890Y-118827200D01*
X85898950Y-118827200D01*
X85791000Y-118935150D01*
X85791000Y-119507000D01*
X85811000Y-119507000D01*
X85811000Y-119761000D01*
X85791000Y-119761000D01*
X85791000Y-119781000D01*
X85537000Y-119781000D01*
X85537000Y-119761000D01*
X84740150Y-119761000D01*
X84632200Y-119868950D01*
X84632200Y-120094891D01*
X84697938Y-120253595D01*
X84799542Y-120355200D01*
X84274110Y-120355200D01*
X84115405Y-120420937D01*
X83993938Y-120542405D01*
X83928200Y-120701109D01*
X81915000Y-120701109D01*
X81915000Y-119173109D01*
X84632200Y-119173109D01*
X84632200Y-119399050D01*
X84740150Y-119507000D01*
X85537000Y-119507000D01*
X85537000Y-118935150D01*
X85429050Y-118827200D01*
X84978110Y-118827200D01*
X84819405Y-118892937D01*
X84697938Y-119014405D01*
X84632200Y-119173109D01*
X81915000Y-119173109D01*
X81915000Y-117770950D01*
X82886200Y-117770950D01*
X82886200Y-118221890D01*
X82951937Y-118380595D01*
X83073405Y-118502062D01*
X83232109Y-118567800D01*
X83458050Y-118567800D01*
X83566000Y-118459850D01*
X83566000Y-117663000D01*
X83820000Y-117663000D01*
X83820000Y-118459850D01*
X83927950Y-118567800D01*
X84153891Y-118567800D01*
X84312595Y-118502062D01*
X84434063Y-118380595D01*
X84455000Y-118330048D01*
X84475937Y-118380595D01*
X84597405Y-118502062D01*
X84756109Y-118567800D01*
X84982050Y-118567800D01*
X85090000Y-118459850D01*
X85090000Y-117663000D01*
X85344000Y-117663000D01*
X85344000Y-118459850D01*
X85451950Y-118567800D01*
X85677891Y-118567800D01*
X85836595Y-118502062D01*
X85958063Y-118380595D01*
X86023800Y-118221890D01*
X86023800Y-117770950D01*
X85915850Y-117663000D01*
X85344000Y-117663000D01*
X85090000Y-117663000D01*
X84518150Y-117663000D01*
X84455000Y-117726150D01*
X84391850Y-117663000D01*
X83820000Y-117663000D01*
X83566000Y-117663000D01*
X82994150Y-117663000D01*
X82886200Y-117770950D01*
X81915000Y-117770950D01*
X81915000Y-102362000D01*
X82161039Y-102362000D01*
X82238983Y-102753853D01*
X82460950Y-103086050D01*
X82793147Y-103308017D01*
X83185000Y-103385961D01*
X83576853Y-103308017D01*
X83909050Y-103086050D01*
X84131017Y-102753853D01*
X84208961Y-102362000D01*
X84131017Y-101970147D01*
X83909050Y-101637950D01*
X83576853Y-101415983D01*
X83185000Y-101338039D01*
X82793147Y-101415983D01*
X82460950Y-101637950D01*
X82238983Y-101970147D01*
X82161039Y-102362000D01*
X81915000Y-102362000D01*
X81915000Y-90118000D01*
X101688527Y-90118000D01*
X101223632Y-90428632D01*
G36*
X85737000Y-113124250D02*
X85895750Y-113283000D01*
X86995000Y-113283000D01*
X86995000Y-113263000D01*
X87249000Y-113263000D01*
X87249000Y-113283000D01*
X87269000Y-113283000D01*
X87269000Y-113537000D01*
X87249000Y-113537000D01*
X87249000Y-114636250D01*
X87315000Y-114702250D01*
X87315000Y-115359000D01*
X87335000Y-115359000D01*
X87335000Y-115613000D01*
X87315000Y-115613000D01*
X87315000Y-115633000D01*
X87061000Y-115633000D01*
X87061000Y-115613000D01*
X86386750Y-115613000D01*
X86228000Y-115771750D01*
X86228000Y-115824000D01*
X86129250Y-115824000D01*
X86068250Y-115763000D01*
X85344000Y-115763000D01*
X85344000Y-115783000D01*
X85090000Y-115783000D01*
X85090000Y-115763000D01*
X83820000Y-115763000D01*
X83820000Y-115783000D01*
X83566000Y-115783000D01*
X83566000Y-115763000D01*
X83546000Y-115763000D01*
X83546000Y-115509000D01*
X83566000Y-115509000D01*
X83566000Y-114559750D01*
X83820000Y-114559750D01*
X83820000Y-115509000D01*
X85090000Y-115509000D01*
X85090000Y-114559750D01*
X85344000Y-114559750D01*
X85344000Y-115509000D01*
X86068250Y-115509000D01*
X86227000Y-115350250D01*
X86227000Y-114909691D01*
X86165784Y-114761902D01*
X86242856Y-114793826D01*
X86228000Y-114829691D01*
X86228000Y-115200250D01*
X86386750Y-115359000D01*
X87061000Y-115359000D01*
X87061000Y-114479750D01*
X86995000Y-114413750D01*
X86995000Y-113537000D01*
X85895750Y-113537000D01*
X85737000Y-113695750D01*
X85737000Y-114286309D01*
X85798216Y-114434098D01*
X85718310Y-114401000D01*
X85502750Y-114401000D01*
X85344000Y-114559750D01*
X85090000Y-114559750D01*
X84931250Y-114401000D01*
X84715690Y-114401000D01*
X84482301Y-114497673D01*
X84455000Y-114524974D01*
X84427699Y-114497673D01*
X84194310Y-114401000D01*
X83978750Y-114401000D01*
X83820000Y-114559750D01*
X83566000Y-114559750D01*
X83439000Y-114432750D01*
X83439000Y-112903000D01*
X85737000Y-112903000D01*
X85737000Y-113124250D01*
X85737000Y-113124250D01*
G37*
X85737000Y-113124250D02*
X85895750Y-113283000D01*
X86995000Y-113283000D01*
X86995000Y-113263000D01*
X87249000Y-113263000D01*
X87249000Y-113283000D01*
X87269000Y-113283000D01*
X87269000Y-113537000D01*
X87249000Y-113537000D01*
X87249000Y-114636250D01*
X87315000Y-114702250D01*
X87315000Y-115359000D01*
X87335000Y-115359000D01*
X87335000Y-115613000D01*
X87315000Y-115613000D01*
X87315000Y-115633000D01*
X87061000Y-115633000D01*
X87061000Y-115613000D01*
X86386750Y-115613000D01*
X86228000Y-115771750D01*
X86228000Y-115824000D01*
X86129250Y-115824000D01*
X86068250Y-115763000D01*
X85344000Y-115763000D01*
X85344000Y-115783000D01*
X85090000Y-115783000D01*
X85090000Y-115763000D01*
X83820000Y-115763000D01*
X83820000Y-115783000D01*
X83566000Y-115783000D01*
X83566000Y-115763000D01*
X83546000Y-115763000D01*
X83546000Y-115509000D01*
X83566000Y-115509000D01*
X83566000Y-114559750D01*
X83820000Y-114559750D01*
X83820000Y-115509000D01*
X85090000Y-115509000D01*
X85090000Y-114559750D01*
X85344000Y-114559750D01*
X85344000Y-115509000D01*
X86068250Y-115509000D01*
X86227000Y-115350250D01*
X86227000Y-114909691D01*
X86165784Y-114761902D01*
X86242856Y-114793826D01*
X86228000Y-114829691D01*
X86228000Y-115200250D01*
X86386750Y-115359000D01*
X87061000Y-115359000D01*
X87061000Y-114479750D01*
X86995000Y-114413750D01*
X86995000Y-113537000D01*
X85895750Y-113537000D01*
X85737000Y-113695750D01*
X85737000Y-114286309D01*
X85798216Y-114434098D01*
X85718310Y-114401000D01*
X85502750Y-114401000D01*
X85344000Y-114559750D01*
X85090000Y-114559750D01*
X84931250Y-114401000D01*
X84715690Y-114401000D01*
X84482301Y-114497673D01*
X84455000Y-114524974D01*
X84427699Y-114497673D01*
X84194310Y-114401000D01*
X83978750Y-114401000D01*
X83820000Y-114559750D01*
X83566000Y-114559750D01*
X83439000Y-114432750D01*
X83439000Y-112903000D01*
X85737000Y-112903000D01*
X85737000Y-113124250D01*
G36*
X89789000Y-118618000D02*
X89799006Y-118667410D01*
X89827447Y-118709035D01*
X89869841Y-118736315D01*
X89916000Y-118745000D01*
X91186000Y-118745000D01*
X91186000Y-118818400D01*
X90639900Y-118818400D01*
X90551000Y-118907300D01*
X90551000Y-120047000D01*
X90571000Y-120047000D01*
X90571000Y-120301000D01*
X90551000Y-120301000D01*
X90551000Y-121440700D01*
X90639900Y-121529600D01*
X91186000Y-121529600D01*
X91186000Y-121920000D01*
X88715600Y-121920000D01*
X88715600Y-121627900D01*
X88626700Y-121539000D01*
X87737000Y-121539000D01*
X87737000Y-121559000D01*
X87483000Y-121559000D01*
X87483000Y-121539000D01*
X87463000Y-121539000D01*
X87463000Y-121285000D01*
X87483000Y-121285000D01*
X87483000Y-120520300D01*
X87737000Y-120520300D01*
X87737000Y-121285000D01*
X88626700Y-121285000D01*
X88715600Y-121196100D01*
X88715600Y-120716267D01*
X88661463Y-120585569D01*
X88561431Y-120485537D01*
X88430733Y-120431400D01*
X87825900Y-120431400D01*
X87737000Y-120520300D01*
X87483000Y-120520300D01*
X87394100Y-120431400D01*
X86868000Y-120431400D01*
X86868000Y-120389900D01*
X89218400Y-120389900D01*
X89218400Y-121244733D01*
X89272537Y-121375431D01*
X89372569Y-121475463D01*
X89503267Y-121529600D01*
X90208100Y-121529600D01*
X90297000Y-121440700D01*
X90297000Y-120301000D01*
X89307300Y-120301000D01*
X89218400Y-120389900D01*
X86868000Y-120389900D01*
X86868000Y-120354134D01*
X86893267Y-120364600D01*
X87348100Y-120364600D01*
X87437000Y-120275700D01*
X87437000Y-119761000D01*
X87691000Y-119761000D01*
X87691000Y-120275700D01*
X87779900Y-120364600D01*
X88234733Y-120364600D01*
X88365431Y-120310463D01*
X88465463Y-120210431D01*
X88519600Y-120079733D01*
X88519600Y-119849900D01*
X88430700Y-119761000D01*
X87691000Y-119761000D01*
X87437000Y-119761000D01*
X87417000Y-119761000D01*
X87417000Y-119507000D01*
X87437000Y-119507000D01*
X87437000Y-118992300D01*
X87691000Y-118992300D01*
X87691000Y-119507000D01*
X88430700Y-119507000D01*
X88519600Y-119418100D01*
X88519600Y-119188267D01*
X88484392Y-119103267D01*
X89218400Y-119103267D01*
X89218400Y-119958100D01*
X89307300Y-120047000D01*
X90297000Y-120047000D01*
X90297000Y-118907300D01*
X90208100Y-118818400D01*
X89503267Y-118818400D01*
X89372569Y-118872537D01*
X89272537Y-118972569D01*
X89218400Y-119103267D01*
X88484392Y-119103267D01*
X88465463Y-119057569D01*
X88365431Y-118957537D01*
X88234733Y-118903400D01*
X87779900Y-118903400D01*
X87691000Y-118992300D01*
X87437000Y-118992300D01*
X87348100Y-118903400D01*
X86893267Y-118903400D01*
X86868000Y-118913866D01*
X86868000Y-118571600D01*
X86972100Y-118571600D01*
X87061000Y-118482700D01*
X87061000Y-117813000D01*
X87041000Y-117813000D01*
X87041000Y-117559000D01*
X87061000Y-117559000D01*
X87061000Y-117539000D01*
X87315000Y-117539000D01*
X87315000Y-117559000D01*
X87335000Y-117559000D01*
X87335000Y-117813000D01*
X87315000Y-117813000D01*
X87315000Y-118482700D01*
X87403900Y-118571600D01*
X87583733Y-118571600D01*
X87658330Y-118540701D01*
X87671942Y-118550001D01*
X87813000Y-118578566D01*
X88463000Y-118578566D01*
X88594777Y-118553770D01*
X88616099Y-118540050D01*
X88692267Y-118571600D01*
X88872100Y-118571600D01*
X88961000Y-118482700D01*
X88961000Y-117813000D01*
X89215000Y-117813000D01*
X89215000Y-118482700D01*
X89303900Y-118571600D01*
X89483733Y-118571600D01*
X89614431Y-118517463D01*
X89714463Y-118417431D01*
X89768600Y-118286733D01*
X89768600Y-117901900D01*
X89679700Y-117813000D01*
X89215000Y-117813000D01*
X88961000Y-117813000D01*
X88941000Y-117813000D01*
X88941000Y-117559000D01*
X88961000Y-117559000D01*
X88961000Y-117539000D01*
X89215000Y-117539000D01*
X89215000Y-117559000D01*
X89679700Y-117559000D01*
X89768600Y-117470100D01*
X89768600Y-117221000D01*
X89789000Y-117221000D01*
X89789000Y-118618000D01*
X89789000Y-118618000D01*
G37*
X89789000Y-118618000D02*
X89799006Y-118667410D01*
X89827447Y-118709035D01*
X89869841Y-118736315D01*
X89916000Y-118745000D01*
X91186000Y-118745000D01*
X91186000Y-118818400D01*
X90639900Y-118818400D01*
X90551000Y-118907300D01*
X90551000Y-120047000D01*
X90571000Y-120047000D01*
X90571000Y-120301000D01*
X90551000Y-120301000D01*
X90551000Y-121440700D01*
X90639900Y-121529600D01*
X91186000Y-121529600D01*
X91186000Y-121920000D01*
X88715600Y-121920000D01*
X88715600Y-121627900D01*
X88626700Y-121539000D01*
X87737000Y-121539000D01*
X87737000Y-121559000D01*
X87483000Y-121559000D01*
X87483000Y-121539000D01*
X87463000Y-121539000D01*
X87463000Y-121285000D01*
X87483000Y-121285000D01*
X87483000Y-120520300D01*
X87737000Y-120520300D01*
X87737000Y-121285000D01*
X88626700Y-121285000D01*
X88715600Y-121196100D01*
X88715600Y-120716267D01*
X88661463Y-120585569D01*
X88561431Y-120485537D01*
X88430733Y-120431400D01*
X87825900Y-120431400D01*
X87737000Y-120520300D01*
X87483000Y-120520300D01*
X87394100Y-120431400D01*
X86868000Y-120431400D01*
X86868000Y-120389900D01*
X89218400Y-120389900D01*
X89218400Y-121244733D01*
X89272537Y-121375431D01*
X89372569Y-121475463D01*
X89503267Y-121529600D01*
X90208100Y-121529600D01*
X90297000Y-121440700D01*
X90297000Y-120301000D01*
X89307300Y-120301000D01*
X89218400Y-120389900D01*
X86868000Y-120389900D01*
X86868000Y-120354134D01*
X86893267Y-120364600D01*
X87348100Y-120364600D01*
X87437000Y-120275700D01*
X87437000Y-119761000D01*
X87691000Y-119761000D01*
X87691000Y-120275700D01*
X87779900Y-120364600D01*
X88234733Y-120364600D01*
X88365431Y-120310463D01*
X88465463Y-120210431D01*
X88519600Y-120079733D01*
X88519600Y-119849900D01*
X88430700Y-119761000D01*
X87691000Y-119761000D01*
X87437000Y-119761000D01*
X87417000Y-119761000D01*
X87417000Y-119507000D01*
X87437000Y-119507000D01*
X87437000Y-118992300D01*
X87691000Y-118992300D01*
X87691000Y-119507000D01*
X88430700Y-119507000D01*
X88519600Y-119418100D01*
X88519600Y-119188267D01*
X88484392Y-119103267D01*
X89218400Y-119103267D01*
X89218400Y-119958100D01*
X89307300Y-120047000D01*
X90297000Y-120047000D01*
X90297000Y-118907300D01*
X90208100Y-118818400D01*
X89503267Y-118818400D01*
X89372569Y-118872537D01*
X89272537Y-118972569D01*
X89218400Y-119103267D01*
X88484392Y-119103267D01*
X88465463Y-119057569D01*
X88365431Y-118957537D01*
X88234733Y-118903400D01*
X87779900Y-118903400D01*
X87691000Y-118992300D01*
X87437000Y-118992300D01*
X87348100Y-118903400D01*
X86893267Y-118903400D01*
X86868000Y-118913866D01*
X86868000Y-118571600D01*
X86972100Y-118571600D01*
X87061000Y-118482700D01*
X87061000Y-117813000D01*
X87041000Y-117813000D01*
X87041000Y-117559000D01*
X87061000Y-117559000D01*
X87061000Y-117539000D01*
X87315000Y-117539000D01*
X87315000Y-117559000D01*
X87335000Y-117559000D01*
X87335000Y-117813000D01*
X87315000Y-117813000D01*
X87315000Y-118482700D01*
X87403900Y-118571600D01*
X87583733Y-118571600D01*
X87658330Y-118540701D01*
X87671942Y-118550001D01*
X87813000Y-118578566D01*
X88463000Y-118578566D01*
X88594777Y-118553770D01*
X88616099Y-118540050D01*
X88692267Y-118571600D01*
X88872100Y-118571600D01*
X88961000Y-118482700D01*
X88961000Y-117813000D01*
X89215000Y-117813000D01*
X89215000Y-118482700D01*
X89303900Y-118571600D01*
X89483733Y-118571600D01*
X89614431Y-118517463D01*
X89714463Y-118417431D01*
X89768600Y-118286733D01*
X89768600Y-117901900D01*
X89679700Y-117813000D01*
X89215000Y-117813000D01*
X88961000Y-117813000D01*
X88941000Y-117813000D01*
X88941000Y-117559000D01*
X88961000Y-117559000D01*
X88961000Y-117539000D01*
X89215000Y-117539000D01*
X89215000Y-117559000D01*
X89679700Y-117559000D01*
X89768600Y-117470100D01*
X89768600Y-117221000D01*
X89789000Y-117221000D01*
X89789000Y-118618000D01*
G36*
X108165900Y-90797767D02*
X108165900Y-91351100D01*
X108254800Y-91440000D01*
X109093000Y-91440000D01*
X109093000Y-91420000D01*
X109347000Y-91420000D01*
X109347000Y-91440000D01*
X109367000Y-91440000D01*
X109367000Y-91694000D01*
X109347000Y-91694000D01*
X109347000Y-92532200D01*
X109435900Y-92621100D01*
X109855000Y-92621100D01*
X109855000Y-92964000D01*
X108331000Y-92964000D01*
X108281590Y-92974006D01*
X108239965Y-93002447D01*
X108212685Y-93044841D01*
X108204000Y-93091000D01*
X108204000Y-96012000D01*
X107719600Y-96012000D01*
X107719600Y-95719900D01*
X107630700Y-95631000D01*
X106891000Y-95631000D01*
X106891000Y-95651000D01*
X106637000Y-95651000D01*
X106637000Y-95631000D01*
X106617000Y-95631000D01*
X106617000Y-95377000D01*
X106637000Y-95377000D01*
X106637000Y-94787300D01*
X106548100Y-94698400D01*
X106410300Y-94698400D01*
X106487000Y-94621700D01*
X106487000Y-94107000D01*
X106741000Y-94107000D01*
X106741000Y-94621700D01*
X106829900Y-94710600D01*
X106967700Y-94710600D01*
X106891000Y-94787300D01*
X106891000Y-95377000D01*
X107630700Y-95377000D01*
X107719600Y-95288100D01*
X107719600Y-94983267D01*
X107665463Y-94852569D01*
X107565431Y-94752537D01*
X107434733Y-94698400D01*
X107314186Y-94698400D01*
X107415431Y-94656463D01*
X107515463Y-94556431D01*
X107569600Y-94425733D01*
X107569600Y-94195900D01*
X107480700Y-94107000D01*
X106741000Y-94107000D01*
X106487000Y-94107000D01*
X106467000Y-94107000D01*
X106467000Y-93853000D01*
X106487000Y-93853000D01*
X106487000Y-93833000D01*
X106741000Y-93833000D01*
X106741000Y-93853000D01*
X107480700Y-93853000D01*
X107569600Y-93764100D01*
X107569600Y-93534267D01*
X107515463Y-93403569D01*
X107415431Y-93303537D01*
X107315000Y-93261937D01*
X107315000Y-91782900D01*
X108165900Y-91782900D01*
X108165900Y-92336233D01*
X108220037Y-92466931D01*
X108320069Y-92566963D01*
X108450767Y-92621100D01*
X109004100Y-92621100D01*
X109093000Y-92532200D01*
X109093000Y-91694000D01*
X108254800Y-91694000D01*
X108165900Y-91782900D01*
X107315000Y-91782900D01*
X107315000Y-90678000D01*
X108215509Y-90678000D01*
X108165900Y-90797767D01*
X108165900Y-90797767D01*
G37*
X108165900Y-90797767D02*
X108165900Y-91351100D01*
X108254800Y-91440000D01*
X109093000Y-91440000D01*
X109093000Y-91420000D01*
X109347000Y-91420000D01*
X109347000Y-91440000D01*
X109367000Y-91440000D01*
X109367000Y-91694000D01*
X109347000Y-91694000D01*
X109347000Y-92532200D01*
X109435900Y-92621100D01*
X109855000Y-92621100D01*
X109855000Y-92964000D01*
X108331000Y-92964000D01*
X108281590Y-92974006D01*
X108239965Y-93002447D01*
X108212685Y-93044841D01*
X108204000Y-93091000D01*
X108204000Y-96012000D01*
X107719600Y-96012000D01*
X107719600Y-95719900D01*
X107630700Y-95631000D01*
X106891000Y-95631000D01*
X106891000Y-95651000D01*
X106637000Y-95651000D01*
X106637000Y-95631000D01*
X106617000Y-95631000D01*
X106617000Y-95377000D01*
X106637000Y-95377000D01*
X106637000Y-94787300D01*
X106548100Y-94698400D01*
X106410300Y-94698400D01*
X106487000Y-94621700D01*
X106487000Y-94107000D01*
X106741000Y-94107000D01*
X106741000Y-94621700D01*
X106829900Y-94710600D01*
X106967700Y-94710600D01*
X106891000Y-94787300D01*
X106891000Y-95377000D01*
X107630700Y-95377000D01*
X107719600Y-95288100D01*
X107719600Y-94983267D01*
X107665463Y-94852569D01*
X107565431Y-94752537D01*
X107434733Y-94698400D01*
X107314186Y-94698400D01*
X107415431Y-94656463D01*
X107515463Y-94556431D01*
X107569600Y-94425733D01*
X107569600Y-94195900D01*
X107480700Y-94107000D01*
X106741000Y-94107000D01*
X106487000Y-94107000D01*
X106467000Y-94107000D01*
X106467000Y-93853000D01*
X106487000Y-93853000D01*
X106487000Y-93833000D01*
X106741000Y-93833000D01*
X106741000Y-93853000D01*
X107480700Y-93853000D01*
X107569600Y-93764100D01*
X107569600Y-93534267D01*
X107515463Y-93403569D01*
X107415431Y-93303537D01*
X107315000Y-93261937D01*
X107315000Y-91782900D01*
X108165900Y-91782900D01*
X108165900Y-92336233D01*
X108220037Y-92466931D01*
X108320069Y-92566963D01*
X108450767Y-92621100D01*
X109004100Y-92621100D01*
X109093000Y-92532200D01*
X109093000Y-91694000D01*
X108254800Y-91694000D01*
X108165900Y-91782900D01*
X107315000Y-91782900D01*
X107315000Y-90678000D01*
X108215509Y-90678000D01*
X108165900Y-90797767D01*
G36*
X83934537Y-97296569D02*
X83880400Y-97427267D01*
X83880400Y-98082100D01*
X83969300Y-98171000D01*
X85199000Y-98171000D01*
X85199000Y-98151000D01*
X85453000Y-98151000D01*
X85453000Y-98171000D01*
X85473000Y-98171000D01*
X85473000Y-98425000D01*
X85453000Y-98425000D01*
X85453000Y-99364700D01*
X85541900Y-99453600D01*
X86233000Y-99453600D01*
X86233000Y-100076000D01*
X83312000Y-100076000D01*
X83312000Y-98513900D01*
X83880400Y-98513900D01*
X83880400Y-99168733D01*
X83934537Y-99299431D01*
X84034569Y-99399463D01*
X84165267Y-99453600D01*
X85110100Y-99453600D01*
X85199000Y-99364700D01*
X85199000Y-98425000D01*
X83969300Y-98425000D01*
X83880400Y-98513900D01*
X83312000Y-98513900D01*
X83312000Y-97282000D01*
X83949106Y-97282000D01*
X83934537Y-97296569D01*
X83934537Y-97296569D01*
G37*
X83934537Y-97296569D02*
X83880400Y-97427267D01*
X83880400Y-98082100D01*
X83969300Y-98171000D01*
X85199000Y-98171000D01*
X85199000Y-98151000D01*
X85453000Y-98151000D01*
X85453000Y-98171000D01*
X85473000Y-98171000D01*
X85473000Y-98425000D01*
X85453000Y-98425000D01*
X85453000Y-99364700D01*
X85541900Y-99453600D01*
X86233000Y-99453600D01*
X86233000Y-100076000D01*
X83312000Y-100076000D01*
X83312000Y-98513900D01*
X83880400Y-98513900D01*
X83880400Y-99168733D01*
X83934537Y-99299431D01*
X84034569Y-99399463D01*
X84165267Y-99453600D01*
X85110100Y-99453600D01*
X85199000Y-99364700D01*
X85199000Y-98425000D01*
X83969300Y-98425000D01*
X83880400Y-98513900D01*
X83312000Y-98513900D01*
X83312000Y-97282000D01*
X83949106Y-97282000D01*
X83934537Y-97296569D01*
G36*
X107696000Y-126805300D02*
X107635000Y-126866300D01*
X107635000Y-127381000D01*
X107655000Y-127381000D01*
X107655000Y-127635000D01*
X107635000Y-127635000D01*
X107635000Y-127655000D01*
X107381000Y-127655000D01*
X107381000Y-127635000D01*
X107361000Y-127635000D01*
X107361000Y-127381000D01*
X107381000Y-127381000D01*
X107381000Y-126866300D01*
X107292100Y-126777400D01*
X106837267Y-126777400D01*
X106706569Y-126831537D01*
X106606537Y-126931569D01*
X106553000Y-127060818D01*
X106553000Y-126446893D01*
X106560066Y-126412000D01*
X106560066Y-125889000D01*
X106635000Y-125889000D01*
X106635000Y-126678700D01*
X106723900Y-126767600D01*
X106768233Y-126767600D01*
X106898931Y-126713463D01*
X106998963Y-126613431D01*
X107053100Y-126482733D01*
X107053100Y-125977900D01*
X106964200Y-125889000D01*
X106635000Y-125889000D01*
X106560066Y-125889000D01*
X106560066Y-125615000D01*
X106635000Y-125615000D01*
X106635000Y-125635000D01*
X106964200Y-125635000D01*
X107053100Y-125546100D01*
X107053100Y-125041267D01*
X107022752Y-124968000D01*
X107696000Y-124968000D01*
X107696000Y-126805300D01*
X107696000Y-126805300D01*
G37*
X107696000Y-126805300D02*
X107635000Y-126866300D01*
X107635000Y-127381000D01*
X107655000Y-127381000D01*
X107655000Y-127635000D01*
X107635000Y-127635000D01*
X107635000Y-127655000D01*
X107381000Y-127655000D01*
X107381000Y-127635000D01*
X107361000Y-127635000D01*
X107361000Y-127381000D01*
X107381000Y-127381000D01*
X107381000Y-126866300D01*
X107292100Y-126777400D01*
X106837267Y-126777400D01*
X106706569Y-126831537D01*
X106606537Y-126931569D01*
X106553000Y-127060818D01*
X106553000Y-126446893D01*
X106560066Y-126412000D01*
X106560066Y-125889000D01*
X106635000Y-125889000D01*
X106635000Y-126678700D01*
X106723900Y-126767600D01*
X106768233Y-126767600D01*
X106898931Y-126713463D01*
X106998963Y-126613431D01*
X107053100Y-126482733D01*
X107053100Y-125977900D01*
X106964200Y-125889000D01*
X106635000Y-125889000D01*
X106560066Y-125889000D01*
X106560066Y-125615000D01*
X106635000Y-125615000D01*
X106635000Y-125635000D01*
X106964200Y-125635000D01*
X107053100Y-125546100D01*
X107053100Y-125041267D01*
X107022752Y-124968000D01*
X107696000Y-124968000D01*
X107696000Y-126805300D01*
G36*
X97343000Y-122301000D02*
X97363000Y-122301000D01*
X97363000Y-122555000D01*
X97343000Y-122555000D01*
X97343000Y-123069700D01*
X97431900Y-123158600D01*
X97835541Y-123158600D01*
X97870841Y-123181315D01*
X97917000Y-123190000D01*
X98044000Y-123190000D01*
X98044000Y-123952000D01*
X98054006Y-124001410D01*
X98082447Y-124043035D01*
X98124841Y-124070315D01*
X98171000Y-124079000D01*
X98535300Y-124079000D01*
X98555800Y-124099500D01*
X98649974Y-124099500D01*
X98681442Y-124121001D01*
X98822500Y-124149566D01*
X99619500Y-124149566D01*
X99619500Y-124206000D01*
X96774000Y-124206000D01*
X96774000Y-123158600D01*
X97000100Y-123158600D01*
X97089000Y-123069700D01*
X97089000Y-122555000D01*
X97069000Y-122555000D01*
X97069000Y-122301000D01*
X97089000Y-122301000D01*
X97089000Y-122281000D01*
X97343000Y-122281000D01*
X97343000Y-122301000D01*
X97343000Y-122301000D01*
G37*
X97343000Y-122301000D02*
X97363000Y-122301000D01*
X97363000Y-122555000D01*
X97343000Y-122555000D01*
X97343000Y-123069700D01*
X97431900Y-123158600D01*
X97835541Y-123158600D01*
X97870841Y-123181315D01*
X97917000Y-123190000D01*
X98044000Y-123190000D01*
X98044000Y-123952000D01*
X98054006Y-124001410D01*
X98082447Y-124043035D01*
X98124841Y-124070315D01*
X98171000Y-124079000D01*
X98535300Y-124079000D01*
X98555800Y-124099500D01*
X98649974Y-124099500D01*
X98681442Y-124121001D01*
X98822500Y-124149566D01*
X99619500Y-124149566D01*
X99619500Y-124206000D01*
X96774000Y-124206000D01*
X96774000Y-123158600D01*
X97000100Y-123158600D01*
X97089000Y-123069700D01*
X97089000Y-122555000D01*
X97069000Y-122555000D01*
X97069000Y-122301000D01*
X97089000Y-122301000D01*
X97089000Y-122281000D01*
X97343000Y-122281000D01*
X97343000Y-122301000D01*
G36*
X105537000Y-119507000D02*
X102489000Y-119507000D01*
X102489000Y-118999000D01*
X105537000Y-118999000D01*
X105537000Y-119507000D01*
X105537000Y-119507000D01*
G37*
X105537000Y-119507000D02*
X102489000Y-119507000D01*
X102489000Y-118999000D01*
X105537000Y-118999000D01*
X105537000Y-119507000D01*
G36*
X101302400Y-131694100D02*
X101391300Y-131783000D01*
X101981000Y-131783000D01*
X101981000Y-131763000D01*
X102235000Y-131763000D01*
X102235000Y-131783000D01*
X102255000Y-131783000D01*
X102255000Y-132037000D01*
X102235000Y-132037000D01*
X102235000Y-132776700D01*
X102323900Y-132865600D01*
X102616000Y-132865600D01*
X102616000Y-133096000D01*
X102362000Y-133096000D01*
X102312590Y-133106006D01*
X102270965Y-133134447D01*
X102243685Y-133176841D01*
X102235000Y-133223000D01*
X102235000Y-134009959D01*
X102047876Y-133631290D01*
X101693953Y-133321419D01*
X101404984Y-133201736D01*
X101219000Y-133256545D01*
X101219000Y-134239000D01*
X101239000Y-134239000D01*
X101239000Y-134493000D01*
X101219000Y-134493000D01*
X101219000Y-134513000D01*
X100965000Y-134513000D01*
X100965000Y-134493000D01*
X100945000Y-134493000D01*
X100945000Y-134239000D01*
X100965000Y-134239000D01*
X100965000Y-133256545D01*
X100779016Y-133201736D01*
X100490047Y-133321419D01*
X100136124Y-133631290D01*
X99949000Y-134009959D01*
X99949000Y-132125900D01*
X101302400Y-132125900D01*
X101302400Y-132580733D01*
X101356537Y-132711431D01*
X101456569Y-132811463D01*
X101587267Y-132865600D01*
X101892100Y-132865600D01*
X101981000Y-132776700D01*
X101981000Y-132037000D01*
X101391300Y-132037000D01*
X101302400Y-132125900D01*
X99949000Y-132125900D01*
X99949000Y-131318000D01*
X101302400Y-131318000D01*
X101302400Y-131694100D01*
X101302400Y-131694100D01*
G37*
X101302400Y-131694100D02*
X101391300Y-131783000D01*
X101981000Y-131783000D01*
X101981000Y-131763000D01*
X102235000Y-131763000D01*
X102235000Y-131783000D01*
X102255000Y-131783000D01*
X102255000Y-132037000D01*
X102235000Y-132037000D01*
X102235000Y-132776700D01*
X102323900Y-132865600D01*
X102616000Y-132865600D01*
X102616000Y-133096000D01*
X102362000Y-133096000D01*
X102312590Y-133106006D01*
X102270965Y-133134447D01*
X102243685Y-133176841D01*
X102235000Y-133223000D01*
X102235000Y-134009959D01*
X102047876Y-133631290D01*
X101693953Y-133321419D01*
X101404984Y-133201736D01*
X101219000Y-133256545D01*
X101219000Y-134239000D01*
X101239000Y-134239000D01*
X101239000Y-134493000D01*
X101219000Y-134493000D01*
X101219000Y-134513000D01*
X100965000Y-134513000D01*
X100965000Y-134493000D01*
X100945000Y-134493000D01*
X100945000Y-134239000D01*
X100965000Y-134239000D01*
X100965000Y-133256545D01*
X100779016Y-133201736D01*
X100490047Y-133321419D01*
X100136124Y-133631290D01*
X99949000Y-134009959D01*
X99949000Y-132125900D01*
X101302400Y-132125900D01*
X101302400Y-132580733D01*
X101356537Y-132711431D01*
X101456569Y-132811463D01*
X101587267Y-132865600D01*
X101892100Y-132865600D01*
X101981000Y-132776700D01*
X101981000Y-132037000D01*
X101391300Y-132037000D01*
X101302400Y-132125900D01*
X99949000Y-132125900D01*
X99949000Y-131318000D01*
X101302400Y-131318000D01*
X101302400Y-131694100D01*
M02*
