M48
;DRILL file {KiCad 4.0.6} date Sun Nov 12 15:16:05 2017
;FORMAT={-:-/ absolute / inch / decimal}
FMAT,2
INCH,TZ
T1C0.012
T2C0.032
T3C0.079
T4C0.108
T5C0.118
%
G90
G05
M72
T1
X3.245Y-3.635
X3.245Y-3.935
X3.245Y-4.235
X3.245Y-4.52
X3.245Y-4.605
X3.245Y-4.67
X3.245Y-4.75
X3.245Y-4.835
X3.25Y-5.25
X3.25Y-5.43
X3.29Y-4.75
X3.29Y-4.835
X3.295Y-3.845
X3.295Y-3.88
X3.295Y-3.92
X3.295Y-4.46
X3.295Y-4.495
X3.33Y-4.46
X3.33Y-4.495
X3.335Y-3.925
X3.365Y-4.46
X3.365Y-4.495
X3.43Y-4.9
X3.43Y-4.95
X3.435Y-4.2
X3.44Y-5.18
X3.4575Y-3.635
X3.47Y-4.585
X3.48Y-4.9
X3.55Y-5.43
X3.58Y-4.2
X3.58Y-4.405
X3.58Y-4.48
X3.58Y-4.55
X3.58Y-4.62
X3.625Y-4.755
X3.625Y-4.82
X3.63Y-4.925
X3.63Y-5.18
X3.67Y-4.14
X3.71Y-4.41
X3.71Y-5.13
X3.77Y-5.13
X3.805Y-3.635
X3.82Y-4.14
X3.82Y-4.86
X3.83Y-5.13
X3.845Y-4.63
X3.845Y-4.695
X3.85Y-4.27
X3.85Y-4.41
X3.85Y-5.43
X3.855Y-4.86
X3.895Y-4.925
X3.895Y-4.965
X3.93Y-4.575
X3.93Y-4.63
X3.94Y-4.95
X3.96Y-5.085
X3.97Y-4.14
X3.97Y-4.27
X3.97Y-5.13
X4.005Y-3.805
X4.005Y-3.89
X4.01Y-3.685
X4.01Y-4.755
X4.01Y-4.805
X4.01Y-4.855
X4.04Y-4.695
X4.06Y-4.755
X4.06Y-4.805
X4.06Y-4.855
X4.065Y-3.685
X4.075Y-4.695
X4.075Y-3.805
X4.075Y-3.89
X4.08Y-4.655
X4.11Y-4.695
X4.11Y-4.755
X4.11Y-4.805
X4.11Y-4.855
X4.12Y-4.14
X4.12Y-4.27
X4.13Y-5.43
X4.145Y-4.695
X4.15Y-4.46
X4.16Y-4.755
X4.16Y-4.805
X4.16Y-4.855
X4.195Y-3.575
X4.195Y-3.625
X4.2Y-4.41
X4.25Y-3.615
X4.25Y-3.665
X4.25Y-3.715
X4.25Y-3.76
X4.25Y-4.46
X4.28Y-4.14
X4.28Y-4.41
X4.32Y-4.46
X4.32Y-4.97
X4.32Y-5.07
X4.37Y-5.02
X4.405Y-4.27
X4.415Y-4.42
X4.415Y-4.57
X4.415Y-4.72
X4.43Y-3.855
X4.43Y-3.905
X4.48Y-4.27
X4.48Y-4.57
X4.48Y-4.87
X4.48Y-5.02
X4.48Y-5.17
T2
X3.88Y-5.29
X3.98Y-5.29
X4.08Y-5.29
X4.18Y-5.29
X4.28Y-5.29
T3
X3.3575Y-3.61
X4.375Y-3.61
X4.42Y-4.05
X4.42Y-5.375
T4
X4.035Y-3.61
T5
X4.0175Y-4.42
T0
M30
