M48
;DRILL file {KiCad 4.0.6} date Fri May 26 17:51:14 2017
;FORMAT={2:4/ absolute / inch / suppress leading zeros}
FMAT,2
INCH,TZ
T1C0.012
T2C0.032
%
G90
G05
M72
T1
X32450Y-36350
X32450Y-39350
X32450Y-42350
X32450Y-45200
X32450Y-46050
X32450Y-46700
X32450Y-47500
X32450Y-48350
X32500Y-52500
X32500Y-54300
X32900Y-47500
X32900Y-48350
X32950Y-38450
X32950Y-38800
X32950Y-39200
X32950Y-44600
X32950Y-44950
X33300Y-44600
X33300Y-44950
X33350Y-39250
X33650Y-44600
X33650Y-44950
X34300Y-49000
X34300Y-49500
X34350Y-42000
X34400Y-51800
X34700Y-45850
X34800Y-49000
X35500Y-54300
X35800Y-42000
X35800Y-44050
X35800Y-44800
X35800Y-45500
X35800Y-46200
X36000Y-36350
X36250Y-47550
X36250Y-48200
X36300Y-49250
X36300Y-51800
X36700Y-41400
X37100Y-44100
X37100Y-51300
X37700Y-51300
X38050Y-36350
X38200Y-41400
X38200Y-48600
X38300Y-51300
X38450Y-46300
X38450Y-46950
X38500Y-42700
X38500Y-44100
X38500Y-54300
X38550Y-48600
X38950Y-49250
X38950Y-49650
X39300Y-45750
X39300Y-46300
X39400Y-49500
X39500Y-52050
X39500Y-52400
X39600Y-50850
X39700Y-41400
X39700Y-42700
X39700Y-51300
X39850Y-52050
X39850Y-52400
X40050Y-38050
X40050Y-38900
X40100Y-36850
X40100Y-47550
X40100Y-48050
X40100Y-48550
X40400Y-46950
X40600Y-47550
X40600Y-48050
X40600Y-48550
X40650Y-36850
X40750Y-46950
X40750Y-38050
X40750Y-38900
X40800Y-46550
X41100Y-46950
X41100Y-47550
X41100Y-48050
X41100Y-48550
X41200Y-41400
X41200Y-42700
X41300Y-54300
X41450Y-46950
X41500Y-44600
X41600Y-47550
X41600Y-48050
X41600Y-48550
X41950Y-35750
X41950Y-36250
X42000Y-44100
X42500Y-36150
X42500Y-36650
X42500Y-37150
X42500Y-37600
X42500Y-44600
X42800Y-41400
X42800Y-44100
X43200Y-44600
X43200Y-49700
X43200Y-50700
X43700Y-50200
X44050Y-42700
X44150Y-44200
X44150Y-45700
X44150Y-47200
X44200Y-41400
X44300Y-38550
X44300Y-39050
X44800Y-39800
X44800Y-42700
X44800Y-45700
X44800Y-48700
X44800Y-50200
X44800Y-51700
T2
X38800Y-52900
X39800Y-52900
X40800Y-52900
X41800Y-52900
X42800Y-52900
T0
M30
