G04 #@! TF.FileFunction,Soldermask,Top*
%FSLAX46Y46*%
G04 Gerber Fmt 4.6, Leading zero omitted, Abs format (unit mm)*
G04 Created by KiCad (PCBNEW 4.0.6) date Sat Apr  8 16:24:23 2017*
%MOMM*%
%LPD*%
G01*
G04 APERTURE LIST*
%ADD10C,0.050000*%
%ADD11R,1.600000X1.150000*%
%ADD12R,1.900000X1.650000*%
%ADD13R,1.400000X2.000000*%
%ADD14R,1.150000X1.600000*%
%ADD15R,1.600000X1.600000*%
%ADD16R,3.400000X3.400000*%
%ADD17R,1.600000X1.300000*%
%ADD18R,1.300000X1.600000*%
%ADD19R,2.580000X2.000000*%
%ADD20R,1.960000X1.050000*%
%ADD21R,0.650000X1.700000*%
%ADD22R,1.700000X0.650000*%
%ADD23R,4.900000X2.400000*%
%ADD24R,1.900000X1.900000*%
%ADD25R,2.400000X2.000000*%
%ADD26R,2.400000X2.100000*%
%ADD27R,2.100000X2.400000*%
%ADD28R,1.460000X1.050000*%
%ADD29R,1.100000X1.700000*%
%ADD30R,2.300000X2.775000*%
%ADD31R,2.300000X1.575000*%
%ADD32R,2.300000X1.547000*%
%ADD33R,1.780000X0.781000*%
%ADD34R,2.100000X2.100000*%
%ADD35O,2.100000X2.100000*%
G04 APERTURE END LIST*
D10*
D11*
X83754000Y-115824000D03*
X81854000Y-115824000D03*
X100904000Y-110236000D03*
X102804000Y-110236000D03*
D12*
X81300000Y-117602000D03*
X83800000Y-117602000D03*
D11*
X106614000Y-110236000D03*
X104714000Y-110236000D03*
X93792000Y-120142000D03*
X95692000Y-120142000D03*
D13*
X84050000Y-110236000D03*
X81050000Y-110236000D03*
D11*
X83754000Y-112268000D03*
X81854000Y-112268000D03*
X93914000Y-125476000D03*
X92014000Y-125476000D03*
D14*
X89916000Y-104074000D03*
X89916000Y-102174000D03*
D11*
X106238000Y-117348000D03*
X108138000Y-117348000D03*
D15*
X83661208Y-132585382D03*
X81461208Y-132585382D03*
X94996000Y-102278000D03*
X94996000Y-104478000D03*
X110066000Y-91694000D03*
X107866000Y-91694000D03*
D16*
X108966000Y-95758000D03*
X100330000Y-95758000D03*
D17*
X83650000Y-130556000D03*
X81450000Y-130556000D03*
D18*
X93218000Y-104478000D03*
X93218000Y-102278000D03*
D17*
X88984000Y-125476000D03*
X86784000Y-125476000D03*
X88984000Y-123952000D03*
X86784000Y-123952000D03*
X87968000Y-111506000D03*
X85768000Y-111506000D03*
X101938000Y-134112000D03*
X99738000Y-134112000D03*
X94996000Y-134112000D03*
X97196000Y-134112000D03*
X106002000Y-135636000D03*
X103802000Y-135636000D03*
D18*
X108712000Y-135720000D03*
X108712000Y-133520000D03*
X88392000Y-102278000D03*
X88392000Y-104478000D03*
X91440000Y-104478000D03*
X91440000Y-102278000D03*
X105918000Y-91864000D03*
X105918000Y-94064000D03*
X104140000Y-91864000D03*
X104140000Y-94064000D03*
D19*
X85275200Y-137617200D03*
X94455200Y-137617200D03*
D20*
X90264000Y-127320000D03*
X90264000Y-128270000D03*
X90264000Y-129220000D03*
X92964000Y-129220000D03*
X92964000Y-127320000D03*
X92964000Y-128270000D03*
D21*
X105112000Y-119094000D03*
X104612000Y-119094000D03*
X104112000Y-119094000D03*
X103612000Y-119094000D03*
X103112000Y-119094000D03*
X102612000Y-119094000D03*
X102112000Y-119094000D03*
X101612000Y-119094000D03*
X101112000Y-119094000D03*
X100612000Y-119094000D03*
X100112000Y-119094000D03*
X99612000Y-119094000D03*
D22*
X98012000Y-120694000D03*
X98012000Y-121194000D03*
X98012000Y-121694000D03*
X98012000Y-122194000D03*
X98012000Y-122694000D03*
X98012000Y-123194000D03*
X98012000Y-123694000D03*
X98012000Y-124194000D03*
X98012000Y-124694000D03*
X98012000Y-125194000D03*
X98012000Y-125694000D03*
X98012000Y-126194000D03*
D21*
X99612000Y-127794000D03*
X100112000Y-127794000D03*
X100612000Y-127794000D03*
X101112000Y-127794000D03*
X101612000Y-127794000D03*
X102112000Y-127794000D03*
X102612000Y-127794000D03*
X103112000Y-127794000D03*
X103612000Y-127794000D03*
X104112000Y-127794000D03*
X104612000Y-127794000D03*
X105112000Y-127794000D03*
D22*
X106712000Y-126194000D03*
X106712000Y-125694000D03*
X106712000Y-125194000D03*
X106712000Y-124694000D03*
X106712000Y-124194000D03*
X106712000Y-123694000D03*
X106712000Y-123194000D03*
X106712000Y-122694000D03*
X106712000Y-122194000D03*
X106712000Y-121694000D03*
X106712000Y-121194000D03*
X106712000Y-120694000D03*
D23*
X99704000Y-113792000D03*
X108204000Y-113792000D03*
D17*
X99144000Y-99060000D03*
X96944000Y-99060000D03*
D18*
X109410500Y-121623000D03*
X109410500Y-119423000D03*
D24*
X98680000Y-91694000D03*
X101980000Y-91694000D03*
D25*
X106458000Y-129540000D03*
X110458000Y-129540000D03*
D26*
X106394000Y-131826000D03*
X102394000Y-131826000D03*
D27*
X86360000Y-121634000D03*
X86360000Y-117634000D03*
D28*
X86022000Y-113350000D03*
X86022000Y-114300000D03*
X86022000Y-115250000D03*
X88222000Y-115250000D03*
X88222000Y-113350000D03*
D27*
X93726000Y-117570000D03*
X93726000Y-113570000D03*
X89916000Y-107220000D03*
X89916000Y-111220000D03*
D29*
X95692000Y-122174000D03*
X93792000Y-122174000D03*
X101788000Y-135636000D03*
X99888000Y-135636000D03*
D30*
X79375000Y-122047000D03*
X79375000Y-128143000D03*
D31*
X79375000Y-124206000D03*
X79375000Y-125984000D03*
D32*
X81534000Y-122682000D03*
X81534000Y-127508000D03*
D33*
X81788000Y-123825000D03*
X81788000Y-124460000D03*
X81788000Y-125095000D03*
X81788000Y-125730000D03*
X81788000Y-126365000D03*
D19*
X85326000Y-98298000D03*
X94506000Y-98298000D03*
D34*
X108712000Y-138176000D03*
D35*
X106172000Y-138176000D03*
X103632000Y-138176000D03*
X101092000Y-138176000D03*
X98552000Y-138176000D03*
D27*
X86106000Y-128302000D03*
X86106000Y-132302000D03*
M02*
