G04 #@! TF.FileFunction,Soldermask,Top*
%FSLAX46Y46*%
G04 Gerber Fmt 4.6, Leading zero omitted, Abs format (unit mm)*
G04 Created by KiCad (PCBNEW 4.0.6) date Fri May 26 17:46:32 2017*
%MOMM*%
%LPD*%
G01*
G04 APERTURE LIST*
%ADD10C,0.050000*%
%ADD11R,1.600000X1.150000*%
%ADD12R,1.150000X1.600000*%
%ADD13R,1.900000X1.650000*%
%ADD14R,1.300000X1.600000*%
%ADD15R,1.600000X1.300000*%
%ADD16R,2.580000X2.000000*%
%ADD17R,1.960000X1.050000*%
%ADD18R,0.650000X1.700000*%
%ADD19R,1.700000X0.650000*%
%ADD20R,2.400000X4.900000*%
%ADD21R,2.100000X2.400000*%
%ADD22R,1.050000X1.460000*%
%ADD23R,2.300000X2.775000*%
%ADD24R,2.300000X1.575000*%
%ADD25R,2.300000X1.547000*%
%ADD26R,1.780000X0.781000*%
%ADD27R,2.100000X2.100000*%
%ADD28O,2.100000X2.100000*%
%ADD29R,1.200000X1.300000*%
%ADD30R,1.900000X1.900000*%
%ADD31R,1.797000X1.797000*%
%ADD32R,1.924000X1.924000*%
G04 APERTURE END LIST*
D10*
D11*
X87564000Y-119634000D03*
X85664000Y-119634000D03*
D12*
X92202000Y-115631000D03*
X92202000Y-113731000D03*
D13*
X85110000Y-121412000D03*
X87610000Y-121412000D03*
D12*
X92202000Y-109921000D03*
X92202000Y-111821000D03*
D11*
X95316000Y-122428000D03*
X97216000Y-122428000D03*
D12*
X85217000Y-115636000D03*
X85217000Y-117536000D03*
D11*
X97216000Y-125222000D03*
X95316000Y-125222000D03*
D12*
X89916000Y-104074000D03*
X89916000Y-102174000D03*
X107950000Y-116456500D03*
X107950000Y-114556500D03*
D14*
X89408000Y-109898000D03*
X89408000Y-112098000D03*
D15*
X99398000Y-103632000D03*
X97198000Y-103632000D03*
X92286000Y-128778000D03*
X90086000Y-128778000D03*
X92286000Y-126746000D03*
X90086000Y-126746000D03*
D14*
X102108000Y-131910000D03*
X102108000Y-129710000D03*
X83947000Y-135529500D03*
X83947000Y-133329500D03*
X106172000Y-131910000D03*
X106172000Y-129710000D03*
X108204000Y-131910000D03*
X108204000Y-129710000D03*
X88392000Y-102278000D03*
X88392000Y-104478000D03*
X91440000Y-104478000D03*
X91440000Y-102278000D03*
D15*
X110406000Y-94742000D03*
X112606000Y-94742000D03*
X104564000Y-95504000D03*
X106764000Y-95504000D03*
D16*
X86215000Y-134239000D03*
X95395000Y-134239000D03*
D17*
X94328000Y-126812000D03*
X94328000Y-127762000D03*
X94328000Y-128712000D03*
X97028000Y-128712000D03*
X97028000Y-126812000D03*
X97028000Y-127762000D03*
D18*
X106572500Y-117062000D03*
X106072500Y-117062000D03*
X105572500Y-117062000D03*
X105072500Y-117062000D03*
X104572500Y-117062000D03*
X104072500Y-117062000D03*
X103572500Y-117062000D03*
X103072500Y-117062000D03*
X102572500Y-117062000D03*
X102072500Y-117062000D03*
X101572500Y-117062000D03*
X101072500Y-117062000D03*
D19*
X99472500Y-118662000D03*
X99472500Y-119162000D03*
X99472500Y-119662000D03*
X99472500Y-120162000D03*
X99472500Y-120662000D03*
X99472500Y-121162000D03*
X99472500Y-121662000D03*
X99472500Y-122162000D03*
X99472500Y-122662000D03*
X99472500Y-123162000D03*
X99472500Y-123662000D03*
X99472500Y-124162000D03*
D18*
X101072500Y-125762000D03*
X101572500Y-125762000D03*
X102072500Y-125762000D03*
X102572500Y-125762000D03*
X103072500Y-125762000D03*
X103572500Y-125762000D03*
X104072500Y-125762000D03*
X104572500Y-125762000D03*
X105072500Y-125762000D03*
X105572500Y-125762000D03*
X106072500Y-125762000D03*
X106572500Y-125762000D03*
D19*
X108172500Y-124162000D03*
X108172500Y-123662000D03*
X108172500Y-123162000D03*
X108172500Y-122662000D03*
X108172500Y-122162000D03*
X108172500Y-121662000D03*
X108172500Y-121162000D03*
X108172500Y-120662000D03*
X108172500Y-120162000D03*
X108172500Y-119662000D03*
X108172500Y-119162000D03*
X108172500Y-118662000D03*
D20*
X95758000Y-116772000D03*
X95758000Y-108272000D03*
D15*
X99398000Y-99314000D03*
X97198000Y-99314000D03*
D14*
X109664500Y-116606500D03*
X109664500Y-114406500D03*
D21*
X90424000Y-124174000D03*
X90424000Y-120174000D03*
D22*
X87188000Y-117686000D03*
X88138000Y-117686000D03*
X89088000Y-117686000D03*
X89088000Y-115486000D03*
X87188000Y-115486000D03*
D23*
X83312000Y-125095000D03*
X83312000Y-131191000D03*
D24*
X83312000Y-127254000D03*
X83312000Y-129032000D03*
D25*
X85471000Y-125730000D03*
X85471000Y-130556000D03*
D26*
X85725000Y-126873000D03*
X85725000Y-127508000D03*
X85725000Y-128143000D03*
X85725000Y-128778000D03*
X85725000Y-129413000D03*
D16*
X85326000Y-98298000D03*
X94506000Y-98298000D03*
D27*
X108712000Y-134366000D03*
D28*
X106172000Y-134366000D03*
X103632000Y-134366000D03*
X101092000Y-134366000D03*
X98552000Y-134366000D03*
D29*
X109286000Y-98774000D03*
X111186000Y-98774000D03*
X110236000Y-96774000D03*
D14*
X107696000Y-98722000D03*
X107696000Y-100922000D03*
D12*
X83693000Y-115636000D03*
X83693000Y-117536000D03*
D11*
X106614000Y-93980000D03*
X104714000Y-93980000D03*
D30*
X87122000Y-113410000D03*
X87122000Y-110110000D03*
X100202000Y-101600000D03*
X96902000Y-101600000D03*
X109474000Y-101092000D03*
X100076000Y-94488000D03*
D11*
X107508000Y-127508000D03*
X109408000Y-127508000D03*
D15*
X97302500Y-120904000D03*
X95102500Y-120904000D03*
D14*
X104140000Y-131910000D03*
X104140000Y-129710000D03*
D15*
X90086000Y-130429000D03*
X92286000Y-130429000D03*
D12*
X106553000Y-115250000D03*
X106553000Y-113350000D03*
D31*
X113030000Y-91567000D03*
X109220000Y-91567000D03*
D32*
X104775000Y-91630500D03*
X100203000Y-91630500D03*
M02*
