G04 #@! TF.FileFunction,Copper,L2,Bot,Signal*
%FSLAX45Y45*%
G04 Gerber Fmt 4.5, Leading zero omitted, Abs format (unit mm)*
G04 Created by KiCad (PCBNEW 4.0.6) date Sun Nov 12 15:14:38 2017*
%MOMM*%
%LPD*%
G01*
G04 APERTURE LIST*
%ADD10C,0.050000*%
%ADD11C,3.500000*%
%ADD12C,3.000000*%
%ADD13C,0.762000*%
%ADD14R,1.700000X1.700000*%
%ADD15O,1.700000X1.700000*%
%ADD16C,0.635000*%
%ADD17C,0.279400*%
%ADD18C,0.228600*%
%ADD19C,0.254000*%
G04 APERTURE END LIST*
D10*
D11*
X10204450Y-11226800D03*
D12*
X11226800Y-10287000D03*
D13*
X9423400Y-11201400D03*
X9779000Y-11201400D03*
X9779000Y-10845800D03*
X10007600Y-12573000D03*
X9893300Y-12611100D03*
X9664700Y-9232900D03*
X8782050Y-9232900D03*
X8712200Y-12573000D03*
X8356600Y-12065000D03*
X8356600Y-12280900D03*
X8242300Y-12065000D03*
X8242300Y-11861800D03*
X8242300Y-11696700D03*
X8242300Y-12280900D03*
X8242300Y-11480800D03*
X8242300Y-10756900D03*
X8242300Y-9994900D03*
X8242300Y-9232900D03*
X10172700Y-9880600D03*
X10350500Y-9880600D03*
X10350500Y-9664700D03*
X10172700Y-9664700D03*
X10185400Y-9359900D03*
X10325100Y-9359900D03*
X10655300Y-9207500D03*
X10655300Y-9080500D03*
X11252200Y-9791700D03*
X9093200Y-11557000D03*
X8724900Y-10668000D03*
X9093200Y-10668000D03*
X8813800Y-11645900D03*
X9093200Y-11734800D03*
X9093200Y-11379200D03*
X9093200Y-11188700D03*
X9207500Y-12077700D03*
X9207500Y-12242800D03*
X9982200Y-11620500D03*
X9982200Y-11760200D03*
X9766300Y-11760200D03*
X9766300Y-11925300D03*
X10566400Y-12331700D03*
X10439400Y-12331700D03*
X10312400Y-12331700D03*
X10185400Y-12331700D03*
X10566400Y-12204700D03*
X10439400Y-12204700D03*
X10312400Y-12204700D03*
X10185400Y-12204700D03*
X10566400Y-12077700D03*
X10439400Y-12077700D03*
X10312400Y-12077700D03*
X10185400Y-12077700D03*
X9893300Y-12509500D03*
X9220200Y-12509500D03*
X8839200Y-12446000D03*
X8712200Y-12446000D03*
X8737600Y-13157200D03*
X10972800Y-12877800D03*
X11099800Y-12750800D03*
X10972800Y-12623800D03*
X9728200Y-13030200D03*
X9575800Y-13030200D03*
X9423400Y-13030200D03*
X10058400Y-12915900D03*
X10490200Y-13792200D03*
X9779000Y-13792200D03*
X9017000Y-13792200D03*
X8255000Y-13792200D03*
X8255000Y-13335000D03*
X11379200Y-13131800D03*
X11379200Y-12750800D03*
X11379200Y-12369800D03*
X11379200Y-11607800D03*
X11214100Y-11988800D03*
X11214100Y-11607800D03*
X11379200Y-10845800D03*
X11214100Y-11226800D03*
X11188700Y-10845800D03*
X10871200Y-11201400D03*
X10972800Y-11328400D03*
X10795000Y-11328400D03*
X10668000Y-11201400D03*
X10541000Y-11328400D03*
X10464800Y-10845800D03*
X10083800Y-10845800D03*
X11252200Y-9918700D03*
X10871200Y-10515600D03*
X10464800Y-10515600D03*
X10083800Y-10515600D03*
X9702800Y-10515600D03*
D14*
X10871200Y-13436600D03*
D15*
X10617200Y-13436600D03*
X10363200Y-13436600D03*
X10109200Y-13436600D03*
X9855200Y-13436600D03*
D13*
X9321800Y-10515600D03*
D12*
X11226800Y-13652500D03*
X8528050Y-9169400D03*
D13*
X9220200Y-13157200D03*
X10439400Y-11925300D03*
X10350499Y-11925300D03*
X10528300Y-11925300D03*
X10261600Y-11925300D03*
X9702800Y-12344400D03*
X9791700Y-12344400D03*
X8547099Y-11417300D03*
X8547099Y-11328400D03*
X8458200Y-11417300D03*
X8458200Y-11328400D03*
X8369300Y-11328400D03*
X8369300Y-11417300D03*
X8470900Y-9969500D03*
X8369300Y-9956800D03*
X8369300Y-9855200D03*
X8369300Y-9766300D03*
X10795000Y-9182100D03*
X10795000Y-9309100D03*
X10795000Y-9436100D03*
X10795000Y-9550400D03*
X10083800Y-13030200D03*
X10363200Y-11823700D03*
D16*
X10033000Y-13309600D02*
X10109200Y-13385800D01*
X10109200Y-13385800D02*
X10109200Y-13436600D01*
X8458200Y-12293600D02*
X8458200Y-12331700D01*
X8458200Y-12331700D02*
X8458200Y-12725400D01*
X9702800Y-12344400D02*
X8470900Y-12344400D01*
X8470900Y-12344400D02*
X8458200Y-12331700D01*
X9994900Y-13271500D02*
X10033000Y-13309600D01*
X9880600Y-13157200D02*
X9994900Y-13271500D01*
X9220200Y-13157200D02*
X9880600Y-13157200D01*
X8890000Y-13157200D02*
X9220200Y-13157200D01*
X8458200Y-12725400D02*
X8890000Y-13157200D01*
X8458200Y-11417300D02*
X8458200Y-12293600D01*
X9702800Y-12290518D02*
X10068019Y-11925300D01*
X9702800Y-12344400D02*
X9702800Y-12290518D01*
X10068019Y-11925300D02*
X10261600Y-11925300D01*
X9702800Y-12344400D02*
X9791700Y-12344400D01*
D17*
X8369300Y-11417300D02*
X8369300Y-11328400D01*
D16*
X8470900Y-9969500D02*
X8382000Y-9969500D01*
X8382000Y-9969500D02*
X8369300Y-9956800D01*
X8369300Y-9956800D02*
X8369300Y-9855200D01*
X8369300Y-9855200D02*
X8369300Y-9766300D01*
X8369300Y-9766300D02*
X8369300Y-9766300D01*
X8423181Y-9766300D02*
X8369300Y-9766300D01*
X10579100Y-9766300D02*
X8423181Y-9766300D01*
X10795000Y-9550400D02*
X10579100Y-9766300D01*
X10795000Y-9436100D02*
X10795000Y-9550400D01*
X10795000Y-9182100D02*
X10795000Y-9309100D01*
X10795000Y-9382219D02*
X10795000Y-9309100D01*
X10795000Y-9436100D02*
X10795000Y-9382219D01*
D18*
X10363200Y-11823700D02*
X10744200Y-11823700D01*
X10744200Y-11823700D02*
X10820400Y-11899900D01*
X10820400Y-11899900D02*
X10820400Y-12649200D01*
X10820400Y-12649200D02*
X10439400Y-13030200D01*
X10439400Y-13030200D02*
X10083800Y-13030200D01*
D19*
G36*
X8368680Y-9062711D02*
X8339983Y-9131820D01*
X8339917Y-9206651D01*
X8368494Y-9275811D01*
X8421361Y-9328770D01*
X8490470Y-9357467D01*
X8565301Y-9357533D01*
X8634461Y-9328956D01*
X8687420Y-9276089D01*
X8716117Y-9206980D01*
X8716183Y-9132149D01*
X8687606Y-9062989D01*
X8636507Y-9011800D01*
X10170487Y-9011800D01*
X10149561Y-9020447D01*
X10100120Y-9069801D01*
X10073331Y-9134318D01*
X10073270Y-9204176D01*
X10099947Y-9268740D01*
X10149301Y-9318180D01*
X10213818Y-9344969D01*
X10283676Y-9345030D01*
X10348240Y-9318353D01*
X10397680Y-9268999D01*
X10424469Y-9204482D01*
X10424530Y-9134624D01*
X10397853Y-9070061D01*
X10348499Y-9020620D01*
X10327257Y-9011800D01*
X11435200Y-9011800D01*
X11435200Y-13868400D01*
X8191500Y-13868400D01*
X8191500Y-13689751D01*
X11038667Y-13689751D01*
X11067244Y-13758911D01*
X11120111Y-13811870D01*
X11189220Y-13840567D01*
X11264051Y-13840633D01*
X11333211Y-13812056D01*
X11386170Y-13759189D01*
X11414867Y-13690080D01*
X11414933Y-13615249D01*
X11386356Y-13546089D01*
X11333489Y-13493130D01*
X11264380Y-13464433D01*
X11189549Y-13464367D01*
X11120389Y-13492944D01*
X11067430Y-13545811D01*
X11038733Y-13614920D01*
X11038667Y-13689751D01*
X8191500Y-13689751D01*
X8191500Y-13472289D01*
X9711051Y-13472289D01*
X9735682Y-13524736D01*
X9778508Y-13563764D01*
X9819511Y-13580748D01*
X9842500Y-13568615D01*
X9842500Y-13449300D01*
X9723118Y-13449300D01*
X9711051Y-13472289D01*
X8191500Y-13472289D01*
X8191500Y-13400911D01*
X9711051Y-13400911D01*
X9723118Y-13423900D01*
X9842500Y-13423900D01*
X9842500Y-13304584D01*
X9819511Y-13292452D01*
X9778508Y-13309435D01*
X9735682Y-13348464D01*
X9711051Y-13400911D01*
X8191500Y-13400911D01*
X8191500Y-11264900D01*
X8280400Y-11264900D01*
X8280400Y-11480800D01*
X8283006Y-11494648D01*
X8291190Y-11507366D01*
X8303677Y-11515898D01*
X8318500Y-11518900D01*
X8388350Y-11518900D01*
X8388350Y-12725400D01*
X8393667Y-12752130D01*
X8408809Y-12774791D01*
X8840609Y-13206591D01*
X8863270Y-13221733D01*
X8890000Y-13227050D01*
X9189716Y-13227050D01*
X9204976Y-13233387D01*
X9235291Y-13233413D01*
X9250691Y-13227050D01*
X9851667Y-13227050D01*
X9956257Y-13331640D01*
X9931892Y-13309435D01*
X9890889Y-13292452D01*
X9867900Y-13304584D01*
X9867900Y-13423900D01*
X9869900Y-13423900D01*
X9869900Y-13449300D01*
X9867900Y-13449300D01*
X9867900Y-13568615D01*
X9890889Y-13580748D01*
X9931892Y-13563764D01*
X9974718Y-13524736D01*
X9994692Y-13482205D01*
X9995470Y-13486120D01*
X10022155Y-13526056D01*
X10062092Y-13552741D01*
X10109200Y-13562112D01*
X10134125Y-13557154D01*
X10134600Y-13557250D01*
X10338759Y-13557250D01*
X10363200Y-13562112D01*
X10387642Y-13557250D01*
X10592759Y-13557250D01*
X10617200Y-13562112D01*
X10641642Y-13557250D01*
X10770888Y-13557250D01*
X10771087Y-13557386D01*
X10786200Y-13560446D01*
X10956200Y-13560446D01*
X10970319Y-13557790D01*
X10971158Y-13557250D01*
X10979150Y-13557250D01*
X10983766Y-13556381D01*
X10988005Y-13553653D01*
X10990849Y-13549491D01*
X10991850Y-13544550D01*
X10991850Y-13536912D01*
X10991986Y-13536713D01*
X10995046Y-13521600D01*
X10995046Y-13351600D01*
X10992390Y-13337481D01*
X10991850Y-13336642D01*
X10991850Y-13335000D01*
X10990982Y-13330384D01*
X10988254Y-13326145D01*
X10984091Y-13323301D01*
X10981503Y-13322777D01*
X10971313Y-13315814D01*
X10956200Y-13312754D01*
X10786200Y-13312754D01*
X10772081Y-13315410D01*
X10761374Y-13322300D01*
X10667064Y-13322300D01*
X10664308Y-13320459D01*
X10617200Y-13311088D01*
X10570092Y-13320459D01*
X10567336Y-13322300D01*
X10413064Y-13322300D01*
X10410308Y-13320459D01*
X10363200Y-13311088D01*
X10316092Y-13320459D01*
X10313336Y-13322300D01*
X10159064Y-13322300D01*
X10156308Y-13320459D01*
X10139248Y-13317065D01*
X9929991Y-13107809D01*
X9907331Y-13092667D01*
X9880600Y-13087350D01*
X9250684Y-13087350D01*
X9235424Y-13081013D01*
X9205109Y-13080987D01*
X9189709Y-13087350D01*
X8918933Y-13087350D01*
X8528050Y-12696467D01*
X8528050Y-12414250D01*
X9672316Y-12414250D01*
X9687576Y-12420587D01*
X9717891Y-12420613D01*
X9733291Y-12414250D01*
X9761216Y-12414250D01*
X9776476Y-12420587D01*
X9806791Y-12420613D01*
X9834807Y-12409037D01*
X9856262Y-12387620D01*
X9867887Y-12359624D01*
X9867913Y-12329309D01*
X9856337Y-12301293D01*
X9834920Y-12279838D01*
X9818911Y-12273191D01*
X10096951Y-11995150D01*
X10203777Y-11995150D01*
X10208677Y-11998498D01*
X10223500Y-12001500D01*
X10261591Y-12001500D01*
X10276691Y-12001513D01*
X10276723Y-12001500D01*
X10350490Y-12001500D01*
X10365590Y-12001513D01*
X10365622Y-12001500D01*
X10439391Y-12001500D01*
X10454491Y-12001513D01*
X10454523Y-12001500D01*
X10528290Y-12001500D01*
X10543390Y-12001513D01*
X10543422Y-12001500D01*
X10566400Y-12001500D01*
X10580248Y-11998894D01*
X10592966Y-11990710D01*
X10601498Y-11978223D01*
X10604500Y-11963400D01*
X10604500Y-11924852D01*
X10604513Y-11910209D01*
X10604500Y-11910178D01*
X10604500Y-11887200D01*
X10601894Y-11873352D01*
X10601816Y-11873230D01*
X10723684Y-11873230D01*
X10770870Y-11920416D01*
X10770870Y-12628684D01*
X10418884Y-12980670D01*
X10142025Y-12980670D01*
X10127020Y-12965638D01*
X10099024Y-12954013D01*
X10068709Y-12953987D01*
X10040693Y-12965563D01*
X10019239Y-12986980D01*
X10007613Y-13014976D01*
X10007587Y-13045291D01*
X10019163Y-13073307D01*
X10040580Y-13094761D01*
X10068576Y-13106387D01*
X10098891Y-13106413D01*
X10126907Y-13094837D01*
X10142041Y-13079730D01*
X10439400Y-13079730D01*
X10458354Y-13075960D01*
X10474423Y-13065223D01*
X10855423Y-12684223D01*
X10866160Y-12668154D01*
X10869930Y-12649200D01*
X10869930Y-11899900D01*
X10866160Y-11880946D01*
X10855423Y-11864877D01*
X10779223Y-11788677D01*
X10763154Y-11777940D01*
X10744200Y-11774170D01*
X10421425Y-11774170D01*
X10406420Y-11759138D01*
X10378424Y-11747513D01*
X10348109Y-11747487D01*
X10320093Y-11759063D01*
X10298639Y-11780480D01*
X10287013Y-11808476D01*
X10286987Y-11838791D01*
X10291247Y-11849100D01*
X10261609Y-11849100D01*
X10246509Y-11849087D01*
X10246478Y-11849100D01*
X10223500Y-11849100D01*
X10209652Y-11851706D01*
X10203833Y-11855450D01*
X10068019Y-11855450D01*
X10041288Y-11860767D01*
X10018627Y-11875909D01*
X9653409Y-12241127D01*
X9638267Y-12263788D01*
X9637595Y-12267167D01*
X9636126Y-12274550D01*
X8528050Y-12274550D01*
X8528050Y-11518900D01*
X8610600Y-11518900D01*
X8624448Y-11516294D01*
X8637166Y-11508110D01*
X8645698Y-11495623D01*
X8648700Y-11480800D01*
X8648700Y-11264900D01*
X8646094Y-11251052D01*
X8637910Y-11238334D01*
X8625423Y-11229802D01*
X8610600Y-11226800D01*
X8318500Y-11226800D01*
X8304652Y-11229406D01*
X8291934Y-11237590D01*
X8283402Y-11250077D01*
X8280400Y-11264900D01*
X8191500Y-11264900D01*
X8191500Y-10998200D01*
X9969500Y-10998200D01*
X9969500Y-11455400D01*
X9970369Y-11460016D01*
X9973097Y-11464255D01*
X9977259Y-11467099D01*
X9982200Y-11468100D01*
X10439400Y-11468100D01*
X10444016Y-11467231D01*
X10448255Y-11464503D01*
X10451099Y-11460341D01*
X10452100Y-11455400D01*
X10452100Y-10998200D01*
X10451232Y-10993584D01*
X10448504Y-10989345D01*
X10444341Y-10986501D01*
X10439400Y-10985500D01*
X9982200Y-10985500D01*
X9977584Y-10986369D01*
X9973345Y-10989097D01*
X9970501Y-10993259D01*
X9969500Y-10998200D01*
X8191500Y-10998200D01*
X8191500Y-10324251D01*
X11038667Y-10324251D01*
X11067244Y-10393411D01*
X11120111Y-10446370D01*
X11189220Y-10475067D01*
X11264051Y-10475133D01*
X11333211Y-10446556D01*
X11386170Y-10393689D01*
X11414867Y-10324580D01*
X11414933Y-10249749D01*
X11386356Y-10180589D01*
X11333489Y-10127630D01*
X11264380Y-10098933D01*
X11189549Y-10098867D01*
X11120389Y-10127444D01*
X11067430Y-10180311D01*
X11038733Y-10249420D01*
X11038667Y-10324251D01*
X8191500Y-10324251D01*
X8191500Y-9715500D01*
X8280400Y-9715500D01*
X8280400Y-10020300D01*
X8283006Y-10034148D01*
X8291190Y-10046866D01*
X8303677Y-10055398D01*
X8318500Y-10058400D01*
X8547100Y-10058400D01*
X8560948Y-10055794D01*
X8573666Y-10047610D01*
X8582198Y-10035123D01*
X8585200Y-10020300D01*
X8585200Y-9836150D01*
X10579100Y-9836150D01*
X10605831Y-9830833D01*
X10628491Y-9815691D01*
X10822836Y-9621347D01*
X10838107Y-9615037D01*
X10859562Y-9593620D01*
X10871187Y-9565624D01*
X10871213Y-9535309D01*
X10864850Y-9519909D01*
X10864850Y-9466584D01*
X10871187Y-9451324D01*
X10871213Y-9421009D01*
X10864850Y-9405609D01*
X10864850Y-9339584D01*
X10871187Y-9324324D01*
X10871213Y-9294009D01*
X10864850Y-9278609D01*
X10864850Y-9212584D01*
X10871187Y-9197324D01*
X10871187Y-9196749D01*
X10974376Y-9196749D01*
X10995356Y-9247525D01*
X11034171Y-9286407D01*
X11084910Y-9307476D01*
X11139849Y-9307524D01*
X11190625Y-9286544D01*
X11229507Y-9247730D01*
X11250576Y-9196990D01*
X11250624Y-9142051D01*
X11229644Y-9091275D01*
X11190829Y-9052393D01*
X11140090Y-9031324D01*
X11085151Y-9031276D01*
X11034375Y-9052256D01*
X10995493Y-9091071D01*
X10974424Y-9141810D01*
X10974376Y-9196749D01*
X10871187Y-9196749D01*
X10871213Y-9167009D01*
X10859637Y-9138993D01*
X10838220Y-9117539D01*
X10810224Y-9105913D01*
X10779909Y-9105887D01*
X10751893Y-9117463D01*
X10730439Y-9138880D01*
X10718813Y-9166876D01*
X10718787Y-9197191D01*
X10725150Y-9212591D01*
X10725150Y-9278616D01*
X10718813Y-9293876D01*
X10718787Y-9324191D01*
X10725150Y-9339591D01*
X10725150Y-9405616D01*
X10718813Y-9420876D01*
X10718787Y-9451191D01*
X10725150Y-9466591D01*
X10725150Y-9519916D01*
X10724049Y-9522569D01*
X10550167Y-9696450D01*
X8579247Y-9696450D01*
X8574410Y-9688934D01*
X8561923Y-9680402D01*
X8547100Y-9677400D01*
X8318500Y-9677400D01*
X8304652Y-9680006D01*
X8291934Y-9688190D01*
X8283402Y-9700677D01*
X8280400Y-9715500D01*
X8191500Y-9715500D01*
X8191500Y-9011800D01*
X8419679Y-9011800D01*
X8368680Y-9062711D01*
X8368680Y-9062711D01*
G37*
X8368680Y-9062711D02*
X8339983Y-9131820D01*
X8339917Y-9206651D01*
X8368494Y-9275811D01*
X8421361Y-9328770D01*
X8490470Y-9357467D01*
X8565301Y-9357533D01*
X8634461Y-9328956D01*
X8687420Y-9276089D01*
X8716117Y-9206980D01*
X8716183Y-9132149D01*
X8687606Y-9062989D01*
X8636507Y-9011800D01*
X10170487Y-9011800D01*
X10149561Y-9020447D01*
X10100120Y-9069801D01*
X10073331Y-9134318D01*
X10073270Y-9204176D01*
X10099947Y-9268740D01*
X10149301Y-9318180D01*
X10213818Y-9344969D01*
X10283676Y-9345030D01*
X10348240Y-9318353D01*
X10397680Y-9268999D01*
X10424469Y-9204482D01*
X10424530Y-9134624D01*
X10397853Y-9070061D01*
X10348499Y-9020620D01*
X10327257Y-9011800D01*
X11435200Y-9011800D01*
X11435200Y-13868400D01*
X8191500Y-13868400D01*
X8191500Y-13689751D01*
X11038667Y-13689751D01*
X11067244Y-13758911D01*
X11120111Y-13811870D01*
X11189220Y-13840567D01*
X11264051Y-13840633D01*
X11333211Y-13812056D01*
X11386170Y-13759189D01*
X11414867Y-13690080D01*
X11414933Y-13615249D01*
X11386356Y-13546089D01*
X11333489Y-13493130D01*
X11264380Y-13464433D01*
X11189549Y-13464367D01*
X11120389Y-13492944D01*
X11067430Y-13545811D01*
X11038733Y-13614920D01*
X11038667Y-13689751D01*
X8191500Y-13689751D01*
X8191500Y-13472289D01*
X9711051Y-13472289D01*
X9735682Y-13524736D01*
X9778508Y-13563764D01*
X9819511Y-13580748D01*
X9842500Y-13568615D01*
X9842500Y-13449300D01*
X9723118Y-13449300D01*
X9711051Y-13472289D01*
X8191500Y-13472289D01*
X8191500Y-13400911D01*
X9711051Y-13400911D01*
X9723118Y-13423900D01*
X9842500Y-13423900D01*
X9842500Y-13304584D01*
X9819511Y-13292452D01*
X9778508Y-13309435D01*
X9735682Y-13348464D01*
X9711051Y-13400911D01*
X8191500Y-13400911D01*
X8191500Y-11264900D01*
X8280400Y-11264900D01*
X8280400Y-11480800D01*
X8283006Y-11494648D01*
X8291190Y-11507366D01*
X8303677Y-11515898D01*
X8318500Y-11518900D01*
X8388350Y-11518900D01*
X8388350Y-12725400D01*
X8393667Y-12752130D01*
X8408809Y-12774791D01*
X8840609Y-13206591D01*
X8863270Y-13221733D01*
X8890000Y-13227050D01*
X9189716Y-13227050D01*
X9204976Y-13233387D01*
X9235291Y-13233413D01*
X9250691Y-13227050D01*
X9851667Y-13227050D01*
X9956257Y-13331640D01*
X9931892Y-13309435D01*
X9890889Y-13292452D01*
X9867900Y-13304584D01*
X9867900Y-13423900D01*
X9869900Y-13423900D01*
X9869900Y-13449300D01*
X9867900Y-13449300D01*
X9867900Y-13568615D01*
X9890889Y-13580748D01*
X9931892Y-13563764D01*
X9974718Y-13524736D01*
X9994692Y-13482205D01*
X9995470Y-13486120D01*
X10022155Y-13526056D01*
X10062092Y-13552741D01*
X10109200Y-13562112D01*
X10134125Y-13557154D01*
X10134600Y-13557250D01*
X10338759Y-13557250D01*
X10363200Y-13562112D01*
X10387642Y-13557250D01*
X10592759Y-13557250D01*
X10617200Y-13562112D01*
X10641642Y-13557250D01*
X10770888Y-13557250D01*
X10771087Y-13557386D01*
X10786200Y-13560446D01*
X10956200Y-13560446D01*
X10970319Y-13557790D01*
X10971158Y-13557250D01*
X10979150Y-13557250D01*
X10983766Y-13556381D01*
X10988005Y-13553653D01*
X10990849Y-13549491D01*
X10991850Y-13544550D01*
X10991850Y-13536912D01*
X10991986Y-13536713D01*
X10995046Y-13521600D01*
X10995046Y-13351600D01*
X10992390Y-13337481D01*
X10991850Y-13336642D01*
X10991850Y-13335000D01*
X10990982Y-13330384D01*
X10988254Y-13326145D01*
X10984091Y-13323301D01*
X10981503Y-13322777D01*
X10971313Y-13315814D01*
X10956200Y-13312754D01*
X10786200Y-13312754D01*
X10772081Y-13315410D01*
X10761374Y-13322300D01*
X10667064Y-13322300D01*
X10664308Y-13320459D01*
X10617200Y-13311088D01*
X10570092Y-13320459D01*
X10567336Y-13322300D01*
X10413064Y-13322300D01*
X10410308Y-13320459D01*
X10363200Y-13311088D01*
X10316092Y-13320459D01*
X10313336Y-13322300D01*
X10159064Y-13322300D01*
X10156308Y-13320459D01*
X10139248Y-13317065D01*
X9929991Y-13107809D01*
X9907331Y-13092667D01*
X9880600Y-13087350D01*
X9250684Y-13087350D01*
X9235424Y-13081013D01*
X9205109Y-13080987D01*
X9189709Y-13087350D01*
X8918933Y-13087350D01*
X8528050Y-12696467D01*
X8528050Y-12414250D01*
X9672316Y-12414250D01*
X9687576Y-12420587D01*
X9717891Y-12420613D01*
X9733291Y-12414250D01*
X9761216Y-12414250D01*
X9776476Y-12420587D01*
X9806791Y-12420613D01*
X9834807Y-12409037D01*
X9856262Y-12387620D01*
X9867887Y-12359624D01*
X9867913Y-12329309D01*
X9856337Y-12301293D01*
X9834920Y-12279838D01*
X9818911Y-12273191D01*
X10096951Y-11995150D01*
X10203777Y-11995150D01*
X10208677Y-11998498D01*
X10223500Y-12001500D01*
X10261591Y-12001500D01*
X10276691Y-12001513D01*
X10276723Y-12001500D01*
X10350490Y-12001500D01*
X10365590Y-12001513D01*
X10365622Y-12001500D01*
X10439391Y-12001500D01*
X10454491Y-12001513D01*
X10454523Y-12001500D01*
X10528290Y-12001500D01*
X10543390Y-12001513D01*
X10543422Y-12001500D01*
X10566400Y-12001500D01*
X10580248Y-11998894D01*
X10592966Y-11990710D01*
X10601498Y-11978223D01*
X10604500Y-11963400D01*
X10604500Y-11924852D01*
X10604513Y-11910209D01*
X10604500Y-11910178D01*
X10604500Y-11887200D01*
X10601894Y-11873352D01*
X10601816Y-11873230D01*
X10723684Y-11873230D01*
X10770870Y-11920416D01*
X10770870Y-12628684D01*
X10418884Y-12980670D01*
X10142025Y-12980670D01*
X10127020Y-12965638D01*
X10099024Y-12954013D01*
X10068709Y-12953987D01*
X10040693Y-12965563D01*
X10019239Y-12986980D01*
X10007613Y-13014976D01*
X10007587Y-13045291D01*
X10019163Y-13073307D01*
X10040580Y-13094761D01*
X10068576Y-13106387D01*
X10098891Y-13106413D01*
X10126907Y-13094837D01*
X10142041Y-13079730D01*
X10439400Y-13079730D01*
X10458354Y-13075960D01*
X10474423Y-13065223D01*
X10855423Y-12684223D01*
X10866160Y-12668154D01*
X10869930Y-12649200D01*
X10869930Y-11899900D01*
X10866160Y-11880946D01*
X10855423Y-11864877D01*
X10779223Y-11788677D01*
X10763154Y-11777940D01*
X10744200Y-11774170D01*
X10421425Y-11774170D01*
X10406420Y-11759138D01*
X10378424Y-11747513D01*
X10348109Y-11747487D01*
X10320093Y-11759063D01*
X10298639Y-11780480D01*
X10287013Y-11808476D01*
X10286987Y-11838791D01*
X10291247Y-11849100D01*
X10261609Y-11849100D01*
X10246509Y-11849087D01*
X10246478Y-11849100D01*
X10223500Y-11849100D01*
X10209652Y-11851706D01*
X10203833Y-11855450D01*
X10068019Y-11855450D01*
X10041288Y-11860767D01*
X10018627Y-11875909D01*
X9653409Y-12241127D01*
X9638267Y-12263788D01*
X9637595Y-12267167D01*
X9636126Y-12274550D01*
X8528050Y-12274550D01*
X8528050Y-11518900D01*
X8610600Y-11518900D01*
X8624448Y-11516294D01*
X8637166Y-11508110D01*
X8645698Y-11495623D01*
X8648700Y-11480800D01*
X8648700Y-11264900D01*
X8646094Y-11251052D01*
X8637910Y-11238334D01*
X8625423Y-11229802D01*
X8610600Y-11226800D01*
X8318500Y-11226800D01*
X8304652Y-11229406D01*
X8291934Y-11237590D01*
X8283402Y-11250077D01*
X8280400Y-11264900D01*
X8191500Y-11264900D01*
X8191500Y-10998200D01*
X9969500Y-10998200D01*
X9969500Y-11455400D01*
X9970369Y-11460016D01*
X9973097Y-11464255D01*
X9977259Y-11467099D01*
X9982200Y-11468100D01*
X10439400Y-11468100D01*
X10444016Y-11467231D01*
X10448255Y-11464503D01*
X10451099Y-11460341D01*
X10452100Y-11455400D01*
X10452100Y-10998200D01*
X10451232Y-10993584D01*
X10448504Y-10989345D01*
X10444341Y-10986501D01*
X10439400Y-10985500D01*
X9982200Y-10985500D01*
X9977584Y-10986369D01*
X9973345Y-10989097D01*
X9970501Y-10993259D01*
X9969500Y-10998200D01*
X8191500Y-10998200D01*
X8191500Y-10324251D01*
X11038667Y-10324251D01*
X11067244Y-10393411D01*
X11120111Y-10446370D01*
X11189220Y-10475067D01*
X11264051Y-10475133D01*
X11333211Y-10446556D01*
X11386170Y-10393689D01*
X11414867Y-10324580D01*
X11414933Y-10249749D01*
X11386356Y-10180589D01*
X11333489Y-10127630D01*
X11264380Y-10098933D01*
X11189549Y-10098867D01*
X11120389Y-10127444D01*
X11067430Y-10180311D01*
X11038733Y-10249420D01*
X11038667Y-10324251D01*
X8191500Y-10324251D01*
X8191500Y-9715500D01*
X8280400Y-9715500D01*
X8280400Y-10020300D01*
X8283006Y-10034148D01*
X8291190Y-10046866D01*
X8303677Y-10055398D01*
X8318500Y-10058400D01*
X8547100Y-10058400D01*
X8560948Y-10055794D01*
X8573666Y-10047610D01*
X8582198Y-10035123D01*
X8585200Y-10020300D01*
X8585200Y-9836150D01*
X10579100Y-9836150D01*
X10605831Y-9830833D01*
X10628491Y-9815691D01*
X10822836Y-9621347D01*
X10838107Y-9615037D01*
X10859562Y-9593620D01*
X10871187Y-9565624D01*
X10871213Y-9535309D01*
X10864850Y-9519909D01*
X10864850Y-9466584D01*
X10871187Y-9451324D01*
X10871213Y-9421009D01*
X10864850Y-9405609D01*
X10864850Y-9339584D01*
X10871187Y-9324324D01*
X10871213Y-9294009D01*
X10864850Y-9278609D01*
X10864850Y-9212584D01*
X10871187Y-9197324D01*
X10871187Y-9196749D01*
X10974376Y-9196749D01*
X10995356Y-9247525D01*
X11034171Y-9286407D01*
X11084910Y-9307476D01*
X11139849Y-9307524D01*
X11190625Y-9286544D01*
X11229507Y-9247730D01*
X11250576Y-9196990D01*
X11250624Y-9142051D01*
X11229644Y-9091275D01*
X11190829Y-9052393D01*
X11140090Y-9031324D01*
X11085151Y-9031276D01*
X11034375Y-9052256D01*
X10995493Y-9091071D01*
X10974424Y-9141810D01*
X10974376Y-9196749D01*
X10871187Y-9196749D01*
X10871213Y-9167009D01*
X10859637Y-9138993D01*
X10838220Y-9117539D01*
X10810224Y-9105913D01*
X10779909Y-9105887D01*
X10751893Y-9117463D01*
X10730439Y-9138880D01*
X10718813Y-9166876D01*
X10718787Y-9197191D01*
X10725150Y-9212591D01*
X10725150Y-9278616D01*
X10718813Y-9293876D01*
X10718787Y-9324191D01*
X10725150Y-9339591D01*
X10725150Y-9405616D01*
X10718813Y-9420876D01*
X10718787Y-9451191D01*
X10725150Y-9466591D01*
X10725150Y-9519916D01*
X10724049Y-9522569D01*
X10550167Y-9696450D01*
X8579247Y-9696450D01*
X8574410Y-9688934D01*
X8561923Y-9680402D01*
X8547100Y-9677400D01*
X8318500Y-9677400D01*
X8304652Y-9680006D01*
X8291934Y-9688190D01*
X8283402Y-9700677D01*
X8280400Y-9715500D01*
X8191500Y-9715500D01*
X8191500Y-9011800D01*
X8419679Y-9011800D01*
X8368680Y-9062711D01*
G36*
X8534400Y-10007600D02*
X8331200Y-10007600D01*
X8331200Y-9728200D01*
X8534400Y-9728200D01*
X8534400Y-10007600D01*
X8534400Y-10007600D01*
G37*
X8534400Y-10007600D02*
X8331200Y-10007600D01*
X8331200Y-9728200D01*
X8534400Y-9728200D01*
X8534400Y-10007600D01*
G36*
X8597900Y-11468100D02*
X8331200Y-11468100D01*
X8331200Y-11277600D01*
X8597900Y-11277600D01*
X8597900Y-11468100D01*
X8597900Y-11468100D01*
G37*
X8597900Y-11468100D02*
X8331200Y-11468100D01*
X8331200Y-11277600D01*
X8597900Y-11277600D01*
X8597900Y-11468100D01*
G36*
X10553700Y-11950700D02*
X10236200Y-11950700D01*
X10236200Y-11899900D01*
X10553700Y-11899900D01*
X10553700Y-11950700D01*
X10553700Y-11950700D01*
G37*
X10553700Y-11950700D02*
X10236200Y-11950700D01*
X10236200Y-11899900D01*
X10553700Y-11899900D01*
X10553700Y-11950700D01*
M02*
