M48
;DRILL file {KiCad 4.0.6} date Thu Jun  8 22:45:35 2017
;FORMAT={3:3/ absolute / metric / suppress leading zeros}
FMAT,2
METRIC,TZ
T1C0.300
T2C0.813
T3C1.000
T4C2.000
T5C2.750
%
G90
G05
M71
T1
X82423Y-92329
X82423Y-99949
X82423Y-107569
X82423Y-114808
X82423Y-116967
X82423Y-118618
X82423Y-120650
X82423Y-122809
X82550Y-133350
X82550Y-137922
X83566Y-120650
X83566Y-122809
X83693Y-97663
X83693Y-98552
X83693Y-99568
X83693Y-113284
X83693Y-114173
X84582Y-113284
X84582Y-114173
X84709Y-99695
X85471Y-113284
X85471Y-114173
X87122Y-124460
X87122Y-125730
X87249Y-106680
X87376Y-131572
X88138Y-116459
X88392Y-124460
X90170Y-137922
X90932Y-106680
X90932Y-111887
X90932Y-113792
X90932Y-115570
X90932Y-117348
X91440Y-92329
X92075Y-120777
X92075Y-122428
X92202Y-125095
X92202Y-131572
X93218Y-105156
X94234Y-112014
X94234Y-130302
X95758Y-130302
X96647Y-92329
X97028Y-105156
X97028Y-123444
X97282Y-130302
X97663Y-117602
X97663Y-119253
X97790Y-108458
X97790Y-112014
X97790Y-137922
X97917Y-123444
X98933Y-125095
X98933Y-126111
X99822Y-116205
X99822Y-117602
X100076Y-125730
X100584Y-129159
X100838Y-105156
X100838Y-108458
X100838Y-130302
X101727Y-96647
X101727Y-98806
X101854Y-93599
X101854Y-120777
X101854Y-122047
X101854Y-123317
X102616Y-119253
X103124Y-120777
X103124Y-122047
X103124Y-123317
X103251Y-93599
X103505Y-119253
X103505Y-96647
X103505Y-98806
X103632Y-118237
X104394Y-119253
X104394Y-120777
X104394Y-122047
X104394Y-123317
X104648Y-105156
X104648Y-108458
X104902Y-137922
X105283Y-119253
X105410Y-113284
X105664Y-120777
X105664Y-122047
X105664Y-123317
X106553Y-90805
X106553Y-92075
X106680Y-112014
X107950Y-91821
X107950Y-93091
X107950Y-94361
X107950Y-95504
X107950Y-113284
X108712Y-105156
X108712Y-112014
X109728Y-113284
X109728Y-126238
X109728Y-128778
X110998Y-127508
X111887Y-108458
X112141Y-112268
X112141Y-116078
X112141Y-119888
X112268Y-105156
X112522Y-97917
X112522Y-99187
X113792Y-101092
X113792Y-108458
X113792Y-116078
X113792Y-123698
X113792Y-127508
X113792Y-131318
T2
X98552Y-134366
X101092Y-134366
X103632Y-134366
X106172Y-134366
X108712Y-134366
T3
X83185Y-102362
X112776Y-102362
X112776Y-136652
T4
X102044Y-112268
X111125Y-91694
T5
X102489Y-91694
T0
M30
