G04 #@! TF.FileFunction,Other,User*
%FSLAX46Y46*%
G04 Gerber Fmt 4.6, Leading zero omitted, Abs format (unit mm)*
G04 Created by KiCad (PCBNEW 4.0.6) date Fri May 26 17:46:32 2017*
%MOMM*%
%LPD*%
G01*
G04 APERTURE LIST*
%ADD10C,0.050000*%
%ADD11C,0.150000*%
%ADD12C,0.076200*%
G04 APERTURE END LIST*
D10*
X88414000Y-120284000D02*
X84814000Y-120284000D01*
X88414000Y-120284000D02*
X88414000Y-118984000D01*
X84814000Y-118984000D02*
X84814000Y-120284000D01*
X84814000Y-118984000D02*
X88414000Y-118984000D01*
X91552000Y-116481000D02*
X91552000Y-112881000D01*
X91552000Y-116481000D02*
X92852000Y-116481000D01*
X92852000Y-112881000D02*
X91552000Y-112881000D01*
X92852000Y-112881000D02*
X92852000Y-116481000D01*
X84110000Y-120532000D02*
X88610000Y-120532000D01*
X84110000Y-120532000D02*
X84110000Y-122282000D01*
X88610000Y-122282000D02*
X88610000Y-120532000D01*
X88610000Y-122282000D02*
X84110000Y-122282000D01*
X92852000Y-109071000D02*
X92852000Y-112671000D01*
X92852000Y-109071000D02*
X91552000Y-109071000D01*
X91552000Y-112671000D02*
X92852000Y-112671000D01*
X91552000Y-112671000D02*
X91552000Y-109071000D01*
X94466000Y-121778000D02*
X98066000Y-121778000D01*
X94466000Y-121778000D02*
X94466000Y-123078000D01*
X98066000Y-123078000D02*
X98066000Y-121778000D01*
X98066000Y-123078000D02*
X94466000Y-123078000D01*
X85867000Y-114786000D02*
X85867000Y-118386000D01*
X85867000Y-114786000D02*
X84567000Y-114786000D01*
X84567000Y-118386000D02*
X85867000Y-118386000D01*
X84567000Y-118386000D02*
X84567000Y-114786000D01*
X98066000Y-125872000D02*
X94466000Y-125872000D01*
X98066000Y-125872000D02*
X98066000Y-124572000D01*
X94466000Y-124572000D02*
X94466000Y-125872000D01*
X94466000Y-124572000D02*
X98066000Y-124572000D01*
X89266000Y-104924000D02*
X89266000Y-101324000D01*
X89266000Y-104924000D02*
X90566000Y-104924000D01*
X90566000Y-101324000D02*
X89266000Y-101324000D01*
X90566000Y-101324000D02*
X90566000Y-104924000D01*
X107300000Y-117306500D02*
X107300000Y-113706500D01*
X107300000Y-117306500D02*
X108600000Y-117306500D01*
X108600000Y-113706500D02*
X107300000Y-113706500D01*
X108600000Y-113706500D02*
X108600000Y-117306500D01*
X90108000Y-109038000D02*
X90108000Y-112948000D01*
X90108000Y-109038000D02*
X88708000Y-109038000D01*
X88708000Y-112948000D02*
X90108000Y-112948000D01*
X88708000Y-112948000D02*
X88708000Y-109038000D01*
X100258000Y-104332000D02*
X96348000Y-104332000D01*
X100258000Y-104332000D02*
X100258000Y-102932000D01*
X96348000Y-102932000D02*
X96348000Y-104332000D01*
X96348000Y-102932000D02*
X100258000Y-102932000D01*
X93146000Y-129478000D02*
X89236000Y-129478000D01*
X93146000Y-129478000D02*
X93146000Y-128078000D01*
X89236000Y-128078000D02*
X89236000Y-129478000D01*
X89236000Y-128078000D02*
X93146000Y-128078000D01*
X93146000Y-127446000D02*
X89236000Y-127446000D01*
X93146000Y-127446000D02*
X93146000Y-126046000D01*
X89236000Y-126046000D02*
X89236000Y-127446000D01*
X89236000Y-126046000D02*
X93146000Y-126046000D01*
X101408000Y-132770000D02*
X101408000Y-128860000D01*
X101408000Y-132770000D02*
X102808000Y-132770000D01*
X102808000Y-128860000D02*
X101408000Y-128860000D01*
X102808000Y-128860000D02*
X102808000Y-132770000D01*
X83247000Y-136389500D02*
X83247000Y-132479500D01*
X83247000Y-136389500D02*
X84647000Y-136389500D01*
X84647000Y-132479500D02*
X83247000Y-132479500D01*
X84647000Y-132479500D02*
X84647000Y-136389500D01*
X105472000Y-132770000D02*
X105472000Y-128860000D01*
X105472000Y-132770000D02*
X106872000Y-132770000D01*
X106872000Y-128860000D02*
X105472000Y-128860000D01*
X106872000Y-128860000D02*
X106872000Y-132770000D01*
X107504000Y-132770000D02*
X107504000Y-128860000D01*
X107504000Y-132770000D02*
X108904000Y-132770000D01*
X108904000Y-128860000D02*
X107504000Y-128860000D01*
X108904000Y-128860000D02*
X108904000Y-132770000D01*
X89092000Y-101418000D02*
X89092000Y-105328000D01*
X89092000Y-101418000D02*
X87692000Y-101418000D01*
X87692000Y-105328000D02*
X89092000Y-105328000D01*
X87692000Y-105328000D02*
X87692000Y-101418000D01*
X90740000Y-105338000D02*
X90740000Y-101428000D01*
X90740000Y-105338000D02*
X92140000Y-105338000D01*
X92140000Y-101428000D02*
X90740000Y-101428000D01*
X92140000Y-101428000D02*
X92140000Y-105338000D01*
X109546000Y-94042000D02*
X113456000Y-94042000D01*
X109546000Y-94042000D02*
X109546000Y-95442000D01*
X113456000Y-95442000D02*
X113456000Y-94042000D01*
X113456000Y-95442000D02*
X109546000Y-95442000D01*
X103704000Y-94804000D02*
X107614000Y-94804000D01*
X103704000Y-94804000D02*
X103704000Y-96204000D01*
X107614000Y-96204000D02*
X107614000Y-94804000D01*
X107614000Y-96204000D02*
X103704000Y-96204000D01*
X84855000Y-136239000D02*
X96755000Y-136239000D01*
X96755000Y-132239000D02*
X96755000Y-136239000D01*
X84855000Y-132239000D02*
X84855000Y-136239000D01*
X84855000Y-132239000D02*
X96755000Y-132239000D01*
X93278000Y-129562000D02*
X93278000Y-125962000D01*
X98078000Y-129562000D02*
X93278000Y-129562000D01*
X98078000Y-125962000D02*
X98078000Y-129562000D01*
X93278000Y-125962000D02*
X98078000Y-125962000D01*
X109072500Y-116162000D02*
X98572500Y-116162000D01*
X109072500Y-126662000D02*
X98572500Y-126662000D01*
X109072500Y-116162000D02*
X109072500Y-126662000D01*
X98572500Y-116162000D02*
X98572500Y-126662000D01*
X93158000Y-119322000D02*
X98358000Y-119322000D01*
X98358000Y-119322000D02*
X98358000Y-105722000D01*
X98358000Y-105722000D02*
X93158000Y-105722000D01*
X93158000Y-105722000D02*
X93158000Y-119322000D01*
X100258000Y-100014000D02*
X96348000Y-100014000D01*
X100258000Y-100014000D02*
X100258000Y-98614000D01*
X96348000Y-98614000D02*
X96348000Y-100014000D01*
X96348000Y-98614000D02*
X100258000Y-98614000D01*
X108964500Y-117466500D02*
X108964500Y-113556500D01*
X108964500Y-117466500D02*
X110364500Y-117466500D01*
X110364500Y-113556500D02*
X108964500Y-113556500D01*
X110364500Y-113556500D02*
X110364500Y-117466500D01*
X89224000Y-125474000D02*
X89224000Y-118874000D01*
X91624000Y-125474000D02*
X91624000Y-118874000D01*
X89224000Y-125474000D02*
X91624000Y-125474000D01*
X89224000Y-118874000D02*
X91624000Y-118874000D01*
X86338000Y-118486000D02*
X86338000Y-114686000D01*
X86338000Y-114686000D02*
X89938000Y-114686000D01*
X89938000Y-114686000D02*
X89938000Y-118486000D01*
X89938000Y-118486000D02*
X86338000Y-118486000D01*
D11*
X81407000Y-124333000D02*
X81407000Y-131953000D01*
X86106000Y-131953000D02*
X81026000Y-131953000D01*
X86106000Y-124333000D02*
X86106000Y-131953000D01*
X81026000Y-124333000D02*
X86106000Y-124333000D01*
X81026000Y-124333000D02*
X81026000Y-131953000D01*
D10*
X83966000Y-100298000D02*
X95866000Y-100298000D01*
X95866000Y-96298000D02*
X95866000Y-100298000D01*
X83966000Y-96298000D02*
X83966000Y-100298000D01*
X83966000Y-96298000D02*
X95866000Y-96298000D01*
X110312000Y-132766000D02*
X97012000Y-132766000D01*
X97012000Y-132766000D02*
X97012000Y-135966000D01*
X97012000Y-135966000D02*
X110312000Y-135966000D01*
X110312000Y-135966000D02*
X110312000Y-132766000D01*
X108486000Y-99474000D02*
X108486000Y-96074000D01*
X108486000Y-96074000D02*
X111986000Y-96074000D01*
X111986000Y-96074000D02*
X111986000Y-99474000D01*
X111986000Y-99474000D02*
X108486000Y-99474000D01*
X108396000Y-97862000D02*
X108396000Y-101772000D01*
X108396000Y-97862000D02*
X106996000Y-97862000D01*
X106996000Y-101772000D02*
X108396000Y-101772000D01*
X106996000Y-101772000D02*
X106996000Y-97862000D01*
X84343000Y-114786000D02*
X84343000Y-118386000D01*
X84343000Y-114786000D02*
X83043000Y-114786000D01*
X83043000Y-118386000D02*
X84343000Y-118386000D01*
X83043000Y-118386000D02*
X83043000Y-114786000D01*
X107464000Y-94630000D02*
X103864000Y-94630000D01*
X107464000Y-94630000D02*
X107464000Y-93330000D01*
X103864000Y-93330000D02*
X103864000Y-94630000D01*
X103864000Y-93330000D02*
X107464000Y-93330000D01*
X88122000Y-114410000D02*
X86122000Y-114410000D01*
X86122000Y-114410000D02*
X86122000Y-109110000D01*
X86122000Y-109110000D02*
X88122000Y-109110000D01*
X88122000Y-109110000D02*
X88122000Y-114410000D01*
X101202000Y-100600000D02*
X101202000Y-102600000D01*
X101202000Y-102600000D02*
X95902000Y-102600000D01*
X95902000Y-102600000D02*
X95902000Y-100600000D01*
X95902000Y-100600000D02*
X101202000Y-100600000D01*
X108474000Y-100092000D02*
X110474000Y-100092000D01*
X110474000Y-100092000D02*
X110474000Y-102092000D01*
X110474000Y-102092000D02*
X108474000Y-102092000D01*
X108474000Y-102092000D02*
X108474000Y-100092000D01*
X99076000Y-93488000D02*
X101076000Y-93488000D01*
X101076000Y-93488000D02*
X101076000Y-95488000D01*
X101076000Y-95488000D02*
X99076000Y-95488000D01*
X99076000Y-95488000D02*
X99076000Y-93488000D01*
X106658000Y-126858000D02*
X110258000Y-126858000D01*
X106658000Y-126858000D02*
X106658000Y-128158000D01*
X110258000Y-128158000D02*
X110258000Y-126858000D01*
X110258000Y-128158000D02*
X106658000Y-128158000D01*
X98162500Y-121604000D02*
X94252500Y-121604000D01*
X98162500Y-121604000D02*
X98162500Y-120204000D01*
X94252500Y-120204000D02*
X94252500Y-121604000D01*
X94252500Y-120204000D02*
X98162500Y-120204000D01*
X103440000Y-132770000D02*
X103440000Y-128860000D01*
X103440000Y-132770000D02*
X104840000Y-132770000D01*
X104840000Y-128860000D02*
X103440000Y-128860000D01*
X104840000Y-128860000D02*
X104840000Y-132770000D01*
X89226000Y-129729000D02*
X93136000Y-129729000D01*
X89226000Y-129729000D02*
X89226000Y-131129000D01*
X93136000Y-131129000D02*
X93136000Y-129729000D01*
X93136000Y-131129000D02*
X89226000Y-131129000D01*
X105903000Y-116100000D02*
X105903000Y-112500000D01*
X105903000Y-116100000D02*
X107203000Y-116100000D01*
X107203000Y-112500000D02*
X105903000Y-112500000D01*
X107203000Y-112500000D02*
X107203000Y-116100000D01*
D12*
X108331000Y-92456000D02*
X113919000Y-92456000D01*
X108331000Y-90678000D02*
X108331000Y-92456000D01*
X113919000Y-90678000D02*
X108331000Y-90678000D01*
X113919000Y-92456000D02*
X113919000Y-90678000D01*
X99250500Y-92710000D02*
X105727500Y-92710000D01*
X99250500Y-90551000D02*
X99250500Y-92710000D01*
X105727500Y-90551000D02*
X99250500Y-90551000D01*
X105727500Y-92710000D02*
X105727500Y-90551000D01*
M02*
