G04 #@! TF.FileFunction,Legend,Top*
%FSLAX46Y46*%
G04 Gerber Fmt 4.6, Leading zero omitted, Abs format (unit mm)*
G04 Created by KiCad (PCBNEW 4.0.6) date Fri May 26 17:46:32 2017*
%MOMM*%
%LPD*%
G01*
G04 APERTURE LIST*
%ADD10C,0.050000*%
%ADD11C,0.200000*%
%ADD12C,0.152400*%
%ADD13C,0.241300*%
%ADD14C,0.120000*%
%ADD15C,0.150000*%
%ADD16C,0.230000*%
%ADD17C,0.228600*%
%ADD18C,0.177800*%
G04 APERTURE END LIST*
D10*
D11*
X86233000Y-118618000D02*
G75*
G03X86233000Y-118618000I-127000J0D01*
G01*
X93726000Y-125603000D02*
G75*
G03X93726000Y-125603000I-127000J0D01*
G01*
X108140500Y-117856000D02*
G75*
G03X108140500Y-117856000I-127000J0D01*
G01*
D12*
X100085676Y-136460895D02*
X100588838Y-136460895D01*
X100317905Y-136770533D01*
X100434019Y-136770533D01*
X100511429Y-136809238D01*
X100550133Y-136847943D01*
X100588838Y-136925352D01*
X100588838Y-137118876D01*
X100550133Y-137196286D01*
X100511429Y-137234990D01*
X100434019Y-137273695D01*
X100201791Y-137273695D01*
X100124381Y-137234990D01*
X100085676Y-137196286D01*
X100821067Y-136460895D02*
X101092000Y-137273695D01*
X101362933Y-136460895D01*
X101556457Y-136460895D02*
X102059619Y-136460895D01*
X101788686Y-136770533D01*
X101904800Y-136770533D01*
X101982210Y-136809238D01*
X102020914Y-136847943D01*
X102059619Y-136925352D01*
X102059619Y-137118876D01*
X102020914Y-137196286D01*
X101982210Y-137234990D01*
X101904800Y-137273695D01*
X101672572Y-137273695D01*
X101595162Y-137234990D01*
X101556457Y-137196286D01*
X97805724Y-136499600D02*
X97728315Y-136460895D01*
X97612200Y-136460895D01*
X97496086Y-136499600D01*
X97418677Y-136577010D01*
X97379972Y-136654419D01*
X97341267Y-136809238D01*
X97341267Y-136925352D01*
X97379972Y-137080171D01*
X97418677Y-137157581D01*
X97496086Y-137234990D01*
X97612200Y-137273695D01*
X97689610Y-137273695D01*
X97805724Y-137234990D01*
X97844429Y-137196286D01*
X97844429Y-136925352D01*
X97689610Y-136925352D01*
X98192772Y-137273695D02*
X98192772Y-136460895D01*
X98657229Y-137273695D01*
X98657229Y-136460895D01*
X99044277Y-137273695D02*
X99044277Y-136460895D01*
X99237801Y-136460895D01*
X99353915Y-136499600D01*
X99431324Y-136577010D01*
X99470029Y-136654419D01*
X99508734Y-136809238D01*
X99508734Y-136925352D01*
X99470029Y-137080171D01*
X99431324Y-137157581D01*
X99353915Y-137234990D01*
X99237801Y-137273695D01*
X99044277Y-137273695D01*
X103883581Y-137273695D02*
X103612648Y-136886648D01*
X103419124Y-137273695D02*
X103419124Y-136460895D01*
X103728762Y-136460895D01*
X103806171Y-136499600D01*
X103844876Y-136538305D01*
X103883581Y-136615714D01*
X103883581Y-136731829D01*
X103844876Y-136809238D01*
X103806171Y-136847943D01*
X103728762Y-136886648D01*
X103419124Y-136886648D01*
X108243915Y-136803190D02*
X108360029Y-136841895D01*
X108553553Y-136841895D01*
X108630963Y-136803190D01*
X108669667Y-136764486D01*
X108708372Y-136687076D01*
X108708372Y-136609667D01*
X108669667Y-136532257D01*
X108630963Y-136493552D01*
X108553553Y-136454848D01*
X108398734Y-136416143D01*
X108321325Y-136377438D01*
X108282620Y-136338733D01*
X108243915Y-136261324D01*
X108243915Y-136183914D01*
X108282620Y-136106505D01*
X108321325Y-136067800D01*
X108398734Y-136029095D01*
X108592258Y-136029095D01*
X108708372Y-136067800D01*
X108979305Y-136029095D02*
X109172829Y-136841895D01*
X109327648Y-136261324D01*
X109482467Y-136841895D01*
X109675991Y-136029095D01*
X109985629Y-136841895D02*
X109985629Y-136029095D01*
X110179153Y-136029095D01*
X110295267Y-136067800D01*
X110372676Y-136145210D01*
X110411381Y-136222619D01*
X110450086Y-136377438D01*
X110450086Y-136493552D01*
X110411381Y-136648371D01*
X110372676Y-136725781D01*
X110295267Y-136803190D01*
X110179153Y-136841895D01*
X109985629Y-136841895D01*
X108863191Y-138136086D02*
X108824486Y-138174790D01*
X108708372Y-138213495D01*
X108630962Y-138213495D01*
X108514848Y-138174790D01*
X108437439Y-138097381D01*
X108398734Y-138019971D01*
X108360029Y-137865152D01*
X108360029Y-137749038D01*
X108398734Y-137594219D01*
X108437439Y-137516810D01*
X108514848Y-137439400D01*
X108630962Y-137400695D01*
X108708372Y-137400695D01*
X108824486Y-137439400D01*
X108863191Y-137478105D01*
X109598581Y-138213495D02*
X109211534Y-138213495D01*
X109211534Y-137400695D01*
X109869515Y-138213495D02*
X109869515Y-137400695D01*
X110333972Y-138213495D02*
X109985629Y-137749038D01*
X110333972Y-137400695D02*
X109869515Y-137865152D01*
X105068915Y-136803190D02*
X105185029Y-136841895D01*
X105378553Y-136841895D01*
X105455963Y-136803190D01*
X105494667Y-136764486D01*
X105533372Y-136687076D01*
X105533372Y-136609667D01*
X105494667Y-136532257D01*
X105455963Y-136493552D01*
X105378553Y-136454848D01*
X105223734Y-136416143D01*
X105146325Y-136377438D01*
X105107620Y-136338733D01*
X105068915Y-136261324D01*
X105068915Y-136183914D01*
X105107620Y-136106505D01*
X105146325Y-136067800D01*
X105223734Y-136029095D01*
X105417258Y-136029095D01*
X105533372Y-136067800D01*
X105804305Y-136029095D02*
X105997829Y-136841895D01*
X106152648Y-136261324D01*
X106307467Y-136841895D01*
X106500991Y-136029095D01*
X106810629Y-136841895D02*
X106810629Y-136029095D01*
X107004153Y-136029095D01*
X107120267Y-136067800D01*
X107197676Y-136145210D01*
X107236381Y-136222619D01*
X107275086Y-136377438D01*
X107275086Y-136493552D01*
X107236381Y-136648371D01*
X107197676Y-136725781D01*
X107120267Y-136803190D01*
X107004153Y-136841895D01*
X106810629Y-136841895D01*
X105746248Y-138213495D02*
X105746248Y-137400695D01*
X106288115Y-137400695D02*
X106442934Y-137400695D01*
X106520343Y-137439400D01*
X106597753Y-137516810D01*
X106636458Y-137671629D01*
X106636458Y-137942562D01*
X106597753Y-138097381D01*
X106520343Y-138174790D01*
X106442934Y-138213495D01*
X106288115Y-138213495D01*
X106210705Y-138174790D01*
X106133296Y-138097381D01*
X106094591Y-137942562D01*
X106094591Y-137671629D01*
X106133296Y-137516810D01*
X106210705Y-137439400D01*
X106288115Y-137400695D01*
D13*
X83876848Y-92129126D02*
X83968771Y-92175088D01*
X84152619Y-92175088D01*
X84244543Y-92129126D01*
X84290505Y-92037202D01*
X84290505Y-91991240D01*
X84244543Y-91899317D01*
X84152619Y-91853355D01*
X84014733Y-91853355D01*
X83922810Y-91807393D01*
X83876848Y-91715469D01*
X83876848Y-91669507D01*
X83922810Y-91577583D01*
X84014733Y-91531621D01*
X84152619Y-91531621D01*
X84244543Y-91577583D01*
X84842047Y-92175088D02*
X84750123Y-92129126D01*
X84704162Y-92037202D01*
X84704162Y-91209888D01*
X85623400Y-92175088D02*
X85623400Y-91669507D01*
X85577438Y-91577583D01*
X85485514Y-91531621D01*
X85301666Y-91531621D01*
X85209743Y-91577583D01*
X85623400Y-92129126D02*
X85531476Y-92175088D01*
X85301666Y-92175088D01*
X85209743Y-92129126D01*
X85163781Y-92037202D01*
X85163781Y-91945279D01*
X85209743Y-91853355D01*
X85301666Y-91807393D01*
X85531476Y-91807393D01*
X85623400Y-91761431D01*
X86083019Y-91531621D02*
X86083019Y-92496821D01*
X86083019Y-91577583D02*
X86174942Y-91531621D01*
X86358790Y-91531621D01*
X86450714Y-91577583D01*
X86496676Y-91623545D01*
X86542638Y-91715469D01*
X86542638Y-91991240D01*
X86496676Y-92083164D01*
X86450714Y-92129126D01*
X86358790Y-92175088D01*
X86174942Y-92175088D01*
X86083019Y-92129126D01*
X87369952Y-92175088D02*
X87369952Y-91669507D01*
X87323990Y-91577583D01*
X87232066Y-91531621D01*
X87048218Y-91531621D01*
X86956295Y-91577583D01*
X87369952Y-92129126D02*
X87278028Y-92175088D01*
X87048218Y-92175088D01*
X86956295Y-92129126D01*
X86910333Y-92037202D01*
X86910333Y-91945279D01*
X86956295Y-91853355D01*
X87048218Y-91807393D01*
X87278028Y-91807393D01*
X87369952Y-91761431D01*
X87829571Y-92175088D02*
X87829571Y-91209888D01*
X87829571Y-91577583D02*
X87921494Y-91531621D01*
X88105342Y-91531621D01*
X88197266Y-91577583D01*
X88243228Y-91623545D01*
X88289190Y-91715469D01*
X88289190Y-91991240D01*
X88243228Y-92083164D01*
X88197266Y-92129126D01*
X88105342Y-92175088D01*
X87921494Y-92175088D01*
X87829571Y-92129126D01*
X83830886Y-93220721D02*
X84060695Y-93864188D01*
X84290505Y-93220721D01*
X84612238Y-92990912D02*
X84658200Y-92944950D01*
X84750123Y-92898988D01*
X84979933Y-92898988D01*
X85071857Y-92944950D01*
X85117819Y-92990912D01*
X85163780Y-93082836D01*
X85163780Y-93174760D01*
X85117819Y-93312645D01*
X84566276Y-93864188D01*
X85163780Y-93864188D01*
X86266866Y-92990912D02*
X86312828Y-92944950D01*
X86404751Y-92898988D01*
X86634561Y-92898988D01*
X86726485Y-92944950D01*
X86772447Y-92990912D01*
X86818408Y-93082836D01*
X86818408Y-93174760D01*
X86772447Y-93312645D01*
X86220904Y-93864188D01*
X86818408Y-93864188D01*
X87415913Y-92898988D02*
X87507837Y-92898988D01*
X87599761Y-92944950D01*
X87645723Y-92990912D01*
X87691685Y-93082836D01*
X87737646Y-93266683D01*
X87737646Y-93496493D01*
X87691685Y-93680340D01*
X87645723Y-93772264D01*
X87599761Y-93818226D01*
X87507837Y-93864188D01*
X87415913Y-93864188D01*
X87323989Y-93818226D01*
X87278027Y-93772264D01*
X87232066Y-93680340D01*
X87186104Y-93496493D01*
X87186104Y-93266683D01*
X87232066Y-93082836D01*
X87278027Y-92990912D01*
X87323989Y-92944950D01*
X87415913Y-92898988D01*
X88656884Y-93864188D02*
X88105342Y-93864188D01*
X88381113Y-93864188D02*
X88381113Y-92898988D01*
X88289189Y-93036874D01*
X88197265Y-93128798D01*
X88105342Y-93174760D01*
X88978618Y-92898988D02*
X89622084Y-92898988D01*
X89208427Y-93864188D01*
D14*
X86964000Y-120234000D02*
X86264000Y-120234000D01*
X86264000Y-119034000D02*
X86964000Y-119034000D01*
X91602000Y-115031000D02*
X91602000Y-114331000D01*
X92802000Y-114331000D02*
X92802000Y-115031000D01*
X86860000Y-120562000D02*
X85860000Y-120562000D01*
X85860000Y-122262000D02*
X86860000Y-122262000D01*
X92802000Y-110521000D02*
X92802000Y-111221000D01*
X91602000Y-111221000D02*
X91602000Y-110521000D01*
X95916000Y-121828000D02*
X96616000Y-121828000D01*
X96616000Y-123028000D02*
X95916000Y-123028000D01*
X85817000Y-116236000D02*
X85817000Y-116936000D01*
X84617000Y-116936000D02*
X84617000Y-116236000D01*
X96616000Y-125822000D02*
X95916000Y-125822000D01*
X95916000Y-124622000D02*
X96616000Y-124622000D01*
X89316000Y-103474000D02*
X89316000Y-102774000D01*
X90516000Y-102774000D02*
X90516000Y-103474000D01*
X107350000Y-115856500D02*
X107350000Y-115156500D01*
X108550000Y-115156500D02*
X108550000Y-115856500D01*
X88728000Y-111498000D02*
X88728000Y-110498000D01*
X90088000Y-110498000D02*
X90088000Y-111498000D01*
X97798000Y-102952000D02*
X98798000Y-102952000D01*
X98798000Y-104312000D02*
X97798000Y-104312000D01*
X90686000Y-128098000D02*
X91686000Y-128098000D01*
X91686000Y-129458000D02*
X90686000Y-129458000D01*
X90686000Y-126066000D02*
X91686000Y-126066000D01*
X91686000Y-127426000D02*
X90686000Y-127426000D01*
X102788000Y-130310000D02*
X102788000Y-131310000D01*
X101428000Y-131310000D02*
X101428000Y-130310000D01*
X84627000Y-133929500D02*
X84627000Y-134929500D01*
X83267000Y-134929500D02*
X83267000Y-133929500D01*
X106852000Y-130310000D02*
X106852000Y-131310000D01*
X105492000Y-131310000D02*
X105492000Y-130310000D01*
X108884000Y-130310000D02*
X108884000Y-131310000D01*
X107524000Y-131310000D02*
X107524000Y-130310000D01*
X87712000Y-103878000D02*
X87712000Y-102878000D01*
X89072000Y-102878000D02*
X89072000Y-103878000D01*
X92120000Y-102878000D02*
X92120000Y-103878000D01*
X90760000Y-103878000D02*
X90760000Y-102878000D01*
X112006000Y-95422000D02*
X111006000Y-95422000D01*
X111006000Y-94062000D02*
X112006000Y-94062000D01*
X106164000Y-96184000D02*
X105164000Y-96184000D01*
X105164000Y-94824000D02*
X106164000Y-94824000D01*
X87745000Y-132429000D02*
X93865000Y-132429000D01*
X93865000Y-132429000D02*
X93865000Y-136049000D01*
X93865000Y-136049000D02*
X87745000Y-136049000D01*
X87745000Y-136049000D02*
X87745000Y-132429000D01*
X94778000Y-129372000D02*
X96578000Y-129372000D01*
X96578000Y-126152000D02*
X93628000Y-126152000D01*
D15*
X107447500Y-117787000D02*
X106997500Y-117787000D01*
X107447500Y-125037000D02*
X106922500Y-125037000D01*
X100197500Y-125037000D02*
X100722500Y-125037000D01*
X100197500Y-117787000D02*
X100722500Y-117787000D01*
X107447500Y-117787000D02*
X107447500Y-118312000D01*
X100197500Y-117787000D02*
X100197500Y-118312000D01*
X100197500Y-125037000D02*
X100197500Y-124512000D01*
X107447500Y-125037000D02*
X107447500Y-124512000D01*
X106997500Y-117787000D02*
X106997500Y-116412000D01*
D14*
X93208000Y-106622000D02*
X93208000Y-119222000D01*
X93208000Y-119222000D02*
X98308000Y-119222000D01*
X98308000Y-119222000D02*
X98308000Y-106622000D01*
X97798000Y-98634000D02*
X98798000Y-98634000D01*
X98798000Y-99994000D02*
X97798000Y-99994000D01*
X110344500Y-115006500D02*
X110344500Y-116006500D01*
X108984500Y-116006500D02*
X108984500Y-115006500D01*
X91494000Y-121174000D02*
X91494000Y-123174000D01*
X89354000Y-123174000D02*
X89354000Y-121174000D01*
X89748000Y-117486000D02*
X89748000Y-115686000D01*
X86528000Y-115686000D02*
X86528000Y-118136000D01*
D15*
X84455000Y-124333000D02*
X84328000Y-124333000D01*
X86360000Y-124333000D02*
X84455000Y-124333000D01*
X86360000Y-124968000D02*
X86360000Y-124333000D01*
X86360000Y-131953000D02*
X86360000Y-131318000D01*
X84328000Y-131953000D02*
X86360000Y-131953000D01*
X81661000Y-124333000D02*
X81661000Y-131953000D01*
X82296000Y-124333000D02*
X81661000Y-124333000D01*
X81661000Y-131953000D02*
X82296000Y-131953000D01*
D14*
X86856000Y-96488000D02*
X92976000Y-96488000D01*
X92976000Y-96488000D02*
X92976000Y-100108000D01*
X92976000Y-100108000D02*
X86856000Y-100108000D01*
X86856000Y-100108000D02*
X86856000Y-96488000D01*
X107442000Y-132976000D02*
X97162000Y-132976000D01*
X97162000Y-132976000D02*
X97162000Y-135756000D01*
X97162000Y-135756000D02*
X107442000Y-135756000D01*
X107442000Y-135756000D02*
X107442000Y-132976000D01*
X108712000Y-132976000D02*
X110102000Y-132976000D01*
X110102000Y-132976000D02*
X110102000Y-134366000D01*
X111816000Y-97014000D02*
X110886000Y-97014000D01*
X108656000Y-97014000D02*
X109586000Y-97014000D01*
X108656000Y-97014000D02*
X108656000Y-99174000D01*
X111816000Y-97014000D02*
X111816000Y-98474000D01*
X107016000Y-100322000D02*
X107016000Y-99322000D01*
X108376000Y-99322000D02*
X108376000Y-100322000D01*
X84293000Y-116236000D02*
X84293000Y-116936000D01*
X83093000Y-116936000D02*
X83093000Y-116236000D01*
X106014000Y-94580000D02*
X105314000Y-94580000D01*
X105314000Y-93380000D02*
X106014000Y-93380000D01*
X87972000Y-109260000D02*
X86272000Y-109260000D01*
X86272000Y-109310000D02*
X86272000Y-113360000D01*
X87972000Y-109310000D02*
X87972000Y-113360000D01*
X96052000Y-100750000D02*
X96052000Y-102450000D01*
X96102000Y-102450000D02*
X100152000Y-102450000D01*
X96102000Y-100750000D02*
X100152000Y-100750000D01*
X108108000Y-126908000D02*
X108808000Y-126908000D01*
X108808000Y-128108000D02*
X108108000Y-128108000D01*
X95702500Y-120224000D02*
X96702500Y-120224000D01*
X96702500Y-121584000D02*
X95702500Y-121584000D01*
X104820000Y-130310000D02*
X104820000Y-131310000D01*
X103460000Y-131310000D02*
X103460000Y-130310000D01*
X91686000Y-131109000D02*
X90686000Y-131109000D01*
X90686000Y-129749000D02*
X91686000Y-129749000D01*
X105953000Y-114650000D02*
X105953000Y-113950000D01*
X107153000Y-113950000D02*
X107153000Y-114650000D01*
D15*
X108331000Y-90678000D02*
X109728000Y-90678000D01*
X108331000Y-92456000D02*
X108331000Y-90678000D01*
X109728000Y-92456000D02*
X108331000Y-92456000D01*
D16*
X113855500Y-92710000D02*
G75*
G03X113855500Y-92710000I-63500J0D01*
G01*
D15*
X113919000Y-90678000D02*
X112522000Y-90678000D01*
X113919000Y-92456000D02*
X113919000Y-90678000D01*
X113919000Y-92456000D02*
X112522000Y-92456000D01*
D17*
X99504500Y-93027500D02*
G75*
G03X99504500Y-93027500I-63500J0D01*
G01*
D18*
X99314000Y-90614500D02*
X100838000Y-90614500D01*
X99314000Y-92646500D02*
X99314000Y-90614500D01*
X100838000Y-92646500D02*
X99314000Y-92646500D01*
X105664000Y-90614500D02*
X104140000Y-90614500D01*
X105664000Y-92646500D02*
X105664000Y-90614500D01*
X105410000Y-92646500D02*
X105664000Y-92646500D01*
X105537000Y-92646500D02*
X104140000Y-92646500D01*
D15*
X83018334Y-119991143D02*
X82970715Y-120038762D01*
X82827858Y-120086381D01*
X82732620Y-120086381D01*
X82589762Y-120038762D01*
X82494524Y-119943524D01*
X82446905Y-119848286D01*
X82399286Y-119657810D01*
X82399286Y-119514952D01*
X82446905Y-119324476D01*
X82494524Y-119229238D01*
X82589762Y-119134000D01*
X82732620Y-119086381D01*
X82827858Y-119086381D01*
X82970715Y-119134000D01*
X83018334Y-119181619D01*
X83970715Y-120086381D02*
X83399286Y-120086381D01*
X83685000Y-120086381D02*
X83685000Y-119086381D01*
X83589762Y-119229238D01*
X83494524Y-119324476D01*
X83399286Y-119372095D01*
X91908334Y-117578143D02*
X91860715Y-117625762D01*
X91717858Y-117673381D01*
X91622620Y-117673381D01*
X91479762Y-117625762D01*
X91384524Y-117530524D01*
X91336905Y-117435286D01*
X91289286Y-117244810D01*
X91289286Y-117101952D01*
X91336905Y-116911476D01*
X91384524Y-116816238D01*
X91479762Y-116721000D01*
X91622620Y-116673381D01*
X91717858Y-116673381D01*
X91860715Y-116721000D01*
X91908334Y-116768619D01*
X92289286Y-116768619D02*
X92336905Y-116721000D01*
X92432143Y-116673381D01*
X92670239Y-116673381D01*
X92765477Y-116721000D01*
X92813096Y-116768619D01*
X92860715Y-116863857D01*
X92860715Y-116959095D01*
X92813096Y-117101952D01*
X92241667Y-117673381D01*
X92860715Y-117673381D01*
X83018334Y-122150143D02*
X82970715Y-122197762D01*
X82827858Y-122245381D01*
X82732620Y-122245381D01*
X82589762Y-122197762D01*
X82494524Y-122102524D01*
X82446905Y-122007286D01*
X82399286Y-121816810D01*
X82399286Y-121673952D01*
X82446905Y-121483476D01*
X82494524Y-121388238D01*
X82589762Y-121293000D01*
X82732620Y-121245381D01*
X82827858Y-121245381D01*
X82970715Y-121293000D01*
X83018334Y-121340619D01*
X83351667Y-121245381D02*
X83970715Y-121245381D01*
X83637381Y-121626333D01*
X83780239Y-121626333D01*
X83875477Y-121673952D01*
X83923096Y-121721571D01*
X83970715Y-121816810D01*
X83970715Y-122054905D01*
X83923096Y-122150143D01*
X83875477Y-122197762D01*
X83780239Y-122245381D01*
X83494524Y-122245381D01*
X83399286Y-122197762D01*
X83351667Y-122150143D01*
X91908334Y-108307143D02*
X91860715Y-108354762D01*
X91717858Y-108402381D01*
X91622620Y-108402381D01*
X91479762Y-108354762D01*
X91384524Y-108259524D01*
X91336905Y-108164286D01*
X91289286Y-107973810D01*
X91289286Y-107830952D01*
X91336905Y-107640476D01*
X91384524Y-107545238D01*
X91479762Y-107450000D01*
X91622620Y-107402381D01*
X91717858Y-107402381D01*
X91860715Y-107450000D01*
X91908334Y-107497619D01*
X92765477Y-107735714D02*
X92765477Y-108402381D01*
X92527381Y-107354762D02*
X92289286Y-108069048D01*
X92908334Y-108069048D01*
X93305334Y-122785143D02*
X93257715Y-122832762D01*
X93114858Y-122880381D01*
X93019620Y-122880381D01*
X92876762Y-122832762D01*
X92781524Y-122737524D01*
X92733905Y-122642286D01*
X92686286Y-122451810D01*
X92686286Y-122308952D01*
X92733905Y-122118476D01*
X92781524Y-122023238D01*
X92876762Y-121928000D01*
X93019620Y-121880381D01*
X93114858Y-121880381D01*
X93257715Y-121928000D01*
X93305334Y-121975619D01*
X94210096Y-121880381D02*
X93733905Y-121880381D01*
X93686286Y-122356571D01*
X93733905Y-122308952D01*
X93829143Y-122261333D01*
X94067239Y-122261333D01*
X94162477Y-122308952D01*
X94210096Y-122356571D01*
X94257715Y-122451810D01*
X94257715Y-122689905D01*
X94210096Y-122785143D01*
X94162477Y-122832762D01*
X94067239Y-122880381D01*
X93829143Y-122880381D01*
X93733905Y-122832762D01*
X93686286Y-122785143D01*
X85574143Y-111926666D02*
X85621762Y-111974285D01*
X85669381Y-112117142D01*
X85669381Y-112212380D01*
X85621762Y-112355238D01*
X85526524Y-112450476D01*
X85431286Y-112498095D01*
X85240810Y-112545714D01*
X85097952Y-112545714D01*
X84907476Y-112498095D01*
X84812238Y-112450476D01*
X84717000Y-112355238D01*
X84669381Y-112212380D01*
X84669381Y-112117142D01*
X84717000Y-111974285D01*
X84764619Y-111926666D01*
X84669381Y-111593333D02*
X84669381Y-110926666D01*
X85669381Y-111355238D01*
X95083334Y-124309143D02*
X95035715Y-124356762D01*
X94892858Y-124404381D01*
X94797620Y-124404381D01*
X94654762Y-124356762D01*
X94559524Y-124261524D01*
X94511905Y-124166286D01*
X94464286Y-123975810D01*
X94464286Y-123832952D01*
X94511905Y-123642476D01*
X94559524Y-123547238D01*
X94654762Y-123452000D01*
X94797620Y-123404381D01*
X94892858Y-123404381D01*
X95035715Y-123452000D01*
X95083334Y-123499619D01*
X95559524Y-124404381D02*
X95750000Y-124404381D01*
X95845239Y-124356762D01*
X95892858Y-124309143D01*
X95988096Y-124166286D01*
X96035715Y-123975810D01*
X96035715Y-123594857D01*
X95988096Y-123499619D01*
X95940477Y-123452000D01*
X95845239Y-123404381D01*
X95654762Y-123404381D01*
X95559524Y-123452000D01*
X95511905Y-123499619D01*
X95464286Y-123594857D01*
X95464286Y-123832952D01*
X95511905Y-123928190D01*
X95559524Y-123975810D01*
X95654762Y-124023429D01*
X95845239Y-124023429D01*
X95940477Y-123975810D01*
X95988096Y-123928190D01*
X96035715Y-123832952D01*
X87225143Y-103766857D02*
X87272762Y-103814476D01*
X87320381Y-103957333D01*
X87320381Y-104052571D01*
X87272762Y-104195429D01*
X87177524Y-104290667D01*
X87082286Y-104338286D01*
X86891810Y-104385905D01*
X86748952Y-104385905D01*
X86558476Y-104338286D01*
X86463238Y-104290667D01*
X86368000Y-104195429D01*
X86320381Y-104052571D01*
X86320381Y-103957333D01*
X86368000Y-103814476D01*
X86415619Y-103766857D01*
X87320381Y-102814476D02*
X87320381Y-103385905D01*
X87320381Y-103100191D02*
X86320381Y-103100191D01*
X86463238Y-103195429D01*
X86558476Y-103290667D01*
X86606095Y-103385905D01*
X86320381Y-102195429D02*
X86320381Y-102100190D01*
X86368000Y-102004952D01*
X86415619Y-101957333D01*
X86510857Y-101909714D01*
X86701333Y-101862095D01*
X86939429Y-101862095D01*
X87129905Y-101909714D01*
X87225143Y-101957333D01*
X87272762Y-102004952D01*
X87320381Y-102100190D01*
X87320381Y-102195429D01*
X87272762Y-102290667D01*
X87225143Y-102338286D01*
X87129905Y-102385905D01*
X86939429Y-102433524D01*
X86701333Y-102433524D01*
X86510857Y-102385905D01*
X86415619Y-102338286D01*
X86368000Y-102290667D01*
X86320381Y-102195429D01*
X108069143Y-111101143D02*
X108021524Y-111148762D01*
X107878667Y-111196381D01*
X107783429Y-111196381D01*
X107640571Y-111148762D01*
X107545333Y-111053524D01*
X107497714Y-110958286D01*
X107450095Y-110767810D01*
X107450095Y-110624952D01*
X107497714Y-110434476D01*
X107545333Y-110339238D01*
X107640571Y-110244000D01*
X107783429Y-110196381D01*
X107878667Y-110196381D01*
X108021524Y-110244000D01*
X108069143Y-110291619D01*
X109021524Y-111196381D02*
X108450095Y-111196381D01*
X108735809Y-111196381D02*
X108735809Y-110196381D01*
X108640571Y-110339238D01*
X108545333Y-110434476D01*
X108450095Y-110482095D01*
X109354857Y-110196381D02*
X109973905Y-110196381D01*
X109640571Y-110577333D01*
X109783429Y-110577333D01*
X109878667Y-110624952D01*
X109926286Y-110672571D01*
X109973905Y-110767810D01*
X109973905Y-111005905D01*
X109926286Y-111101143D01*
X109878667Y-111148762D01*
X109783429Y-111196381D01*
X109497714Y-111196381D01*
X109402476Y-111148762D01*
X109354857Y-111101143D01*
X89114334Y-108402381D02*
X88781000Y-107926190D01*
X88542905Y-108402381D02*
X88542905Y-107402381D01*
X88923858Y-107402381D01*
X89019096Y-107450000D01*
X89066715Y-107497619D01*
X89114334Y-107592857D01*
X89114334Y-107735714D01*
X89066715Y-107830952D01*
X89019096Y-107878571D01*
X88923858Y-107926190D01*
X88542905Y-107926190D01*
X90066715Y-108402381D02*
X89495286Y-108402381D01*
X89781000Y-108402381D02*
X89781000Y-107402381D01*
X89685762Y-107545238D01*
X89590524Y-107640476D01*
X89495286Y-107688095D01*
X102068334Y-104084381D02*
X101735000Y-103608190D01*
X101496905Y-104084381D02*
X101496905Y-103084381D01*
X101877858Y-103084381D01*
X101973096Y-103132000D01*
X102020715Y-103179619D01*
X102068334Y-103274857D01*
X102068334Y-103417714D01*
X102020715Y-103512952D01*
X101973096Y-103560571D01*
X101877858Y-103608190D01*
X101496905Y-103608190D01*
X102449286Y-103179619D02*
X102496905Y-103132000D01*
X102592143Y-103084381D01*
X102830239Y-103084381D01*
X102925477Y-103132000D01*
X102973096Y-103179619D01*
X103020715Y-103274857D01*
X103020715Y-103370095D01*
X102973096Y-103512952D01*
X102401667Y-104084381D01*
X103020715Y-104084381D01*
X87844334Y-129230381D02*
X87511000Y-128754190D01*
X87272905Y-129230381D02*
X87272905Y-128230381D01*
X87653858Y-128230381D01*
X87749096Y-128278000D01*
X87796715Y-128325619D01*
X87844334Y-128420857D01*
X87844334Y-128563714D01*
X87796715Y-128658952D01*
X87749096Y-128706571D01*
X87653858Y-128754190D01*
X87272905Y-128754190D01*
X88701477Y-128563714D02*
X88701477Y-129230381D01*
X88463381Y-128182762D02*
X88225286Y-128897048D01*
X88844334Y-128897048D01*
X87844334Y-127198381D02*
X87511000Y-126722190D01*
X87272905Y-127198381D02*
X87272905Y-126198381D01*
X87653858Y-126198381D01*
X87749096Y-126246000D01*
X87796715Y-126293619D01*
X87844334Y-126388857D01*
X87844334Y-126531714D01*
X87796715Y-126626952D01*
X87749096Y-126674571D01*
X87653858Y-126722190D01*
X87272905Y-126722190D01*
X88749096Y-126198381D02*
X88272905Y-126198381D01*
X88225286Y-126674571D01*
X88272905Y-126626952D01*
X88368143Y-126579333D01*
X88606239Y-126579333D01*
X88701477Y-126626952D01*
X88749096Y-126674571D01*
X88796715Y-126769810D01*
X88796715Y-127007905D01*
X88749096Y-127103143D01*
X88701477Y-127150762D01*
X88606239Y-127198381D01*
X88368143Y-127198381D01*
X88272905Y-127150762D01*
X88225286Y-127103143D01*
X101433334Y-128595381D02*
X101100000Y-128119190D01*
X100861905Y-128595381D02*
X100861905Y-127595381D01*
X101242858Y-127595381D01*
X101338096Y-127643000D01*
X101385715Y-127690619D01*
X101433334Y-127785857D01*
X101433334Y-127928714D01*
X101385715Y-128023952D01*
X101338096Y-128071571D01*
X101242858Y-128119190D01*
X100861905Y-128119190D01*
X101909524Y-128595381D02*
X102100000Y-128595381D01*
X102195239Y-128547762D01*
X102242858Y-128500143D01*
X102338096Y-128357286D01*
X102385715Y-128166810D01*
X102385715Y-127785857D01*
X102338096Y-127690619D01*
X102290477Y-127643000D01*
X102195239Y-127595381D01*
X102004762Y-127595381D01*
X101909524Y-127643000D01*
X101861905Y-127690619D01*
X101814286Y-127785857D01*
X101814286Y-128023952D01*
X101861905Y-128119190D01*
X101909524Y-128166810D01*
X102004762Y-128214429D01*
X102195239Y-128214429D01*
X102290477Y-128166810D01*
X102338096Y-128119190D01*
X102385715Y-128023952D01*
X85018643Y-137294881D02*
X84685309Y-136818690D01*
X84447214Y-137294881D02*
X84447214Y-136294881D01*
X84828167Y-136294881D01*
X84923405Y-136342500D01*
X84971024Y-136390119D01*
X85018643Y-136485357D01*
X85018643Y-136628214D01*
X84971024Y-136723452D01*
X84923405Y-136771071D01*
X84828167Y-136818690D01*
X84447214Y-136818690D01*
X85971024Y-137294881D02*
X85399595Y-137294881D01*
X85685309Y-137294881D02*
X85685309Y-136294881D01*
X85590071Y-136437738D01*
X85494833Y-136532976D01*
X85399595Y-136580595D01*
X86590071Y-136294881D02*
X86685310Y-136294881D01*
X86780548Y-136342500D01*
X86828167Y-136390119D01*
X86875786Y-136485357D01*
X86923405Y-136675833D01*
X86923405Y-136913929D01*
X86875786Y-137104405D01*
X86828167Y-137199643D01*
X86780548Y-137247262D01*
X86685310Y-137294881D01*
X86590071Y-137294881D01*
X86494833Y-137247262D01*
X86447214Y-137199643D01*
X86399595Y-137104405D01*
X86351976Y-136913929D01*
X86351976Y-136675833D01*
X86399595Y-136485357D01*
X86447214Y-136390119D01*
X86494833Y-136342500D01*
X86590071Y-136294881D01*
X110180381Y-131452857D02*
X109704190Y-131786191D01*
X110180381Y-132024286D02*
X109180381Y-132024286D01*
X109180381Y-131643333D01*
X109228000Y-131548095D01*
X109275619Y-131500476D01*
X109370857Y-131452857D01*
X109513714Y-131452857D01*
X109608952Y-131500476D01*
X109656571Y-131548095D01*
X109704190Y-131643333D01*
X109704190Y-132024286D01*
X110180381Y-130500476D02*
X110180381Y-131071905D01*
X110180381Y-130786191D02*
X109180381Y-130786191D01*
X109323238Y-130881429D01*
X109418476Y-130976667D01*
X109466095Y-131071905D01*
X110180381Y-129548095D02*
X110180381Y-130119524D01*
X110180381Y-129833810D02*
X109180381Y-129833810D01*
X109323238Y-129929048D01*
X109418476Y-130024286D01*
X109466095Y-130119524D01*
X111831381Y-131452857D02*
X111355190Y-131786191D01*
X111831381Y-132024286D02*
X110831381Y-132024286D01*
X110831381Y-131643333D01*
X110879000Y-131548095D01*
X110926619Y-131500476D01*
X111021857Y-131452857D01*
X111164714Y-131452857D01*
X111259952Y-131500476D01*
X111307571Y-131548095D01*
X111355190Y-131643333D01*
X111355190Y-132024286D01*
X111831381Y-130500476D02*
X111831381Y-131071905D01*
X111831381Y-130786191D02*
X110831381Y-130786191D01*
X110974238Y-130881429D01*
X111069476Y-130976667D01*
X111117095Y-131071905D01*
X110926619Y-130119524D02*
X110879000Y-130071905D01*
X110831381Y-129976667D01*
X110831381Y-129738571D01*
X110879000Y-129643333D01*
X110926619Y-129595714D01*
X111021857Y-129548095D01*
X111117095Y-129548095D01*
X111259952Y-129595714D01*
X111831381Y-130167143D01*
X111831381Y-129548095D01*
X85796381Y-104020857D02*
X85320190Y-104354191D01*
X85796381Y-104592286D02*
X84796381Y-104592286D01*
X84796381Y-104211333D01*
X84844000Y-104116095D01*
X84891619Y-104068476D01*
X84986857Y-104020857D01*
X85129714Y-104020857D01*
X85224952Y-104068476D01*
X85272571Y-104116095D01*
X85320190Y-104211333D01*
X85320190Y-104592286D01*
X85796381Y-103068476D02*
X85796381Y-103639905D01*
X85796381Y-103354191D02*
X84796381Y-103354191D01*
X84939238Y-103449429D01*
X85034476Y-103544667D01*
X85082095Y-103639905D01*
X84796381Y-102735143D02*
X84796381Y-102116095D01*
X85177333Y-102449429D01*
X85177333Y-102306571D01*
X85224952Y-102211333D01*
X85272571Y-102163714D01*
X85367810Y-102116095D01*
X85605905Y-102116095D01*
X85701143Y-102163714D01*
X85748762Y-102211333D01*
X85796381Y-102306571D01*
X85796381Y-102592286D01*
X85748762Y-102687524D01*
X85701143Y-102735143D01*
X93543381Y-103766857D02*
X93067190Y-104100191D01*
X93543381Y-104338286D02*
X92543381Y-104338286D01*
X92543381Y-103957333D01*
X92591000Y-103862095D01*
X92638619Y-103814476D01*
X92733857Y-103766857D01*
X92876714Y-103766857D01*
X92971952Y-103814476D01*
X93019571Y-103862095D01*
X93067190Y-103957333D01*
X93067190Y-104338286D01*
X93543381Y-102814476D02*
X93543381Y-103385905D01*
X93543381Y-103100191D02*
X92543381Y-103100191D01*
X92686238Y-103195429D01*
X92781476Y-103290667D01*
X92829095Y-103385905D01*
X92876714Y-101957333D02*
X93543381Y-101957333D01*
X92495762Y-102195429D02*
X93210048Y-102433524D01*
X93210048Y-101814476D01*
X112133143Y-96718381D02*
X111799809Y-96242190D01*
X111561714Y-96718381D02*
X111561714Y-95718381D01*
X111942667Y-95718381D01*
X112037905Y-95766000D01*
X112085524Y-95813619D01*
X112133143Y-95908857D01*
X112133143Y-96051714D01*
X112085524Y-96146952D01*
X112037905Y-96194571D01*
X111942667Y-96242190D01*
X111561714Y-96242190D01*
X113085524Y-96718381D02*
X112514095Y-96718381D01*
X112799809Y-96718381D02*
X112799809Y-95718381D01*
X112704571Y-95861238D01*
X112609333Y-95956476D01*
X112514095Y-96004095D01*
X113942667Y-95718381D02*
X113752190Y-95718381D01*
X113656952Y-95766000D01*
X113609333Y-95813619D01*
X113514095Y-95956476D01*
X113466476Y-96146952D01*
X113466476Y-96527905D01*
X113514095Y-96623143D01*
X113561714Y-96670762D01*
X113656952Y-96718381D01*
X113847429Y-96718381D01*
X113942667Y-96670762D01*
X113990286Y-96623143D01*
X114037905Y-96527905D01*
X114037905Y-96289810D01*
X113990286Y-96194571D01*
X113942667Y-96146952D01*
X113847429Y-96099333D01*
X113656952Y-96099333D01*
X113561714Y-96146952D01*
X113514095Y-96194571D01*
X113466476Y-96289810D01*
X105021143Y-97480381D02*
X104687809Y-97004190D01*
X104449714Y-97480381D02*
X104449714Y-96480381D01*
X104830667Y-96480381D01*
X104925905Y-96528000D01*
X104973524Y-96575619D01*
X105021143Y-96670857D01*
X105021143Y-96813714D01*
X104973524Y-96908952D01*
X104925905Y-96956571D01*
X104830667Y-97004190D01*
X104449714Y-97004190D01*
X105973524Y-97480381D02*
X105402095Y-97480381D01*
X105687809Y-97480381D02*
X105687809Y-96480381D01*
X105592571Y-96623238D01*
X105497333Y-96718476D01*
X105402095Y-96766095D01*
X106306857Y-96480381D02*
X106973524Y-96480381D01*
X106544952Y-97480381D01*
X98171095Y-129119381D02*
X98171095Y-129928905D01*
X98218714Y-130024143D01*
X98266333Y-130071762D01*
X98361571Y-130119381D01*
X98552048Y-130119381D01*
X98647286Y-130071762D01*
X98694905Y-130024143D01*
X98742524Y-129928905D01*
X98742524Y-129119381D01*
X99171095Y-129214619D02*
X99218714Y-129167000D01*
X99313952Y-129119381D01*
X99552048Y-129119381D01*
X99647286Y-129167000D01*
X99694905Y-129214619D01*
X99742524Y-129309857D01*
X99742524Y-129405095D01*
X99694905Y-129547952D01*
X99123476Y-130119381D01*
X99742524Y-130119381D01*
X103759095Y-114895381D02*
X103759095Y-115704905D01*
X103806714Y-115800143D01*
X103854333Y-115847762D01*
X103949571Y-115895381D01*
X104140048Y-115895381D01*
X104235286Y-115847762D01*
X104282905Y-115800143D01*
X104330524Y-115704905D01*
X104330524Y-114895381D01*
X104711476Y-114895381D02*
X105330524Y-114895381D01*
X104997190Y-115276333D01*
X105140048Y-115276333D01*
X105235286Y-115323952D01*
X105282905Y-115371571D01*
X105330524Y-115466810D01*
X105330524Y-115704905D01*
X105282905Y-115800143D01*
X105235286Y-115847762D01*
X105140048Y-115895381D01*
X104854333Y-115895381D01*
X104759095Y-115847762D01*
X104711476Y-115800143D01*
X94694524Y-104481381D02*
X95361191Y-105481381D01*
X95361191Y-104481381D02*
X94694524Y-105481381D01*
X95599286Y-104481381D02*
X96170715Y-104481381D01*
X95885000Y-105481381D02*
X95885000Y-104481381D01*
X97027858Y-105481381D02*
X96456429Y-105481381D01*
X96742143Y-105481381D02*
X96742143Y-104481381D01*
X96646905Y-104624238D01*
X96551667Y-104719476D01*
X96456429Y-104767095D01*
X97655143Y-98369381D02*
X97321809Y-97893190D01*
X97083714Y-98369381D02*
X97083714Y-97369381D01*
X97464667Y-97369381D01*
X97559905Y-97417000D01*
X97607524Y-97464619D01*
X97655143Y-97559857D01*
X97655143Y-97702714D01*
X97607524Y-97797952D01*
X97559905Y-97845571D01*
X97464667Y-97893190D01*
X97083714Y-97893190D01*
X98607524Y-98369381D02*
X98036095Y-98369381D01*
X98321809Y-98369381D02*
X98321809Y-97369381D01*
X98226571Y-97512238D01*
X98131333Y-97607476D01*
X98036095Y-97655095D01*
X99512286Y-97369381D02*
X99036095Y-97369381D01*
X98988476Y-97845571D01*
X99036095Y-97797952D01*
X99131333Y-97750333D01*
X99369429Y-97750333D01*
X99464667Y-97797952D01*
X99512286Y-97845571D01*
X99559905Y-97940810D01*
X99559905Y-98178905D01*
X99512286Y-98274143D01*
X99464667Y-98321762D01*
X99369429Y-98369381D01*
X99131333Y-98369381D01*
X99036095Y-98321762D01*
X98988476Y-98274143D01*
X111148834Y-116022381D02*
X110815500Y-115546190D01*
X110577405Y-116022381D02*
X110577405Y-115022381D01*
X110958358Y-115022381D01*
X111053596Y-115070000D01*
X111101215Y-115117619D01*
X111148834Y-115212857D01*
X111148834Y-115355714D01*
X111101215Y-115450952D01*
X111053596Y-115498571D01*
X110958358Y-115546190D01*
X110577405Y-115546190D01*
X111720262Y-115450952D02*
X111625024Y-115403333D01*
X111577405Y-115355714D01*
X111529786Y-115260476D01*
X111529786Y-115212857D01*
X111577405Y-115117619D01*
X111625024Y-115070000D01*
X111720262Y-115022381D01*
X111910739Y-115022381D01*
X112005977Y-115070000D01*
X112053596Y-115117619D01*
X112101215Y-115212857D01*
X112101215Y-115260476D01*
X112053596Y-115355714D01*
X112005977Y-115403333D01*
X111910739Y-115450952D01*
X111720262Y-115450952D01*
X111625024Y-115498571D01*
X111577405Y-115546190D01*
X111529786Y-115641429D01*
X111529786Y-115831905D01*
X111577405Y-115927143D01*
X111625024Y-115974762D01*
X111720262Y-116022381D01*
X111910739Y-116022381D01*
X112005977Y-115974762D01*
X112053596Y-115927143D01*
X112101215Y-115831905D01*
X112101215Y-115641429D01*
X112053596Y-115546190D01*
X112005977Y-115498571D01*
X111910739Y-115450952D01*
X92289334Y-119705381D02*
X91813143Y-119705381D01*
X91813143Y-118705381D01*
X93146477Y-119705381D02*
X92575048Y-119705381D01*
X92860762Y-119705381D02*
X92860762Y-118705381D01*
X92765524Y-118848238D01*
X92670286Y-118943476D01*
X92575048Y-118991095D01*
X88773095Y-113498381D02*
X88773095Y-114307905D01*
X88820714Y-114403143D01*
X88868333Y-114450762D01*
X88963571Y-114498381D01*
X89154048Y-114498381D01*
X89249286Y-114450762D01*
X89296905Y-114403143D01*
X89344524Y-114307905D01*
X89344524Y-113498381D01*
X90344524Y-114498381D02*
X89773095Y-114498381D01*
X90058809Y-114498381D02*
X90058809Y-113498381D01*
X89963571Y-113641238D01*
X89868333Y-113736476D01*
X89773095Y-113784095D01*
X87423667Y-129754381D02*
X87423667Y-130468667D01*
X87376047Y-130611524D01*
X87280809Y-130706762D01*
X87137952Y-130754381D01*
X87042714Y-130754381D01*
X88423667Y-130754381D02*
X87852238Y-130754381D01*
X88137952Y-130754381D02*
X88137952Y-129754381D01*
X88042714Y-129897238D01*
X87947476Y-129992476D01*
X87852238Y-130040095D01*
X88582667Y-96102762D02*
X88725524Y-96150381D01*
X88963620Y-96150381D01*
X89058858Y-96102762D01*
X89106477Y-96055143D01*
X89154096Y-95959905D01*
X89154096Y-95864667D01*
X89106477Y-95769429D01*
X89058858Y-95721810D01*
X88963620Y-95674190D01*
X88773143Y-95626571D01*
X88677905Y-95578952D01*
X88630286Y-95531333D01*
X88582667Y-95436095D01*
X88582667Y-95340857D01*
X88630286Y-95245619D01*
X88677905Y-95198000D01*
X88773143Y-95150381D01*
X89011239Y-95150381D01*
X89154096Y-95198000D01*
X89487429Y-95150381D02*
X89725524Y-96150381D01*
X89916001Y-95436095D01*
X90106477Y-96150381D01*
X90344572Y-95150381D01*
X90677905Y-95245619D02*
X90725524Y-95198000D01*
X90820762Y-95150381D01*
X91058858Y-95150381D01*
X91154096Y-95198000D01*
X91201715Y-95245619D01*
X91249334Y-95340857D01*
X91249334Y-95436095D01*
X91201715Y-95578952D01*
X90630286Y-96150381D01*
X91249334Y-96150381D01*
X110768667Y-133818381D02*
X110768667Y-134532667D01*
X110721047Y-134675524D01*
X110625809Y-134770762D01*
X110482952Y-134818381D01*
X110387714Y-134818381D01*
X111197238Y-133913619D02*
X111244857Y-133866000D01*
X111340095Y-133818381D01*
X111578191Y-133818381D01*
X111673429Y-133866000D01*
X111721048Y-133913619D01*
X111768667Y-134008857D01*
X111768667Y-134104095D01*
X111721048Y-134246952D01*
X111149619Y-134818381D01*
X111768667Y-134818381D01*
X111664762Y-101004619D02*
X111569524Y-100957000D01*
X111474286Y-100861762D01*
X111331429Y-100718905D01*
X111236190Y-100671286D01*
X111140952Y-100671286D01*
X111188571Y-100909381D02*
X111093333Y-100861762D01*
X110998095Y-100766524D01*
X110950476Y-100576048D01*
X110950476Y-100242714D01*
X110998095Y-100052238D01*
X111093333Y-99957000D01*
X111188571Y-99909381D01*
X111379048Y-99909381D01*
X111474286Y-99957000D01*
X111569524Y-100052238D01*
X111617143Y-100242714D01*
X111617143Y-100576048D01*
X111569524Y-100766524D01*
X111474286Y-100861762D01*
X111379048Y-100909381D01*
X111188571Y-100909381D01*
X111998095Y-100004619D02*
X112045714Y-99957000D01*
X112140952Y-99909381D01*
X112379048Y-99909381D01*
X112474286Y-99957000D01*
X112521905Y-100004619D01*
X112569524Y-100099857D01*
X112569524Y-100195095D01*
X112521905Y-100337952D01*
X111950476Y-100909381D01*
X112569524Y-100909381D01*
X107053143Y-103195381D02*
X106719809Y-102719190D01*
X106481714Y-103195381D02*
X106481714Y-102195381D01*
X106862667Y-102195381D01*
X106957905Y-102243000D01*
X107005524Y-102290619D01*
X107053143Y-102385857D01*
X107053143Y-102528714D01*
X107005524Y-102623952D01*
X106957905Y-102671571D01*
X106862667Y-102719190D01*
X106481714Y-102719190D01*
X107434095Y-102290619D02*
X107481714Y-102243000D01*
X107576952Y-102195381D01*
X107815048Y-102195381D01*
X107910286Y-102243000D01*
X107957905Y-102290619D01*
X108005524Y-102385857D01*
X108005524Y-102481095D01*
X107957905Y-102623952D01*
X107386476Y-103195381D01*
X108005524Y-103195381D01*
X108386476Y-102290619D02*
X108434095Y-102243000D01*
X108529333Y-102195381D01*
X108767429Y-102195381D01*
X108862667Y-102243000D01*
X108910286Y-102290619D01*
X108957905Y-102385857D01*
X108957905Y-102481095D01*
X108910286Y-102623952D01*
X108338857Y-103195381D01*
X108957905Y-103195381D01*
X84050143Y-111926666D02*
X84097762Y-111974285D01*
X84145381Y-112117142D01*
X84145381Y-112212380D01*
X84097762Y-112355238D01*
X84002524Y-112450476D01*
X83907286Y-112498095D01*
X83716810Y-112545714D01*
X83573952Y-112545714D01*
X83383476Y-112498095D01*
X83288238Y-112450476D01*
X83193000Y-112355238D01*
X83145381Y-112212380D01*
X83145381Y-112117142D01*
X83193000Y-111974285D01*
X83240619Y-111926666D01*
X83145381Y-111069523D02*
X83145381Y-111260000D01*
X83193000Y-111355238D01*
X83240619Y-111402857D01*
X83383476Y-111498095D01*
X83573952Y-111545714D01*
X83954905Y-111545714D01*
X84050143Y-111498095D01*
X84097762Y-111450476D01*
X84145381Y-111355238D01*
X84145381Y-111164761D01*
X84097762Y-111069523D01*
X84050143Y-111021904D01*
X83954905Y-110974285D01*
X83716810Y-110974285D01*
X83621571Y-111021904D01*
X83573952Y-111069523D01*
X83526333Y-111164761D01*
X83526333Y-111355238D01*
X83573952Y-111450476D01*
X83621571Y-111498095D01*
X83716810Y-111545714D01*
X104989334Y-98909143D02*
X104941715Y-98956762D01*
X104798858Y-99004381D01*
X104703620Y-99004381D01*
X104560762Y-98956762D01*
X104465524Y-98861524D01*
X104417905Y-98766286D01*
X104370286Y-98575810D01*
X104370286Y-98432952D01*
X104417905Y-98242476D01*
X104465524Y-98147238D01*
X104560762Y-98052000D01*
X104703620Y-98004381D01*
X104798858Y-98004381D01*
X104941715Y-98052000D01*
X104989334Y-98099619D01*
X105560762Y-98432952D02*
X105465524Y-98385333D01*
X105417905Y-98337714D01*
X105370286Y-98242476D01*
X105370286Y-98194857D01*
X105417905Y-98099619D01*
X105465524Y-98052000D01*
X105560762Y-98004381D01*
X105751239Y-98004381D01*
X105846477Y-98052000D01*
X105894096Y-98099619D01*
X105941715Y-98194857D01*
X105941715Y-98242476D01*
X105894096Y-98337714D01*
X105846477Y-98385333D01*
X105751239Y-98432952D01*
X105560762Y-98432952D01*
X105465524Y-98480571D01*
X105417905Y-98528190D01*
X105370286Y-98623429D01*
X105370286Y-98813905D01*
X105417905Y-98909143D01*
X105465524Y-98956762D01*
X105560762Y-99004381D01*
X105751239Y-99004381D01*
X105846477Y-98956762D01*
X105894096Y-98909143D01*
X105941715Y-98813905D01*
X105941715Y-98623429D01*
X105894096Y-98528190D01*
X105846477Y-98480571D01*
X105751239Y-98432952D01*
X86383905Y-108402381D02*
X86383905Y-107402381D01*
X86622000Y-107402381D01*
X86764858Y-107450000D01*
X86860096Y-107545238D01*
X86907715Y-107640476D01*
X86955334Y-107830952D01*
X86955334Y-107973810D01*
X86907715Y-108164286D01*
X86860096Y-108259524D01*
X86764858Y-108354762D01*
X86622000Y-108402381D01*
X86383905Y-108402381D01*
X87907715Y-108402381D02*
X87336286Y-108402381D01*
X87622000Y-108402381D02*
X87622000Y-107402381D01*
X87526762Y-107545238D01*
X87431524Y-107640476D01*
X87336286Y-107688095D01*
X101496905Y-102179381D02*
X101496905Y-101179381D01*
X101735000Y-101179381D01*
X101877858Y-101227000D01*
X101973096Y-101322238D01*
X102020715Y-101417476D01*
X102068334Y-101607952D01*
X102068334Y-101750810D01*
X102020715Y-101941286D01*
X101973096Y-102036524D01*
X101877858Y-102131762D01*
X101735000Y-102179381D01*
X101496905Y-102179381D01*
X102449286Y-101274619D02*
X102496905Y-101227000D01*
X102592143Y-101179381D01*
X102830239Y-101179381D01*
X102925477Y-101227000D01*
X102973096Y-101274619D01*
X103020715Y-101369857D01*
X103020715Y-101465095D01*
X102973096Y-101607952D01*
X102401667Y-102179381D01*
X103020715Y-102179381D01*
X110156667Y-102195381D02*
X110156667Y-102909667D01*
X110109047Y-103052524D01*
X110013809Y-103147762D01*
X109870952Y-103195381D01*
X109775714Y-103195381D01*
X110537619Y-102195381D02*
X111156667Y-102195381D01*
X110823333Y-102576333D01*
X110966191Y-102576333D01*
X111061429Y-102623952D01*
X111109048Y-102671571D01*
X111156667Y-102766810D01*
X111156667Y-103004905D01*
X111109048Y-103100143D01*
X111061429Y-103147762D01*
X110966191Y-103195381D01*
X110680476Y-103195381D01*
X110585238Y-103147762D01*
X110537619Y-103100143D01*
X97837667Y-93940381D02*
X97837667Y-94654667D01*
X97790047Y-94797524D01*
X97694809Y-94892762D01*
X97551952Y-94940381D01*
X97456714Y-94940381D01*
X98742429Y-94273714D02*
X98742429Y-94940381D01*
X98504333Y-93892762D02*
X98266238Y-94607048D01*
X98885286Y-94607048D01*
X111117143Y-126595143D02*
X111069524Y-126642762D01*
X110926667Y-126690381D01*
X110831429Y-126690381D01*
X110688571Y-126642762D01*
X110593333Y-126547524D01*
X110545714Y-126452286D01*
X110498095Y-126261810D01*
X110498095Y-126118952D01*
X110545714Y-125928476D01*
X110593333Y-125833238D01*
X110688571Y-125738000D01*
X110831429Y-125690381D01*
X110926667Y-125690381D01*
X111069524Y-125738000D01*
X111117143Y-125785619D01*
X112069524Y-126690381D02*
X111498095Y-126690381D01*
X111783809Y-126690381D02*
X111783809Y-125690381D01*
X111688571Y-125833238D01*
X111593333Y-125928476D01*
X111498095Y-125976095D01*
X112926667Y-126023714D02*
X112926667Y-126690381D01*
X112688571Y-125642762D02*
X112450476Y-126357048D01*
X113069524Y-126357048D01*
X93305334Y-121356381D02*
X92972000Y-120880190D01*
X92733905Y-121356381D02*
X92733905Y-120356381D01*
X93114858Y-120356381D01*
X93210096Y-120404000D01*
X93257715Y-120451619D01*
X93305334Y-120546857D01*
X93305334Y-120689714D01*
X93257715Y-120784952D01*
X93210096Y-120832571D01*
X93114858Y-120880190D01*
X92733905Y-120880190D01*
X94162477Y-120356381D02*
X93972000Y-120356381D01*
X93876762Y-120404000D01*
X93829143Y-120451619D01*
X93733905Y-120594476D01*
X93686286Y-120784952D01*
X93686286Y-121165905D01*
X93733905Y-121261143D01*
X93781524Y-121308762D01*
X93876762Y-121356381D01*
X94067239Y-121356381D01*
X94162477Y-121308762D01*
X94210096Y-121261143D01*
X94257715Y-121165905D01*
X94257715Y-120927810D01*
X94210096Y-120832571D01*
X94162477Y-120784952D01*
X94067239Y-120737333D01*
X93876762Y-120737333D01*
X93781524Y-120784952D01*
X93733905Y-120832571D01*
X93686286Y-120927810D01*
X103624143Y-128595381D02*
X103290809Y-128119190D01*
X103052714Y-128595381D02*
X103052714Y-127595381D01*
X103433667Y-127595381D01*
X103528905Y-127643000D01*
X103576524Y-127690619D01*
X103624143Y-127785857D01*
X103624143Y-127928714D01*
X103576524Y-128023952D01*
X103528905Y-128071571D01*
X103433667Y-128119190D01*
X103052714Y-128119190D01*
X104576524Y-128595381D02*
X104005095Y-128595381D01*
X104290809Y-128595381D02*
X104290809Y-127595381D01*
X104195571Y-127738238D01*
X104100333Y-127833476D01*
X104005095Y-127881095D01*
X105147952Y-128023952D02*
X105052714Y-127976333D01*
X105005095Y-127928714D01*
X104957476Y-127833476D01*
X104957476Y-127785857D01*
X105005095Y-127690619D01*
X105052714Y-127643000D01*
X105147952Y-127595381D01*
X105338429Y-127595381D01*
X105433667Y-127643000D01*
X105481286Y-127690619D01*
X105528905Y-127785857D01*
X105528905Y-127833476D01*
X105481286Y-127928714D01*
X105433667Y-127976333D01*
X105338429Y-128023952D01*
X105147952Y-128023952D01*
X105052714Y-128071571D01*
X105005095Y-128119190D01*
X104957476Y-128214429D01*
X104957476Y-128404905D01*
X105005095Y-128500143D01*
X105052714Y-128547762D01*
X105147952Y-128595381D01*
X105338429Y-128595381D01*
X105433667Y-128547762D01*
X105481286Y-128500143D01*
X105528905Y-128404905D01*
X105528905Y-128214429D01*
X105481286Y-128119190D01*
X105433667Y-128071571D01*
X105338429Y-128023952D01*
X94067334Y-132024381D02*
X93734000Y-131548190D01*
X93495905Y-132024381D02*
X93495905Y-131024381D01*
X93876858Y-131024381D01*
X93972096Y-131072000D01*
X94019715Y-131119619D01*
X94067334Y-131214857D01*
X94067334Y-131357714D01*
X94019715Y-131452952D01*
X93972096Y-131500571D01*
X93876858Y-131548190D01*
X93495905Y-131548190D01*
X94400667Y-131024381D02*
X95019715Y-131024381D01*
X94686381Y-131405333D01*
X94829239Y-131405333D01*
X94924477Y-131452952D01*
X94972096Y-131500571D01*
X95019715Y-131595810D01*
X95019715Y-131833905D01*
X94972096Y-131929143D01*
X94924477Y-131976762D01*
X94829239Y-132024381D01*
X94543524Y-132024381D01*
X94448286Y-131976762D01*
X94400667Y-131929143D01*
X105021143Y-111101143D02*
X104973524Y-111148762D01*
X104830667Y-111196381D01*
X104735429Y-111196381D01*
X104592571Y-111148762D01*
X104497333Y-111053524D01*
X104449714Y-110958286D01*
X104402095Y-110767810D01*
X104402095Y-110624952D01*
X104449714Y-110434476D01*
X104497333Y-110339238D01*
X104592571Y-110244000D01*
X104735429Y-110196381D01*
X104830667Y-110196381D01*
X104973524Y-110244000D01*
X105021143Y-110291619D01*
X105973524Y-111196381D02*
X105402095Y-111196381D01*
X105687809Y-111196381D02*
X105687809Y-110196381D01*
X105592571Y-110339238D01*
X105497333Y-110434476D01*
X105402095Y-110482095D01*
X106925905Y-111196381D02*
X106354476Y-111196381D01*
X106640190Y-111196381D02*
X106640190Y-110196381D01*
X106544952Y-110339238D01*
X106449714Y-110434476D01*
X106354476Y-110482095D01*
X108545405Y-93797381D02*
X108545405Y-92797381D01*
X108783500Y-92797381D01*
X108926358Y-92845000D01*
X109021596Y-92940238D01*
X109069215Y-93035476D01*
X109116834Y-93225952D01*
X109116834Y-93368810D01*
X109069215Y-93559286D01*
X109021596Y-93654524D01*
X108926358Y-93749762D01*
X108783500Y-93797381D01*
X108545405Y-93797381D01*
X109450167Y-92797381D02*
X110069215Y-92797381D01*
X109735881Y-93178333D01*
X109878739Y-93178333D01*
X109973977Y-93225952D01*
X110021596Y-93273571D01*
X110069215Y-93368810D01*
X110069215Y-93606905D01*
X110021596Y-93702143D01*
X109973977Y-93749762D01*
X109878739Y-93797381D01*
X109593024Y-93797381D01*
X109497786Y-93749762D01*
X109450167Y-93702143D01*
X98012262Y-92114619D02*
X97917024Y-92067000D01*
X97821786Y-91971762D01*
X97678929Y-91828905D01*
X97583690Y-91781286D01*
X97488452Y-91781286D01*
X97536071Y-92019381D02*
X97440833Y-91971762D01*
X97345595Y-91876524D01*
X97297976Y-91686048D01*
X97297976Y-91352714D01*
X97345595Y-91162238D01*
X97440833Y-91067000D01*
X97536071Y-91019381D01*
X97726548Y-91019381D01*
X97821786Y-91067000D01*
X97917024Y-91162238D01*
X97964643Y-91352714D01*
X97964643Y-91686048D01*
X97917024Y-91876524D01*
X97821786Y-91971762D01*
X97726548Y-92019381D01*
X97536071Y-92019381D01*
X98917024Y-92019381D02*
X98345595Y-92019381D01*
X98631309Y-92019381D02*
X98631309Y-91019381D01*
X98536071Y-91162238D01*
X98440833Y-91257476D01*
X98345595Y-91305095D01*
M02*
