G04 #@! TF.FileFunction,Other,Fab,Top*
%FSLAX45Y45*%
G04 Gerber Fmt 4.5, Leading zero omitted, Abs format (unit mm)*
G04 Created by KiCad (PCBNEW 4.0.6) date Sun Nov 12 15:14:38 2017*
%MOMM*%
%LPD*%
G01*
G04 APERTURE LIST*
%ADD10C,0.050000*%
%ADD11C,0.127000*%
%ADD12C,0.100000*%
%ADD13C,0.150000*%
G04 APERTURE END LIST*
D10*
D11*
X10147300Y-9232900D02*
X10350500Y-9232900D01*
X10147300Y-9093200D02*
X10147300Y-9232900D01*
X10350500Y-9093200D02*
X10147300Y-9093200D01*
X10350500Y-9232900D02*
X10350500Y-9093200D01*
D12*
X8741400Y-11923400D02*
X8741400Y-12003400D01*
X8581400Y-11923400D02*
X8741400Y-11923400D01*
X8581400Y-12003400D02*
X8581400Y-11923400D01*
X8741400Y-12003400D02*
X8581400Y-12003400D01*
X9260200Y-11548100D02*
X9180200Y-11548100D01*
X9260200Y-11388100D02*
X9260200Y-11548100D01*
X9180200Y-11388100D02*
X9260200Y-11388100D01*
X9180200Y-11548100D02*
X9180200Y-11388100D01*
X8536000Y-12203200D02*
X8536000Y-12079200D01*
X8736000Y-12203200D02*
X8536000Y-12203200D01*
X8736000Y-12079200D02*
X8736000Y-12203200D01*
X8536000Y-12079200D02*
X8736000Y-12079200D01*
X9180200Y-11007100D02*
X9260200Y-11007100D01*
X9180200Y-11167100D02*
X9180200Y-11007100D01*
X9260200Y-11167100D02*
X9180200Y-11167100D01*
X9260200Y-11007100D02*
X9260200Y-11167100D01*
X9546600Y-12282800D02*
X9546600Y-12202800D01*
X9706600Y-12282800D02*
X9546600Y-12282800D01*
X9706600Y-12202800D02*
X9706600Y-12282800D01*
X9546600Y-12202800D02*
X9706600Y-12202800D01*
X8481700Y-11578600D02*
X8561700Y-11578600D01*
X8481700Y-11738600D02*
X8481700Y-11578600D01*
X8561700Y-11738600D02*
X8481700Y-11738600D01*
X8561700Y-11578600D02*
X8561700Y-11738600D01*
X9706600Y-12482200D02*
X9706600Y-12562200D01*
X9546600Y-12482200D02*
X9706600Y-12482200D01*
X9546600Y-12562200D02*
X9546600Y-12482200D01*
X9706600Y-12562200D02*
X9546600Y-12562200D01*
X9031600Y-10392400D02*
X8951600Y-10392400D01*
X9031600Y-10232400D02*
X9031600Y-10392400D01*
X8951600Y-10232400D02*
X9031600Y-10232400D01*
X8951600Y-10392400D02*
X8951600Y-10232400D01*
X10835000Y-11630650D02*
X10755000Y-11630650D01*
X10835000Y-11470650D02*
X10835000Y-11630650D01*
X10755000Y-11470650D02*
X10835000Y-11470650D01*
X10755000Y-11630650D02*
X10755000Y-11470650D01*
X8900800Y-11019800D02*
X8980800Y-11019800D01*
X8900800Y-11179800D02*
X8900800Y-11019800D01*
X8980800Y-11179800D02*
X8900800Y-11179800D01*
X8980800Y-11019800D02*
X8980800Y-11179800D01*
X9909800Y-10323200D02*
X9909800Y-10403200D01*
X9749800Y-10323200D02*
X9909800Y-10323200D01*
X9749800Y-10403200D02*
X9749800Y-10323200D01*
X9909800Y-10403200D02*
X9749800Y-10403200D01*
X9198600Y-12837800D02*
X9198600Y-12917800D01*
X9038600Y-12837800D02*
X9198600Y-12837800D01*
X9038600Y-12917800D02*
X9038600Y-12837800D01*
X9198600Y-12917800D02*
X9038600Y-12917800D01*
X9198600Y-12634600D02*
X9198600Y-12714600D01*
X9038600Y-12634600D02*
X9198600Y-12634600D01*
X9038600Y-12714600D02*
X9038600Y-12634600D01*
X9198600Y-12714600D02*
X9038600Y-12714600D01*
X10250800Y-13161000D02*
X10170800Y-13161000D01*
X10250800Y-13001000D02*
X10250800Y-13161000D01*
X10170800Y-13001000D02*
X10250800Y-13001000D01*
X10170800Y-13161000D02*
X10170800Y-13001000D01*
X8434700Y-13522950D02*
X8354700Y-13522950D01*
X8434700Y-13362950D02*
X8434700Y-13522950D01*
X8354700Y-13362950D02*
X8434700Y-13362950D01*
X8354700Y-13522950D02*
X8354700Y-13362950D01*
X10657200Y-13161000D02*
X10577200Y-13161000D01*
X10657200Y-13001000D02*
X10657200Y-13161000D01*
X10577200Y-13001000D02*
X10657200Y-13001000D01*
X10577200Y-13161000D02*
X10577200Y-13001000D01*
X10860400Y-13161000D02*
X10780400Y-13161000D01*
X10860400Y-13001000D02*
X10860400Y-13161000D01*
X10780400Y-13001000D02*
X10860400Y-13001000D01*
X10780400Y-13161000D02*
X10780400Y-13001000D01*
X8799200Y-10257800D02*
X8879200Y-10257800D01*
X8799200Y-10417800D02*
X8799200Y-10257800D01*
X8879200Y-10417800D02*
X8799200Y-10417800D01*
X8879200Y-10257800D02*
X8879200Y-10417800D01*
X9184000Y-10417800D02*
X9104000Y-10417800D01*
X9184000Y-10257800D02*
X9184000Y-10417800D01*
X9104000Y-10257800D02*
X9184000Y-10257800D01*
X9104000Y-10417800D02*
X9104000Y-10257800D01*
X11070600Y-9514200D02*
X11070600Y-9434200D01*
X11230600Y-9514200D02*
X11070600Y-9514200D01*
X11230600Y-9434200D02*
X11230600Y-9514200D01*
X11070600Y-9434200D02*
X11230600Y-9434200D01*
X10486400Y-9590400D02*
X10486400Y-9510400D01*
X10646400Y-9590400D02*
X10486400Y-9590400D01*
X10646400Y-9510400D02*
X10646400Y-9590400D01*
X10486400Y-9510400D02*
X10646400Y-9510400D01*
X8905500Y-13323900D02*
X9255500Y-13323900D01*
X9255500Y-13323900D02*
X9255500Y-13523900D01*
X9255500Y-13523900D02*
X8905500Y-13523900D01*
X8905500Y-13523900D02*
X8905500Y-13323900D01*
X8930500Y-13503900D02*
X9230500Y-13503900D01*
X8930500Y-13343900D02*
X9230500Y-13343900D01*
X9230500Y-13343900D02*
X9230500Y-13503900D01*
X8930500Y-13343900D02*
X8930500Y-13503900D01*
X8780500Y-13598900D02*
X9380500Y-13598900D01*
X8780500Y-13248900D02*
X9380500Y-13248900D01*
X8780500Y-13248900D02*
X8780500Y-13598900D01*
X9380500Y-13248900D02*
X9380500Y-13598900D01*
X9477800Y-12686200D02*
X9542800Y-12621200D01*
X9657800Y-12621200D02*
X9542800Y-12621200D01*
X9477800Y-12686200D02*
X9477800Y-12931200D01*
X9657800Y-12931200D02*
X9477800Y-12931200D01*
X9657800Y-12621200D02*
X9657800Y-12931200D01*
D13*
X10732250Y-11891200D02*
X10732250Y-12491200D01*
X10732250Y-12491200D02*
X10032250Y-12491200D01*
X10032250Y-12491200D02*
X10032250Y-11791200D01*
X10032250Y-11791200D02*
X10632250Y-11791200D01*
X10632250Y-11791200D02*
X10732250Y-11891200D01*
D12*
X9787300Y-11553700D02*
G75*
G02X9364300Y-11553700I-211500J0D01*
G01*
X9787300Y-10950700D02*
G75*
G03X9364300Y-10950700I-211500J0D01*
G01*
X9340800Y-11822200D02*
X9810800Y-11822200D01*
X9810800Y-11822200D02*
X9810800Y-10682200D01*
X9810800Y-10682200D02*
X9340800Y-10682200D01*
X9340800Y-10682200D02*
X9340800Y-11822200D01*
X9364300Y-11553700D02*
X9364300Y-10950700D01*
X9787300Y-11553700D02*
X9787300Y-10950700D01*
X9909800Y-9891400D02*
X9909800Y-9971400D01*
X9749800Y-9891400D02*
X9909800Y-9891400D01*
X9749800Y-9971400D02*
X9749800Y-9891400D01*
X9909800Y-9971400D02*
X9749800Y-9971400D01*
X11006450Y-11630650D02*
X10926450Y-11630650D01*
X11006450Y-11470650D02*
X11006450Y-11630650D01*
X10926450Y-11470650D02*
X11006450Y-11470650D01*
X10926450Y-11630650D02*
X10926450Y-11470650D01*
X9122400Y-12377400D02*
X8962400Y-12377400D01*
X9122400Y-12057400D02*
X9122400Y-12377400D01*
X8962400Y-12057400D02*
X9122400Y-12057400D01*
X8962400Y-12377400D02*
X8962400Y-12057400D01*
X8723800Y-11748600D02*
X8658800Y-11683600D01*
X8658800Y-11568600D02*
X8658800Y-11683600D01*
X8723800Y-11748600D02*
X8968800Y-11748600D01*
X8968800Y-11568600D02*
X8968800Y-11748600D01*
X8658800Y-11568600D02*
X8968800Y-11568600D01*
X8816600Y-9729800D02*
X9166600Y-9729800D01*
X9166600Y-9729800D02*
X9166600Y-9929800D01*
X9166600Y-9929800D02*
X8816600Y-9929800D01*
X8816600Y-9929800D02*
X8816600Y-9729800D01*
X8841600Y-9909800D02*
X9141600Y-9909800D01*
X8841600Y-9749800D02*
X9141600Y-9749800D01*
X9141600Y-9749800D02*
X9141600Y-9909800D01*
X8841600Y-9749800D02*
X8841600Y-9909800D01*
X8691600Y-10004800D02*
X9291600Y-10004800D01*
X8691600Y-9654800D02*
X9291600Y-9654800D01*
X8691600Y-9654800D02*
X8691600Y-10004800D01*
X9291600Y-9654800D02*
X9291600Y-10004800D01*
X10998200Y-13309600D02*
X9728200Y-13309600D01*
X9728200Y-13309600D02*
X9728200Y-13563600D01*
X9728200Y-13563600D02*
X10998200Y-13563600D01*
X10998200Y-13563600D02*
X10998200Y-13309600D01*
X10928600Y-9847400D02*
X11173600Y-9847400D01*
X10871600Y-9792400D02*
X10871600Y-9707400D01*
X10928600Y-9847400D02*
X10871600Y-9792400D01*
X10871600Y-9707400D02*
X11175600Y-9707400D01*
X11175600Y-9847400D02*
X11175600Y-9707400D01*
X10729600Y-9902200D02*
X10809600Y-9902200D01*
X10729600Y-10062200D02*
X10729600Y-9902200D01*
X10809600Y-10062200D02*
X10729600Y-10062200D01*
X10809600Y-9902200D02*
X10809600Y-10062200D01*
X8329300Y-11578600D02*
X8409300Y-11578600D01*
X8329300Y-11738600D02*
X8329300Y-11578600D01*
X8409300Y-11738600D02*
X8329300Y-11738600D01*
X8409300Y-11578600D02*
X8409300Y-11738600D01*
X10646400Y-9358000D02*
X10646400Y-9438000D01*
X10486400Y-9358000D02*
X10646400Y-9358000D01*
X10486400Y-9438000D02*
X10486400Y-9358000D01*
X10646400Y-9438000D02*
X10486400Y-9438000D01*
X8752200Y-11131000D02*
X8672200Y-11131000D01*
X8712200Y-11136000D02*
X8752200Y-11196000D01*
X8672200Y-11196000D02*
X8712200Y-11136000D01*
X8752200Y-11196000D02*
X8672200Y-11196000D01*
X8632200Y-11336000D02*
X8632200Y-11016000D01*
X8792200Y-11336000D02*
X8632200Y-11336000D01*
X8792200Y-11016000D02*
X8792200Y-11336000D01*
X8632200Y-11016000D02*
X8792200Y-11016000D01*
X9810200Y-10120000D02*
X9810200Y-10200000D01*
X9815200Y-10160000D02*
X9875200Y-10120000D01*
X9875200Y-10200000D02*
X9815200Y-10160000D01*
X9875200Y-10120000D02*
X9875200Y-10200000D01*
X10015200Y-10240000D02*
X9695200Y-10240000D01*
X10015200Y-10080000D02*
X10015200Y-10240000D01*
X9695200Y-10080000D02*
X10015200Y-10080000D01*
X9695200Y-10240000D02*
X9695200Y-10080000D01*
X10765800Y-12790800D02*
X10765800Y-12710800D01*
X10925800Y-12790800D02*
X10765800Y-12790800D01*
X10925800Y-12710800D02*
X10925800Y-12790800D01*
X10765800Y-12710800D02*
X10925800Y-12710800D01*
X9700250Y-12050400D02*
X9700250Y-12130400D01*
X9540250Y-12050400D02*
X9700250Y-12050400D01*
X9540250Y-12130400D02*
X9540250Y-12050400D01*
X9700250Y-12130400D02*
X9540250Y-12130400D01*
X10454000Y-13161000D02*
X10374000Y-13161000D01*
X10454000Y-13001000D02*
X10454000Y-13161000D01*
X10374000Y-13001000D02*
X10454000Y-13001000D01*
X10374000Y-13161000D02*
X10374000Y-13001000D01*
X9038600Y-13082900D02*
X9038600Y-13002900D01*
X9198600Y-13082900D02*
X9038600Y-13082900D01*
X9198600Y-13002900D02*
X9198600Y-13082900D01*
X9038600Y-13002900D02*
X9198600Y-13002900D01*
X10695300Y-11510000D02*
X10615300Y-11510000D01*
X10695300Y-11350000D02*
X10695300Y-11510000D01*
X10615300Y-11350000D02*
X10695300Y-11350000D01*
X10615300Y-11510000D02*
X10615300Y-11350000D01*
D11*
X11049000Y-9220200D02*
X11176000Y-9220200D01*
X11049000Y-9093200D02*
X11049000Y-9220200D01*
X11176000Y-9093200D02*
X11049000Y-9093200D01*
X11176000Y-9220200D02*
X11176000Y-9093200D01*
D13*
X8644733Y-12124114D02*
X8639972Y-12128876D01*
X8625686Y-12133638D01*
X8616162Y-12133638D01*
X8601876Y-12128876D01*
X8592352Y-12119352D01*
X8587591Y-12109829D01*
X8582829Y-12090781D01*
X8582829Y-12076495D01*
X8587591Y-12057448D01*
X8592352Y-12047924D01*
X8601876Y-12038400D01*
X8616162Y-12033638D01*
X8625686Y-12033638D01*
X8639972Y-12038400D01*
X8644733Y-12043162D01*
X8739972Y-12133638D02*
X8682829Y-12133638D01*
X8711400Y-12133638D02*
X8711400Y-12033638D01*
X8701876Y-12047924D01*
X8692352Y-12057448D01*
X8682829Y-12062209D01*
X9130914Y-11484767D02*
X9135676Y-11489528D01*
X9140438Y-11503814D01*
X9140438Y-11513338D01*
X9135676Y-11527624D01*
X9126152Y-11537148D01*
X9116629Y-11541909D01*
X9097581Y-11546671D01*
X9083295Y-11546671D01*
X9064248Y-11541909D01*
X9054724Y-11537148D01*
X9045200Y-11527624D01*
X9040438Y-11513338D01*
X9040438Y-11503814D01*
X9045200Y-11489528D01*
X9049962Y-11484767D01*
X9049962Y-11446671D02*
X9045200Y-11441909D01*
X9040438Y-11432386D01*
X9040438Y-11408576D01*
X9045200Y-11399052D01*
X9049962Y-11394290D01*
X9059486Y-11389528D01*
X9069010Y-11389528D01*
X9083295Y-11394290D01*
X9140438Y-11451433D01*
X9140438Y-11389528D01*
X8619333Y-12001914D02*
X8614572Y-12006676D01*
X8600286Y-12011438D01*
X8590762Y-12011438D01*
X8576476Y-12006676D01*
X8566952Y-11997152D01*
X8562191Y-11987629D01*
X8557429Y-11968581D01*
X8557429Y-11954295D01*
X8562191Y-11935248D01*
X8566952Y-11925724D01*
X8576476Y-11916200D01*
X8590762Y-11911438D01*
X8600286Y-11911438D01*
X8614572Y-11916200D01*
X8619333Y-11920962D01*
X8652667Y-11911438D02*
X8714572Y-11911438D01*
X8681238Y-11949533D01*
X8695524Y-11949533D01*
X8705048Y-11954295D01*
X8709810Y-11959057D01*
X8714572Y-11968581D01*
X8714572Y-11992390D01*
X8709810Y-12001914D01*
X8705048Y-12006676D01*
X8695524Y-12011438D01*
X8666952Y-12011438D01*
X8657429Y-12006676D01*
X8652667Y-12001914D01*
X9380914Y-11103767D02*
X9385676Y-11108529D01*
X9390438Y-11122814D01*
X9390438Y-11132338D01*
X9385676Y-11146624D01*
X9376152Y-11156148D01*
X9366629Y-11160910D01*
X9347581Y-11165671D01*
X9333295Y-11165671D01*
X9314248Y-11160910D01*
X9304724Y-11156148D01*
X9295200Y-11146624D01*
X9290438Y-11132338D01*
X9290438Y-11122814D01*
X9295200Y-11108529D01*
X9299962Y-11103767D01*
X9323771Y-11018052D02*
X9390438Y-11018052D01*
X9285676Y-11041862D02*
X9357105Y-11065671D01*
X9357105Y-11003767D01*
X9609933Y-12153514D02*
X9605172Y-12158276D01*
X9590886Y-12163038D01*
X9581362Y-12163038D01*
X9567076Y-12158276D01*
X9557552Y-12148752D01*
X9552791Y-12139229D01*
X9548029Y-12120181D01*
X9548029Y-12105895D01*
X9552791Y-12086848D01*
X9557552Y-12077324D01*
X9567076Y-12067800D01*
X9581362Y-12063038D01*
X9590886Y-12063038D01*
X9605172Y-12067800D01*
X9609933Y-12072562D01*
X9700410Y-12063038D02*
X9652791Y-12063038D01*
X9648029Y-12110657D01*
X9652791Y-12105895D01*
X9662314Y-12101133D01*
X9686124Y-12101133D01*
X9695648Y-12105895D01*
X9700410Y-12110657D01*
X9705172Y-12120181D01*
X9705172Y-12143990D01*
X9700410Y-12153514D01*
X9695648Y-12158276D01*
X9686124Y-12163038D01*
X9662314Y-12163038D01*
X9652791Y-12158276D01*
X9648029Y-12153514D01*
X8682414Y-11675267D02*
X8687176Y-11680028D01*
X8691938Y-11694314D01*
X8691938Y-11703838D01*
X8687176Y-11718124D01*
X8677652Y-11727648D01*
X8668129Y-11732409D01*
X8649081Y-11737171D01*
X8634795Y-11737171D01*
X8615748Y-11732409D01*
X8606224Y-11727648D01*
X8596700Y-11718124D01*
X8591938Y-11703838D01*
X8591938Y-11694314D01*
X8596700Y-11680028D01*
X8601462Y-11675267D01*
X8591938Y-11641933D02*
X8591938Y-11575267D01*
X8691938Y-11618124D01*
X9609933Y-12682914D02*
X9605172Y-12687676D01*
X9590886Y-12692438D01*
X9581362Y-12692438D01*
X9567076Y-12687676D01*
X9557552Y-12678152D01*
X9552791Y-12668629D01*
X9548029Y-12649581D01*
X9548029Y-12635295D01*
X9552791Y-12616248D01*
X9557552Y-12606724D01*
X9567076Y-12597200D01*
X9581362Y-12592438D01*
X9590886Y-12592438D01*
X9605172Y-12597200D01*
X9609933Y-12601962D01*
X9657552Y-12692438D02*
X9676600Y-12692438D01*
X9686124Y-12687676D01*
X9690886Y-12682914D01*
X9700410Y-12668629D01*
X9705172Y-12649581D01*
X9705172Y-12611486D01*
X9700410Y-12601962D01*
X9695648Y-12597200D01*
X9686124Y-12592438D01*
X9667076Y-12592438D01*
X9657552Y-12597200D01*
X9652791Y-12601962D01*
X9648029Y-12611486D01*
X9648029Y-12635295D01*
X9652791Y-12644819D01*
X9657552Y-12649581D01*
X9667076Y-12654343D01*
X9686124Y-12654343D01*
X9695648Y-12649581D01*
X9700410Y-12644819D01*
X9705172Y-12635295D01*
X8902314Y-10376686D02*
X8907076Y-10381448D01*
X8911838Y-10395733D01*
X8911838Y-10405257D01*
X8907076Y-10419543D01*
X8897552Y-10429067D01*
X8888029Y-10433829D01*
X8868981Y-10438591D01*
X8854695Y-10438591D01*
X8835648Y-10433829D01*
X8826124Y-10429067D01*
X8816600Y-10419543D01*
X8811838Y-10405257D01*
X8811838Y-10395733D01*
X8816600Y-10381448D01*
X8821362Y-10376686D01*
X8911838Y-10281448D02*
X8911838Y-10338591D01*
X8911838Y-10310019D02*
X8811838Y-10310019D01*
X8826124Y-10319543D01*
X8835648Y-10329067D01*
X8840410Y-10338591D01*
X8811838Y-10219543D02*
X8811838Y-10210019D01*
X8816600Y-10200495D01*
X8821362Y-10195733D01*
X8830886Y-10190971D01*
X8849933Y-10186210D01*
X8873743Y-10186210D01*
X8892791Y-10190971D01*
X8902314Y-10195733D01*
X8907076Y-10200495D01*
X8911838Y-10210019D01*
X8911838Y-10219543D01*
X8907076Y-10229067D01*
X8902314Y-10233829D01*
X8892791Y-10238591D01*
X8873743Y-10243352D01*
X8849933Y-10243352D01*
X8830886Y-10238591D01*
X8821362Y-10233829D01*
X8816600Y-10229067D01*
X8811838Y-10219543D01*
X10705714Y-11614936D02*
X10710476Y-11619698D01*
X10715238Y-11633983D01*
X10715238Y-11643507D01*
X10710476Y-11657793D01*
X10700952Y-11667317D01*
X10691429Y-11672079D01*
X10672381Y-11676840D01*
X10658095Y-11676840D01*
X10639048Y-11672079D01*
X10629524Y-11667317D01*
X10620000Y-11657793D01*
X10615238Y-11643507D01*
X10615238Y-11633983D01*
X10620000Y-11619698D01*
X10624762Y-11614936D01*
X10715238Y-11519698D02*
X10715238Y-11576840D01*
X10715238Y-11548269D02*
X10615238Y-11548269D01*
X10629524Y-11557793D01*
X10639048Y-11567317D01*
X10643810Y-11576840D01*
X10615238Y-11486364D02*
X10615238Y-11424459D01*
X10653333Y-11457793D01*
X10653333Y-11443507D01*
X10658095Y-11433983D01*
X10662857Y-11429221D01*
X10672381Y-11424459D01*
X10696191Y-11424459D01*
X10705714Y-11429221D01*
X10710476Y-11433983D01*
X10715238Y-11443507D01*
X10715238Y-11472079D01*
X10710476Y-11481602D01*
X10705714Y-11486364D01*
X9131038Y-11116467D02*
X9083419Y-11149800D01*
X9131038Y-11173610D02*
X9031038Y-11173610D01*
X9031038Y-11135514D01*
X9035800Y-11125990D01*
X9040562Y-11121229D01*
X9050086Y-11116467D01*
X9064371Y-11116467D01*
X9073895Y-11121229D01*
X9078657Y-11125990D01*
X9083419Y-11135514D01*
X9083419Y-11173610D01*
X9131038Y-11021229D02*
X9131038Y-11078371D01*
X9131038Y-11049800D02*
X9031038Y-11049800D01*
X9045324Y-11059324D01*
X9054848Y-11068848D01*
X9059610Y-11078371D01*
X9813133Y-10553438D02*
X9779800Y-10505819D01*
X9755991Y-10553438D02*
X9755991Y-10453438D01*
X9794086Y-10453438D01*
X9803610Y-10458200D01*
X9808372Y-10462962D01*
X9813133Y-10472486D01*
X9813133Y-10486771D01*
X9808372Y-10496295D01*
X9803610Y-10501057D01*
X9794086Y-10505819D01*
X9755991Y-10505819D01*
X9851229Y-10462962D02*
X9855991Y-10458200D01*
X9865514Y-10453438D01*
X9889324Y-10453438D01*
X9898848Y-10458200D01*
X9903610Y-10462962D01*
X9908372Y-10472486D01*
X9908372Y-10482010D01*
X9903610Y-10496295D01*
X9846467Y-10553438D01*
X9908372Y-10553438D01*
X9101933Y-13068038D02*
X9068600Y-13020419D01*
X9044791Y-13068038D02*
X9044791Y-12968038D01*
X9082886Y-12968038D01*
X9092410Y-12972800D01*
X9097172Y-12977562D01*
X9101933Y-12987086D01*
X9101933Y-13001371D01*
X9097172Y-13010895D01*
X9092410Y-13015657D01*
X9082886Y-13020419D01*
X9044791Y-13020419D01*
X9187648Y-13001371D02*
X9187648Y-13068038D01*
X9163838Y-12963276D02*
X9140029Y-13034705D01*
X9201933Y-13034705D01*
X9101933Y-12864838D02*
X9068600Y-12817219D01*
X9044791Y-12864838D02*
X9044791Y-12764838D01*
X9082886Y-12764838D01*
X9092410Y-12769600D01*
X9097172Y-12774362D01*
X9101933Y-12783886D01*
X9101933Y-12798171D01*
X9097172Y-12807695D01*
X9092410Y-12812457D01*
X9082886Y-12817219D01*
X9044791Y-12817219D01*
X9192410Y-12764838D02*
X9144791Y-12764838D01*
X9140029Y-12812457D01*
X9144791Y-12807695D01*
X9154314Y-12802933D01*
X9178124Y-12802933D01*
X9187648Y-12807695D01*
X9192410Y-12812457D01*
X9197172Y-12821981D01*
X9197172Y-12845790D01*
X9192410Y-12855314D01*
X9187648Y-12860076D01*
X9178124Y-12864838D01*
X9154314Y-12864838D01*
X9144791Y-12860076D01*
X9140029Y-12855314D01*
X10111038Y-13097667D02*
X10063419Y-13131000D01*
X10111038Y-13154809D02*
X10011038Y-13154809D01*
X10011038Y-13116714D01*
X10015800Y-13107190D01*
X10020562Y-13102428D01*
X10030086Y-13097667D01*
X10044371Y-13097667D01*
X10053895Y-13102428D01*
X10058657Y-13107190D01*
X10063419Y-13116714D01*
X10063419Y-13154809D01*
X10111038Y-13050048D02*
X10111038Y-13031000D01*
X10106276Y-13021476D01*
X10101514Y-13016714D01*
X10087229Y-13007190D01*
X10068181Y-13002428D01*
X10030086Y-13002428D01*
X10020562Y-13007190D01*
X10015800Y-13011952D01*
X10011038Y-13021476D01*
X10011038Y-13040524D01*
X10015800Y-13050048D01*
X10020562Y-13054809D01*
X10030086Y-13059571D01*
X10053895Y-13059571D01*
X10063419Y-13054809D01*
X10068181Y-13050048D01*
X10072943Y-13040524D01*
X10072943Y-13021476D01*
X10068181Y-13011952D01*
X10063419Y-13007190D01*
X10053895Y-13002428D01*
X8294938Y-13507236D02*
X8247319Y-13540569D01*
X8294938Y-13564379D02*
X8194938Y-13564379D01*
X8194938Y-13526283D01*
X8199700Y-13516759D01*
X8204462Y-13511998D01*
X8213986Y-13507236D01*
X8228271Y-13507236D01*
X8237795Y-13511998D01*
X8242557Y-13516759D01*
X8247319Y-13526283D01*
X8247319Y-13564379D01*
X8294938Y-13411998D02*
X8294938Y-13469140D01*
X8294938Y-13440569D02*
X8194938Y-13440569D01*
X8209224Y-13450093D01*
X8218748Y-13459617D01*
X8223509Y-13469140D01*
X8194938Y-13350093D02*
X8194938Y-13340569D01*
X8199700Y-13331045D01*
X8204462Y-13326283D01*
X8213986Y-13321521D01*
X8233033Y-13316759D01*
X8256843Y-13316759D01*
X8275890Y-13321521D01*
X8285414Y-13326283D01*
X8290176Y-13331045D01*
X8294938Y-13340569D01*
X8294938Y-13350093D01*
X8290176Y-13359617D01*
X8285414Y-13364379D01*
X8275890Y-13369140D01*
X8256843Y-13373902D01*
X8233033Y-13373902D01*
X8213986Y-13369140D01*
X8204462Y-13364379D01*
X8199700Y-13359617D01*
X8194938Y-13350093D01*
X10517438Y-13145286D02*
X10469819Y-13178619D01*
X10517438Y-13202429D02*
X10417438Y-13202429D01*
X10417438Y-13164333D01*
X10422200Y-13154809D01*
X10426962Y-13150048D01*
X10436486Y-13145286D01*
X10450771Y-13145286D01*
X10460295Y-13150048D01*
X10465057Y-13154809D01*
X10469819Y-13164333D01*
X10469819Y-13202429D01*
X10517438Y-13050048D02*
X10517438Y-13107190D01*
X10517438Y-13078619D02*
X10417438Y-13078619D01*
X10431724Y-13088143D01*
X10441248Y-13097667D01*
X10446010Y-13107190D01*
X10517438Y-12954809D02*
X10517438Y-13011952D01*
X10517438Y-12983381D02*
X10417438Y-12983381D01*
X10431724Y-12992905D01*
X10441248Y-13002429D01*
X10446010Y-13011952D01*
X10720638Y-13145286D02*
X10673019Y-13178619D01*
X10720638Y-13202429D02*
X10620638Y-13202429D01*
X10620638Y-13164333D01*
X10625400Y-13154809D01*
X10630162Y-13150048D01*
X10639686Y-13145286D01*
X10653971Y-13145286D01*
X10663495Y-13150048D01*
X10668257Y-13154809D01*
X10673019Y-13164333D01*
X10673019Y-13202429D01*
X10720638Y-13050048D02*
X10720638Y-13107190D01*
X10720638Y-13078619D02*
X10620638Y-13078619D01*
X10634924Y-13088143D01*
X10644448Y-13097667D01*
X10649210Y-13107190D01*
X10630162Y-13011952D02*
X10625400Y-13007190D01*
X10620638Y-12997667D01*
X10620638Y-12973857D01*
X10625400Y-12964333D01*
X10630162Y-12959571D01*
X10639686Y-12954809D01*
X10649210Y-12954809D01*
X10663495Y-12959571D01*
X10720638Y-13016714D01*
X10720638Y-12954809D01*
X9029438Y-10402086D02*
X8981819Y-10435419D01*
X9029438Y-10459229D02*
X8929438Y-10459229D01*
X8929438Y-10421133D01*
X8934200Y-10411610D01*
X8938962Y-10406848D01*
X8948486Y-10402086D01*
X8962771Y-10402086D01*
X8972295Y-10406848D01*
X8977057Y-10411610D01*
X8981819Y-10421133D01*
X8981819Y-10459229D01*
X9029438Y-10306848D02*
X9029438Y-10363991D01*
X9029438Y-10335419D02*
X8929438Y-10335419D01*
X8943724Y-10344943D01*
X8953248Y-10354467D01*
X8958010Y-10363991D01*
X8929438Y-10273514D02*
X8929438Y-10211610D01*
X8967533Y-10244943D01*
X8967533Y-10230657D01*
X8972295Y-10221133D01*
X8977057Y-10216371D01*
X8986581Y-10211610D01*
X9010391Y-10211610D01*
X9019914Y-10216371D01*
X9024676Y-10221133D01*
X9029438Y-10230657D01*
X9029438Y-10259229D01*
X9024676Y-10268752D01*
X9019914Y-10273514D01*
X9044238Y-10402086D02*
X8996619Y-10435419D01*
X9044238Y-10459229D02*
X8944238Y-10459229D01*
X8944238Y-10421133D01*
X8949000Y-10411610D01*
X8953762Y-10406848D01*
X8963286Y-10402086D01*
X8977571Y-10402086D01*
X8987095Y-10406848D01*
X8991857Y-10411610D01*
X8996619Y-10421133D01*
X8996619Y-10459229D01*
X9044238Y-10306848D02*
X9044238Y-10363991D01*
X9044238Y-10335419D02*
X8944238Y-10335419D01*
X8958524Y-10344943D01*
X8968048Y-10354467D01*
X8972810Y-10363991D01*
X8977571Y-10221133D02*
X9044238Y-10221133D01*
X8939476Y-10244943D02*
X9010905Y-10268752D01*
X9010905Y-10206848D01*
X11086314Y-9374438D02*
X11052981Y-9326819D01*
X11029171Y-9374438D02*
X11029171Y-9274438D01*
X11067267Y-9274438D01*
X11076791Y-9279200D01*
X11081552Y-9283962D01*
X11086314Y-9293486D01*
X11086314Y-9307771D01*
X11081552Y-9317295D01*
X11076791Y-9322057D01*
X11067267Y-9326819D01*
X11029171Y-9326819D01*
X11181552Y-9374438D02*
X11124410Y-9374438D01*
X11152981Y-9374438D02*
X11152981Y-9274438D01*
X11143457Y-9288724D01*
X11133933Y-9298248D01*
X11124410Y-9303010D01*
X11267267Y-9274438D02*
X11248219Y-9274438D01*
X11238695Y-9279200D01*
X11233933Y-9283962D01*
X11224409Y-9298248D01*
X11219648Y-9317295D01*
X11219648Y-9355391D01*
X11224409Y-9364914D01*
X11229171Y-9369676D01*
X11238695Y-9374438D01*
X11257743Y-9374438D01*
X11267267Y-9369676D01*
X11272029Y-9364914D01*
X11276790Y-9355391D01*
X11276790Y-9331581D01*
X11272029Y-9322057D01*
X11267267Y-9317295D01*
X11257743Y-9312533D01*
X11238695Y-9312533D01*
X11229171Y-9317295D01*
X11224409Y-9322057D01*
X11219648Y-9331581D01*
X10502114Y-9450638D02*
X10468781Y-9403019D01*
X10444971Y-9450638D02*
X10444971Y-9350638D01*
X10483067Y-9350638D01*
X10492591Y-9355400D01*
X10497352Y-9360162D01*
X10502114Y-9369686D01*
X10502114Y-9383971D01*
X10497352Y-9393495D01*
X10492591Y-9398257D01*
X10483067Y-9403019D01*
X10444971Y-9403019D01*
X10597352Y-9450638D02*
X10540210Y-9450638D01*
X10568781Y-9450638D02*
X10568781Y-9350638D01*
X10559257Y-9364924D01*
X10549733Y-9374448D01*
X10540210Y-9379210D01*
X10630686Y-9350638D02*
X10697352Y-9350638D01*
X10654495Y-9450638D01*
X8947167Y-13204376D02*
X8961452Y-13209138D01*
X8985262Y-13209138D01*
X8994786Y-13204376D01*
X8999548Y-13199614D01*
X9004310Y-13190090D01*
X9004310Y-13180567D01*
X8999548Y-13171043D01*
X8994786Y-13166281D01*
X8985262Y-13161519D01*
X8966214Y-13156757D01*
X8956691Y-13151995D01*
X8951929Y-13147233D01*
X8947167Y-13137709D01*
X8947167Y-13128186D01*
X8951929Y-13118662D01*
X8956691Y-13113900D01*
X8966214Y-13109138D01*
X8990024Y-13109138D01*
X9004310Y-13113900D01*
X9037643Y-13109138D02*
X9061452Y-13209138D01*
X9080500Y-13137709D01*
X9099548Y-13209138D01*
X9123357Y-13109138D01*
X9213833Y-13209138D02*
X9156691Y-13209138D01*
X9185262Y-13209138D02*
X9185262Y-13109138D01*
X9175738Y-13123424D01*
X9166214Y-13132948D01*
X9156691Y-13137709D01*
X8947167Y-13204376D02*
X8961452Y-13209138D01*
X8985262Y-13209138D01*
X8994786Y-13204376D01*
X8999548Y-13199614D01*
X9004310Y-13190090D01*
X9004310Y-13180567D01*
X8999548Y-13171043D01*
X8994786Y-13166281D01*
X8985262Y-13161519D01*
X8966214Y-13156757D01*
X8956691Y-13151995D01*
X8951929Y-13147233D01*
X8947167Y-13137709D01*
X8947167Y-13128186D01*
X8951929Y-13118662D01*
X8956691Y-13113900D01*
X8966214Y-13109138D01*
X8990024Y-13109138D01*
X9004310Y-13113900D01*
X9037643Y-13109138D02*
X9061452Y-13209138D01*
X9080500Y-13137709D01*
X9099548Y-13209138D01*
X9123357Y-13109138D01*
X9213833Y-13209138D02*
X9156691Y-13209138D01*
X9185262Y-13209138D02*
X9185262Y-13109138D01*
X9175738Y-13123424D01*
X9166214Y-13132948D01*
X9156691Y-13137709D01*
X10327488Y-12217390D02*
X10408441Y-12217390D01*
X10417964Y-12212629D01*
X10422726Y-12207867D01*
X10427488Y-12198343D01*
X10427488Y-12179295D01*
X10422726Y-12169771D01*
X10417964Y-12165009D01*
X10408441Y-12160248D01*
X10327488Y-12160248D01*
X10327488Y-12122152D02*
X10327488Y-12060248D01*
X10365583Y-12093581D01*
X10365583Y-12079295D01*
X10370345Y-12069771D01*
X10375107Y-12065009D01*
X10384631Y-12060248D01*
X10408441Y-12060248D01*
X10417964Y-12065009D01*
X10422726Y-12069771D01*
X10427488Y-12079295D01*
X10427488Y-12107867D01*
X10422726Y-12117390D01*
X10417964Y-12122152D01*
X9765514Y-10121638D02*
X9732181Y-10074019D01*
X9708371Y-10121638D02*
X9708371Y-10021638D01*
X9746467Y-10021638D01*
X9755991Y-10026400D01*
X9760752Y-10031162D01*
X9765514Y-10040686D01*
X9765514Y-10054971D01*
X9760752Y-10064495D01*
X9755991Y-10069257D01*
X9746467Y-10074019D01*
X9708371Y-10074019D01*
X9860752Y-10121638D02*
X9803610Y-10121638D01*
X9832181Y-10121638D02*
X9832181Y-10021638D01*
X9822657Y-10035924D01*
X9813133Y-10045448D01*
X9803610Y-10050210D01*
X9951229Y-10021638D02*
X9903610Y-10021638D01*
X9898848Y-10069257D01*
X9903610Y-10064495D01*
X9913133Y-10059733D01*
X9936943Y-10059733D01*
X9946467Y-10064495D01*
X9951229Y-10069257D01*
X9955991Y-10078781D01*
X9955991Y-10102591D01*
X9951229Y-10112114D01*
X9946467Y-10116876D01*
X9936943Y-10121638D01*
X9913133Y-10121638D01*
X9903610Y-10116876D01*
X9898848Y-10112114D01*
X10866688Y-11567317D02*
X10819069Y-11600650D01*
X10866688Y-11624459D02*
X10766688Y-11624459D01*
X10766688Y-11586364D01*
X10771450Y-11576840D01*
X10776212Y-11572078D01*
X10785736Y-11567317D01*
X10800021Y-11567317D01*
X10809545Y-11572078D01*
X10814307Y-11576840D01*
X10819069Y-11586364D01*
X10819069Y-11624459D01*
X10809545Y-11510174D02*
X10804783Y-11519698D01*
X10800021Y-11524459D01*
X10790498Y-11529221D01*
X10785736Y-11529221D01*
X10776212Y-11524459D01*
X10771450Y-11519698D01*
X10766688Y-11510174D01*
X10766688Y-11491126D01*
X10771450Y-11481602D01*
X10776212Y-11476840D01*
X10785736Y-11472078D01*
X10790498Y-11472078D01*
X10800021Y-11476840D01*
X10804783Y-11481602D01*
X10809545Y-11491126D01*
X10809545Y-11510174D01*
X10814307Y-11519698D01*
X10819069Y-11524459D01*
X10828593Y-11529221D01*
X10847641Y-11529221D01*
X10857164Y-11524459D01*
X10861926Y-11519698D01*
X10866688Y-11510174D01*
X10866688Y-11491126D01*
X10861926Y-11481602D01*
X10857164Y-11476840D01*
X10847641Y-11472078D01*
X10828593Y-11472078D01*
X10819069Y-11476840D01*
X10814307Y-11481602D01*
X10809545Y-11491126D01*
X8858267Y-9610276D02*
X8872552Y-9615038D01*
X8896362Y-9615038D01*
X8905886Y-9610276D01*
X8910648Y-9605514D01*
X8915410Y-9595991D01*
X8915410Y-9586467D01*
X8910648Y-9576943D01*
X8905886Y-9572181D01*
X8896362Y-9567419D01*
X8877314Y-9562657D01*
X8867791Y-9557895D01*
X8863029Y-9553133D01*
X8858267Y-9543610D01*
X8858267Y-9534086D01*
X8863029Y-9524562D01*
X8867791Y-9519800D01*
X8877314Y-9515038D01*
X8901124Y-9515038D01*
X8915410Y-9519800D01*
X8948743Y-9515038D02*
X8972552Y-9615038D01*
X8991600Y-9543610D01*
X9010648Y-9615038D01*
X9034457Y-9515038D01*
X9067791Y-9524562D02*
X9072552Y-9519800D01*
X9082076Y-9515038D01*
X9105886Y-9515038D01*
X9115410Y-9519800D01*
X9120172Y-9524562D01*
X9124933Y-9534086D01*
X9124933Y-9543610D01*
X9120172Y-9557895D01*
X9063029Y-9615038D01*
X9124933Y-9615038D01*
X10959838Y-10046486D02*
X10912219Y-10079819D01*
X10959838Y-10103629D02*
X10859838Y-10103629D01*
X10859838Y-10065533D01*
X10864600Y-10056010D01*
X10869362Y-10051248D01*
X10878886Y-10046486D01*
X10893171Y-10046486D01*
X10902695Y-10051248D01*
X10907457Y-10056010D01*
X10912219Y-10065533D01*
X10912219Y-10103629D01*
X10869362Y-10008391D02*
X10864600Y-10003629D01*
X10859838Y-9994105D01*
X10859838Y-9970295D01*
X10864600Y-9960771D01*
X10869362Y-9956010D01*
X10878886Y-9951248D01*
X10888410Y-9951248D01*
X10902695Y-9956010D01*
X10959838Y-10013152D01*
X10959838Y-9951248D01*
X10869362Y-9913152D02*
X10864600Y-9908391D01*
X10859838Y-9898867D01*
X10859838Y-9875057D01*
X10864600Y-9865533D01*
X10869362Y-9860771D01*
X10878886Y-9856010D01*
X10888410Y-9856010D01*
X10902695Y-9860771D01*
X10959838Y-9917914D01*
X10959838Y-9856010D01*
X8530014Y-11675267D02*
X8534776Y-11680028D01*
X8539538Y-11694314D01*
X8539538Y-11703838D01*
X8534776Y-11718124D01*
X8525252Y-11727648D01*
X8515729Y-11732409D01*
X8496681Y-11737171D01*
X8482395Y-11737171D01*
X8463348Y-11732409D01*
X8453824Y-11727648D01*
X8444300Y-11718124D01*
X8439538Y-11703838D01*
X8439538Y-11694314D01*
X8444300Y-11680028D01*
X8449062Y-11675267D01*
X8439538Y-11589552D02*
X8439538Y-11608600D01*
X8444300Y-11618124D01*
X8449062Y-11622886D01*
X8463348Y-11632409D01*
X8482395Y-11637171D01*
X8520491Y-11637171D01*
X8530014Y-11632409D01*
X8534776Y-11627648D01*
X8539538Y-11618124D01*
X8539538Y-11599076D01*
X8534776Y-11589552D01*
X8530014Y-11584790D01*
X8520491Y-11580028D01*
X8496681Y-11580028D01*
X8487157Y-11584790D01*
X8482395Y-11589552D01*
X8477633Y-11599076D01*
X8477633Y-11618124D01*
X8482395Y-11627648D01*
X8487157Y-11632409D01*
X8496681Y-11637171D01*
X10549733Y-9558714D02*
X10544972Y-9563476D01*
X10530686Y-9568238D01*
X10521162Y-9568238D01*
X10506876Y-9563476D01*
X10497352Y-9553952D01*
X10492591Y-9544429D01*
X10487829Y-9525381D01*
X10487829Y-9511095D01*
X10492591Y-9492048D01*
X10497352Y-9482524D01*
X10506876Y-9473000D01*
X10521162Y-9468238D01*
X10530686Y-9468238D01*
X10544972Y-9473000D01*
X10549733Y-9477762D01*
X10606876Y-9511095D02*
X10597352Y-9506333D01*
X10592591Y-9501571D01*
X10587829Y-9492048D01*
X10587829Y-9487286D01*
X10592591Y-9477762D01*
X10597352Y-9473000D01*
X10606876Y-9468238D01*
X10625924Y-9468238D01*
X10635448Y-9473000D01*
X10640210Y-9477762D01*
X10644972Y-9487286D01*
X10644972Y-9492048D01*
X10640210Y-9501571D01*
X10635448Y-9506333D01*
X10625924Y-9511095D01*
X10606876Y-9511095D01*
X10597352Y-9515857D01*
X10592591Y-9520619D01*
X10587829Y-9530143D01*
X10587829Y-9549191D01*
X10592591Y-9558714D01*
X10597352Y-9563476D01*
X10606876Y-9568238D01*
X10625924Y-9568238D01*
X10635448Y-9563476D01*
X10640210Y-9558714D01*
X10644972Y-9549191D01*
X10644972Y-9530143D01*
X10640210Y-9520619D01*
X10635448Y-9515857D01*
X10625924Y-9511095D01*
X10781514Y-12661514D02*
X10776752Y-12666276D01*
X10762467Y-12671038D01*
X10752943Y-12671038D01*
X10738657Y-12666276D01*
X10729133Y-12656752D01*
X10724371Y-12647229D01*
X10719610Y-12628181D01*
X10719610Y-12613895D01*
X10724371Y-12594848D01*
X10729133Y-12585324D01*
X10738657Y-12575800D01*
X10752943Y-12571038D01*
X10762467Y-12571038D01*
X10776752Y-12575800D01*
X10781514Y-12580562D01*
X10876752Y-12671038D02*
X10819610Y-12671038D01*
X10848181Y-12671038D02*
X10848181Y-12571038D01*
X10838657Y-12585324D01*
X10829133Y-12594848D01*
X10819610Y-12599609D01*
X10962467Y-12604371D02*
X10962467Y-12671038D01*
X10938657Y-12566276D02*
X10914848Y-12637705D01*
X10976752Y-12637705D01*
X9603583Y-12280638D02*
X9570250Y-12233019D01*
X9546441Y-12280638D02*
X9546441Y-12180638D01*
X9584536Y-12180638D01*
X9594060Y-12185400D01*
X9598822Y-12190162D01*
X9603583Y-12199686D01*
X9603583Y-12213971D01*
X9598822Y-12223495D01*
X9594060Y-12228257D01*
X9584536Y-12233019D01*
X9546441Y-12233019D01*
X9689298Y-12180638D02*
X9670250Y-12180638D01*
X9660726Y-12185400D01*
X9655964Y-12190162D01*
X9646441Y-12204448D01*
X9641679Y-12223495D01*
X9641679Y-12261590D01*
X9646441Y-12271114D01*
X9651202Y-12275876D01*
X9660726Y-12280638D01*
X9679774Y-12280638D01*
X9689298Y-12275876D01*
X9694060Y-12271114D01*
X9698822Y-12261590D01*
X9698822Y-12237781D01*
X9694060Y-12228257D01*
X9689298Y-12223495D01*
X9679774Y-12218733D01*
X9660726Y-12218733D01*
X9651202Y-12223495D01*
X9646441Y-12228257D01*
X9641679Y-12237781D01*
X10314238Y-13145286D02*
X10266619Y-13178619D01*
X10314238Y-13202429D02*
X10214238Y-13202429D01*
X10214238Y-13164333D01*
X10219000Y-13154809D01*
X10223762Y-13150048D01*
X10233286Y-13145286D01*
X10247571Y-13145286D01*
X10257095Y-13150048D01*
X10261857Y-13154809D01*
X10266619Y-13164333D01*
X10266619Y-13202429D01*
X10314238Y-13050048D02*
X10314238Y-13107190D01*
X10314238Y-13078619D02*
X10214238Y-13078619D01*
X10228524Y-13088143D01*
X10238048Y-13097667D01*
X10242810Y-13107190D01*
X10257095Y-12992905D02*
X10252333Y-13002429D01*
X10247571Y-13007190D01*
X10238048Y-13011952D01*
X10233286Y-13011952D01*
X10223762Y-13007190D01*
X10219000Y-13002429D01*
X10214238Y-12992905D01*
X10214238Y-12973857D01*
X10219000Y-12964333D01*
X10223762Y-12959571D01*
X10233286Y-12954809D01*
X10238048Y-12954809D01*
X10247571Y-12959571D01*
X10252333Y-12964333D01*
X10257095Y-12973857D01*
X10257095Y-12992905D01*
X10261857Y-13002429D01*
X10266619Y-13007190D01*
X10276143Y-13011952D01*
X10295191Y-13011952D01*
X10304714Y-13007190D01*
X10309476Y-13002429D01*
X10314238Y-12992905D01*
X10314238Y-12973857D01*
X10309476Y-12964333D01*
X10304714Y-12959571D01*
X10295191Y-12954809D01*
X10276143Y-12954809D01*
X10266619Y-12959571D01*
X10261857Y-12964333D01*
X10257095Y-12973857D01*
X9101933Y-12943138D02*
X9068600Y-12895519D01*
X9044791Y-12943138D02*
X9044791Y-12843138D01*
X9082886Y-12843138D01*
X9092410Y-12847900D01*
X9097172Y-12852662D01*
X9101933Y-12862186D01*
X9101933Y-12876471D01*
X9097172Y-12885995D01*
X9092410Y-12890757D01*
X9082886Y-12895519D01*
X9044791Y-12895519D01*
X9135267Y-12843138D02*
X9197172Y-12843138D01*
X9163838Y-12881233D01*
X9178124Y-12881233D01*
X9187648Y-12885995D01*
X9192410Y-12890757D01*
X9197172Y-12900281D01*
X9197172Y-12924090D01*
X9192410Y-12933614D01*
X9187648Y-12938376D01*
X9178124Y-12943138D01*
X9149552Y-12943138D01*
X9140029Y-12938376D01*
X9135267Y-12933614D01*
X10566014Y-11494286D02*
X10570776Y-11499048D01*
X10575538Y-11513333D01*
X10575538Y-11522857D01*
X10570776Y-11537143D01*
X10561252Y-11546667D01*
X10551729Y-11551429D01*
X10532681Y-11556190D01*
X10518395Y-11556190D01*
X10499348Y-11551429D01*
X10489824Y-11546667D01*
X10480300Y-11537143D01*
X10475538Y-11522857D01*
X10475538Y-11513333D01*
X10480300Y-11499048D01*
X10485062Y-11494286D01*
X10575538Y-11399048D02*
X10575538Y-11456190D01*
X10575538Y-11427619D02*
X10475538Y-11427619D01*
X10489824Y-11437143D01*
X10499348Y-11446667D01*
X10504110Y-11456190D01*
X10575538Y-11303809D02*
X10575538Y-11360952D01*
X10575538Y-11332381D02*
X10475538Y-11332381D01*
X10489824Y-11341905D01*
X10499348Y-11351429D01*
X10504110Y-11360952D01*
M02*
