G04 #@! TF.FileFunction,Copper,L2,Bot,Signal*
%FSLAX46Y46*%
G04 Gerber Fmt 4.6, Leading zero omitted, Abs format (unit mm)*
G04 Created by KiCad (PCBNEW 4.0.6) date Fri May 26 17:46:32 2017*
%MOMM*%
%LPD*%
G01*
G04 APERTURE LIST*
%ADD10C,0.050000*%
%ADD11C,0.762000*%
%ADD12R,1.700000X1.700000*%
%ADD13O,1.700000X1.700000*%
%ADD14C,0.635000*%
%ADD15C,0.279400*%
%ADD16C,0.228600*%
%ADD17C,0.254000*%
G04 APERTURE END LIST*
D10*
D11*
X94234000Y-112014000D03*
X97790000Y-112014000D03*
X97790000Y-108458000D03*
X100076000Y-125730000D03*
X98933000Y-126111000D03*
X96647000Y-92329000D03*
X91440000Y-92329000D03*
X87122000Y-125730000D03*
X83566000Y-120650000D03*
X83566000Y-122809000D03*
X82423000Y-120650000D03*
X82423000Y-118618000D03*
X82423000Y-116967000D03*
X82423000Y-122809000D03*
X82423000Y-114808000D03*
X82423000Y-107569000D03*
X82423000Y-99949000D03*
X82423000Y-92329000D03*
X101727000Y-98806000D03*
X103505000Y-98806000D03*
X103505000Y-96647000D03*
X101727000Y-96647000D03*
X101854000Y-93599000D03*
X103251000Y-93599000D03*
X106553000Y-92075000D03*
X106553000Y-90805000D03*
X112522000Y-97917000D03*
X90932000Y-115570000D03*
X87249000Y-106680000D03*
X90932000Y-106680000D03*
X88138000Y-116459000D03*
X90932000Y-117348000D03*
X90932000Y-113792000D03*
X90932000Y-111887000D03*
X92075000Y-120777000D03*
X92075000Y-122428000D03*
X99822000Y-116205000D03*
X99822000Y-117602000D03*
X97663000Y-117602000D03*
X97663000Y-119253000D03*
X105664000Y-123317000D03*
X104394000Y-123317000D03*
X103124000Y-123317000D03*
X101854000Y-123317000D03*
X105664000Y-122047000D03*
X104394000Y-122047000D03*
X103124000Y-122047000D03*
X101854000Y-122047000D03*
X105664000Y-120777000D03*
X104394000Y-120777000D03*
X103124000Y-120777000D03*
X101854000Y-120777000D03*
X98933000Y-125095000D03*
X92202000Y-125095000D03*
X88392000Y-124460000D03*
X87122000Y-124460000D03*
X87376000Y-131572000D03*
X109728000Y-128778000D03*
X110998000Y-127508000D03*
X109728000Y-126238000D03*
X97282000Y-130302000D03*
X95758000Y-130302000D03*
X94234000Y-130302000D03*
X100584000Y-129159000D03*
X104902000Y-137922000D03*
X97790000Y-137922000D03*
X90170000Y-137922000D03*
X82550000Y-137922000D03*
X82550000Y-133350000D03*
X113792000Y-131318000D03*
X113792000Y-127508000D03*
X113792000Y-123698000D03*
X113792000Y-116078000D03*
X112141000Y-119888000D03*
X112141000Y-116078000D03*
X113792000Y-108458000D03*
X112141000Y-112268000D03*
X111887000Y-108458000D03*
X108712000Y-112014000D03*
X109728000Y-113284000D03*
X107950000Y-113284000D03*
X106680000Y-112014000D03*
X105410000Y-113284000D03*
X104648000Y-108458000D03*
X113792000Y-101092000D03*
X100838000Y-108458000D03*
X112522000Y-99187000D03*
X112268000Y-105156000D03*
X108712000Y-105156000D03*
X104648000Y-105156000D03*
X100838000Y-105156000D03*
X97028000Y-105156000D03*
D12*
X108712000Y-134366000D03*
D13*
X106172000Y-134366000D03*
X103632000Y-134366000D03*
X101092000Y-134366000D03*
X98552000Y-134366000D03*
D11*
X93218000Y-105156000D03*
X101219000Y-133096014D03*
X101219000Y-132207000D03*
X100330000Y-132207000D03*
X100330000Y-133096000D03*
X92202000Y-131572000D03*
X104394000Y-119253000D03*
X103504994Y-119253000D03*
X105282996Y-119253000D03*
X102616000Y-119253000D03*
X97028000Y-123444000D03*
X97917000Y-123444000D03*
X85470988Y-114173000D03*
X85470988Y-113284000D03*
X84582000Y-114173000D03*
X84582000Y-113284000D03*
X83693000Y-113284000D03*
X83693000Y-114173000D03*
X84709000Y-99695000D03*
X83693000Y-99568000D03*
X83693000Y-98552000D03*
X83692998Y-97663000D03*
X107950000Y-91821000D03*
X107950000Y-93091000D03*
X107950000Y-94361000D03*
X107950000Y-95504000D03*
X100838000Y-130302000D03*
X103632000Y-118237000D03*
D14*
X84582000Y-122936000D02*
X84582000Y-123317000D01*
X84582000Y-123317000D02*
X84582000Y-127254000D01*
X97028000Y-123444000D02*
X84709000Y-123444000D01*
X84709000Y-123444000D02*
X84582000Y-123317000D01*
X100330000Y-132557185D02*
X100330000Y-132207000D01*
X100330000Y-133096000D02*
X100330000Y-132557185D01*
X99949001Y-132715001D02*
X100330000Y-133096000D01*
X98806000Y-131572000D02*
X99949001Y-132715001D01*
X92202000Y-131572000D02*
X98806000Y-131572000D01*
X88900000Y-131572000D02*
X92202000Y-131572000D01*
X84582000Y-127254000D02*
X88900000Y-131572000D01*
X84582000Y-114173000D02*
X84582000Y-122936000D01*
X97028000Y-122905185D02*
X100680185Y-119253000D01*
X97028000Y-123444000D02*
X97028000Y-122905185D01*
X100680185Y-119253000D02*
X102616000Y-119253000D01*
X97028000Y-123444000D02*
X97917000Y-123444000D01*
D15*
X83693000Y-114173000D02*
X83693000Y-113284000D01*
D14*
X84709000Y-99695000D02*
X83820000Y-99695000D01*
X83820000Y-99695000D02*
X83693000Y-99568000D01*
X83693000Y-99568000D02*
X83693000Y-98552000D01*
X83693000Y-98552000D02*
X83693000Y-97663002D01*
X83693000Y-97663002D02*
X83692998Y-97663000D01*
X84231813Y-97663000D02*
X83692998Y-97663000D01*
X105791000Y-97663000D02*
X84231813Y-97663000D01*
X107950000Y-95504000D02*
X105791000Y-97663000D01*
X107950000Y-94361000D02*
X107950000Y-95504000D01*
X107950000Y-91821000D02*
X107950000Y-93091000D01*
X107950000Y-93822185D02*
X107950000Y-93091000D01*
X107950000Y-94361000D02*
X107950000Y-93822185D01*
D16*
X103632000Y-118237000D02*
X107442000Y-118237000D01*
X107442000Y-118237000D02*
X108204000Y-118999000D01*
X108204000Y-118999000D02*
X108204000Y-126492000D01*
X108204000Y-126492000D02*
X104394000Y-130302000D01*
X104394000Y-130302000D02*
X100838000Y-130302000D01*
D17*
G36*
X101223632Y-90428632D02*
X100835718Y-91009188D01*
X100699500Y-91694000D01*
X100835718Y-92378812D01*
X101223632Y-92959368D01*
X101804188Y-93347282D01*
X102489000Y-93483500D01*
X103173812Y-93347282D01*
X103754368Y-92959368D01*
X104142282Y-92378812D01*
X104278500Y-91694000D01*
X104142282Y-91009188D01*
X103754368Y-90428632D01*
X103289473Y-90118000D01*
X114352000Y-90118000D01*
X114352000Y-138684000D01*
X81915000Y-138684000D01*
X81915000Y-136652000D01*
X111752039Y-136652000D01*
X111829983Y-137043853D01*
X112051950Y-137376050D01*
X112384147Y-137598017D01*
X112776000Y-137675961D01*
X113167853Y-137598017D01*
X113500050Y-137376050D01*
X113722017Y-137043853D01*
X113799961Y-136652000D01*
X113722017Y-136260147D01*
X113500050Y-135927950D01*
X113167853Y-135705983D01*
X112776000Y-135628039D01*
X112384147Y-135705983D01*
X112051950Y-135927950D01*
X111829983Y-136260147D01*
X111752039Y-136652000D01*
X81915000Y-136652000D01*
X81915000Y-134722892D01*
X97110514Y-134722892D01*
X97356817Y-135247358D01*
X97785076Y-135637645D01*
X98195110Y-135807476D01*
X98425000Y-135686155D01*
X98425000Y-134493000D01*
X97231181Y-134493000D01*
X97110514Y-134722892D01*
X81915000Y-134722892D01*
X81915000Y-134009108D01*
X97110514Y-134009108D01*
X97231181Y-134239000D01*
X98425000Y-134239000D01*
X98425000Y-133045845D01*
X98195110Y-132924524D01*
X97785076Y-133094355D01*
X97356817Y-133484642D01*
X97110514Y-134009108D01*
X81915000Y-134009108D01*
X81915000Y-112649000D01*
X82804000Y-112649000D01*
X82804000Y-114808000D01*
X82830056Y-114946477D01*
X82911896Y-115073660D01*
X83036770Y-115158983D01*
X83185000Y-115189000D01*
X83883500Y-115189000D01*
X83883500Y-127254000D01*
X83936670Y-127521305D01*
X84088086Y-127747914D01*
X88406086Y-132065914D01*
X88632695Y-132217330D01*
X88900000Y-132270500D01*
X91897159Y-132270500D01*
X92049764Y-132333867D01*
X92352906Y-132334132D01*
X92506906Y-132270500D01*
X98516672Y-132270500D01*
X99441000Y-133194828D01*
X99441000Y-133205607D01*
X99318924Y-133094355D01*
X98908890Y-132924524D01*
X98679000Y-133045845D01*
X98679000Y-134239000D01*
X98699000Y-134239000D01*
X98699000Y-134493000D01*
X98679000Y-134493000D01*
X98679000Y-135686155D01*
X98908890Y-135807476D01*
X99318924Y-135637645D01*
X99441000Y-135526393D01*
X99441000Y-135636000D01*
X99467056Y-135774477D01*
X99548896Y-135901660D01*
X99673770Y-135986983D01*
X99822000Y-136017000D01*
X102362000Y-136017000D01*
X102500477Y-135990944D01*
X102627660Y-135909104D01*
X102712983Y-135784230D01*
X102743000Y-135636000D01*
X102743000Y-135232800D01*
X102761552Y-135260565D01*
X103160917Y-135527413D01*
X103632000Y-135621117D01*
X104103083Y-135527413D01*
X104502448Y-135260565D01*
X104769296Y-134861200D01*
X104863000Y-134390117D01*
X104863000Y-134341883D01*
X104941000Y-134341883D01*
X104941000Y-134390117D01*
X105034704Y-134861200D01*
X105301552Y-135260565D01*
X105700917Y-135527413D01*
X106172000Y-135621117D01*
X106643083Y-135527413D01*
X107042448Y-135260565D01*
X107309296Y-134861200D01*
X107403000Y-134390117D01*
X107403000Y-134341883D01*
X107309296Y-133870800D01*
X107072226Y-133516000D01*
X107473536Y-133516000D01*
X107473536Y-135216000D01*
X107500103Y-135357190D01*
X107583546Y-135486865D01*
X107710866Y-135573859D01*
X107862000Y-135604464D01*
X109562000Y-135604464D01*
X109703190Y-135577897D01*
X109832865Y-135494454D01*
X109919859Y-135367134D01*
X109950464Y-135216000D01*
X109950464Y-133516000D01*
X109923897Y-133374810D01*
X109840454Y-133245135D01*
X109713134Y-133158141D01*
X109562000Y-133127536D01*
X107862000Y-133127536D01*
X107720810Y-133154103D01*
X107591135Y-133237546D01*
X107504141Y-133364866D01*
X107473536Y-133516000D01*
X107072226Y-133516000D01*
X107042448Y-133471435D01*
X106643083Y-133204587D01*
X106172000Y-133110883D01*
X105700917Y-133204587D01*
X105301552Y-133471435D01*
X105034704Y-133870800D01*
X104941000Y-134341883D01*
X104863000Y-134341883D01*
X104769296Y-133870800D01*
X104502448Y-133471435D01*
X104103083Y-133204587D01*
X103632000Y-133110883D01*
X103160917Y-133204587D01*
X102761552Y-133471435D01*
X102743000Y-133499200D01*
X102743000Y-131699000D01*
X102716944Y-131560523D01*
X102635104Y-131433340D01*
X102510230Y-131348017D01*
X102362000Y-131318000D01*
X99822000Y-131318000D01*
X99683523Y-131344056D01*
X99611944Y-131390116D01*
X99299914Y-131078086D01*
X99073305Y-130926670D01*
X98806000Y-130873500D01*
X92506841Y-130873500D01*
X92354236Y-130810133D01*
X92051094Y-130809868D01*
X91897094Y-130873500D01*
X89189328Y-130873500D01*
X85280500Y-126964672D01*
X85280500Y-124142500D01*
X96723159Y-124142500D01*
X96875764Y-124205867D01*
X97178906Y-124206132D01*
X97332906Y-124142500D01*
X97612159Y-124142500D01*
X97764764Y-124205867D01*
X98067906Y-124206132D01*
X98348074Y-124090368D01*
X98562615Y-123876202D01*
X98678867Y-123596236D01*
X98679132Y-123293094D01*
X98563368Y-123012926D01*
X98349202Y-122798385D01*
X98189106Y-122731907D01*
X100969513Y-119951500D01*
X102037766Y-119951500D01*
X102086770Y-119984983D01*
X102235000Y-120015000D01*
X102615907Y-120015000D01*
X102766906Y-120015132D01*
X102767225Y-120015000D01*
X103504901Y-120015000D01*
X103655900Y-120015132D01*
X103656219Y-120015000D01*
X104393907Y-120015000D01*
X104544906Y-120015132D01*
X104545225Y-120015000D01*
X105282903Y-120015000D01*
X105433902Y-120015132D01*
X105434221Y-120015000D01*
X105664000Y-120015000D01*
X105802477Y-119988944D01*
X105929660Y-119907104D01*
X106014983Y-119782230D01*
X106045000Y-119634000D01*
X106045000Y-119248517D01*
X106045128Y-119102094D01*
X106045000Y-119101784D01*
X106045000Y-118872000D01*
X106018944Y-118733523D01*
X106018157Y-118732300D01*
X107236840Y-118732300D01*
X107708700Y-119204160D01*
X107708700Y-126286840D01*
X104188840Y-129806700D01*
X101420254Y-129806700D01*
X101270202Y-129656385D01*
X100990236Y-129540133D01*
X100687094Y-129539868D01*
X100406926Y-129655632D01*
X100192385Y-129869798D01*
X100076133Y-130149764D01*
X100075868Y-130452906D01*
X100191632Y-130733074D01*
X100405798Y-130947615D01*
X100685764Y-131063867D01*
X100988906Y-131064132D01*
X101269074Y-130948368D01*
X101420407Y-130797300D01*
X104394000Y-130797300D01*
X104583544Y-130759598D01*
X104744230Y-130652230D01*
X108554230Y-126842230D01*
X108661598Y-126681543D01*
X108699300Y-126492000D01*
X108699300Y-118999000D01*
X108661598Y-118809457D01*
X108554230Y-118648770D01*
X107792230Y-117886770D01*
X107631544Y-117779402D01*
X107442000Y-117741700D01*
X104214254Y-117741700D01*
X104064202Y-117591385D01*
X103784236Y-117475133D01*
X103481094Y-117474868D01*
X103200926Y-117590632D01*
X102986385Y-117804798D01*
X102870133Y-118084764D01*
X102869868Y-118387906D01*
X102912466Y-118491000D01*
X102616093Y-118491000D01*
X102465094Y-118490868D01*
X102464775Y-118491000D01*
X102235000Y-118491000D01*
X102096523Y-118517056D01*
X102038333Y-118554500D01*
X100680185Y-118554500D01*
X100412881Y-118607670D01*
X100186271Y-118759086D01*
X96534086Y-122411271D01*
X96382670Y-122637880D01*
X96375949Y-122671670D01*
X96361263Y-122745500D01*
X85280500Y-122745500D01*
X85280500Y-115189000D01*
X86106000Y-115189000D01*
X86244477Y-115162944D01*
X86371660Y-115081104D01*
X86456983Y-114956230D01*
X86487000Y-114808000D01*
X86487000Y-112649000D01*
X86460944Y-112510523D01*
X86379104Y-112383340D01*
X86254230Y-112298017D01*
X86106000Y-112268000D01*
X83185000Y-112268000D01*
X83046523Y-112294056D01*
X82919340Y-112375896D01*
X82834017Y-112500770D01*
X82804000Y-112649000D01*
X81915000Y-112649000D01*
X81915000Y-109982000D01*
X99695000Y-109982000D01*
X99695000Y-114554000D01*
X99703685Y-114600159D01*
X99730965Y-114642553D01*
X99772590Y-114670994D01*
X99822000Y-114681000D01*
X104394000Y-114681000D01*
X104440159Y-114672315D01*
X104482553Y-114645035D01*
X104510994Y-114603410D01*
X104521000Y-114554000D01*
X104521000Y-109982000D01*
X104512315Y-109935841D01*
X104485035Y-109893447D01*
X104443410Y-109865006D01*
X104394000Y-109855000D01*
X99822000Y-109855000D01*
X99775841Y-109863685D01*
X99733447Y-109890965D01*
X99705006Y-109932590D01*
X99695000Y-109982000D01*
X81915000Y-109982000D01*
X81915000Y-102362000D01*
X82161039Y-102362000D01*
X82238983Y-102753853D01*
X82460950Y-103086050D01*
X82793147Y-103308017D01*
X83185000Y-103385961D01*
X83576853Y-103308017D01*
X83909050Y-103086050D01*
X84131017Y-102753853D01*
X84208961Y-102362000D01*
X111752039Y-102362000D01*
X111829983Y-102753853D01*
X112051950Y-103086050D01*
X112384147Y-103308017D01*
X112776000Y-103385961D01*
X113167853Y-103308017D01*
X113500050Y-103086050D01*
X113722017Y-102753853D01*
X113799961Y-102362000D01*
X113722017Y-101970147D01*
X113500050Y-101637950D01*
X113167853Y-101415983D01*
X112776000Y-101338039D01*
X112384147Y-101415983D01*
X112051950Y-101637950D01*
X111829983Y-101970147D01*
X111752039Y-102362000D01*
X84208961Y-102362000D01*
X84131017Y-101970147D01*
X83909050Y-101637950D01*
X83576853Y-101415983D01*
X83185000Y-101338039D01*
X82793147Y-101415983D01*
X82460950Y-101637950D01*
X82238983Y-101970147D01*
X82161039Y-102362000D01*
X81915000Y-102362000D01*
X81915000Y-97155000D01*
X82804000Y-97155000D01*
X82804000Y-100203000D01*
X82830056Y-100341477D01*
X82911896Y-100468660D01*
X83036770Y-100553983D01*
X83185000Y-100584000D01*
X85471000Y-100584000D01*
X85609477Y-100557944D01*
X85736660Y-100476104D01*
X85821983Y-100351230D01*
X85852000Y-100203000D01*
X85852000Y-98361500D01*
X105791000Y-98361500D01*
X106058305Y-98308330D01*
X106284914Y-98156914D01*
X108228359Y-96213469D01*
X108381074Y-96150368D01*
X108595615Y-95936202D01*
X108711867Y-95656236D01*
X108712132Y-95353094D01*
X108648500Y-95199094D01*
X108648500Y-94665841D01*
X108711867Y-94513236D01*
X108712132Y-94210094D01*
X108648500Y-94056094D01*
X108648500Y-93395841D01*
X108711867Y-93243236D01*
X108712132Y-92940094D01*
X108648500Y-92786094D01*
X108648500Y-92125841D01*
X108711867Y-91973236D01*
X108712111Y-91694000D01*
X109653000Y-91694000D01*
X109765049Y-92257310D01*
X110084139Y-92734861D01*
X110561690Y-93053951D01*
X111125000Y-93166000D01*
X111688310Y-93053951D01*
X112165861Y-92734861D01*
X112484951Y-92257310D01*
X112597000Y-91694000D01*
X112484951Y-91130690D01*
X112165861Y-90653139D01*
X111688310Y-90334049D01*
X111125000Y-90222000D01*
X110561690Y-90334049D01*
X110084139Y-90653139D01*
X109765049Y-91130690D01*
X109653000Y-91694000D01*
X108712111Y-91694000D01*
X108712132Y-91670094D01*
X108596368Y-91389926D01*
X108382202Y-91175385D01*
X108102236Y-91059133D01*
X107799094Y-91058868D01*
X107518926Y-91174632D01*
X107304385Y-91388798D01*
X107188133Y-91668764D01*
X107187868Y-91971906D01*
X107251500Y-92125906D01*
X107251500Y-92786159D01*
X107188133Y-92938764D01*
X107187868Y-93241906D01*
X107251500Y-93395906D01*
X107251500Y-94056159D01*
X107188133Y-94208764D01*
X107187868Y-94511906D01*
X107251500Y-94665906D01*
X107251500Y-95199159D01*
X107240485Y-95225687D01*
X105501672Y-96964500D01*
X85792468Y-96964500D01*
X85744104Y-96889340D01*
X85619230Y-96804017D01*
X85471000Y-96774000D01*
X83185000Y-96774000D01*
X83046523Y-96800056D01*
X82919340Y-96881896D01*
X82834017Y-97006770D01*
X82804000Y-97155000D01*
X81915000Y-97155000D01*
X81915000Y-90118000D01*
X101688527Y-90118000D01*
X101223632Y-90428632D01*
X101223632Y-90428632D01*
G37*
X101223632Y-90428632D02*
X100835718Y-91009188D01*
X100699500Y-91694000D01*
X100835718Y-92378812D01*
X101223632Y-92959368D01*
X101804188Y-93347282D01*
X102489000Y-93483500D01*
X103173812Y-93347282D01*
X103754368Y-92959368D01*
X104142282Y-92378812D01*
X104278500Y-91694000D01*
X104142282Y-91009188D01*
X103754368Y-90428632D01*
X103289473Y-90118000D01*
X114352000Y-90118000D01*
X114352000Y-138684000D01*
X81915000Y-138684000D01*
X81915000Y-136652000D01*
X111752039Y-136652000D01*
X111829983Y-137043853D01*
X112051950Y-137376050D01*
X112384147Y-137598017D01*
X112776000Y-137675961D01*
X113167853Y-137598017D01*
X113500050Y-137376050D01*
X113722017Y-137043853D01*
X113799961Y-136652000D01*
X113722017Y-136260147D01*
X113500050Y-135927950D01*
X113167853Y-135705983D01*
X112776000Y-135628039D01*
X112384147Y-135705983D01*
X112051950Y-135927950D01*
X111829983Y-136260147D01*
X111752039Y-136652000D01*
X81915000Y-136652000D01*
X81915000Y-134722892D01*
X97110514Y-134722892D01*
X97356817Y-135247358D01*
X97785076Y-135637645D01*
X98195110Y-135807476D01*
X98425000Y-135686155D01*
X98425000Y-134493000D01*
X97231181Y-134493000D01*
X97110514Y-134722892D01*
X81915000Y-134722892D01*
X81915000Y-134009108D01*
X97110514Y-134009108D01*
X97231181Y-134239000D01*
X98425000Y-134239000D01*
X98425000Y-133045845D01*
X98195110Y-132924524D01*
X97785076Y-133094355D01*
X97356817Y-133484642D01*
X97110514Y-134009108D01*
X81915000Y-134009108D01*
X81915000Y-112649000D01*
X82804000Y-112649000D01*
X82804000Y-114808000D01*
X82830056Y-114946477D01*
X82911896Y-115073660D01*
X83036770Y-115158983D01*
X83185000Y-115189000D01*
X83883500Y-115189000D01*
X83883500Y-127254000D01*
X83936670Y-127521305D01*
X84088086Y-127747914D01*
X88406086Y-132065914D01*
X88632695Y-132217330D01*
X88900000Y-132270500D01*
X91897159Y-132270500D01*
X92049764Y-132333867D01*
X92352906Y-132334132D01*
X92506906Y-132270500D01*
X98516672Y-132270500D01*
X99441000Y-133194828D01*
X99441000Y-133205607D01*
X99318924Y-133094355D01*
X98908890Y-132924524D01*
X98679000Y-133045845D01*
X98679000Y-134239000D01*
X98699000Y-134239000D01*
X98699000Y-134493000D01*
X98679000Y-134493000D01*
X98679000Y-135686155D01*
X98908890Y-135807476D01*
X99318924Y-135637645D01*
X99441000Y-135526393D01*
X99441000Y-135636000D01*
X99467056Y-135774477D01*
X99548896Y-135901660D01*
X99673770Y-135986983D01*
X99822000Y-136017000D01*
X102362000Y-136017000D01*
X102500477Y-135990944D01*
X102627660Y-135909104D01*
X102712983Y-135784230D01*
X102743000Y-135636000D01*
X102743000Y-135232800D01*
X102761552Y-135260565D01*
X103160917Y-135527413D01*
X103632000Y-135621117D01*
X104103083Y-135527413D01*
X104502448Y-135260565D01*
X104769296Y-134861200D01*
X104863000Y-134390117D01*
X104863000Y-134341883D01*
X104941000Y-134341883D01*
X104941000Y-134390117D01*
X105034704Y-134861200D01*
X105301552Y-135260565D01*
X105700917Y-135527413D01*
X106172000Y-135621117D01*
X106643083Y-135527413D01*
X107042448Y-135260565D01*
X107309296Y-134861200D01*
X107403000Y-134390117D01*
X107403000Y-134341883D01*
X107309296Y-133870800D01*
X107072226Y-133516000D01*
X107473536Y-133516000D01*
X107473536Y-135216000D01*
X107500103Y-135357190D01*
X107583546Y-135486865D01*
X107710866Y-135573859D01*
X107862000Y-135604464D01*
X109562000Y-135604464D01*
X109703190Y-135577897D01*
X109832865Y-135494454D01*
X109919859Y-135367134D01*
X109950464Y-135216000D01*
X109950464Y-133516000D01*
X109923897Y-133374810D01*
X109840454Y-133245135D01*
X109713134Y-133158141D01*
X109562000Y-133127536D01*
X107862000Y-133127536D01*
X107720810Y-133154103D01*
X107591135Y-133237546D01*
X107504141Y-133364866D01*
X107473536Y-133516000D01*
X107072226Y-133516000D01*
X107042448Y-133471435D01*
X106643083Y-133204587D01*
X106172000Y-133110883D01*
X105700917Y-133204587D01*
X105301552Y-133471435D01*
X105034704Y-133870800D01*
X104941000Y-134341883D01*
X104863000Y-134341883D01*
X104769296Y-133870800D01*
X104502448Y-133471435D01*
X104103083Y-133204587D01*
X103632000Y-133110883D01*
X103160917Y-133204587D01*
X102761552Y-133471435D01*
X102743000Y-133499200D01*
X102743000Y-131699000D01*
X102716944Y-131560523D01*
X102635104Y-131433340D01*
X102510230Y-131348017D01*
X102362000Y-131318000D01*
X99822000Y-131318000D01*
X99683523Y-131344056D01*
X99611944Y-131390116D01*
X99299914Y-131078086D01*
X99073305Y-130926670D01*
X98806000Y-130873500D01*
X92506841Y-130873500D01*
X92354236Y-130810133D01*
X92051094Y-130809868D01*
X91897094Y-130873500D01*
X89189328Y-130873500D01*
X85280500Y-126964672D01*
X85280500Y-124142500D01*
X96723159Y-124142500D01*
X96875764Y-124205867D01*
X97178906Y-124206132D01*
X97332906Y-124142500D01*
X97612159Y-124142500D01*
X97764764Y-124205867D01*
X98067906Y-124206132D01*
X98348074Y-124090368D01*
X98562615Y-123876202D01*
X98678867Y-123596236D01*
X98679132Y-123293094D01*
X98563368Y-123012926D01*
X98349202Y-122798385D01*
X98189106Y-122731907D01*
X100969513Y-119951500D01*
X102037766Y-119951500D01*
X102086770Y-119984983D01*
X102235000Y-120015000D01*
X102615907Y-120015000D01*
X102766906Y-120015132D01*
X102767225Y-120015000D01*
X103504901Y-120015000D01*
X103655900Y-120015132D01*
X103656219Y-120015000D01*
X104393907Y-120015000D01*
X104544906Y-120015132D01*
X104545225Y-120015000D01*
X105282903Y-120015000D01*
X105433902Y-120015132D01*
X105434221Y-120015000D01*
X105664000Y-120015000D01*
X105802477Y-119988944D01*
X105929660Y-119907104D01*
X106014983Y-119782230D01*
X106045000Y-119634000D01*
X106045000Y-119248517D01*
X106045128Y-119102094D01*
X106045000Y-119101784D01*
X106045000Y-118872000D01*
X106018944Y-118733523D01*
X106018157Y-118732300D01*
X107236840Y-118732300D01*
X107708700Y-119204160D01*
X107708700Y-126286840D01*
X104188840Y-129806700D01*
X101420254Y-129806700D01*
X101270202Y-129656385D01*
X100990236Y-129540133D01*
X100687094Y-129539868D01*
X100406926Y-129655632D01*
X100192385Y-129869798D01*
X100076133Y-130149764D01*
X100075868Y-130452906D01*
X100191632Y-130733074D01*
X100405798Y-130947615D01*
X100685764Y-131063867D01*
X100988906Y-131064132D01*
X101269074Y-130948368D01*
X101420407Y-130797300D01*
X104394000Y-130797300D01*
X104583544Y-130759598D01*
X104744230Y-130652230D01*
X108554230Y-126842230D01*
X108661598Y-126681543D01*
X108699300Y-126492000D01*
X108699300Y-118999000D01*
X108661598Y-118809457D01*
X108554230Y-118648770D01*
X107792230Y-117886770D01*
X107631544Y-117779402D01*
X107442000Y-117741700D01*
X104214254Y-117741700D01*
X104064202Y-117591385D01*
X103784236Y-117475133D01*
X103481094Y-117474868D01*
X103200926Y-117590632D01*
X102986385Y-117804798D01*
X102870133Y-118084764D01*
X102869868Y-118387906D01*
X102912466Y-118491000D01*
X102616093Y-118491000D01*
X102465094Y-118490868D01*
X102464775Y-118491000D01*
X102235000Y-118491000D01*
X102096523Y-118517056D01*
X102038333Y-118554500D01*
X100680185Y-118554500D01*
X100412881Y-118607670D01*
X100186271Y-118759086D01*
X96534086Y-122411271D01*
X96382670Y-122637880D01*
X96375949Y-122671670D01*
X96361263Y-122745500D01*
X85280500Y-122745500D01*
X85280500Y-115189000D01*
X86106000Y-115189000D01*
X86244477Y-115162944D01*
X86371660Y-115081104D01*
X86456983Y-114956230D01*
X86487000Y-114808000D01*
X86487000Y-112649000D01*
X86460944Y-112510523D01*
X86379104Y-112383340D01*
X86254230Y-112298017D01*
X86106000Y-112268000D01*
X83185000Y-112268000D01*
X83046523Y-112294056D01*
X82919340Y-112375896D01*
X82834017Y-112500770D01*
X82804000Y-112649000D01*
X81915000Y-112649000D01*
X81915000Y-109982000D01*
X99695000Y-109982000D01*
X99695000Y-114554000D01*
X99703685Y-114600159D01*
X99730965Y-114642553D01*
X99772590Y-114670994D01*
X99822000Y-114681000D01*
X104394000Y-114681000D01*
X104440159Y-114672315D01*
X104482553Y-114645035D01*
X104510994Y-114603410D01*
X104521000Y-114554000D01*
X104521000Y-109982000D01*
X104512315Y-109935841D01*
X104485035Y-109893447D01*
X104443410Y-109865006D01*
X104394000Y-109855000D01*
X99822000Y-109855000D01*
X99775841Y-109863685D01*
X99733447Y-109890965D01*
X99705006Y-109932590D01*
X99695000Y-109982000D01*
X81915000Y-109982000D01*
X81915000Y-102362000D01*
X82161039Y-102362000D01*
X82238983Y-102753853D01*
X82460950Y-103086050D01*
X82793147Y-103308017D01*
X83185000Y-103385961D01*
X83576853Y-103308017D01*
X83909050Y-103086050D01*
X84131017Y-102753853D01*
X84208961Y-102362000D01*
X111752039Y-102362000D01*
X111829983Y-102753853D01*
X112051950Y-103086050D01*
X112384147Y-103308017D01*
X112776000Y-103385961D01*
X113167853Y-103308017D01*
X113500050Y-103086050D01*
X113722017Y-102753853D01*
X113799961Y-102362000D01*
X113722017Y-101970147D01*
X113500050Y-101637950D01*
X113167853Y-101415983D01*
X112776000Y-101338039D01*
X112384147Y-101415983D01*
X112051950Y-101637950D01*
X111829983Y-101970147D01*
X111752039Y-102362000D01*
X84208961Y-102362000D01*
X84131017Y-101970147D01*
X83909050Y-101637950D01*
X83576853Y-101415983D01*
X83185000Y-101338039D01*
X82793147Y-101415983D01*
X82460950Y-101637950D01*
X82238983Y-101970147D01*
X82161039Y-102362000D01*
X81915000Y-102362000D01*
X81915000Y-97155000D01*
X82804000Y-97155000D01*
X82804000Y-100203000D01*
X82830056Y-100341477D01*
X82911896Y-100468660D01*
X83036770Y-100553983D01*
X83185000Y-100584000D01*
X85471000Y-100584000D01*
X85609477Y-100557944D01*
X85736660Y-100476104D01*
X85821983Y-100351230D01*
X85852000Y-100203000D01*
X85852000Y-98361500D01*
X105791000Y-98361500D01*
X106058305Y-98308330D01*
X106284914Y-98156914D01*
X108228359Y-96213469D01*
X108381074Y-96150368D01*
X108595615Y-95936202D01*
X108711867Y-95656236D01*
X108712132Y-95353094D01*
X108648500Y-95199094D01*
X108648500Y-94665841D01*
X108711867Y-94513236D01*
X108712132Y-94210094D01*
X108648500Y-94056094D01*
X108648500Y-93395841D01*
X108711867Y-93243236D01*
X108712132Y-92940094D01*
X108648500Y-92786094D01*
X108648500Y-92125841D01*
X108711867Y-91973236D01*
X108712111Y-91694000D01*
X109653000Y-91694000D01*
X109765049Y-92257310D01*
X110084139Y-92734861D01*
X110561690Y-93053951D01*
X111125000Y-93166000D01*
X111688310Y-93053951D01*
X112165861Y-92734861D01*
X112484951Y-92257310D01*
X112597000Y-91694000D01*
X112484951Y-91130690D01*
X112165861Y-90653139D01*
X111688310Y-90334049D01*
X111125000Y-90222000D01*
X110561690Y-90334049D01*
X110084139Y-90653139D01*
X109765049Y-91130690D01*
X109653000Y-91694000D01*
X108712111Y-91694000D01*
X108712132Y-91670094D01*
X108596368Y-91389926D01*
X108382202Y-91175385D01*
X108102236Y-91059133D01*
X107799094Y-91058868D01*
X107518926Y-91174632D01*
X107304385Y-91388798D01*
X107188133Y-91668764D01*
X107187868Y-91971906D01*
X107251500Y-92125906D01*
X107251500Y-92786159D01*
X107188133Y-92938764D01*
X107187868Y-93241906D01*
X107251500Y-93395906D01*
X107251500Y-94056159D01*
X107188133Y-94208764D01*
X107187868Y-94511906D01*
X107251500Y-94665906D01*
X107251500Y-95199159D01*
X107240485Y-95225687D01*
X105501672Y-96964500D01*
X85792468Y-96964500D01*
X85744104Y-96889340D01*
X85619230Y-96804017D01*
X85471000Y-96774000D01*
X83185000Y-96774000D01*
X83046523Y-96800056D01*
X82919340Y-96881896D01*
X82834017Y-97006770D01*
X82804000Y-97155000D01*
X81915000Y-97155000D01*
X81915000Y-90118000D01*
X101688527Y-90118000D01*
X101223632Y-90428632D01*
G36*
X85344000Y-100076000D02*
X83312000Y-100076000D01*
X83312000Y-97282000D01*
X85344000Y-97282000D01*
X85344000Y-100076000D01*
X85344000Y-100076000D01*
G37*
X85344000Y-100076000D02*
X83312000Y-100076000D01*
X83312000Y-97282000D01*
X85344000Y-97282000D01*
X85344000Y-100076000D01*
G36*
X85979000Y-114681000D02*
X83312000Y-114681000D01*
X83312000Y-112776000D01*
X85979000Y-112776000D01*
X85979000Y-114681000D01*
X85979000Y-114681000D01*
G37*
X85979000Y-114681000D02*
X83312000Y-114681000D01*
X83312000Y-112776000D01*
X85979000Y-112776000D01*
X85979000Y-114681000D01*
G36*
X105537000Y-119507000D02*
X102362000Y-119507000D01*
X102362000Y-118999000D01*
X105537000Y-118999000D01*
X105537000Y-119507000D01*
X105537000Y-119507000D01*
G37*
X105537000Y-119507000D02*
X102362000Y-119507000D01*
X102362000Y-118999000D01*
X105537000Y-118999000D01*
X105537000Y-119507000D01*
G36*
X102235000Y-134009959D02*
X102047876Y-133631290D01*
X101693953Y-133321419D01*
X101404984Y-133201736D01*
X101219000Y-133256545D01*
X101219000Y-134239000D01*
X101239000Y-134239000D01*
X101239000Y-134493000D01*
X101219000Y-134493000D01*
X101219000Y-134513000D01*
X100965000Y-134513000D01*
X100965000Y-134493000D01*
X100945000Y-134493000D01*
X100945000Y-134239000D01*
X100965000Y-134239000D01*
X100965000Y-133256545D01*
X100779016Y-133201736D01*
X100490047Y-133321419D01*
X100136124Y-133631290D01*
X99949000Y-134009959D01*
X99949000Y-131826000D01*
X102235000Y-131826000D01*
X102235000Y-134009959D01*
X102235000Y-134009959D01*
G37*
X102235000Y-134009959D02*
X102047876Y-133631290D01*
X101693953Y-133321419D01*
X101404984Y-133201736D01*
X101219000Y-133256545D01*
X101219000Y-134239000D01*
X101239000Y-134239000D01*
X101239000Y-134493000D01*
X101219000Y-134493000D01*
X101219000Y-134513000D01*
X100965000Y-134513000D01*
X100965000Y-134493000D01*
X100945000Y-134493000D01*
X100945000Y-134239000D01*
X100965000Y-134239000D01*
X100965000Y-133256545D01*
X100779016Y-133201736D01*
X100490047Y-133321419D01*
X100136124Y-133631290D01*
X99949000Y-134009959D01*
X99949000Y-131826000D01*
X102235000Y-131826000D01*
X102235000Y-134009959D01*
M02*
